<?xml version="1.0" standalone="no"?>
<!DOCTYPE svg PUBLIC "-//W3C//DTD SVG 1.1//EN" "http://www.w3.org/Graphics/SVG/1.1/DTD/svg11.dtd" >
<svg xmlns="http://www.w3.org/2000/svg" xmlns:xlink="http://www.w3.org/1999/xlink" version="1.1">
<metadata>
Created by FontForge 20170731 at Fri Jun 25 20:22:21 2010
 By Aleksey,,,
Copyright (c) The Font Bureau, Inc., 2006. All rights reserved.
</metadata>
<defs>
<font id="FordAntenna-Bold" horiz-adv-x="750" >
  <font-face 
    font-family="Ford Antenna Regular"
    font-weight="700"
    font-stretch="normal"
    units-per-em="1000"
    panose-1="2 0 5 5 0 0 0 2 0 4"
    ascent="800"
    descent="-200"
    x-height="566"
    cap-height="741"
    bbox="-95 -330 1725 1267"
    underline-thickness="50"
    underline-position="-200"
    unicode-range="U+0020-FB04"
  />
<missing-glyph horiz-adv-x="500" 
d="M0 0v700h500v-700h-500zM50 650v-600h400v600h-400z" />
    <glyph glyph-name="f_f" unicode="ff" horiz-adv-x="804" 
d="M492 0v432h-204v-432h-156v432h-107v134h107v27q0 102 47 151.5t167 49.5q39 0 75 -2v-128h-54q-46 0 -62.5 -17t-16.5 -53v-28h204v27q0 102 47 151.5t167 49.5q39 0 75 -2v-128h-54q-45 0 -61.5 -17t-16.5 -53v-28h132v-134h-132v-432h-157z" />
    <glyph glyph-name="fi" unicode="fi" horiz-adv-x="717" 
d="M25 432v134h107v27q0 102 47 151.5t167 49.5q39 0 75 -2v-128h-54q-46 0 -62.5 -17t-16.5 -53v-28h133v-134h-133v-432h-156v432h-107zM492 0v566h157v-566h-157zM491 618v143h159v-143h-159z" />
    <glyph glyph-name="fl" unicode="fl" horiz-adv-x="764" 
d="M25 432v134h107v27q0 102 47 151.5t167 49.5q39 0 75 -2v-128h-54q-46 0 -62.5 -17t-16.5 -53v-28h133v-134h-133v-432h-156v432h-107zM647 -2q-80 0 -117.5 38t-37.5 135v605h157v-586q0 -35 10.5 -47t44.5 -12h19v-129q-26 -4 -76 -4z" />
    <glyph glyph-name="f_f_i" unicode="ffi" horiz-adv-x="1077" 
d="M492 0v432h-204v-432h-156v432h-107v134h107v27q0 102 47 151.5t167 49.5q39 0 75 -2v-128h-54q-46 0 -62.5 -17t-16.5 -53v-28h204v27q0 102 47 151.5t167 49.5q39 0 75 -2v-128h-54q-45 0 -61.5 -17t-16.5 -53v-28h132v-134h-132v-432h-157zM852 0v566h157v-566h-157z
M851 618v143h159v-143h-159z" />
    <glyph glyph-name="f_f_l" unicode="ffl" horiz-adv-x="1125" 
d="M492 0v432h-204v-432h-156v432h-107v134h107v27q0 102 47 151.5t167 49.5q39 0 75 -2v-128h-54q-46 0 -62.5 -17t-16.5 -53v-28h204v27q0 102 47 151.5t167 49.5q39 0 75 -2v-128h-54q-45 0 -61.5 -17t-16.5 -53v-28h132v-134h-132v-432h-157zM1007 -2q-80 0 -117.5 38
t-37.5 135v605h157v-586q0 -35 10.5 -47t44.5 -12h19v-129q-24 -4 -76 -4z" />
    <glyph glyph-name="f_j" unicode="fj" horiz-adv-x="717" 
d="M25 432v134h107v27q0 102 47 151.5t167 49.5q39 0 75 -2v-128h-54q-46 0 -62.5 -17t-16.5 -53v-28h133v-134h-133v-432h-156v432h-107zM427 -169v119h13q34 0 43 13.5t9 59.5v543h157v-542q0 -115 -39 -154t-154 -39h-29zM491 618v143h159v-143h-159z" />
    <glyph glyph-name="f_t" unicode="ft" horiz-adv-x="823" 
d="M685 -2q-112 0 -154.5 40.5t-42.5 137.5v256h-200v-432h-156v432h-107v134h107v27q0 102 47 151.5t167 49.5q39 0 75 -2v-128h-54q-46 0 -62.5 -17t-16.5 -53v-28h207l27 138l122 25v-163h134v-134h-134v-233q0 -37 13.5 -52.5t60.5 -15.5h60v-131q-23 -2 -93 -2z" />
    <glyph glyph-name=".notdef" horiz-adv-x="500" 
d="M0 0v700h500v-700h-500zM50 650v-600h400v600h-400z" />
    <glyph glyph-name=".null" horiz-adv-x="0" 
 />
    <glyph glyph-name="nonmarkingreturn" horiz-adv-x="333" 
 />
    <glyph glyph-name="space" unicode=" " horiz-adv-x="215" 
 />
    <glyph glyph-name="exclam" unicode="!" horiz-adv-x="402" 
d="M109 0v176h182v-176h-182zM130 233l-15 508h172l-17 -508h-140z" />
    <glyph glyph-name="quotedbl" unicode="&#x22;" horiz-adv-x="578" 
d="M95 398l-10 343h163l-9 -343h-144zM339 398l-10 343h164l-10 -343h-144z" />
    <glyph glyph-name="numbersign" unicode="#" horiz-adv-x="802" 
d="M131 0l34 178h-109v136h135l16 88h-151v137h178l39 202h150l-40 -202h99l39 202h149l-38 -202h115v-137h-141l-16 -88h157v-136h-184l-34 -178h-150l34 178h-98l-34 -178h-150zM327 306h123l20 105h-123z" />
    <glyph glyph-name="dollar" unicode="$" horiz-adv-x="686" 
d="M273 -94v96q-148 14 -240 77l66 109q104 -64 235 -64q86 0 119 22.5t33 69.5q0 48 -33.5 66t-126.5 31q-41 6 -64.5 10.5t-58.5 14.5t-55.5 24.5t-41 35.5t-30 53t-9.5 73q0 99 51 151t155 63v74h144v-73q103 -10 184 -56l-67 -116q-32 20 -85.5 32.5t-103.5 12.5
q-73 0 -100 -19.5t-27 -59.5q0 -20 8 -34.5t18 -23t35.5 -16t44.5 -11t62 -10.5q47 -7 76 -13.5t66 -22t57.5 -36t35 -56t14.5 -82.5q0 -196 -218 -224v-98h-144z" />
    <glyph glyph-name="percent" unicode="%" horiz-adv-x="1247" 
d="M270 263q-116 0 -177 63.5t-61 181.5q0 116 61.5 180.5t176.5 64.5q113 0 174 -64.5t61 -180.5q0 -117 -61 -181t-174 -64zM270 380q95 0 95 128q0 124 -95 124q-98 0 -98 -124q0 -128 98 -128zM978 -9q-114 0 -175 64t-61 182q0 116 61 180.5t175 64.5
q113 0 174.5 -64.5t61.5 -180.5q0 -117 -61 -181.5t-175 -64.5zM978 108q96 0 96 129q0 123 -96 123t-96 -123q0 -129 96 -129zM343 0l414 742h146l-415 -742h-145z" />
    <glyph glyph-name="ampersand" unicode="&#x26;" horiz-adv-x="848" 
d="M323 -9q-148 0 -217.5 49t-69.5 168q0 77 40.5 127t110.5 84q-33 74 -33 141q0 96 55.5 144.5t153.5 48.5q97 0 146 -46.5t49 -146.5q0 -72 -44 -117.5t-120 -80.5q36 -45 76 -82q33 -32 63 -54q40 65 85 224l132 -31q-46 -174 -102 -263q55 -22 125 -22h7v-134h-13
q-136 0 -224 46q-85 -55 -220 -55zM323 114q57 0 99 15q-54 47 -74 67q-54 51 -96 111q-63 -41 -63 -97q0 -48 25.5 -72t108.5 -24zM302 560q0 -41 27 -97q93 43 93 97q0 33 -13 48.5t-46 15.5t-47 -15.5t-14 -48.5z" />
    <glyph glyph-name="quotesingle" unicode="'" horiz-adv-x="335" 
d="M95 398l-10 344h163l-9 -344h-144z" />
    <glyph glyph-name="parenleft" unicode="(" horiz-adv-x="521" 
d="M308 -192q-84 71 -146 199.5t-62 295.5q0 155 64 292t144 205l114 -73q-71 -78 -116 -177.5t-45 -245.5t48 -251.5t113 -171.5z" />
    <glyph glyph-name="parenright" unicode=")" horiz-adv-x="521" 
d="M212 -192l-112 73q71 79 115.5 177.5t44.5 244.5t-48 252.5t-112 171.5l112 73q84 -72 146.5 -200.5t62.5 -295.5q0 -155 -64 -291t-145 -205z" />
    <glyph glyph-name="asterisk" unicode="*" horiz-adv-x="609" 
d="M243 236l14 163l-139 -93l-62 112l152 70l-152 72l61 111l140 -94l-14 165h122l-14 -167l140 96l62 -110l-153 -73l153 -71l-61 -110l-141 94l13 -165h-121z" />
    <glyph glyph-name="plus" unicode="+" horiz-adv-x="722" 
d="M283 92v190h-190v141h190v189h156v-189h190v-141h-190v-190h-156z" />
    <glyph glyph-name="comma" unicode="," horiz-adv-x="293" 
d="M98 -156l-38 76q53 26 67 39t14 41h-86v180h182v-128q0 -92 -25 -131t-114 -77z" />
    <glyph glyph-name="hyphen" unicode="-" horiz-adv-x="425" 
d="M38 258v140h347v-140h-347z" />
    <glyph glyph-name="hyphen" unicode="&#xad;" horiz-adv-x="425" 
d="M38 258v140h347v-140h-347z" />
    <glyph glyph-name="period" unicode="." horiz-adv-x="293" 
d="M55 0v180h182v-180h-182z" />
    <glyph glyph-name="slash" unicode="/" horiz-adv-x="574" 
d="M0 0l414 741h160l-414 -741h-160z" />
    <glyph glyph-name="zero" unicode="0" horiz-adv-x="772" 
d="M387 -11q-174 0 -249.5 94.5t-75.5 287.5t75.5 287.5t249.5 94.5q171 0 247 -94.5t76 -287.5q0 -192 -76 -287t-247 -95zM387 125q92 0 126.5 60t34.5 186q0 125 -34.5 182t-126.5 57q-93 0 -128 -57t-35 -182t35 -185.5t128 -60.5z" />
    <glyph glyph-name="one" unicode="1" horiz-adv-x="415" 
d="M157 0v600h-126v141h280v-741h-154z" />
    <glyph glyph-name="two" unicode="2" horiz-adv-x="645" 
d="M33 0v123l242 209q92 79 121.5 116t29.5 82q0 46 -27 66t-100 20q-53 0 -109.5 -13.5t-91.5 -32.5l-71 121q64 33 126 47.5t162 14.5q136 0 201.5 -49t65.5 -159q0 -81 -39.5 -141t-134.5 -142l-153 -132h335v-130h-557z" />
    <glyph glyph-name="three" unicode="3" horiz-adv-x="650" 
d="M314 -12q-100 0 -171 19t-139 61l73 118q118 -67 229 -67q78 0 110 22.5t32 85.5q0 57 -32 79.5t-120 22.5h-130v132h128q76 0 104.5 17t28.5 65q0 44 -26 60t-98 16q-53 0 -109 -14.5t-92 -36.5l-80 115q113 70 296 70q133 0 198 -40.5t65 -137.5q0 -76 -20.5 -114.5
t-67.5 -55.5q58 -15 83 -57.5t25 -132.5q0 -127 -74 -177t-213 -50z" />
    <glyph glyph-name="four" unicode="4" horiz-adv-x="700" 
d="M34 152v117l325 472h168l-321 -463h208l32 211h110v-211h118v-126h-118v-152h-144v152h-378z" />
    <glyph glyph-name="five" unicode="5" horiz-adv-x="672" 
d="M333 -11q-172 0 -298 80l73 118q124 -68 221 -68q36 0 60 4t47 16t34.5 38t11.5 65q0 74 -38 99t-110 25q-82 0 -137 -26l-131 39l19 362h496v-134h-363l-8 -139q56 27 163 27q60 0 102.5 -9t82.5 -33.5t60.5 -76t20.5 -129.5q0 -80 -21.5 -132.5t-65.5 -79t-95 -36.5
t-124 -10z" />
    <glyph glyph-name="six" unicode="6" horiz-adv-x="729" 
d="M383 -11q-172 0 -248.5 81.5t-76.5 249.5q0 119 19.5 195t70.5 129t139 75t227 22h69v-134h-74q-79 0 -135 -10.5t-85.5 -24.5t-46.5 -40.5t-21 -45t-7 -52.5q50 68 221 68q137 0 193 -62t56 -187q0 -130 -70 -197t-231 -67zM384 117q86 0 116.5 32t30.5 98q0 65 -32 98
t-114 33q-164 0 -164 -123q0 -74 39.5 -106t123.5 -32z" />
    <glyph glyph-name="seven" unicode="7" horiz-adv-x="589" 
d="M130 0l262 607h-381v134h553v-114l-269 -627h-165z" />
    <glyph glyph-name="eight" unicode="8" horiz-adv-x="739" 
d="M369 -16q-170 0 -244.5 61.5t-74.5 163.5q0 158 119 197q-54 22 -74 60.5t-20 96.5q0 41 13 72.5t44 59.5t91 43t146 15t146.5 -15t91.5 -43t44 -60t13 -72q0 -122 -95 -157q121 -39 121 -197q0 -102 -75 -163.5t-246 -61.5zM369 110q162 0 162 112q0 56 -38 84.5
t-124 28.5t-123 -28.5t-37 -84.5q0 -55 37 -83.5t123 -28.5zM369 454q78 0 110 22.5t32 65.5t-32 64.5t-110 21.5t-109.5 -21.5t-31.5 -64.5q0 -44 31.5 -66t109.5 -22z" />
    <glyph glyph-name="nine" unicode="9" horiz-adv-x="729" 
d="M154 0v130h75q58 0 103.5 5.5t75.5 13.5t52 23t33 27t18 33.5t9 34.5t4 37q-50 -67 -221 -67q-136 0 -192.5 64t-56.5 185q0 131 70 199t231 68q172 0 248.5 -81.5t76.5 -249.5q0 -119 -19 -195t-70 -129t-139.5 -75.5t-227.5 -22.5h-70zM353 358q164 0 164 122
q0 74 -39.5 106t-122.5 32q-87 0 -117.5 -32t-30.5 -98q0 -64 32.5 -97t113.5 -33z" />
    <glyph glyph-name="colon" unicode=":" horiz-adv-x="313" 
d="M65 0v174h182v-174h-182zM65 392v174h182v-174h-182z" />
    <glyph glyph-name="semicolon" unicode=";" horiz-adv-x="313" 
d="M108 -156l-38 76q53 26 67 39t14 41h-86v174h182v-122q0 -85 -26 -128t-113 -80zM65 392v174h182v-174h-182z" />
    <glyph glyph-name="less" unicode="&#x3c;" horiz-adv-x="722" 
d="M572 63l-461 230v107l461 228v-141l-297 -140l297 -141v-143z" />
    <glyph glyph-name="equal" unicode="=" horiz-adv-x="722" 
d="M99 161v140h525v-140h-525zM99 404v139h525v-139h-525z" />
    <glyph glyph-name="greater" unicode="&#x3e;" horiz-adv-x="722" 
d="M150 63v143l298 139l-298 141v142l462 -229v-108z" />
    <glyph glyph-name="question" unicode="?" horiz-adv-x="702" 
d="M254 215q-15 100 10 144.5t112 82.5q64 29 82.5 47t18.5 53q0 37 -25 54t-102 17q-112 0 -212 -49l-66 130q118 59 290 59q143 0 210 -46t67 -151q0 -78 -33 -119t-105 -73q-70 -31 -84.5 -54.5t-9.5 -94.5h-153zM239 0v157h182v-157h-182z" />
    <glyph glyph-name="at" unicode="@" horiz-adv-x="1063" 
d="M548 -165q-240 0 -359.5 106t-119.5 350q0 125 33.5 216t96.5 144t145 78t186 25q465 0 465 -463q0 -153 -40.5 -207.5t-154.5 -54.5q-76 0 -108.5 20.5t-41.5 55.5q-24 -35 -63 -52t-115 -17q-118 0 -166.5 70t-48.5 191q0 259 223 259q72 0 106.5 -14t54.5 -47l35 53
l92 -8v-360q1 -37 13.5 -55t51.5 -18q51 0 63.5 36t12.5 148q0 205 -96.5 293t-282.5 88q-179 0 -277 -89t-98 -292q0 -199 99.5 -286.5t292.5 -87.5q151 0 263 55l36 -73q-128 -64 -298 -64zM507 153q65 0 94 35t29 109q0 73 -27 103.5t-96 30.5q-61 0 -85.5 -34.5
t-24.5 -99.5q0 -144 110 -144z" />
    <glyph glyph-name="A" unicode="A" horiz-adv-x="790" 
d="M14 0l297 746h166l299 -746h-170l-48 122h-336l-48 -122h-160zM274 257h232l-116 295z" />
    <glyph glyph-name="B" unicode="B" horiz-adv-x="755" 
d="M74 0v741h344q148 0 214.5 -44.5t66.5 -146.5q0 -129 -99 -164q64 -15 91.5 -58.5t27.5 -123.5q0 -116 -72.5 -160t-230.5 -44h-342zM235 136h200q63 0 90.5 19t27.5 65t-27 64.5t-91 18.5h-200v-167zM235 445h189q62 0 85.5 19.5t23.5 61.5q0 40 -24 58t-85 18h-189
v-157z" />
    <glyph glyph-name="C" unicode="C" horiz-adv-x="759" 
d="M415 -11q-202 0 -291.5 96t-89.5 286q0 382 391 382q186 0 291 -107l-113 -113q-72 70 -179 70q-117 0 -171 -58.5t-54 -175.5t51.5 -175.5t174.5 -58.5q66 0 107 18.5t81 56.5l108 -106q-52 -54 -121.5 -84.5t-184.5 -30.5z" />
    <glyph glyph-name="D" unicode="D" horiz-adv-x="786" 
d="M74 0v741h266q114 0 188.5 -16.5t127 -58.5t75 -113.5t22.5 -181.5q0 -108 -23.5 -179.5t-76 -114t-128.5 -60t-189 -17.5h-262zM238 143h107q76 0 123 11.5t74 40.5t36.5 69.5t9.5 106.5q0 67 -8.5 106t-35 67.5t-74.5 39t-128 10.5h-104v-451z" />
    <glyph glyph-name="E" unicode="E" horiz-adv-x="687" 
d="M74 0v741h557v-148h-393v-144h383v-143h-383v-164h397v-142h-561z" />
    <glyph glyph-name="F" unicode="F" horiz-adv-x="652" 
d="M74 0v741h539v-148h-375v-159h365v-146h-365v-288h-164z" />
    <glyph glyph-name="G" unicode="G" horiz-adv-x="799" 
d="M413 -11q-109 0 -183.5 24.5t-117 75t-60.5 118.5t-18 164q0 197 99 289.5t291 92.5q198 0 300 -105l-112 -113q-72 68 -189 68q-119 0 -172 -58t-53 -176q0 -128 47 -185t176 -57q105 0 145.5 35.5t40.5 116.5v16h-207v136h369v-121q0 -165 -79.5 -243t-276.5 -78z" />
    <glyph glyph-name="H" unicode="H" horiz-adv-x="815" 
d="M74 0v741h164v-284h339v284h164v-741h-164v304h-339v-304h-164z" />
    <glyph glyph-name="I" unicode="I" horiz-adv-x="333" 
d="M85 0v741h163v-741h-163z" />
    <glyph glyph-name="J" unicode="J" horiz-adv-x="455" 
d="M131 -2q-75 0 -109 2v142h89q63 0 87 22t24 76v501h163v-507q0 -68 -18 -115.5t-53.5 -73t-79.5 -36.5t-103 -11z" />
    <glyph glyph-name="K" unicode="K" horiz-adv-x="760" 
d="M549 0l-208 323l-105 -124v-199h-162v741h162v-335l281 335h181l-251 -293l287 -448h-185z" />
    <glyph glyph-name="L" unicode="L" horiz-adv-x="617" 
d="M74 0v741h164v-599h364v-142h-528z" />
    <glyph glyph-name="M" unicode="M" horiz-adv-x="978" 
d="M74 0v741h214l201 -506l201 506h213v-741h-160v495l-199 -495h-124l-198 492v-492h-148z" />
    <glyph glyph-name="N" unicode="N" horiz-adv-x="823" 
d="M74 0v741h177l341 -467v467h156v-741h-150l-367 500v-500h-157z" />
    <glyph glyph-name="O" unicode="O" horiz-adv-x="853" 
d="M426 -12q-392 0 -392 383q0 382 392 382q393 0 393 -382q0 -383 -393 -383zM426 132q122 0 174.5 60.5t52.5 175.5t-52.5 175t-174.5 60t-174.5 -60t-52.5 -175t52.5 -175.5t174.5 -60.5z" />
    <glyph glyph-name="P" unicode="P" horiz-adv-x="760" 
d="M74 0v741h356q163 0 229.5 -63t66.5 -185q0 -60 -14 -106t-47.5 -83.5t-94.5 -57t-148 -19.5h-188v-227h-160zM234 367h195q71 0 102 27t31 91q0 66 -30.5 91t-104.5 25h-193v-234z" />
    <glyph glyph-name="Q" unicode="Q" horiz-adv-x="853" 
d="M548 -198q-100 0 -153 21t-71.5 63.5t-14.5 119.5q-134 23 -204.5 110.5t-70.5 254.5q0 382 392 382q393 0 393 -382q0 -190 -91.5 -277.5t-262.5 -95.5q-1 -39 14.5 -51t67.5 -12h95v-131q-40 -2 -94 -2zM426 132q124 0 175.5 60t51.5 176t-51.5 175.5t-175.5 59.5
t-175.5 -59.5t-51.5 -175.5t51.5 -176t175.5 -60z" />
    <glyph glyph-name="R" unicode="R" horiz-adv-x="772" 
d="M537 0l-137 246h-166v-246h-160v741h358q85 0 143 -17t89 -51t44 -75.5t13 -98.5q0 -186 -156 -235l147 -264h-175zM234 387h193q69 0 99 22.5t30 83.5q0 63 -29.5 85.5t-101.5 22.5h-191v-214z" />
    <glyph glyph-name="S" unicode="S" horiz-adv-x="741" 
d="M375 -11q-222 0 -353 97l82 118q118 -79 266 -79q104 0 138 20.5t34 69.5q0 42 -39 58.5t-137 30.5q-82 12 -132 25t-91.5 37.5t-59.5 64t-18 98.5q0 121 74.5 172.5t234.5 51.5q190 0 300 -73l-88 -127q-37 24 -96.5 40.5t-117.5 16.5q-84 0 -114 -17.5t-30 -59.5
q0 -18 8 -31t20 -21t38 -15t48.5 -11t64.5 -10q62 -9 100.5 -17t80 -24t64 -38t37.5 -58t15 -85q0 -118 -75 -176t-254 -58z" />
    <glyph glyph-name="T" unicode="T" horiz-adv-x="706" 
d="M271 0v593h-257v148h678v-148h-256v-593h-165z" />
    <glyph glyph-name="U" unicode="U" horiz-adv-x="816" 
d="M408 -14q-65 0 -117 9.5t-87 24.5t-60.5 38.5t-39.5 47.5t-22.5 56.5t-10.5 59t-2 61.5v458h164v-437q0 -90 35.5 -131.5t141.5 -41.5t142 40.5t36 132.5v437h159v-458q0 -50 -5 -86t-25 -79t-55 -69.5t-99.5 -44.5t-154.5 -18z" />
    <glyph glyph-name="V" unicode="V" horiz-adv-x="781" 
d="M308 -5l-293 746h172l207 -542l206 542h169l-295 -746h-166z" />
    <glyph glyph-name="W" unicode="W" horiz-adv-x="1082" 
d="M245 -5l-226 746h171l138 -476l144 476h148l145 -476l138 476h160l-225 -746h-145l-152 498l-152 -498h-144z" />
    <glyph glyph-name="X" unicode="X" horiz-adv-x="781" 
d="M569 0l-186 267l-176 -267h-181l272 389l-244 352h184l159 -228l150 228h181l-247 -349l274 -392h-186z" />
    <glyph glyph-name="Y" unicode="Y" horiz-adv-x="760" 
d="M298 0v260l-295 481h176l204 -334l204 334h169l-295 -481v-260h-163z" />
    <glyph glyph-name="Z" unicode="Z" horiz-adv-x="692" 
d="M32 0v122l407 471h-390v148h597v-134l-401 -465h412v-142h-625z" />
    <glyph glyph-name="bracketleft" unicode="[" horiz-adv-x="516" 
d="M109 -165v941h320v-135h-161v-675h164v-131h-323z" />
    <glyph glyph-name="backslash" unicode="\" horiz-adv-x="574" 
d="M414 0l-414 741h160l414 -741h-160z" />
    <glyph glyph-name="bracketright" unicode="]" horiz-adv-x="516" 
d="M84 -165v131h163v675h-161v135h320v-941h-322z" />
    <glyph glyph-name="asciicircum" unicode="^" horiz-adv-x="590" 
d="M59 552l155 183h162l155 -183h-147l-91 86l-90 -86h-144z" />
    <glyph glyph-name="underscore" unicode="_" horiz-adv-x="453" 
d="M-37 -157v117h527v-117h-527z" />
    <glyph glyph-name="grave" unicode="`" horiz-adv-x="590" 
d="M259 620l-191 183h189l141 -183h-139z" />
    <glyph glyph-name="a" unicode="a" horiz-adv-x="645" 
d="M238 -9q-122 0 -167.5 45.5t-45.5 129.5q0 116 83 157t280 41h23q-1 42 -22 59.5t-90 17.5q-90 0 -164 -46l-78 115q38 25 108.5 47t150.5 22q101 0 154.5 -24t72.5 -70t19 -131v-172q0 -35 7.5 -43.5t41.5 -8.5v-128q-15 -4 -66 -4q-46 0 -69 11.5t-39 44.5
q-47 -63 -199 -63zM269 117q74 0 108 28t34 90v21h-13q-101 0 -148 -7t-61.5 -22t-14.5 -48t21 -47.5t74 -14.5z" />
    <glyph glyph-name="b" unicode="b" horiz-adv-x="681" 
d="M394 -9q-148 0 -196 58l-31 -55l-105 11v771h156v-251q46 54 185 54q71 0 120 -22.5t75 -64.5t37 -92t11 -116q0 -65 -11.5 -115t-39 -92t-78 -64t-123.5 -22zM364 123q71 0 97 40t26 115q0 77 -25.5 117.5t-97.5 40.5q-79 0 -112 -37.5t-33 -120.5q0 -84 31 -119.5
t114 -35.5z" />
    <glyph glyph-name="c" unicode="c" horiz-adv-x="587" 
d="M325 -9q-85 0 -143.5 21.5t-89.5 63.5t-44 91.5t-13 116.5t12.5 116.5t44 92t92 64.5t148.5 22q148 0 230 -92l-110 -104q-50 52 -120 52q-79 0 -109 -39t-30 -116q0 -78 29.5 -117.5t110.5 -39.5q70 0 128 55l100 -96q-53 -49 -104 -70t-132 -21z" />
    <glyph glyph-name="d" unicode="d" horiz-adv-x="681" 
d="M281 -11q-71 0 -120.5 23t-76 65.5t-38 93t-11.5 115.5t12 115t39 91.5t77.5 64t122.5 22.5q134 0 176 -53v250h157v-770l-120 -11l-16 57q-54 -63 -202 -63zM318 124q79 0 111.5 39t32.5 123q0 83 -30.5 117.5t-113.5 34.5q-72 0 -98 -38.5t-26 -113.5q0 -78 26.5 -120
t97.5 -42z" />
    <glyph glyph-name="e" unicode="e" horiz-adv-x="619" 
d="M330 -11q-89 0 -149 22.5t-91 65.5t-43 92t-12 115q0 51 7 92t27 80t52 65t85 42t123 16q61 0 105.5 -13t71.5 -37t44.5 -57t23 -72t8 -84t-0.5 -92h-394q7 -54 39 -81t104 -27q108 0 178 52l79 -102q-55 -41 -114 -59t-143 -18zM324 448q-69 0 -100 -28t-37 -84h251
q-4 57 -25.5 84.5t-88.5 27.5z" />
    <glyph glyph-name="f" unicode="f" horiz-adv-x="444" 
d="M25 432v134h107v27q0 102 47 151.5t167 49.5q39 0 75 -2v-128h-54q-46 0 -62.5 -17t-16.5 -53v-28h133v-134h-133v-432h-156v432h-107z" />
    <glyph glyph-name="g" unicode="g" horiz-adv-x="652" 
d="M313 208q-41 0 -75 3q-5 -10 -5 -20q0 -20 17.5 -25.5t75.5 -5.5q174 0 233.5 -32t59.5 -123q0 -100 -74 -142t-234 -42q-168 0 -231 27.5t-63 110.5q0 102 111 127q-34 24 -34 80q0 48 28 79q-73 42 -73 142q0 95 63.5 143.5t200.5 48.5q20 0 31 -1l252 50v-119h-81
q63 -34 63 -122q0 -93 -63.5 -136t-201.5 -43zM317 -71q82 0 112 15.5t30 49.5q0 31 -29.5 41.5t-112.5 10.5q-88 0 -115 -13.5t-27 -45.5t29.5 -45t112.5 -13zM313 312q62 0 86.5 17.5t24.5 55.5t-25 55.5t-86 17.5q-62 0 -86.5 -17.5t-24.5 -55.5t24.5 -55.5t86.5 -17.5z
" />
    <glyph glyph-name="h" unicode="h" horiz-adv-x="664" 
d="M62 0v776h156v-248q47 51 184 51q62 0 103.5 -16.5t62.5 -49.5t29 -73t8 -97v-343h-156v312q0 61 -19 90t-84 29q-76 0 -101.5 -31t-25.5 -95v-305h-157z" />
    <glyph glyph-name="i" unicode="i" horiz-adv-x="293" 
d="M68 0v566h156v-566h-156zM67 618v143h158v-143h-158z" />
    <glyph glyph-name="j" unicode="j" horiz-adv-x="293" 
d="M3 -169v119h12q35 0 44 13.5t9 59.5v543h156v-542q0 -115 -38.5 -154t-153.5 -39h-29zM67 618v143h158v-143h-158z" />
    <glyph glyph-name="k" unicode="k" horiz-adv-x="605" 
d="M62 0v776h155v-444l193 234h171l-190 -231l207 -335h-174l-139 218l-68 -81v-137h-155z" />
    <glyph glyph-name="l" unicode="l" horiz-adv-x="341" 
d="M223 -2q-80 0 -117.5 38t-37.5 135v605h156v-586q0 -35 10.5 -47t45.5 -12h19v-129q-26 -4 -76 -4z" />
    <glyph glyph-name="m" unicode="m" horiz-adv-x="1027" 
d="M62 0v557l122 9l13 -49q46 62 199 62q84 0 116.5 -15.5t48.5 -48.5q50 64 210 64q62 0 102.5 -16t61 -50t27.5 -73t7 -97v-343h-158v312q0 33 -2 49t-10.5 35.5t-29 27t-54.5 7.5q-75 0 -98 -30.5t-23 -95.5v-305h-157v312q0 32 -2 48.5t-10.5 35.5t-29.5 27t-55 8
q-75 0 -98 -30.5t-23 -95.5v-305h-157z" />
    <glyph glyph-name="n" unicode="n" horiz-adv-x="664" 
d="M62 0v557l122 9l13 -49q56 62 205 62q62 0 103.5 -16.5t62.5 -49.5t29 -73t8 -97v-343h-156v312q0 61 -19 90t-84 29q-76 0 -101.5 -31t-25.5 -95v-305h-157z" />
    <glyph glyph-name="o" unicode="o" horiz-adv-x="661" 
d="M331 -11q-156 0 -226 74t-70 221t70 221t226 74t225.5 -74t69.5 -221t-69.5 -221t-225.5 -74zM331 123q77 0 107.5 39.5t30.5 117.5q0 77 -30.5 116.5t-107.5 39.5t-107.5 -39t-30.5 -117t30.5 -117.5t107.5 -39.5z" />
    <glyph glyph-name="p" unicode="p" horiz-adv-x="681" 
d="M62 -165v722l122 9l13 -50q53 63 207 63q70 0 119 -22.5t75 -64.5t37 -92t11 -116q0 -65 -11.5 -115t-38.5 -92t-77.5 -64t-123.5 -22q-134 0 -176 53v-209h-157zM364 124q71 0 97 39.5t26 114.5q0 77 -25.5 117.5t-97.5 40.5q-79 0 -112 -37.5t-33 -120.5q0 -84 31 -119
t114 -35z" />
    <glyph glyph-name="q" unicode="q" horiz-adv-x="681" 
d="M462 -165v205q-50 -51 -181 -51q-71 0 -120.5 22.5t-76 65t-38 93t-11.5 115.5q0 136 56.5 215t194.5 79q147 0 197 -58l31 48l105 -9v-725h-157zM318 124q79 0 111.5 38.5t32.5 122.5t-30.5 118.5t-113.5 34.5q-72 0 -98 -38.5t-26 -114.5q0 -77 26.5 -119t97.5 -42z
" />
    <glyph glyph-name="r" unicode="r" horiz-adv-x="404" 
d="M62 0v557l122 9l16 -62q19 28 68 47t113 21v-150q-94 -1 -128 -35.5t-34 -106.5v-280h-157z" />
    <glyph glyph-name="s" unicode="s" horiz-adv-x="573" 
d="M280 -9q-164 0 -270 71l80 115q92 -59 200 -59q60 0 81 9t21 38q0 24 -20 33t-80 17q-36 5 -58 8.5t-51.5 11t-47 15.5t-37 22t-29.5 31.5t-17 42.5t-7 56q0 89 58 133t189 44q147 0 239 -52l-75 -122q-70 37 -159 37q-57 0 -76.5 -9.5t-19.5 -31.5q0 -23 18 -32t75 -17
q45 -6 69.5 -10.5t59 -13t52 -20t36.5 -29.5t26.5 -44.5t7.5 -60.5q0 -98 -60 -140.5t-205 -42.5z" />
    <glyph glyph-name="t" unicode="t" horiz-adv-x="453" 
d="M25 432v134h100l27 138l122 25v-163h134v-134h-134v-233q0 -37 13 -52.5t60 -15.5h61v-131q-23 -2 -93 -2q-112 0 -154.5 40.5t-42.5 137.5v256h-93z" />
    <glyph glyph-name="u" unicode="u" horiz-adv-x="656" 
d="M329 -9q-157 0 -213.5 61t-56.5 212v302h157v-305q0 -30 1 -45t7 -35.5t17.5 -30t33.5 -16.5t55 -7q32 0 54 7t33.5 17t17.5 30t7 35.5t1 45.5v304h154v-301q0 -76 -11.5 -125t-41.5 -84t-82 -50t-133 -15z" />
    <glyph glyph-name="v" unicode="v" horiz-adv-x="613" 
d="M224 -6l-225 572h169l143 -384l143 384h159l-225 -572h-164z" />
    <glyph glyph-name="w" unicode="w" horiz-adv-x="920" 
d="M194 -6l-185 572h165l104 -345l108 345h155l108 -344l104 344h158l-184 -572h-150l-117 364l-117 -364h-149z" />
    <glyph glyph-name="x" unicode="x" horiz-adv-x="599" 
d="M418 0l-127 182l-121 -182h-165l207 296l-188 270h175l109 -157l103 157h165l-188 -271l206 -295h-176z" />
    <glyph glyph-name="y" unicode="y" horiz-adv-x="584" 
d="M134 -170q-22 0 -56 2v118h42q46 0 63 8.5t25 33.5l7 21l-216 553h169l131 -360l127 360h159l-227 -591q-30 -81 -77 -113t-147 -32z" />
    <glyph glyph-name="z" unicode="z" horiz-adv-x="540" 
d="M20 0v105l281 327h-265v134h476v-107l-283 -333h294v-126h-503z" />
    <glyph glyph-name="braceleft" unicode="{" horiz-adv-x="553" 
d="M342 -165q-102 0 -149 35t-47 106q0 33 25 116t25 103q0 30 -25.5 38t-102.5 8v128q77 0 102.5 8t25.5 39q0 20 -25 103t-25 116q0 71 47 106t149 35h127v-135h-89q-41 0 -56.5 -10.5t-15.5 -39.5q0 -13 22.5 -91t22.5 -112q0 -63 -67 -82q67 -20 67 -83
q0 -33 -22.5 -113.5t-22.5 -93.5q0 -29 15.5 -39.5t56.5 -10.5h89v-131h-127z" />
    <glyph glyph-name="bar" unicode="|" horiz-adv-x="378" 
d="M109 -165v941h159v-941h-159z" />
    <glyph glyph-name="braceright" unicode="}" horiz-adv-x="553" 
d="M84 -165v131h90q41 0 56.5 10.5t15.5 39.5q0 13 -23 93.5t-23 113.5q0 63 67 83q-67 19 -67 82q0 34 23 112t23 91q0 29 -15.5 39.5t-56.5 10.5h-90v135h127q102 0 149.5 -35t47.5 -106q0 -33 -25.5 -116t-25.5 -103q0 -30 25.5 -38t102.5 -8v-128q-77 0 -102.5 -8
t-25.5 -39q0 -20 25.5 -103t25.5 -116q0 -71 -47.5 -106t-149.5 -35h-127z" />
    <glyph glyph-name="asciitilde" unicode="~" horiz-adv-x="590" 
d="M142 368l-87 71q87 108 168 108q38 0 78 -27t60 -27q35 0 84 59l87 -71q-89 -110 -168 -110q-36 0 -76.5 27t-61.5 27q-38 0 -84 -57z" />
    <glyph glyph-name="uni00A0" unicode="&#xa0;" horiz-adv-x="215" 
 />
    <glyph glyph-name="exclamdown" unicode="&#xa1;" horiz-adv-x="402" 
d="M115 0l16 508h140l16 -508h-172zM110 565v176h182v-176h-182z" />
    <glyph glyph-name="cent" unicode="&#xa2;" horiz-adv-x="590" 
d="M249 -94v93q-61 9 -103.5 34t-65.5 64t-32.5 84t-9.5 103q0 119 46 192.5t165 92.5v69h149v-68q98 -16 159 -83l-105 -100q-49 51 -120 51q-79 0 -110.5 -40t-31.5 -118t31.5 -119t111.5 -41q72 0 128 53l95 -91q-78 -70 -158 -82v-94h-149z" />
    <glyph glyph-name="sterling" unicode="&#xa3;" horiz-adv-x="672" 
d="M429 -7q-100 0 -194 52q-68 -45 -207 -45v127q50 0 78.5 4.5t41.5 17t16 26t3 41.5q0 29 -20 102h-122v120h88q-16 68 -16 108q0 99 59 153.5t201 54.5q124 0 225 -40l-60 -130q-67 30 -169 30q-59 0 -80 -22.5t-21 -67.5q0 -32 13 -86h186v-120h-157q14 -63 14 -98
q0 -41 -7 -70q64 -26 124 -26q50 0 65.5 19t15.5 70v29h136v-35q0 -118 -49.5 -166t-163.5 -48z" />
    <glyph glyph-name="yen" unicode="&#xa5;" horiz-adv-x="683" 
d="M74 229v110h183l-248 402h167l165 -282l166 282h166l-248 -402h182v-110h-189v-58h189v-110h-189v-61h-155v61h-189v110h189v58h-189z" />
    <glyph glyph-name="brokenbar" unicode="&#xa6;" horiz-adv-x="378" 
d="M109 -165v392h159v-392h-159zM109 384v392h159v-392h-159z" />
    <glyph glyph-name="section" unicode="&#xa7;" horiz-adv-x="606" 
d="M166 -5q-37 0 -75 2v122h55q49 0 63.5 16t14.5 54v19q-162 22 -162 159q0 136 157 161v16q0 48 8 80.5t29.5 62t66 44t111.5 14.5q37 0 75 -2v-128h-55q-50 0 -64.5 -16t-14.5 -54v-16q169 -22 169 -162q0 -137 -163 -159v-12q0 -48 -8 -80.5t-29.5 -62t-66 -44
t-111.5 -14.5zM302 302q63 0 89.5 14.5t26.5 46.5q0 33 -26.5 47t-89.5 14q-62 0 -88 -14t-26 -47q0 -32 26 -46.5t88 -14.5z" />
    <glyph glyph-name="dieresis" unicode="&#xa8;" horiz-adv-x="590" 
d="M111 625v136h142v-136h-142zM338 625v136h141v-136h-141z" />
    <glyph glyph-name="copyright" unicode="&#xa9;" horiz-adv-x="809" 
d="M412 133q-242 0 -242 243q0 123 66 183t182 60q118 0 184 -68l-71 -71q-44 44 -114 44q-143 0 -143 -149q0 -150 144 -150q69 0 119 47l68 -66q-71 -73 -193 -73zM404 -12q-179 0 -275 106.5t-96 276.5t96 276.5t275 106.5t275.5 -107t96.5 -276t-96.5 -276t-275.5 -107z
M404 45q81 0 142 25t97.5 70t54 103t17.5 128t-17.5 128t-54 103t-97.5 70t-142 25q-159 0 -235 -89.5t-76 -236.5t76 -236.5t235 -89.5z" />
    <glyph glyph-name="ordfeminine" unicode="&#xaa;" horiz-adv-x="617" 
d="M221 276q-90 0 -126.5 38t-36.5 104q0 94 68.5 128.5t226.5 34.5h17q-2 33 -18.5 46t-70.5 13q-73 0 -132 -37l-64 94q31 20 88 37.5t122 17.5q119 0 158.5 -40t39.5 -142v-137q0 -28 7 -35.5t34 -7.5v-106q-30 -3 -53 -3q-42 0 -64.5 11t-31.5 42q-19 -31 -53.5 -44.5
t-110.5 -13.5zM102 116v111h391v-111h-391zM255 379q59 0 87 22.5t28 72.5v19h-9q-79 0 -117.5 -6t-51 -19t-12.5 -39t16.5 -38t58.5 -12z" />
    <glyph glyph-name="guillemotleft" unicode="&#xab;" horiz-adv-x="767" 
d="M251 0l-151 282l151 284h137l-139 -284l139 -282h-137zM501 0l-151 282l151 284h138l-139 -284l139 -282h-138z" />
    <glyph glyph-name="logicalnot" unicode="&#xac;" horiz-adv-x="722" 
d="M93 423h536v-331h-156v190h-380v141z" />
    <glyph glyph-name="registered" unicode="&#xae;" horiz-adv-x="809" 
d="M404 -12q-179 0 -275 106.5t-96 276.5t96 276.5t275 106.5t275.5 -107t96.5 -276t-96.5 -276t-275.5 -107zM404 45q81 0 142 25t97.5 70t54 103t17.5 128t-17.5 128t-54 103t-97.5 70t-142 25q-159 0 -235 -89.5t-76 -236.5t76 -236.5t235 -89.5zM506 142l-86 157h-105
v-157h-95v455h217q104 0 139.5 -36.5t35.5 -110.5q0 -55 -20 -91t-75 -51l92 -166h-103zM315 381h119q46 0 63 13.5t17 52.5t-17.5 52.5t-63.5 13.5h-118v-132z" />
    <glyph glyph-name="macron" unicode="&#xaf;" horiz-adv-x="590" 
d="M85 610v125h420v-125h-420z" />
    <glyph glyph-name="macron" unicode="&#x304;" horiz-adv-x="590" 
d="M85 610v125h420v-125h-420z" />
    <glyph glyph-name="degree" unicode="&#xb0;" horiz-adv-x="569" 
d="M284 267q-120 0 -180 68t-60 175t60 175t180 68t180.5 -68t60.5 -175t-60.5 -175t-180.5 -68zM284 381q116 0 116 125t-116 125q-115 0 -115 -125t115 -125z" />
    <glyph glyph-name="plusminus" unicode="&#xb1;" horiz-adv-x="722" 
d="M93 6v140h190v136h-190v141h190v189h156v-189h190v-141h-190v-136h190v-140h-536z" />
    <glyph glyph-name="two.superior" unicode="&#xb2;" horiz-adv-x="513" 
d="M62 254v84l155 133q64 55 80.5 75.5t16.5 49.5q0 26 -17.5 38.5t-63.5 12.5q-71 0 -125 -30l-54 91q79 41 195 41q92 0 138 -32.5t46 -106.5q0 -54 -26.5 -92t-94.5 -96l-79 -71h204v-97h-375z" />
    <glyph glyph-name="threesuperior" unicode="&#xb3;" horiz-adv-x="525" 
d="M255 248q-126 0 -212 55l60 86q68 -40 140 -40q52 0 71.5 12.5t19.5 49.5q0 33 -20 44.5t-78 11.5h-86v95h84q51 0 68.5 7.5t17.5 34.5q0 25 -17 33.5t-63 8.5q-78 0 -133 -33l-56 90q75 47 207 47q98 0 141 -29t43 -89q0 -84 -62 -108q75 -22 75 -127q0 -78 -49 -113.5
t-151 -35.5z" />
    <glyph glyph-name="acute" unicode="&#xb4;" horiz-adv-x="590" 
d="M192 620l141 183h189l-191 -183h-139z" />
    <glyph glyph-name="mu" unicode="&#xb5;" horiz-adv-x="666" 
d="M268 -11q-32 0 -62 5v-159h-144v731h157v-317q0 -63 20 -92.5t82 -29.5q75 0 99.5 31.5t24.5 96.5v311h158v-560l-120 -11l-15 57q-54 -63 -200 -63z" />
    <glyph glyph-name="paragraph" unicode="&#xb6;" horiz-adv-x="679" 
d="M225 0v249q-104 21 -142.5 81.5t-38.5 162.5q0 61 12.5 103.5t44.5 77t91 51t148 16.5h261v-741h-147v239h-82v-239h-147zM335 364h119v241h-117q-77 0 -106 -25.5t-29 -94.5q0 -67 29.5 -94t103.5 -27z" />
    <glyph glyph-name="periodcentered" unicode="&#xb7;" horiz-adv-x="293" 
d="M55 274v184h182v-184h-182z" />
    <glyph glyph-name="periodcentered" unicode="&#x2219;" horiz-adv-x="293" 
d="M55 274v184h182v-184h-182z" />
    <glyph glyph-name="cedilla" unicode="&#xb8;" horiz-adv-x="590" 
d="M295 -249q-75 0 -134 33l39 73q48 -24 89 -24q35 0 49 9.5t14 31.5q0 17 -11.5 25.5t-31 10t-45.5 -0.5l-30 19l17 79h88l-9 -49q28 1 46.5 -1.5t38.5 -11t30 -29t10 -53.5q0 -61 -41 -86.5t-119 -25.5z" />
    <glyph glyph-name="one.superior" unicode="&#xb9;" horiz-adv-x="375" 
d="M144 254v382h-84v105h207v-487h-123z" />
    <glyph glyph-name="ordmasculine" unicode="&#xba;" horiz-adv-x="611" 
d="M306 276q-125 0 -182.5 60.5t-57.5 178.5t57.5 178t182.5 60q124 0 181.5 -60t57.5 -178t-58 -178.5t-181 -60.5zM306 386q110 0 110 125t-110 125t-110 -125t110 -125zM95 114v112h421v-112h-421z" />
    <glyph glyph-name="guillemotright" unicode="&#xbb;" horiz-adv-x="767" 
d="M129 0l139 283l-139 283h137l151 -283l-151 -283h-137zM378 0l139 283l-139 283h138l151 -283l-151 -283h-138z" />
    <glyph glyph-name="onequarter" unicode="&#xbc;" horiz-adv-x="1043" 
d="M823 0v90h-245v87l217 309h133l-211 -300h108l23 102h91v-102h74v-96h-74v-90h-116zM122 255v381h-84v105h211v-486h-127zM211 0l415 741h137l-414 -741h-138z" />
    <glyph glyph-name="onehalf" unicode="&#xbd;" horiz-adv-x="1094" 
d="M660 0v85l154 132q66 56 82 75t16 47q0 26 -17.5 38.5t-63.5 12.5q-71 0 -125 -30l-55 91q80 41 196 41q92 0 137.5 -32.5t45.5 -106.5q0 -53 -26 -90t-95 -95l-79 -71h203v-97h-373zM122 255v381h-84v105h211v-486h-127zM211 0l415 741h137l-414 -741h-138z" />
    <glyph glyph-name="threequarters" unicode="&#xbe;" horiz-adv-x="1177" 
d="M249 251q-125 0 -213 54l61 87q68 -40 139 -40q52 0 71.5 12t19.5 49q0 33 -20 45t-77 12h-86v95h84q51 0 68.5 8t17.5 35q0 25 -17 33t-63 8q-77 0 -134 -33l-55 90q75 47 207 47q97 0 140 -29.5t43 -88.5q0 -82 -67 -108q81 -25 81 -127q0 -78 -49 -113.5t-151 -35.5z
M957 0v90h-245v87l217 309h134l-212 -300h109l23 102h91v-102h73v-96h-73v-90h-117zM347 0l414 741h137l-414 -741h-137z" />
    <glyph glyph-name="questiondown" unicode="&#xbf;" horiz-adv-x="702" 
d="M340 -12q-144 0 -210.5 46t-66.5 151q0 78 33 119t105 73q70 30 84.5 54t8.5 95h153q15 -100 -10.5 -144.5t-111.5 -81.5q-63 -29 -82 -47.5t-19 -53.5q0 -37 25.5 -54.5t102.5 -17.5q113 1 212 50l66 -130q-120 -59 -290 -59zM280 584v157h183v-157h-183z" />
    <glyph glyph-name="Agrave" unicode="&#xc0;" horiz-adv-x="789" 
d="M14 0l297 746h166l299 -746h-170l-48 122h-336l-48 -122h-160zM274 257h232l-116 295zM357 781l-191 183h189l141 -183h-139z" />
    <glyph glyph-name="Aacute" unicode="&#xc1;" horiz-adv-x="789" 
d="M14 0l297 746h166l299 -746h-170l-48 122h-336l-48 -122h-160zM274 257h232l-116 295zM290 781l141 183h189l-191 -183h-139z" />
    <glyph glyph-name="Acircumflex" unicode="&#xc2;" horiz-adv-x="789" 
d="M14 0l297 746h166l299 -746h-170l-48 122h-336l-48 -122h-160zM274 257h232l-116 295zM157 781l155 183h162l155 -183h-147l-91 86l-90 -86h-144z" />
    <glyph glyph-name="Atilde" unicode="&#xc3;" horiz-adv-x="789" 
d="M14 0l297 746h166l299 -746h-170l-48 122h-336l-48 -122h-160zM274 257h232l-116 295zM240 777l-87 71q87 108 168 108q38 0 78 -27t60 -27q35 0 84 59l87 -71q-89 -110 -168 -110q-36 0 -76.5 27t-61.5 27q-38 0 -84 -57z" />
    <glyph glyph-name="Adieresis" unicode="&#xc4;" horiz-adv-x="789" 
d="M14 0l297 746h166l299 -746h-170l-48 122h-336l-48 -122h-160zM274 257h232l-116 295zM209 786v136h142v-136h-142zM436 786v136h141v-136h-141z" />
    <glyph glyph-name="Aring" unicode="&#xc5;" horiz-adv-x="789" 
d="M14 0l277 696q-40 37 -40 110q0 66 35 106.5t108 40.5q70 0 106 -41t36 -106q0 -69 -40 -109l280 -697h-170l-48 122h-336l-48 -122h-160zM274 257h232l-116 295zM394 738q64 0 64 68q0 69 -64 69q-65 0 -65 -69q0 -68 65 -68z" />
    <glyph glyph-name="AE" unicode="&#xc6;" horiz-adv-x="1148" 
d="M3 0l465 741h624v-148h-393v-144h383v-143h-383v-164h397v-142h-554v127h-295l-85 -127h-159zM325 260h217v338z" />
    <glyph glyph-name="Ccedilla" unicode="&#xc7;" horiz-adv-x="759" 
d="M379 -249q-75 0 -134 33l39 73q48 -24 89 -24q35 0 49 9.5t14 31.5q0 17 -11.5 25.5t-31 10t-45.5 -0.5l-30 19l14 66q-157 18 -227.5 112.5t-70.5 264.5q0 382 391 382q186 0 291 -107l-113 -113q-72 70 -179 70q-117 0 -171 -58.5t-54 -175.5t51.5 -175.5t174.5 -58.5
q66 0 107 18.5t81 56.5l108 -106q-52 -54 -120.5 -84t-181.5 -31l-5 -31q28 1 46.5 -1.5t38.5 -11t30 -29t10 -53.5q0 -61 -41 -86.5t-119 -25.5z" />
    <glyph glyph-name="Egrave" unicode="&#xc8;" horiz-adv-x="687" 
d="M74 0v741h557v-148h-393v-144h383v-143h-383v-164h397v-142h-561zM307 781l-191 183h189l141 -183h-139z" />
    <glyph glyph-name="Eacute" unicode="&#xc9;" horiz-adv-x="687" 
d="M240 781l141 183h189l-191 -183h-139zM74 0v741h557v-148h-393v-144h383v-143h-383v-164h397v-142h-561z" />
    <glyph glyph-name="Ecircumflex" unicode="&#xca;" horiz-adv-x="687" 
d="M107 781l155 183h162l155 -183h-147l-91 86l-90 -86h-144zM74 0v741h557v-148h-393v-144h383v-143h-383v-164h397v-142h-561z" />
    <glyph glyph-name="Edieresis" unicode="&#xcb;" horiz-adv-x="687" 
d="M159 786v136h142v-136h-142zM386 786v136h141v-136h-141zM74 0v741h557v-148h-393v-144h383v-143h-383v-164h397v-142h-561z" />
    <glyph glyph-name="Igrave" unicode="&#xcc;" horiz-adv-x="333" 
d="M102 781l-186 184h196l136 -184h-146zM85 0v741h163v-741h-163z" />
    <glyph glyph-name="Iacute" unicode="&#xcd;" horiz-adv-x="333" 
d="M85 781l135 184h196l-185 -184h-146zM85 0v741h163v-741h-163z" />
    <glyph glyph-name="Icircumflex" unicode="&#xce;" horiz-adv-x="333" 
d="M-55 781l140 184h162l140 -184h-147l-76 86l-75 -86h-144zM85 0v741h163v-741h-163z" />
    <glyph glyph-name="Idieresis" unicode="&#xcf;" horiz-adv-x="333" 
d="M85 0v741h163v-741h-163zM-17 786v136h142v-136h-142zM210 786v136h141v-136h-141z" />
    <glyph glyph-name="Eth" unicode="&#xd0;" horiz-adv-x="786" 
d="M0 310v129h74v302h266q114 0 188.5 -16.5t127 -58.5t75 -113.5t22.5 -181.5q0 -108 -25 -180t-78.5 -114t-128.5 -59.5t-185 -17.5h-262v310h-74zM238 143h107q76 0 123 11.5t74 40.5t36.5 69.5t9.5 106.5q0 67 -8.5 106t-35 67.5t-74.5 39t-128 10.5h-104v-155h138v-129
h-138v-167z" />
    <glyph glyph-name="Ntilde" unicode="&#xd1;" horiz-adv-x="823" 
d="M74 0v741h177l341 -467v467h156v-741h-150l-367 500v-500h-157zM257 777l-87 71q87 108 168 108q38 0 78 -27t60 -27q35 0 84 59l87 -71q-89 -110 -168 -110q-36 0 -76.5 27t-61.5 27q-38 0 -84 -57z" />
    <glyph glyph-name="Ograve" unicode="&#xd2;" horiz-adv-x="853" 
d="M426 -12q-392 0 -392 383q0 382 392 382q393 0 393 -382q0 -383 -393 -383zM426 132q122 0 174.5 60.5t52.5 175.5t-52.5 175t-174.5 60t-174.5 -60t-52.5 -175t52.5 -175.5t174.5 -60.5zM390 781l-191 183h189l141 -183h-139z" />
    <glyph glyph-name="Oacute" unicode="&#xd3;" horiz-adv-x="853" 
d="M323 781l141 183h189l-191 -183h-139zM426 -12q-392 0 -392 383q0 382 392 382q393 0 393 -382q0 -383 -393 -383zM426 132q122 0 174.5 60.5t52.5 175.5t-52.5 175t-174.5 60t-174.5 -60t-52.5 -175t52.5 -175.5t174.5 -60.5z" />
    <glyph glyph-name="Ocircumflex" unicode="&#xd4;" horiz-adv-x="853" 
d="M190 781l155 183h162l155 -183h-147l-91 86l-90 -86h-144zM426 -12q-392 0 -392 383q0 382 392 382q393 0 393 -382q0 -383 -393 -383zM426 132q122 0 174.5 60.5t52.5 175.5t-52.5 175t-174.5 60t-174.5 -60t-52.5 -175t52.5 -175.5t174.5 -60.5z" />
    <glyph glyph-name="Otilde" unicode="&#xd5;" horiz-adv-x="853" 
d="M426 -12q-392 0 -392 383q0 382 392 382q393 0 393 -382q0 -383 -393 -383zM426 132q122 0 174.5 60.5t52.5 175.5t-52.5 175t-174.5 60t-174.5 -60t-52.5 -175t52.5 -175.5t174.5 -60.5zM273 777l-87 71q87 108 168 108q38 0 78 -27t60 -27q35 0 84 59l87 -71
q-89 -110 -168 -110q-36 0 -76.5 27t-61.5 27q-38 0 -84 -57z" />
    <glyph glyph-name="Odieresis" unicode="&#xd6;" horiz-adv-x="853" 
d="M242 786v136h142v-136h-142zM469 786v136h141v-136h-141zM426 -12q-392 0 -392 383q0 382 392 382q393 0 393 -382q0 -383 -393 -383zM426 132q122 0 174.5 60.5t52.5 175.5t-52.5 175t-174.5 60t-174.5 -60t-52.5 -175t52.5 -175.5t174.5 -60.5z" />
    <glyph glyph-name="multiply" unicode="&#xd7;" horiz-adv-x="722" 
d="M211 104l-95 99l149 149l-149 149l97 99l149 -149l148 149l96 -99l-149 -149l149 -148l-96 -99l-148 149z" />
    <glyph glyph-name="Oslash" unicode="&#xd8;" horiz-adv-x="853" 
d="M426 -12q-78 0 -142 15l-26 -44h-153l58 97q-129 92 -129 315q0 382 392 382q75 0 138 -15l27 45h152l-58 -96q134 -93 134 -316q0 -383 -393 -383zM426 126q127 0 180 62t53 180q0 128 -59 186l-247 -422q33 -6 73 -6zM193 368q0 -124 55 -182l243 418q-32 5 -65 5
q-127 0 -180 -61.5t-53 -179.5z" />
    <glyph glyph-name="Ugrave" unicode="&#xd9;" horiz-adv-x="816" 
d="M408 -14q-65 0 -117 9.5t-87 24.5t-60.5 38.5t-39.5 47.5t-22.5 56.5t-10.5 59t-2 61.5v458h164v-437q0 -90 35.5 -131.5t141.5 -41.5t142 40.5t36 132.5v437h159v-458q0 -50 -5 -86t-25 -79t-55 -69.5t-99.5 -44.5t-154.5 -18zM371 781l-191 183h189l141 -183h-139z" />
    <glyph glyph-name="Uacute" unicode="&#xda;" horiz-adv-x="816" 
d="M304 781l141 183h189l-191 -183h-139zM408 -14q-65 0 -117 9.5t-87 24.5t-60.5 38.5t-39.5 47.5t-22.5 56.5t-10.5 59t-2 61.5v458h164v-437q0 -90 35.5 -131.5t141.5 -41.5t142 40.5t36 132.5v437h159v-458q0 -50 -5 -86t-25 -79t-55 -69.5t-99.5 -44.5t-154.5 -18z" />
    <glyph glyph-name="Ucircumflex" unicode="&#xdb;" horiz-adv-x="816" 
d="M171 781l155 183h162l155 -183h-147l-91 86l-90 -86h-144zM408 -14q-65 0 -117 9.5t-87 24.5t-60.5 38.5t-39.5 47.5t-22.5 56.5t-10.5 59t-2 61.5v458h164v-437q0 -90 35.5 -131.5t141.5 -41.5t142 40.5t36 132.5v437h159v-458q0 -50 -5 -86t-25 -79t-55 -69.5
t-99.5 -44.5t-154.5 -18z" />
    <glyph glyph-name="Udieresis" unicode="&#xdc;" horiz-adv-x="816" 
d="M223 786v136h142v-136h-142zM450 786v136h141v-136h-141zM408 -14q-65 0 -117 9.5t-87 24.5t-60.5 38.5t-39.5 47.5t-22.5 56.5t-10.5 59t-2 61.5v458h164v-437q0 -90 35.5 -131.5t141.5 -41.5t142 40.5t36 132.5v437h159v-458q0 -50 -5 -86t-25 -79t-55 -69.5
t-99.5 -44.5t-154.5 -18z" />
    <glyph glyph-name="Yacute" unicode="&#xdd;" horiz-adv-x="760" 
d="M298 0v260l-295 481h176l204 -334l204 334h169l-295 -481v-260h-163zM276 781l141 183h189l-191 -183h-139z" />
    <glyph glyph-name="Thorn" unicode="&#xde;" horiz-adv-x="760" 
d="M74 0v741h160v-99h196q89 0 148 -17t91 -51.5t44.5 -77.5t12.5 -104q0 -62 -12.5 -106.5t-44 -82.5t-93.5 -57t-154 -19h-188v-127h-160zM234 268h195q74 0 103.5 26.5t29.5 91.5q0 67 -28.5 91.5t-106.5 24.5h-193v-234z" />
    <glyph glyph-name="germandbls" unicode="&#xdf;" horiz-adv-x="695" 
d="M62 0v519q0 44 6.5 79.5t25 71.5t49 60t82 39t120.5 15q259 0 259 -202q0 -78 -19.5 -117t-66.5 -59q74 -14 109.5 -56t35.5 -131q0 -81 -23.5 -126t-92.5 -69t-197 -24h-60v133h55q68 0 105 12.5t47.5 32t10.5 52.5q0 53 -38.5 72t-156.5 19v123q79 0 107.5 21.5
t28.5 74.5q0 46 -24.5 69t-82.5 23q-66 0 -95.5 -29t-29.5 -90v-513h-155z" />
    <glyph glyph-name="agrave" unicode="&#xe0;" horiz-adv-x="645" 
d="M238 -9q-122 0 -167.5 45.5t-45.5 129.5q0 116 83 157t280 41h23q-1 42 -22 59.5t-90 17.5q-90 0 -164 -46l-78 115q38 25 108.5 47t150.5 22q101 0 154.5 -24t72.5 -70t19 -131v-172q0 -35 7.5 -43.5t41.5 -8.5v-128q-15 -4 -66 -4q-46 0 -69 11.5t-39 44.5
q-47 -63 -199 -63zM269 117q74 0 108 28t34 90v21h-13q-101 0 -148 -7t-61.5 -22t-14.5 -48t21 -47.5t74 -14.5zM287 620l-191 183h189l141 -183h-139z" />
    <glyph glyph-name="aacute" unicode="&#xe1;" horiz-adv-x="645" 
d="M238 -9q-122 0 -167.5 45.5t-45.5 129.5q0 116 83 157t280 41h23q-1 42 -22 59.5t-90 17.5q-90 0 -164 -46l-78 115q38 25 108.5 47t150.5 22q101 0 154.5 -24t72.5 -70t19 -131v-172q0 -35 7.5 -43.5t41.5 -8.5v-128q-15 -4 -66 -4q-46 0 -69 11.5t-39 44.5
q-47 -63 -199 -63zM269 117q74 0 108 28t34 90v21h-13q-101 0 -148 -7t-61.5 -22t-14.5 -48t21 -47.5t74 -14.5zM220 620l141 183h189l-191 -183h-139z" />
    <glyph glyph-name="acircumflex" unicode="&#xe2;" horiz-adv-x="645" 
d="M238 -9q-122 0 -167.5 45.5t-45.5 129.5q0 116 83 157t280 41h23q-1 42 -22 59.5t-90 17.5q-90 0 -164 -46l-78 115q38 25 108.5 47t150.5 22q101 0 154.5 -24t72.5 -70t19 -131v-172q0 -35 7.5 -43.5t41.5 -8.5v-128q-15 -4 -66 -4q-46 0 -69 11.5t-39 44.5
q-47 -63 -199 -63zM269 117q74 0 108 28t34 90v21h-13q-101 0 -148 -7t-61.5 -22t-14.5 -48t21 -47.5t74 -14.5zM87 620l155 183h162l155 -183h-147l-91 86l-90 -86h-144z" />
    <glyph glyph-name="atilde" unicode="&#xe3;" horiz-adv-x="645" 
d="M238 -9q-122 0 -167.5 45.5t-45.5 129.5q0 116 83 157t280 41h23q-1 42 -22 59.5t-90 17.5q-90 0 -164 -46l-78 115q38 25 108.5 47t150.5 22q101 0 154.5 -24t72.5 -70t19 -131v-172q0 -35 7.5 -43.5t41.5 -8.5v-128q-15 -4 -66 -4q-46 0 -69 11.5t-39 44.5
q-47 -63 -199 -63zM269 117q74 0 108 28t34 90v21h-13q-101 0 -148 -7t-61.5 -22t-14.5 -48t21 -47.5t74 -14.5zM170 616l-87 71q87 108 168 108q38 0 78 -27t60 -27q35 0 84 59l87 -71q-89 -110 -168 -110q-36 0 -76.5 27t-61.5 27q-38 0 -84 -57z" />
    <glyph glyph-name="adieresis" unicode="&#xe4;" horiz-adv-x="645" 
d="M238 -9q-122 0 -167.5 45.5t-45.5 129.5q0 116 83 157t280 41h23q-1 42 -22 59.5t-90 17.5q-90 0 -164 -46l-78 115q38 25 108.5 47t150.5 22q101 0 154.5 -24t72.5 -70t19 -131v-172q0 -35 7.5 -43.5t41.5 -8.5v-128q-15 -4 -66 -4q-46 0 -69 11.5t-39 44.5
q-47 -63 -199 -63zM269 117q74 0 108 28t34 90v21h-13q-101 0 -148 -7t-61.5 -22t-14.5 -48t21 -47.5t74 -14.5zM139 625v136h142v-136h-142zM366 625v136h141v-136h-141z" />
    <glyph glyph-name="aring" unicode="&#xe5;" horiz-adv-x="645" 
d="M238 -9q-122 0 -167.5 45.5t-45.5 129.5q0 116 83 157t280 41h23q-1 42 -22 59.5t-90 17.5q-90 0 -164 -46l-78 115q38 25 108.5 47t150.5 22q101 0 154.5 -24t72.5 -70t19 -131v-172q0 -35 7.5 -43.5t41.5 -8.5v-128q-15 -4 -66 -4q-46 0 -69 11.5t-39 44.5
q-47 -63 -199 -63zM269 117q74 0 108 28t34 90v21h-13q-101 0 -148 -7t-61.5 -22t-14.5 -48t21 -47.5t74 -14.5zM323 604q-73 0 -108 39.5t-35 105.5t35 106.5t108 40.5q70 0 106 -41t36 -106t-36 -105t-106 -40zM323 681q64 0 64 68q0 69 -64 69q-65 0 -65 -69
q0 -68 65 -68z" />
    <glyph glyph-name="ae" unicode="&#xe6;" horiz-adv-x="989" 
d="M700 -11q-168 0 -231 83q-34 -52 -85.5 -66.5t-145.5 -14.5q-121 0 -167 44.5t-46 130.5q0 116 82 157t281 41h23q-1 42 -22 59.5t-90 17.5q-90 0 -164 -46l-78 115q38 25 108.5 47t150.5 22q133 0 182 -55q68 55 201 55q73 0 123 -19t75.5 -52t39.5 -77.5t14 -97v-109.5
h-394q7 -54 39 -81t104 -27q109 0 178 52l79 -102q-55 -42 -112.5 -59.5t-144.5 -17.5zM268 117q76 0 109.5 28t33.5 90v21h-13q-101 0 -148 -7t-61.5 -22t-14.5 -48t19.5 -47.5t74.5 -14.5zM695 448q-70 0 -101 -28t-37 -84h251q-1 30 -4.5 46t-14 33.5t-33.5 25t-61 7.5z
" />
    <glyph glyph-name="ccedilla" unicode="&#xe7;" horiz-adv-x="587" 
d="M293 -249q-75 0 -134 33l39 73q48 -24 89 -24q35 0 49 9.5t14 31.5q0 17 -11.5 25.5t-31 10t-45.5 -0.5l-30 19l15 69q-118 18 -165 92t-47 195q0 67 12.5 116.5t44 92t92 64.5t148.5 22q148 0 230 -92l-110 -104q-50 52 -120 52q-79 0 -109 -39t-30 -116
q0 -78 29.5 -117.5t110.5 -39.5q70 0 128 55l100 -96q-51 -48 -100 -69t-127 -22l-6 -33q28 1 46.5 -1.5t38.5 -11t30 -29t10 -53.5q0 -61 -41 -86.5t-119 -25.5z" />
    <glyph glyph-name="egrave" unicode="&#xe8;" horiz-adv-x="619" 
d="M330 -11q-89 0 -149 22.5t-91 65.5t-43 92t-12 115q0 51 7 92t27 80t52 65t85 42t123 16q61 0 105.5 -13t71.5 -37t44.5 -57t23 -72t8 -84t-0.5 -92h-394q7 -54 39 -81t104 -27q108 0 178 52l79 -102q-55 -41 -114 -59t-143 -18zM324 448q-69 0 -100 -28t-37 -84h251
q-4 57 -25.5 84.5t-88.5 27.5zM273 620l-191 183h189l141 -183h-139z" />
    <glyph glyph-name="eacute" unicode="&#xe9;" horiz-adv-x="619" 
d="M206 620l141 183h189l-191 -183h-139zM330 -11q-89 0 -149 22.5t-91 65.5t-43 92t-12 115q0 51 7 92t27 80t52 65t85 42t123 16q61 0 105.5 -13t71.5 -37t44.5 -57t23 -72t8 -84t-0.5 -92h-394q7 -54 39 -81t104 -27q108 0 178 52l79 -102q-55 -41 -114 -59t-143 -18z
M324 448q-69 0 -100 -28t-37 -84h251q-4 57 -25.5 84.5t-88.5 27.5z" />
    <glyph glyph-name="ecircumflex" unicode="&#xea;" horiz-adv-x="619" 
d="M73 620l155 183h162l155 -183h-147l-91 86l-90 -86h-144zM330 -11q-89 0 -149 22.5t-91 65.5t-43 92t-12 115q0 51 7 92t27 80t52 65t85 42t123 16q61 0 105.5 -13t71.5 -37t44.5 -57t23 -72t8 -84t-0.5 -92h-394q7 -54 39 -81t104 -27q108 0 178 52l79 -102
q-55 -41 -114 -59t-143 -18zM324 448q-69 0 -100 -28t-37 -84h251q-4 57 -25.5 84.5t-88.5 27.5z" />
    <glyph glyph-name="edieresis" unicode="&#xeb;" horiz-adv-x="619" 
d="M125 625v136h142v-136h-142zM352 625v136h141v-136h-141zM330 -11q-89 0 -149 22.5t-91 65.5t-43 92t-12 115q0 51 7 92t27 80t52 65t85 42t123 16q61 0 105.5 -13t71.5 -37t44.5 -57t23 -72t8 -84t-0.5 -92h-394q7 -54 39 -81t104 -27q108 0 178 52l79 -102
q-55 -41 -114 -59t-143 -18zM324 448q-69 0 -100 -28t-37 -84h251q-4 57 -25.5 84.5t-88.5 27.5z" />
    <glyph glyph-name="igrave" unicode="&#xec;" horiz-adv-x="293" 
d="M81 620l-142 183h191l93 -183h-142zM68 0v566h156v-566h-156z" />
    <glyph glyph-name="iacute" unicode="&#xed;" horiz-adv-x="293" 
d="M70 620l92 183h192l-142 -183h-142zM68 0v566h156v-566h-156z" />
    <glyph glyph-name="icircumflex" unicode="&#xee;" horiz-adv-x="293" 
d="M-61 620l130 183h154l130 -183h-143l-66 86l-66 -86h-139zM68 0v566h156v-566h-156z" />
    <glyph glyph-name="idieresis" unicode="&#xef;" horiz-adv-x="293" 
d="M-16 625v136h126v-136h-126zM183 625v136h126v-136h-126zM68 0v566h156v-566h-156z" />
    <glyph glyph-name="eth" unicode="&#xf0;" horiz-adv-x="663" 
d="M278 573v102l62 12q-23 31 -49 61l151 49q34 -33 64 -76l130 27v-102l-78 -16q69 -149 69 -324q0 -168 -72.5 -242.5t-224.5 -74.5q-295 0 -295 275q0 272 248 272q122 0 159 -40q-12 48 -42 102zM330 123q75 0 107 37t32 108t-31.5 106t-107.5 35q-74 0 -105.5 -35.5
t-31.5 -105.5q0 -71 32 -108t105 -37z" />
    <glyph glyph-name="ntilde" unicode="&#xf1;" horiz-adv-x="664" 
d="M62 0v557l122 9l13 -49q56 62 205 62q62 0 103.5 -16.5t62.5 -49.5t29 -73t8 -97v-343h-156v312q0 61 -19 90t-84 29q-76 0 -101.5 -31t-25.5 -95v-305h-157zM178 616l-87 71q87 108 168 108q38 0 78 -27t60 -27q35 0 84 59l87 -71q-89 -110 -168 -110q-36 0 -76.5 27
t-61.5 27q-38 0 -84 -57z" />
    <glyph glyph-name="ograve" unicode="&#xf2;" horiz-adv-x="661" 
d="M331 -11q-156 0 -226 74t-70 221t70 221t226 74t225.5 -74t69.5 -221t-69.5 -221t-225.5 -74zM331 123q77 0 107.5 39.5t30.5 117.5q0 77 -30.5 116.5t-107.5 39.5t-107.5 -39t-30.5 -117t30.5 -117.5t107.5 -39.5zM294 620l-191 183h189l141 -183h-139z" />
    <glyph glyph-name="oacute" unicode="&#xf3;" horiz-adv-x="661" 
d="M227 620l141 183h189l-191 -183h-139zM331 -11q-156 0 -226 74t-70 221t70 221t226 74t225.5 -74t69.5 -221t-69.5 -221t-225.5 -74zM331 123q77 0 107.5 39.5t30.5 117.5q0 77 -30.5 116.5t-107.5 39.5t-107.5 -39t-30.5 -117t30.5 -117.5t107.5 -39.5z" />
    <glyph glyph-name="ocircumflex" unicode="&#xf4;" horiz-adv-x="661" 
d="M94 620l155 183h162l155 -183h-147l-91 86l-90 -86h-144zM331 -11q-156 0 -226 74t-70 221t70 221t226 74t225.5 -74t69.5 -221t-69.5 -221t-225.5 -74zM331 123q77 0 107.5 39.5t30.5 117.5q0 77 -30.5 116.5t-107.5 39.5t-107.5 -39t-30.5 -117t30.5 -117.5
t107.5 -39.5z" />
    <glyph glyph-name="otilde" unicode="&#xf5;" horiz-adv-x="661" 
d="M331 -11q-156 0 -226 74t-70 221t70 221t226 74t225.5 -74t69.5 -221t-69.5 -221t-225.5 -74zM331 123q77 0 107.5 39.5t30.5 117.5q0 77 -30.5 116.5t-107.5 39.5t-107.5 -39t-30.5 -117t30.5 -117.5t107.5 -39.5zM177 616l-87 71q87 108 168 108q38 0 78 -27t60 -27
q35 0 84 59l87 -71q-89 -110 -168 -110q-36 0 -76.5 27t-61.5 27q-38 0 -84 -57z" />
    <glyph glyph-name="odieresis" unicode="&#xf6;" horiz-adv-x="661" 
d="M146 625v136h142v-136h-142zM373 625v136h141v-136h-141zM331 -11q-156 0 -226 74t-70 221t70 221t226 74t225.5 -74t69.5 -221t-69.5 -221t-225.5 -74zM331 123q77 0 107.5 39.5t30.5 117.5q0 77 -30.5 116.5t-107.5 39.5t-107.5 -39t-30.5 -117t30.5 -117.5
t107.5 -39.5z" />
    <glyph glyph-name="divide" unicode="&#xf7;" horiz-adv-x="722" 
d="M282 79v135h158v-135h-158zM93 282v141h536v-141h-536zM282 491v135h158v-135h-158z" />
    <glyph glyph-name="oslash" unicode="&#xf8;" horiz-adv-x="661" 
d="M331 -11q-60 0 -110 11l-27 -43h-140l60 94q-79 69 -79 233q0 149 68 222t228 73q59 0 108 -11l28 43h141l-61 -95q79 -71 79 -232q0 -149 -67.5 -222t-227.5 -73zM331 119q79 0 110 41t31 120q0 65 -19 100l-161 -258q16 -3 39 -3zM190 280q0 -62 16 -97l158 254
q-15 3 -33 3q-80 0 -110.5 -40.5t-30.5 -119.5z" />
    <glyph glyph-name="ugrave" unicode="&#xf9;" horiz-adv-x="656" 
d="M329 -9q-157 0 -213.5 61t-56.5 212v302h157v-305q0 -30 1 -45t7 -35.5t17.5 -30t33.5 -16.5t55 -7q32 0 54 7t33.5 17t17.5 30t7 35.5t1 45.5v304h154v-301q0 -76 -11.5 -125t-41.5 -84t-82 -50t-133 -15zM292 620l-191 183h189l141 -183h-139z" />
    <glyph glyph-name="uacute" unicode="&#xfa;" horiz-adv-x="656" 
d="M225 620l141 183h189l-191 -183h-139zM329 -9q-157 0 -213.5 61t-56.5 212v302h157v-305q0 -30 1 -45t7 -35.5t17.5 -30t33.5 -16.5t55 -7q32 0 54 7t33.5 17t17.5 30t7 35.5t1 45.5v304h154v-301q0 -76 -11.5 -125t-41.5 -84t-82 -50t-133 -15z" />
    <glyph glyph-name="ucircumflex" unicode="&#xfb;" horiz-adv-x="656" 
d="M92 620l155 183h162l155 -183h-147l-91 86l-90 -86h-144zM329 -9q-157 0 -213.5 61t-56.5 212v302h157v-305q0 -30 1 -45t7 -35.5t17.5 -30t33.5 -16.5t55 -7q32 0 54 7t33.5 17t17.5 30t7 35.5t1 45.5v304h154v-301q0 -76 -11.5 -125t-41.5 -84t-82 -50t-133 -15z" />
    <glyph glyph-name="udieresis" unicode="&#xfc;" horiz-adv-x="656" 
d="M144 625v136h142v-136h-142zM371 625v136h141v-136h-141zM329 -9q-157 0 -213.5 61t-56.5 212v302h157v-305q0 -30 1 -45t7 -35.5t17.5 -30t33.5 -16.5t55 -7q32 0 54 7t33.5 17t17.5 30t7 35.5t1 45.5v304h154v-301q0 -76 -11.5 -125t-41.5 -84t-82 -50t-133 -15z" />
    <glyph glyph-name="yacute" unicode="&#xfd;" horiz-adv-x="584" 
d="M134 -170q-22 0 -56 2v118h42q46 0 63 8.5t25 33.5l7 21l-216 553h169l131 -360l127 360h159l-227 -591q-30 -81 -77 -113t-147 -32zM190 620l141 183h189l-191 -183h-139z" />
    <glyph glyph-name="thorn" unicode="&#xfe;" horiz-adv-x="681" 
d="M62 -165v941h156v-251q46 54 186 54q70 0 119 -22.5t75 -64.5t37 -92t11 -116q0 -65 -11.5 -115t-38.5 -92t-77.5 -64.5t-123.5 -22.5q-134 0 -176 53v-208h-157zM364 124q71 0 97 39.5t26 114.5q0 77 -25.5 117.5t-97.5 40.5q-79 0 -112 -37.5t-33 -120.5q0 -84 31 -119
t114 -35z" />
    <glyph glyph-name="ydieresis" unicode="&#xff;" horiz-adv-x="584" 
d="M134 -170q-22 0 -56 2v118h42q46 0 63 8.5t25 33.5l7 21l-216 553h169l131 -360l127 360h159l-227 -591q-30 -81 -77 -113t-147 -32zM109 625v136h142v-136h-142zM336 625v136h141v-136h-141z" />
    <glyph glyph-name="Amacron" unicode="&#x100;" horiz-adv-x="789" 
d="M14 0l297 746h166l299 -746h-170l-48 122h-336l-48 -122h-160zM274 257h232l-116 295zM183 771v125h420v-125h-420z" />
    <glyph glyph-name="amacron" unicode="&#x101;" horiz-adv-x="645" 
d="M238 -9q-122 0 -167.5 45.5t-45.5 129.5q0 116 83 157t280 41h23q-1 42 -22 59.5t-90 17.5q-90 0 -164 -46l-78 115q38 25 108.5 47t150.5 22q101 0 154.5 -24t72.5 -70t19 -131v-172q0 -35 7.5 -43.5t41.5 -8.5v-128q-15 -4 -66 -4q-46 0 -69 11.5t-39 44.5
q-47 -63 -199 -63zM269 117q74 0 108 28t34 90v21h-13q-101 0 -148 -7t-61.5 -22t-14.5 -48t21 -47.5t74 -14.5zM113 610v125h420v-125h-420z" />
    <glyph glyph-name="Abreve" unicode="&#x102;" horiz-adv-x="789" 
d="M14 0l297 746h166l299 -746h-170l-48 122h-336l-48 -122h-160zM274 257h232l-116 295zM393 766q-104 0 -150 49t-65 147l113 21q12 -54 32.5 -75.5t69.5 -21.5t69.5 21.5t32.5 75.5l114 -20q-21 -99 -67 -148t-149 -49z" />
    <glyph glyph-name="abreve" unicode="&#x103;" horiz-adv-x="645" 
d="M238 -9q-122 0 -167.5 45.5t-45.5 129.5q0 116 83 157t280 41h23q-1 42 -22 59.5t-90 17.5q-90 0 -164 -46l-78 115q38 25 108.5 47t150.5 22q101 0 154.5 -24t72.5 -70t19 -131v-172q0 -35 7.5 -43.5t41.5 -8.5v-128q-15 -4 -66 -4q-46 0 -69 11.5t-39 44.5
q-47 -63 -199 -63zM269 117q74 0 108 28t34 90v21h-13q-101 0 -148 -7t-61.5 -22t-14.5 -48t21 -47.5t74 -14.5zM323 605q-104 0 -150 49t-65 147l113 21q12 -54 32.5 -75.5t69.5 -21.5t69.5 21.5t32.5 75.5l114 -20q-21 -99 -67 -148t-149 -49z" />
    <glyph glyph-name="Aogonek" unicode="&#x104;" horiz-adv-x="789" 
d="M14 0l297 746h166l299 -746h-48q-89 -56 -89 -101q0 -20 10.5 -29t40.5 -9q37 0 77 14l29 -85q-61 -28 -127 -28q-82 0 -116 27t-34 79q0 43 25.5 79t58.5 58l-45 117h-336l-48 -122h-160zM274 257h232l-116 295z" />
    <glyph glyph-name="aogonek" unicode="&#x105;" horiz-adv-x="645" 
d="M238 -9q-122 0 -167.5 45.5t-45.5 129.5q0 116 83 157t280 41h23q-1 42 -22 59.5t-90 17.5q-90 0 -164 -46l-78 115q38 25 108.5 47t150.5 22q101 0 154.5 -24t72.5 -70t19 -131v-172q0 -35 7.5 -43.5t41.5 -8.5v-128q-99 -60 -99 -103q0 -20 10.5 -29t40.5 -9
q37 0 77 14l29 -85q-61 -28 -127 -28q-82 0 -116 27t-34 79q0 86 93 138q-17 7 -26 16q-12 11 -22 32q-47 -63 -199 -63zM269 117q74 0 108 28t34 90v21h-13q-101 0 -148 -7t-61.5 -22t-14.5 -48t21 -47.5t74 -14.5z" />
    <glyph glyph-name="Cacute" unicode="&#x106;" horiz-adv-x="759" 
d="M276 781l141 183h189l-191 -183h-139zM415 -11q-202 0 -291.5 96t-89.5 286q0 382 391 382q186 0 291 -107l-113 -113q-72 70 -179 70q-117 0 -171 -58.5t-54 -175.5t51.5 -175.5t174.5 -58.5q66 0 107 18.5t81 56.5l108 -106q-52 -54 -121.5 -84.5t-184.5 -30.5z" />
    <glyph glyph-name="cacute" unicode="&#x107;" horiz-adv-x="587" 
d="M190 620l141 183h189l-191 -183h-139zM325 -9q-85 0 -143.5 21.5t-89.5 63.5t-44 91.5t-13 116.5t12.5 116.5t44 92t92 64.5t148.5 22q148 0 230 -92l-110 -104q-50 52 -120 52q-79 0 -109 -39t-30 -116q0 -78 29.5 -117.5t110.5 -39.5q70 0 128 55l100 -96
q-53 -49 -104 -70t-132 -21z" />
    <glyph glyph-name="Ccircumflex" unicode="&#x108;" horiz-adv-x="759" 
d="M153 781l155 183h162l155 -183h-147l-91 86l-90 -86h-144zM415 -11q-202 0 -291.5 96t-89.5 286q0 382 391 382q186 0 291 -107l-113 -113q-72 70 -179 70q-117 0 -171 -58.5t-54 -175.5t51.5 -175.5t174.5 -58.5q66 0 107 18.5t81 56.5l108 -106q-52 -54 -121.5 -84.5
t-184.5 -30.5z" />
    <glyph glyph-name="ccircumflex" unicode="&#x109;" horiz-adv-x="587" 
d="M66 620l155 183h162l155 -183h-147l-91 86l-90 -86h-144zM325 -9q-85 0 -143.5 21.5t-89.5 63.5t-44 91.5t-13 116.5t12.5 116.5t44 92t92 64.5t148.5 22q148 0 230 -92l-110 -104q-50 52 -120 52q-79 0 -109 -39t-30 -116q0 -78 29.5 -117.5t110.5 -39.5q70 0 128 55
l100 -96q-53 -49 -104 -70t-132 -21z" />
    <glyph glyph-name="Cdotaccent" unicode="&#x10a;" horiz-adv-x="759" 
d="M415 -11q-202 0 -291.5 96t-89.5 286q0 382 391 382q186 0 291 -107l-113 -113q-72 70 -179 70q-117 0 -171 -58.5t-54 -175.5t51.5 -175.5t174.5 -58.5q66 0 107 18.5t81 56.5l108 -106q-52 -54 -121.5 -84.5t-184.5 -30.5zM313 779v139h159v-139h-159z" />
    <glyph glyph-name="cdotaccent" unicode="&#x10b;" horiz-adv-x="587" 
d="M325 -9q-85 0 -143.5 21.5t-89.5 63.5t-44 91.5t-13 116.5t12.5 116.5t44 92t92 64.5t148.5 22q148 0 230 -92l-110 -104q-50 52 -120 52q-79 0 -109 -39t-30 -116q0 -78 29.5 -117.5t110.5 -39.5q70 0 128 55l100 -96q-53 -49 -104 -70t-132 -21zM230 618v139h159v-139
h-159z" />
    <glyph glyph-name="Ccaron" unicode="&#x10c;" horiz-adv-x="759" 
d="M298 781l-155 183h147l91 -86l90 86h144l-155 -183h-162zM415 -11q-202 0 -291.5 96t-89.5 286q0 382 391 382q186 0 291 -107l-113 -113q-72 70 -179 70q-117 0 -171 -58.5t-54 -175.5t51.5 -175.5t174.5 -58.5q66 0 107 18.5t81 56.5l108 -106q-52 -54 -121.5 -84.5
t-184.5 -30.5z" />
    <glyph glyph-name="ccaron" unicode="&#x10d;" horiz-adv-x="587" 
d="M212 620l-155 183h147l91 -86l90 86h144l-155 -183h-162zM325 -9q-85 0 -143.5 21.5t-89.5 63.5t-44 91.5t-13 116.5t12.5 116.5t44 92t92 64.5t148.5 22q148 0 230 -92l-110 -104q-50 52 -120 52q-79 0 -109 -39t-30 -116q0 -78 29.5 -117.5t110.5 -39.5q70 0 128 55
l100 -96q-53 -49 -104 -70t-132 -21z" />
    <glyph glyph-name="Dcaron" unicode="&#x10e;" horiz-adv-x="786" 
d="M311 781l-155 183h147l91 -86l90 86h144l-155 -183h-162zM74 0v741h266q114 0 188.5 -16.5t127 -58.5t75 -113.5t22.5 -181.5q0 -108 -23.5 -179.5t-76 -114t-128.5 -60t-189 -17.5h-262zM238 143h107q76 0 123 11.5t74 40.5t36.5 69.5t9.5 106.5q0 67 -8.5 106t-35 67.5
t-74.5 39t-128 10.5h-104v-451z" />
    <glyph glyph-name="dcaron" unicode="&#x10f;" horiz-adv-x="837" 
d="M715 484l-34 67q45 21 57.5 33t12.5 37h-66v155h150v-110q0 -81 -21.5 -114.5t-98.5 -67.5zM281 -11q-71 0 -120.5 23t-76 65.5t-38 93t-11.5 115.5t12 115t39 91.5t77.5 64t122.5 22.5q134 0 176 -53v250h157v-770l-120 -11l-16 57q-54 -63 -202 -63zM318 124
q79 0 111.5 39t32.5 123q0 83 -30.5 117.5t-113.5 34.5q-72 0 -98 -38.5t-26 -113.5q0 -78 26.5 -120t97.5 -42z" />
    <glyph glyph-name="Dcroat" unicode="&#x110;" horiz-adv-x="786" 
d="M0 310v129h74v302h266q114 0 188.5 -16.5t127 -58.5t75 -113.5t22.5 -181.5q0 -108 -25 -180t-78.5 -114t-128.5 -59.5t-185 -17.5h-262v310h-74zM238 143h107q76 0 123 11.5t74 40.5t36.5 69.5t9.5 106.5q0 67 -8.5 106t-35 67.5t-74.5 39t-128 10.5h-104v-155h138v-129
h-138v-167z" />
    <glyph glyph-name="dcroat" unicode="&#x111;" horiz-adv-x="681" 
d="M347 603v123h115v50h157v-50h62v-123h-62v-597l-120 -11l-16 57q-54 -63 -202 -63q-71 0 -120.5 23t-76 65.5t-38 93t-11.5 115.5t12 115t39 91.5t77.5 64t122.5 22.5q134 0 176 -53v77h-115zM318 124q79 0 111.5 39t32.5 123q0 83 -30.5 117.5t-113.5 34.5
q-72 0 -98 -38.5t-26 -113.5q0 -78 26.5 -120t97.5 -42z" />
    <glyph glyph-name="Emacron" unicode="&#x112;" horiz-adv-x="687" 
d="M74 0v741h557v-148h-393v-144h383v-143h-383v-164h397v-142h-561zM133 771v125h420v-125h-420z" />
    <glyph glyph-name="emacron" unicode="&#x113;" horiz-adv-x="619" 
d="M330 -11q-89 0 -149 22.5t-91 65.5t-43 92t-12 115q0 51 7 92t27 80t52 65t85 42t123 16q61 0 105.5 -13t71.5 -37t44.5 -57t23 -72t8 -84t-0.5 -92h-394q7 -54 39 -81t104 -27q108 0 178 52l79 -102q-55 -41 -114 -59t-143 -18zM324 448q-69 0 -100 -28t-37 -84h251
q-4 57 -25.5 84.5t-88.5 27.5zM99 610v125h420v-125h-420z" />
    <glyph glyph-name="Ebreve" unicode="&#x114;" horiz-adv-x="687" 
d="M74 0v741h557v-148h-393v-144h383v-143h-383v-164h397v-142h-561zM344 766q-104 0 -150 49t-65 147l113 21q12 -54 32.5 -75.5t69.5 -21.5t69.5 21.5t32.5 75.5l114 -20q-21 -99 -67 -148t-149 -49z" />
    <glyph glyph-name="ebreve" unicode="&#x115;" horiz-adv-x="619" 
d="M330 -11q-89 0 -149 22.5t-91 65.5t-43 92t-12 115q0 51 7 92t27 80t52 65t85 42t123 16q61 0 105.5 -13t71.5 -37t44.5 -57t23 -72t8 -84t-0.5 -92h-394q7 -54 39 -81t104 -27q108 0 178 52l79 -102q-55 -41 -114 -59t-143 -18zM324 448q-69 0 -100 -28t-37 -84h251
q-4 57 -25.5 84.5t-88.5 27.5zM310 605q-104 0 -150 49t-65 147l113 21q12 -54 32.5 -75.5t69.5 -21.5t69.5 21.5t32.5 75.5l114 -20q-21 -99 -67 -148t-149 -49z" />
    <glyph glyph-name="Edotaccent" unicode="&#x116;" horiz-adv-x="687" 
d="M74 0v741h557v-148h-393v-144h383v-143h-383v-164h397v-142h-561zM263 779v139h159v-139h-159z" />
    <glyph glyph-name="edotaccent" unicode="&#x117;" horiz-adv-x="619" 
d="M330 -11q-89 0 -149 22.5t-91 65.5t-43 92t-12 115q0 51 7 92t27 80t52 65t85 42t123 16q61 0 105.5 -13t71.5 -37t44.5 -57t23 -72t8 -84t-0.5 -92h-394q7 -54 39 -81t104 -27q108 0 178 52l79 -102q-55 -41 -114 -59t-143 -18zM324 448q-69 0 -100 -28t-37 -84h251
q-4 57 -25.5 84.5t-88.5 27.5zM229 618v139h159v-139h-159z" />
    <glyph glyph-name="Eogonek" unicode="&#x118;" horiz-adv-x="687" 
d="M74 0v741h557v-148h-393v-144h383v-143h-383v-164h397v-142h-82q-84 -55 -84 -101q0 -20 10.5 -29t40.5 -9q44 0 87 15l29 -85q-63 -29 -137 -29q-82 0 -116 27t-34 79q0 80 79 132h-354z" />
    <glyph glyph-name="eogonek" unicode="&#x119;" horiz-adv-x="619" 
d="M411 -238q-82 0 -116 27t-34 79q0 71 64 121q-70 1 -122.5 16.5t-84 41.5t-50.5 65t-26 79.5t-7 92.5q0 51 7 92t27 80t52 65t85 42t123 16q61 0 105.5 -13t71.5 -37t44.5 -57t23 -72t8 -84t-0.5 -92h-394q7 -54 39 -81t104 -27q108 0 178 52l79 -102q-55 -41 -108 -57h1
q-50 -30 -74.5 -59.5t-24.5 -50.5q0 -20 10.5 -29t40.5 -9q44 0 87 15l29 -85q-63 -29 -137 -29zM324 448q-69 0 -100 -28t-37 -84h251q-4 57 -25.5 84.5t-88.5 27.5z" />
    <glyph glyph-name="Ecaron" unicode="&#x11a;" horiz-adv-x="687" 
d="M262 781l-155 183h147l91 -86l90 86h144l-155 -183h-162zM74 0v741h557v-148h-393v-144h383v-143h-383v-164h397v-142h-561z" />
    <glyph glyph-name="ecaron" unicode="&#x11b;" horiz-adv-x="619" 
d="M228 620l-155 183h147l91 -86l90 86h144l-155 -183h-162zM330 -11q-89 0 -149 22.5t-91 65.5t-43 92t-12 115q0 51 7 92t27 80t52 65t85 42t123 16q61 0 105.5 -13t71.5 -37t44.5 -57t23 -72t8 -84t-0.5 -92h-394q7 -54 39 -81t104 -27q108 0 178 52l79 -102
q-55 -41 -114 -59t-143 -18zM324 448q-69 0 -100 -28t-37 -84h251q-4 57 -25.5 84.5t-88.5 27.5z" />
    <glyph glyph-name="Gcircumflex" unicode="&#x11c;" horiz-adv-x="799" 
d="M165 781l155 183h162l155 -183h-147l-91 86l-90 -86h-144zM413 -11q-109 0 -183.5 24.5t-117 75t-60.5 118.5t-18 164q0 197 99 289.5t291 92.5q198 0 300 -105l-112 -113q-72 68 -189 68q-119 0 -172 -58t-53 -176q0 -128 47 -185t176 -57q105 0 145.5 35.5t40.5 116.5
v16h-207v136h369v-121q0 -165 -79.5 -243t-276.5 -78z" />
    <glyph glyph-name="gcircumflex" unicode="&#x11d;" horiz-adv-x="652" 
d="M81 646l155 183h162l155 -183h-147l-91 86l-90 -86h-144zM313 208q-41 0 -75 3q-5 -10 -5 -20q0 -20 17.5 -25.5t75.5 -5.5q174 0 233.5 -32t59.5 -123q0 -100 -74 -142t-234 -42q-168 0 -231 27.5t-63 110.5q0 102 111 127q-34 24 -34 80q0 48 28 79q-73 42 -73 142
q0 95 63.5 143.5t200.5 48.5q20 0 31 -1l252 50v-119h-81q63 -34 63 -122q0 -93 -63.5 -136t-201.5 -43zM317 -71q82 0 112 15.5t30 49.5q0 31 -29.5 41.5t-112.5 10.5q-88 0 -115 -13.5t-27 -45.5t29.5 -45t112.5 -13zM313 312q62 0 86.5 17.5t24.5 55.5t-25 55.5t-86 17.5
q-62 0 -86.5 -17.5t-24.5 -55.5t24.5 -55.5t86.5 -17.5z" />
    <glyph glyph-name="Gbreve" unicode="&#x11e;" horiz-adv-x="799" 
d="M413 -11q-109 0 -183.5 24.5t-117 75t-60.5 118.5t-18 164q0 197 99 289.5t291 92.5q198 0 300 -105l-112 -113q-72 68 -189 68q-119 0 -172 -58t-53 -176q0 -128 47 -185t176 -57q105 0 145.5 35.5t40.5 116.5v16h-207v136h369v-121q0 -165 -79.5 -243t-276.5 -78z
M399 766q-104 0 -150 49t-65 147l113 21q12 -54 32.5 -75.5t69.5 -21.5t69.5 21.5t32.5 75.5l114 -20q-21 -99 -67 -148t-149 -49z" />
    <glyph glyph-name="gbreve" unicode="&#x11f;" horiz-adv-x="652" 
d="M313 208q-41 0 -75 3q-5 -10 -5 -20q0 -20 17.5 -25.5t75.5 -5.5q174 0 233.5 -32t59.5 -123q0 -100 -74 -142t-234 -42q-168 0 -231 27.5t-63 110.5q0 102 111 127q-34 24 -34 80q0 48 28 79q-73 42 -73 142q0 95 63.5 143.5t200.5 48.5q20 0 31 -1l252 50v-119h-81
q63 -34 63 -122q0 -93 -63.5 -136t-201.5 -43zM317 -71q82 0 112 15.5t30 49.5q0 31 -29.5 41.5t-112.5 10.5q-88 0 -115 -13.5t-27 -45.5t29.5 -45t112.5 -13zM313 312q62 0 86.5 17.5t24.5 55.5t-25 55.5t-86 17.5q-62 0 -86.5 -17.5t-24.5 -55.5t24.5 -55.5t86.5 -17.5z
M325 605q-104 0 -150 49t-65 147l113 21q12 -54 32.5 -75.5t69.5 -21.5t69.5 21.5t32.5 75.5l114 -20q-21 -99 -67 -148t-149 -49z" />
    <glyph glyph-name="Gdotaccent" unicode="&#x120;" horiz-adv-x="799" 
d="M413 -11q-109 0 -183.5 24.5t-117 75t-60.5 118.5t-18 164q0 197 99 289.5t291 92.5q198 0 300 -105l-112 -113q-72 68 -189 68q-119 0 -172 -58t-53 -176q0 -128 47 -185t176 -57q105 0 145.5 35.5t40.5 116.5v16h-207v136h369v-121q0 -165 -79.5 -243t-276.5 -78z
M324 779v139h159v-139h-159z" />
    <glyph glyph-name="gdotaccent" unicode="&#x121;" horiz-adv-x="652" 
d="M313 208q-41 0 -75 3q-5 -10 -5 -20q0 -20 17.5 -25.5t75.5 -5.5q174 0 233.5 -32t59.5 -123q0 -100 -74 -142t-234 -42q-168 0 -231 27.5t-63 110.5q0 102 111 127q-34 24 -34 80q0 48 28 79q-73 42 -73 142q0 95 63.5 143.5t200.5 48.5q20 0 31 -1l252 50v-119h-81
q63 -34 63 -122q0 -93 -63.5 -136t-201.5 -43zM317 -71q82 0 112 15.5t30 49.5q0 31 -29.5 41.5t-112.5 10.5q-88 0 -115 -13.5t-27 -45.5t29.5 -45t112.5 -13zM313 312q62 0 86.5 17.5t24.5 55.5t-25 55.5t-86 17.5q-62 0 -86.5 -17.5t-24.5 -55.5t24.5 -55.5t86.5 -17.5z
M246 618v139h159v-139h-159z" />
    <glyph glyph-name="Gcommaaccent" unicode="&#x122;" horiz-adv-x="799" 
d="M358 -330l-34 66q45 22 57.5 34t12.5 37h-74v155h158v-110q0 -81 -21.5 -115t-98.5 -67zM413 -11q-109 0 -183.5 24.5t-117 75t-60.5 118.5t-18 164q0 197 99 289.5t291 92.5q198 0 300 -105l-112 -113q-72 68 -189 68q-119 0 -172 -58t-53 -176q0 -128 47 -185t176 -57
q105 0 145.5 35.5t40.5 116.5v16h-207v136h369v-121q0 -165 -79.5 -243t-276.5 -78z" />
    <glyph glyph-name="gcommaaccent" unicode="&#x123;" horiz-adv-x="652" 
d="M246 619v96q0 80 22 114t100 68l32 -66q-45 -22 -57 -34.5t-12 -36.5h73v-141h-158zM313 208q-41 0 -75 3q-5 -10 -5 -20q0 -20 17.5 -25.5t75.5 -5.5q174 0 233.5 -32t59.5 -123q0 -100 -74 -142t-234 -42q-168 0 -231 27.5t-63 110.5q0 102 111 127q-34 24 -34 80
q0 48 28 79q-73 42 -73 142q0 95 63.5 143.5t200.5 48.5q20 0 31 -1l252 50v-119h-81q63 -34 63 -122q0 -93 -63.5 -136t-201.5 -43zM317 -71q82 0 112 15.5t30 49.5q0 31 -29.5 41.5t-112.5 10.5q-88 0 -115 -13.5t-27 -45.5t29.5 -45t112.5 -13zM313 312q62 0 86.5 17.5
t24.5 55.5t-25 55.5t-86 17.5q-62 0 -86.5 -17.5t-24.5 -55.5t24.5 -55.5t86.5 -17.5z" />
    <glyph glyph-name="Hcircumflex" unicode="&#x124;" horiz-adv-x="815" 
d="M171 781l155 183h162l155 -183h-147l-91 86l-90 -86h-144zM74 0v741h164v-284h339v284h164v-741h-164v304h-339v-304h-164z" />
    <glyph glyph-name="hcircumflex" unicode="&#x125;" horiz-adv-x="664" 
d="M-95 796l155 183h162l155 -183h-147l-91 86l-90 -86h-144zM62 0v776h156v-248q47 51 184 51q62 0 103.5 -16.5t62.5 -49.5t29 -73t8 -97v-343h-156v312q0 61 -19 90t-84 29q-76 0 -101.5 -31t-25.5 -95v-305h-157z" />
    <glyph glyph-name="Hbar" unicode="&#x126;" horiz-adv-x="815" 
d="M28 534v125h46v82h164v-82h339v82h164v-82h45v-125h-45v-534h-164v304h-339v-304h-164v534h-46zM238 457h339v77h-339v-77z" />
    <glyph glyph-name="hbar" unicode="&#x127;" horiz-adv-x="664" 
d="M62 0v613h-62v103h62v60h156v-60h116v-103h-116v-85q47 51 184 51q62 0 103.5 -16.5t62.5 -49.5t29 -73t8 -97v-343h-156v312q0 61 -19 90t-84 29q-76 0 -101.5 -31t-25.5 -95v-305h-157z" />
    <glyph glyph-name="Itilde" unicode="&#x128;" horiz-adv-x="333" 
d="M85 0v741h163v-741h-163zM13 777l-87 71q87 108 168 108q38 0 78 -27t60 -27q35 0 84 59l87 -71q-89 -110 -168 -110q-36 0 -76.5 27t-61.5 27q-38 0 -84 -57z" />
    <glyph glyph-name="itilde" unicode="&#x129;" horiz-adv-x="293" 
d="M68 0v566h156v-566h-156zM-7 616l-87 71q87 108 168 108q38 0 78 -27t60 -27q35 0 84 59l87 -71q-89 -110 -168 -110q-36 0 -76.5 27t-61.5 27q-38 0 -84 -57z" />
    <glyph glyph-name="Imacron" unicode="&#x12a;" horiz-adv-x="333" 
d="M85 0v741h163v-741h-163zM-43 771v125h420v-125h-420z" />
    <glyph glyph-name="imacron" unicode="&#x12b;" horiz-adv-x="293" 
d="M68 0v566h156v-566h-156zM-63 610v125h420v-125h-420z" />
    <glyph glyph-name="Ibreve" unicode="&#x12c;" horiz-adv-x="333" 
d="M85 0v741h163v-741h-163zM167 766q-104 0 -150 49t-65 147l113 21q12 -54 32.5 -75.5t69.5 -21.5t69.5 21.5t32.5 75.5l114 -20q-21 -99 -67 -148t-149 -49z" />
    <glyph glyph-name="ibreve" unicode="&#x12d;" horiz-adv-x="293" 
d="M68 0v566h156v-566h-156zM147 605q-104 0 -150 49t-65 147l113 21q12 -54 32.5 -75.5t69.5 -21.5t69.5 21.5t32.5 75.5l114 -20q-21 -99 -67 -148t-149 -49z" />
    <glyph glyph-name="Iogonek" unicode="&#x12e;" horiz-adv-x="333" 
d="M85 0v741h163v-741q-99 -60 -99 -101q0 -20 10.5 -29t40.5 -9q37 0 77 14l29 -85q-61 -28 -127 -28q-82 0 -116 27t-34 79q0 81 83 132h-27z" />
    <glyph glyph-name="iogonek" unicode="&#x12f;" horiz-adv-x="293" 
d="M68 0v566h156v-566q-99 -60 -99 -101q0 -20 10.5 -29t40.5 -9q37 0 77 14l29 -85q-61 -28 -127 -28q-82 0 -116 27t-34 79q0 81 83 132h-20zM67 618v143h158v-143h-158z" />
    <glyph glyph-name="Idotaccent" unicode="&#x130;" horiz-adv-x="333" 
d="M85 0v741h163v-741h-163zM87 779v139h159v-139h-159z" />
    <glyph glyph-name="dotlessi" unicode="&#x131;" horiz-adv-x="293" 
d="M68 0v566h156v-566h-156z" />
    <glyph glyph-name="IJ" unicode="&#x132;" horiz-adv-x="788" 
d="M85 0v741h163v-741h-163zM464 -2q-75 0 -109 2v142h89q63 0 87 22t24 76v501h163v-507q0 -68 -18 -115.5t-53.5 -73t-79.5 -36.5t-103 -11z" />
    <glyph glyph-name="ij" unicode="&#x133;" horiz-adv-x="586" 
d="M68 0v566h156v-566h-156zM67 618v143h158v-143h-158zM295 -169v119h12q35 0 44 13.5t9 59.5v543h156v-542q0 -115 -38.5 -154t-153.5 -39h-29zM359 618v143h158v-143h-158z" />
    <glyph glyph-name="Jcircumflex" unicode="&#x134;" horiz-adv-x="455" 
d="M66 781l155 183h162l155 -183h-147l-91 86l-90 -86h-144zM131 -2q-75 0 -109 2v142h89q63 0 87 22t24 76v501h163v-507q0 -68 -18 -115.5t-53.5 -73t-79.5 -36.5t-103 -11z" />
    <glyph glyph-name="jcircumflex" unicode="&#x135;" horiz-adv-x="293" 
d="M3 -169v119h12q35 0 44 13.5t9 59.5v543h156v-542q0 -115 -38.5 -154t-153.5 -39h-29zM-89 620l155 183h162l155 -183h-147l-91 86l-90 -86h-144z" />
    <glyph glyph-name="Kcommaaccent" unicode="&#x136;" horiz-adv-x="760" 
d="M338 -330l-34 66q45 22 57.5 34t12.5 37h-74v155h158v-110q0 -81 -21.5 -115t-98.5 -67zM549 0l-208 323l-105 -124v-199h-162v741h162v-335l281 335h181l-251 -293l287 -448h-185z" />
    <glyph glyph-name="kcommaaccent" unicode="&#x137;" horiz-adv-x="605" 
d="M260 -330l-34 66q45 22 57.5 34t12.5 37h-74v155h158v-110q0 -81 -21.5 -115t-98.5 -67zM62 0v776h155v-444l193 234h171l-190 -231l207 -335h-174l-139 218l-68 -81v-137h-155z" />
    <glyph glyph-name="kgreenlandic" unicode="&#x138;" horiz-adv-x="605" 
d="M62 0v566h155v-234l193 234h171l-190 -231l207 -335h-174l-139 218l-68 -81v-137h-155z" />
    <glyph glyph-name="Lacute" unicode="&#x139;" horiz-adv-x="617" 
d="M87 781l141 183h189l-191 -183h-139zM74 0v741h164v-599h364v-142h-528z" />
    <glyph glyph-name="lacute" unicode="&#x13a;" horiz-adv-x="341" 
d="M72 816l141 183h189l-191 -183h-139zM223 -2q-80 0 -117.5 38t-37.5 135v605h156v-586q0 -35 10.5 -47t45.5 -12h19v-129q-26 -4 -76 -4z" />
    <glyph glyph-name="Lcommaaccent" unicode="&#x13b;" horiz-adv-x="617" 
d="M267 -330l-34 66q45 22 57.5 34t12.5 37h-74v155h158v-110q0 -81 -21.5 -115t-98.5 -67zM74 0v741h164v-599h364v-142h-528z" />
    <glyph glyph-name="lcommaaccent" unicode="&#x13c;" horiz-adv-x="341" 
d="M129 -330l-34 66q45 22 57.5 34t12.5 37h-74v155h158v-110q0 -81 -21.5 -115t-98.5 -67zM223 -2q-80 0 -117.5 38t-37.5 135v605h156v-586q0 -35 10.5 -47t45.5 -12h19v-129q-26 -4 -76 -4z" />
    <glyph glyph-name="Lcaron" unicode="&#x13d;" horiz-adv-x="617" 
d="M341 484l-34 67q45 21 57.5 33t12.5 37h-66v155h150v-110q0 -81 -21.5 -114.5t-98.5 -67.5zM74 0v741h164v-599h364v-142h-528z" />
    <glyph glyph-name="lcaron" unicode="&#x13e;" horiz-adv-x="443" 
d="M322 484l-34 67q45 21 57.5 33t12.5 37h-66v155h150v-110q0 -81 -21.5 -114.5t-98.5 -67.5zM223 -2q-80 0 -117.5 38t-37.5 135v605h156v-586q0 -35 10.5 -47t45.5 -12h19v-129q-26 -4 -76 -4z" />
    <glyph glyph-name="Ldot" unicode="&#x13f;" horiz-adv-x="701" 
d="M74 0v741h164v-599h364v-142h-528zM424 290v184h182v-184h-182z" />
    <glyph glyph-name="ldot" unicode="&#x140;" horiz-adv-x="605" 
d="M223 -2q-80 0 -117.5 38t-37.5 135v605h156v-586q0 -35 10.5 -47t45.5 -12h19v-129q-26 -4 -76 -4zM361 274v184h182v-184h-182z" />
    <glyph glyph-name="Lslash" unicode="&#x141;" horiz-adv-x="617" 
d="M0 259v132l74 40v310h164v-220l137 76v-132l-137 -76v-247h364v-142h-528v299z" />
    <glyph glyph-name="lslash" unicode="&#x142;" horiz-adv-x="405" 
d="M24 323v132l88 50v271h156v-181l92 53v-132l-92 -53v-273q0 -35 10.5 -47t44.5 -12h20v-129q-26 -4 -76 -4q-81 0 -118 38t-37 135v202z" />
    <glyph glyph-name="Nacute" unicode="&#x143;" horiz-adv-x="823" 
d="M307 781l141 183h189l-191 -183h-139zM74 0v741h177l341 -467v467h156v-741h-150l-367 500v-500h-157z" />
    <glyph glyph-name="nacute" unicode="&#x144;" horiz-adv-x="664" 
d="M228 620l141 183h189l-191 -183h-139zM62 0v557l122 9l13 -49q56 62 205 62q62 0 103.5 -16.5t62.5 -49.5t29 -73t8 -97v-343h-156v312q0 61 -19 90t-84 29q-76 0 -101.5 -31t-25.5 -95v-305h-157z" />
    <glyph glyph-name="Ncommaaccent" unicode="&#x145;" horiz-adv-x="823" 
d="M369 -330l-34 66q45 22 57.5 34t12.5 37h-74v155h158v-110q0 -81 -21.5 -115t-98.5 -67zM74 0v741h177l341 -467v467h156v-741h-150l-367 500v-500h-157z" />
    <glyph glyph-name="ncommaaccent" unicode="&#x146;" horiz-adv-x="664" 
d="M290 -330l-34 66q45 22 57.5 34t12.5 37h-74v155h158v-110q0 -81 -21.5 -115t-98.5 -67zM62 0v557l122 9l13 -49q56 62 205 62q62 0 103.5 -16.5t62.5 -49.5t29 -73t8 -97v-343h-156v312q0 61 -19 90t-84 29q-76 0 -101.5 -31t-25.5 -95v-305h-157z" />
    <glyph glyph-name="Ncaron" unicode="&#x147;" horiz-adv-x="823" 
d="M329 781l-155 183h147l91 -86l90 86h144l-155 -183h-162zM74 0v741h177l341 -467v467h156v-741h-150l-367 500v-500h-157z" />
    <glyph glyph-name="ncaron" unicode="&#x148;" horiz-adv-x="664" 
d="M250 620l-155 183h147l91 -86l90 86h144l-155 -183h-162zM62 0v557l122 9l13 -49q56 62 205 62q62 0 103.5 -16.5t62.5 -49.5t29 -73t8 -97v-343h-156v312q0 61 -19 90t-84 29q-76 0 -101.5 -31t-25.5 -95v-305h-157z" />
    <glyph glyph-name="napostrophe" unicode="&#x149;" horiz-adv-x="914" 
d="M98 393l-38 77q52 24 66.5 40.5t14.5 49.5h-86v181h182v-128q0 -98 -25 -139.5t-114 -80.5zM312 0v557l122 9l13 -49q56 62 205 62q62 0 103.5 -16.5t62.5 -49.5t29 -73t8 -97v-343h-156v312q0 61 -19 90t-84 29q-76 0 -101.5 -31t-25.5 -95v-305h-157z" />
    <glyph glyph-name="Eng" unicode="&#x14a;" horiz-adv-x="823" 
d="M494 -192q-67 0 -109 3v141h89q52 0 77 16t31 52l-351 480v-500h-157v741h177l341 -467v467h156v-697q0 -68 -18 -115.5t-53.5 -73t-79.5 -36.5t-103 -11z" />
    <glyph glyph-name="eng" unicode="&#x14b;" horiz-adv-x="664" 
d="M384 -169v119h12q35 0 44 13.5t9 59.5v289q0 61 -19 90t-84 29q-76 0 -101.5 -31t-25.5 -95v-305h-157v557l122 9l13 -61q57 74 205 74q62 0 103.5 -16.5t62.5 -49.5t29 -73t8 -97v-329q0 -108 -40 -145.5t-152 -37.5h-29z" />
    <glyph glyph-name="Omacron" unicode="&#x14c;" horiz-adv-x="853" 
d="M216 771v125h420v-125h-420zM426 -12q-392 0 -392 383q0 382 392 382q393 0 393 -382q0 -383 -393 -383zM426 132q122 0 174.5 60.5t52.5 175.5t-52.5 175t-174.5 60t-174.5 -60t-52.5 -175t52.5 -175.5t174.5 -60.5z" />
    <glyph glyph-name="omacron" unicode="&#x14d;" horiz-adv-x="661" 
d="M120 610v125h420v-125h-420zM331 -11q-156 0 -226 74t-70 221t70 221t226 74t225.5 -74t69.5 -221t-69.5 -221t-225.5 -74zM331 123q77 0 107.5 39.5t30.5 117.5q0 77 -30.5 116.5t-107.5 39.5t-107.5 -39t-30.5 -117t30.5 -117.5t107.5 -39.5z" />
    <glyph glyph-name="Obreve" unicode="&#x14e;" horiz-adv-x="853" 
d="M426 -12q-392 0 -392 383q0 382 392 382q393 0 393 -382q0 -383 -393 -383zM426 132q122 0 174.5 60.5t52.5 175.5t-52.5 175t-174.5 60t-174.5 -60t-52.5 -175t52.5 -175.5t174.5 -60.5zM426 766q-104 0 -150 49t-65 147l113 21q12 -54 32.5 -75.5t69.5 -21.5t69.5 21.5
t32.5 75.5l114 -20q-21 -99 -67 -148t-149 -49z" />
    <glyph glyph-name="obreve" unicode="&#x14f;" horiz-adv-x="661" 
d="M331 -11q-156 0 -226 74t-70 221t70 221t226 74t225.5 -74t69.5 -221t-69.5 -221t-225.5 -74zM331 123q77 0 107.5 39.5t30.5 117.5q0 77 -30.5 116.5t-107.5 39.5t-107.5 -39t-30.5 -117t30.5 -117.5t107.5 -39.5zM330 605q-104 0 -150 49t-65 147l113 21
q12 -54 32.5 -75.5t69.5 -21.5t69.5 21.5t32.5 75.5l114 -20q-21 -99 -67 -148t-149 -49z" />
    <glyph glyph-name="Ohungarumlaut" unicode="&#x150;" horiz-adv-x="853" 
d="M186 781l126 183h181l-176 -183h-131zM456 781l126 183h181l-176 -183h-131zM426 -12q-392 0 -392 383q0 382 392 382q393 0 393 -382q0 -383 -393 -383zM426 132q122 0 174.5 60.5t52.5 175.5t-52.5 175t-174.5 60t-174.5 -60t-52.5 -175t52.5 -175.5t174.5 -60.5z" />
    <glyph glyph-name="ohungarumlaut" unicode="&#x151;" horiz-adv-x="661" 
d="M90 620l126 183h181l-176 -183h-131zM360 620l126 183h181l-176 -183h-131zM331 -11q-156 0 -226 74t-70 221t70 221t226 74t225.5 -74t69.5 -221t-69.5 -221t-225.5 -74zM331 123q77 0 107.5 39.5t30.5 117.5q0 77 -30.5 116.5t-107.5 39.5t-107.5 -39t-30.5 -117
t30.5 -117.5t107.5 -39.5z" />
    <glyph glyph-name="OE" unicode="&#x152;" horiz-adv-x="1262" 
d="M665 0v57q-87 -69 -239 -69q-392 0 -392 383q0 382 392 382q152 0 239 -69v57h540v-148h-392v-144h382v-143h-382v-164h396v-142h-544zM426 132q124 0 175.5 60t51.5 176t-51.5 175.5t-175.5 59.5t-175.5 -59.5t-51.5 -175.5t51.5 -176t175.5 -60z" />
    <glyph glyph-name="oe" unicode="&#x153;" horiz-adv-x="1053" 
d="M765 -11q-153 0 -220 70q-67 -70 -214 -70q-160 0 -228 73t-68 222t68 222t228 73q149 0 215 -71q66 71 218 71q61 0 105.5 -13t71.5 -37t44.5 -57t23 -72t8 -84t-0.5 -92h-395q7 -54 39 -81t105 -27q108 0 178 52l79 -102q-55 -42 -113 -59.5t-144 -17.5zM331 123
q77 0 107.5 39.5t30.5 117.5q0 77 -30.5 116.5t-107.5 39.5t-107.5 -39t-30.5 -117t30.5 -117.5t107.5 -39.5zM759 448q-69 0 -100 -28t-38 -84h252q-2 30 -5 46t-14 33.5t-34 25t-61 7.5z" />
    <glyph glyph-name="Racute" unicode="&#x154;" horiz-adv-x="772" 
d="M282 781l141 183h189l-191 -183h-139zM537 0l-137 246h-166v-246h-160v741h358q85 0 143 -17t89 -51t44 -75.5t13 -98.5q0 -186 -156 -235l147 -264h-175zM234 387h193q69 0 99 22.5t30 83.5q0 63 -29.5 85.5t-101.5 22.5h-191v-214z" />
    <glyph glyph-name="racute" unicode="&#x155;" horiz-adv-x="404" 
d="M101 620l141 183h189l-191 -183h-139zM62 0v557l122 9l16 -62q19 28 68 47t113 21v-150q-94 -1 -128 -35.5t-34 -106.5v-280h-157z" />
    <glyph glyph-name="Rcommaaccent" unicode="&#x156;" horiz-adv-x="772" 
d="M344 -330l-34 66q45 22 57.5 34t12.5 37h-74v155h158v-110q0 -81 -21.5 -115t-98.5 -67zM537 0l-137 246h-166v-246h-160v741h358q85 0 143 -17t89 -51t44 -75.5t13 -98.5q0 -186 -156 -235l147 -264h-175zM234 387h193q69 0 99 22.5t30 83.5q0 63 -29.5 85.5
t-101.5 22.5h-191v-214z" />
    <glyph glyph-name="rcommaaccent" unicode="&#x157;" horiz-adv-x="404" 
d="M99 -330l-34 66q45 22 57.5 34t12.5 37h-74v155h158v-110q0 -81 -21.5 -115t-98.5 -67zM62 0v557l122 9l16 -62q19 28 68 47t113 21v-150q-94 -1 -128 -35.5t-34 -106.5v-280h-157z" />
    <glyph glyph-name="Rcaron" unicode="&#x158;" horiz-adv-x="772" 
d="M304 781l-155 183h147l91 -86l90 86h144l-155 -183h-162zM537 0l-137 246h-166v-246h-160v741h358q85 0 143 -17t89 -51t44 -75.5t13 -98.5q0 -186 -156 -235l147 -264h-175zM234 387h193q69 0 99 22.5t30 83.5q0 63 -29.5 85.5t-101.5 22.5h-191v-214z" />
    <glyph glyph-name="rcaron" unicode="&#x159;" horiz-adv-x="397" 
d="M118 620l-155 183h147l91 -86l90 86h144l-155 -183h-162zM62 0v557l122 9l16 -62q19 28 68 47t113 21v-150q-94 -1 -128 -35.5t-34 -106.5v-280h-157z" />
    <glyph glyph-name="Sacute" unicode="&#x15a;" horiz-adv-x="741" 
d="M267 781l141 183h189l-191 -183h-139zM375 -11q-222 0 -353 97l82 118q118 -79 266 -79q104 0 138 20.5t34 69.5q0 42 -39 58.5t-137 30.5q-82 12 -132 25t-91.5 37.5t-59.5 64t-18 98.5q0 121 74.5 172.5t234.5 51.5q190 0 300 -73l-88 -127q-37 24 -96.5 40.5
t-117.5 16.5q-84 0 -114 -17.5t-30 -59.5q0 -18 8 -31t20 -21t38 -15t48.5 -11t64.5 -10q62 -9 100.5 -17t80 -24t64 -38t37.5 -58t15 -85q0 -118 -75 -176t-254 -58z" />
    <glyph glyph-name="sacute" unicode="&#x15b;" horiz-adv-x="573" 
d="M184 620l141 183h189l-191 -183h-139zM280 -9q-164 0 -270 71l80 115q92 -59 200 -59q60 0 81 9t21 38q0 24 -20 33t-80 17q-36 5 -58 8.5t-51.5 11t-47 15.5t-37 22t-29.5 31.5t-17 42.5t-7 56q0 89 58 133t189 44q147 0 239 -52l-75 -122q-70 37 -159 37
q-57 0 -76.5 -9.5t-19.5 -31.5q0 -23 18 -32t75 -17q45 -6 69.5 -10.5t59 -13t52 -20t36.5 -29.5t26.5 -44.5t7.5 -60.5q0 -98 -60 -140.5t-205 -42.5z" />
    <glyph glyph-name="Scircumflex" unicode="&#x15c;" horiz-adv-x="741" 
d="M123 781l155 183h162l155 -183h-147l-91 86l-90 -86h-144zM375 -11q-222 0 -353 97l82 118q118 -79 266 -79q104 0 138 20.5t34 69.5q0 42 -39 58.5t-137 30.5q-82 12 -132 25t-91.5 37.5t-59.5 64t-18 98.5q0 121 74.5 172.5t234.5 51.5q190 0 300 -73l-88 -127
q-37 24 -96.5 40.5t-117.5 16.5q-84 0 -114 -17.5t-30 -59.5q0 -18 8 -31t20 -21t38 -15t48.5 -11t64.5 -10q62 -9 100.5 -17t80 -24t64 -38t37.5 -58t15 -85q0 -118 -75 -176t-254 -58z" />
    <glyph glyph-name="scircumflex" unicode="&#x15d;" horiz-adv-x="573" 
d="M49 620l155 183h162l155 -183h-147l-91 86l-90 -86h-144zM280 -9q-164 0 -270 71l80 115q92 -59 200 -59q60 0 81 9t21 38q0 24 -20 33t-80 17q-36 5 -58 8.5t-51.5 11t-47 15.5t-37 22t-29.5 31.5t-17 42.5t-7 56q0 89 58 133t189 44q147 0 239 -52l-75 -122
q-70 37 -159 37q-57 0 -76.5 -9.5t-19.5 -31.5q0 -23 18 -32t75 -17q45 -6 69.5 -10.5t59 -13t52 -20t36.5 -29.5t26.5 -44.5t7.5 -60.5q0 -98 -60 -140.5t-205 -42.5z" />
    <glyph glyph-name="Scedilla" unicode="&#x15e;" horiz-adv-x="741" 
d="M370 -249q-75 0 -134 33l39 73q48 -24 89 -24q35 0 49 9.5t14 31.5q0 17 -11.5 25.5t-31 10t-45.5 -0.5l-30 19l13 63q-186 11 -300 95l82 118q118 -79 266 -79q104 0 138 20.5t34 69.5q0 42 -39 58.5t-137 30.5q-82 12 -132 25t-91.5 37.5t-59.5 64t-18 98.5
q0 121 74.5 172.5t234.5 51.5q190 0 300 -73l-88 -127q-37 24 -96.5 40.5t-117.5 16.5q-84 0 -114 -17.5t-30 -59.5q0 -18 8 -31t20 -21t38 -15t48.5 -11t64.5 -10q62 -9 100.5 -17t80 -24t64 -38t37.5 -58t15 -85q0 -112 -67 -169.5t-226 -63.5l-6 -32q28 1 46.5 -1.5
t38.5 -11t30 -29t10 -53.5q0 -61 -41 -86.5t-119 -25.5z" />
    <glyph glyph-name="scedilla" unicode="&#x15f;" horiz-adv-x="573" 
d="M287 -249q-75 0 -134 33l39 73q48 -24 89 -24q35 0 49 9.5t14 31.5q0 17 -11.5 25.5t-31 10t-45.5 -0.5l-30 19l14 65q-140 8 -230 69l80 115q92 -59 200 -59q60 0 81 9t21 38q0 24 -20 33t-80 17q-36 5 -58 8.5t-51.5 11t-47 15.5t-37 22t-29.5 31.5t-17 42.5t-7 56
q0 89 58 133t189 44q147 0 239 -52l-75 -122q-70 37 -159 37q-57 0 -76.5 -9.5t-19.5 -31.5q0 -23 18 -32t75 -17q45 -6 69.5 -10.5t59 -13t52 -20t36.5 -29.5t26.5 -44.5t7.5 -60.5q0 -91 -49.5 -133.5t-167.5 -48.5l-6 -34q28 1 46.5 -1.5t38.5 -11t30 -29t10 -53.5
q0 -61 -41 -86.5t-119 -25.5z" />
    <glyph glyph-name="Scaron" unicode="&#x160;" horiz-adv-x="741" 
d="M289 781l-155 183h147l91 -86l90 86h144l-155 -183h-162zM375 -11q-222 0 -353 97l82 118q118 -79 266 -79q104 0 138 20.5t34 69.5q0 42 -39 58.5t-137 30.5q-82 12 -132 25t-91.5 37.5t-59.5 64t-18 98.5q0 121 74.5 172.5t234.5 51.5q190 0 300 -73l-88 -127
q-37 24 -96.5 40.5t-117.5 16.5q-84 0 -114 -17.5t-30 -59.5q0 -18 8 -31t20 -21t38 -15t48.5 -11t64.5 -10q62 -9 100.5 -17t80 -24t64 -38t37.5 -58t15 -85q0 -118 -75 -176t-254 -58z" />
    <glyph glyph-name="scaron" unicode="&#x161;" horiz-adv-x="573" 
d="M206 620l-155 183h147l91 -86l90 86h144l-155 -183h-162zM280 -9q-164 0 -270 71l80 115q92 -59 200 -59q60 0 81 9t21 38q0 24 -20 33t-80 17q-36 5 -58 8.5t-51.5 11t-47 15.5t-37 22t-29.5 31.5t-17 42.5t-7 56q0 89 58 133t189 44q147 0 239 -52l-75 -122
q-70 37 -159 37q-57 0 -76.5 -9.5t-19.5 -31.5q0 -23 18 -32t75 -17q45 -6 69.5 -10.5t59 -13t52 -20t36.5 -29.5t26.5 -44.5t7.5 -60.5q0 -98 -60 -140.5t-205 -42.5z" />
    <glyph glyph-name="Tcommaaccent" unicode="&#x162;" horiz-adv-x="706" 
d="M311 -330l-34 66q45 22 57.5 34t12.5 37h-74v155h158v-110q0 -81 -21.5 -115t-98.5 -67zM271 0v593h-257v148h678v-148h-256v-593h-165z" />
    <glyph glyph-name="Tcommaaccent" unicode="&#x21a;" horiz-adv-x="706" 
d="M311 -330l-34 66q45 22 57.5 34t12.5 37h-74v155h158v-110q0 -81 -21.5 -115t-98.5 -67zM271 0v593h-257v148h678v-148h-256v-593h-165z" />
    <glyph glyph-name="tcommaaccent" unicode="&#x163;" horiz-adv-x="453" 
d="M160 -330l-34 66q45 22 57.5 34t12.5 37h-74v155h158v-110q0 -81 -21.5 -115t-98.5 -67zM25 432v134h100l27 138l122 25v-163h134v-134h-134v-233q0 -37 13 -52.5t60 -15.5h61v-131q-23 -2 -93 -2q-112 0 -154.5 40.5t-42.5 137.5v256h-93z" />
    <glyph glyph-name="tcommaaccent" unicode="&#x21b;" horiz-adv-x="453" 
d="M160 -330l-34 66q45 22 57.5 34t12.5 37h-74v155h158v-110q0 -81 -21.5 -115t-98.5 -67zM25 432v134h100l27 138l122 25v-163h134v-134h-134v-233q0 -37 13 -52.5t60 -15.5h61v-131q-23 -2 -93 -2q-112 0 -154.5 40.5t-42.5 137.5v256h-93z" />
    <glyph glyph-name="Tcaron" unicode="&#x164;" horiz-adv-x="706" 
d="M271 781l-155 183h147l91 -86l90 86h144l-155 -183h-162zM271 0v593h-257v148h678v-148h-256v-593h-165z" />
    <glyph glyph-name="tcaron" unicode="&#x165;" horiz-adv-x="453" 
d="M360 634l-32 63q43 22 55 33.5t12 35.5h-63v147h142v-105q0 -77 -20 -109.5t-94 -64.5zM25 432v134h100l27 138l122 25v-163h134v-134h-134v-233q0 -37 13 -52.5t60 -15.5h61v-131q-23 -2 -93 -2q-112 0 -154.5 40.5t-42.5 137.5v256h-93z" />
    <glyph glyph-name="Tbar" unicode="&#x166;" horiz-adv-x="706" 
d="M135 256v132h136v205h-257v148h678v-148h-256v-205h134v-132h-134v-256h-165v256h-136z" />
    <glyph glyph-name="tbar" unicode="&#x167;" horiz-adv-x="453" 
d="M25 432v134h100l27 138l122 25v-163h134v-134h-134v-78h134v-124h-134v-31q0 -37 13 -52.5t60 -15.5h61v-131q-23 -2 -93 -2q-112 0 -154.5 40.5t-42.5 137.5v54h-93v124h93v78h-93z" />
    <glyph glyph-name="Utilde" unicode="&#x168;" horiz-adv-x="816" 
d="M408 -14q-65 0 -117 9.5t-87 24.5t-60.5 38.5t-39.5 47.5t-22.5 56.5t-10.5 59t-2 61.5v458h164v-437q0 -90 35.5 -131.5t141.5 -41.5t142 40.5t36 132.5v437h159v-458q0 -50 -5 -86t-25 -79t-55 -69.5t-99.5 -44.5t-154.5 -18zM263 777l-87 71q87 108 168 108
q38 0 78 -27t60 -27q35 0 84 59l87 -71q-89 -110 -168 -110q-36 0 -76.5 27t-61.5 27q-38 0 -84 -57z" />
    <glyph glyph-name="utilde" unicode="&#x169;" horiz-adv-x="656" 
d="M329 -9q-157 0 -213.5 61t-56.5 212v302h157v-305q0 -30 1 -45t7 -35.5t17.5 -30t33.5 -16.5t55 -7q32 0 54 7t33.5 17t17.5 30t7 35.5t1 45.5v304h154v-301q0 -76 -11.5 -125t-41.5 -84t-82 -50t-133 -15zM179 616l-87 71q87 108 168 108q38 0 78 -27t60 -27q35 0 84 59
l87 -71q-89 -110 -168 -110q-36 0 -76.5 27t-61.5 27q-38 0 -84 -57z" />
    <glyph glyph-name="Umacron" unicode="&#x16a;" horiz-adv-x="816" 
d="M408 -14q-65 0 -117 9.5t-87 24.5t-60.5 38.5t-39.5 47.5t-22.5 56.5t-10.5 59t-2 61.5v458h164v-437q0 -90 35.5 -131.5t141.5 -41.5t142 40.5t36 132.5v437h159v-458q0 -50 -5 -86t-25 -79t-55 -69.5t-99.5 -44.5t-154.5 -18zM197 771v125h420v-125h-420z" />
    <glyph glyph-name="umacron" unicode="&#x16b;" horiz-adv-x="656" 
d="M329 -9q-157 0 -213.5 61t-56.5 212v302h157v-305q0 -30 1 -45t7 -35.5t17.5 -30t33.5 -16.5t55 -7q32 0 54 7t33.5 17t17.5 30t7 35.5t1 45.5v304h154v-301q0 -76 -11.5 -125t-41.5 -84t-82 -50t-133 -15zM118 610v125h420v-125h-420z" />
    <glyph glyph-name="Ubreve" unicode="&#x16c;" horiz-adv-x="816" 
d="M408 -14q-65 0 -117 9.5t-87 24.5t-60.5 38.5t-39.5 47.5t-22.5 56.5t-10.5 59t-2 61.5v458h164v-437q0 -90 35.5 -131.5t141.5 -41.5t142 40.5t36 132.5v437h159v-458q0 -50 -5 -86t-25 -79t-55 -69.5t-99.5 -44.5t-154.5 -18zM408 766q-104 0 -150 49t-65 147l113 21
q12 -54 32.5 -75.5t69.5 -21.5t69.5 21.5t32.5 75.5l114 -20q-21 -99 -67 -148t-149 -49z" />
    <glyph glyph-name="ubreve" unicode="&#x16d;" horiz-adv-x="656" 
d="M329 -9q-157 0 -213.5 61t-56.5 212v302h157v-305q0 -30 1 -45t7 -35.5t17.5 -30t33.5 -16.5t55 -7q32 0 54 7t33.5 17t17.5 30t7 35.5t1 45.5v304h154v-301q0 -76 -11.5 -125t-41.5 -84t-82 -50t-133 -15zM328 605q-104 0 -150 49t-65 147l113 21q12 -54 32.5 -75.5
t69.5 -21.5t69.5 21.5t32.5 75.5l114 -20q-21 -99 -67 -148t-149 -49z" />
    <glyph glyph-name="Uring" unicode="&#x16e;" horiz-adv-x="816" 
d="M407 765q-73 0 -108 39.5t-35 105.5t35 106.5t108 40.5q70 0 106 -41t36 -106t-36 -105t-106 -40zM407 842q64 0 64 68q0 69 -64 69q-65 0 -65 -69q0 -68 65 -68zM408 -14q-65 0 -117 9.5t-87 24.5t-60.5 38.5t-39.5 47.5t-22.5 56.5t-10.5 59t-2 61.5v458h164v-437
q0 -90 35.5 -131.5t141.5 -41.5t142 40.5t36 132.5v437h159v-458q0 -50 -5 -86t-25 -79t-55 -69.5t-99.5 -44.5t-154.5 -18z" />
    <glyph glyph-name="uring" unicode="&#x16f;" horiz-adv-x="656" 
d="M328 604q-73 0 -108 39.5t-35 105.5t35 106.5t108 40.5q70 0 106 -41t36 -106t-36 -105t-106 -40zM328 681q64 0 64 68q0 69 -64 69q-65 0 -65 -69q0 -68 65 -68zM329 -9q-157 0 -213.5 61t-56.5 212v302h157v-305q0 -30 1 -45t7 -35.5t17.5 -30t33.5 -16.5t55 -7
q32 0 54 7t33.5 17t17.5 30t7 35.5t1 45.5v304h154v-301q0 -76 -11.5 -125t-41.5 -84t-82 -50t-133 -15z" />
    <glyph glyph-name="Uhungarumlaut" unicode="&#x170;" horiz-adv-x="816" 
d="M408 -14q-65 0 -117 9.5t-87 24.5t-60.5 38.5t-39.5 47.5t-22.5 56.5t-10.5 59t-2 61.5v458h164v-437q0 -90 35.5 -131.5t141.5 -41.5t142 40.5t36 132.5v437h159v-458q0 -50 -5 -86t-25 -79t-55 -69.5t-99.5 -44.5t-154.5 -18zM167 781l126 183h181l-176 -183h-131z
M437 781l126 183h181l-176 -183h-131z" />
    <glyph glyph-name="uhungarumlaut" unicode="&#x171;" horiz-adv-x="656" 
d="M329 -9q-157 0 -213.5 61t-56.5 212v302h157v-305q0 -30 1 -45t7 -35.5t17.5 -30t33.5 -16.5t55 -7q32 0 54 7t33.5 17t17.5 30t7 35.5t1 45.5v304h154v-301q0 -76 -11.5 -125t-41.5 -84t-82 -50t-133 -15zM88 620l126 183h181l-176 -183h-131zM358 620l126 183h181
l-176 -183h-131z" />
    <glyph glyph-name="Uogonek" unicode="&#x172;" horiz-adv-x="816" 
d="M516 -238q-80 0 -110 26.5t-30 79.5q0 69 80 120q-30 -2 -48 -2q-65 0 -117 9.5t-87 24.5t-60.5 38.5t-39.5 47.5t-22.5 56.5t-10.5 59t-2 61.5v458h164v-437q0 -90 35.5 -131.5t141.5 -41.5t142 40.5t36 132.5v437h159v-458q0 -47 -5 -81.5t-18.5 -70.5t-41.5 -64.5
t-71 -48.5q-65 -32 -96.5 -66.5t-31.5 -65.5q0 -19 12.5 -28.5t46.5 -9.5q44 0 95 21l25 -72q-76 -35 -146 -35z" />
    <glyph glyph-name="uogonek" unicode="&#x173;" horiz-adv-x="656" 
d="M410 -238q-80 0 -110 26.5t-30 79.5q0 69 83 122q-5 -1 -25 -1q-157 0 -213 62t-56 213v302h157v-305q0 -30 1 -45t7 -35.5t17.5 -30t33.5 -16.5t55 -7q32 0 54 7t33.5 17t17.5 30t7 35.5t1 45.5v304h154v-301q0 -109 -25 -166.5t-91 -91.5q-48 -25 -76 -58.5t-28 -62.5
q0 -19 12.5 -28.5t46.5 -9.5q44 0 95 21l25 -72q-76 -35 -146 -35z" />
    <glyph glyph-name="Wcircumflex" unicode="&#x174;" horiz-adv-x="1082" 
d="M306 781l155 183h162l155 -183h-147l-91 86l-90 -86h-144zM245 -5l-226 746h171l138 -476l144 476h148l145 -476l138 476h160l-225 -746h-145l-152 498l-152 -498h-144z" />
    <glyph glyph-name="wcircumflex" unicode="&#x175;" horiz-adv-x="920" 
d="M223 620l155 183h162l155 -183h-147l-91 86l-90 -86h-144zM194 -6l-185 572h165l104 -345l108 345h155l108 -344l104 344h158l-184 -572h-150l-117 364l-117 -364h-149z" />
    <glyph glyph-name="Ycircumflex" unicode="&#x176;" horiz-adv-x="760" 
d="M298 0v260l-295 481h176l204 -334l204 334h169l-295 -481v-260h-163zM143 781l155 183h162l155 -183h-147l-91 86l-90 -86h-144z" />
    <glyph glyph-name="ycircumflex" unicode="&#x177;" horiz-adv-x="584" 
d="M134 -170q-22 0 -56 2v118h42q46 0 63 8.5t25 33.5l7 21l-216 553h169l131 -360l127 360h159l-227 -591q-30 -81 -77 -113t-147 -32zM61 620l155 183h162l155 -183h-147l-91 86l-90 -86h-144z" />
    <glyph glyph-name="Ydieresis" unicode="&#x178;" horiz-adv-x="760" 
d="M298 0v260l-295 481h176l204 -334l204 334h169l-295 -481v-260h-163zM195 786v136h142v-136h-142zM422 786v136h141v-136h-141z" />
    <glyph glyph-name="Zacute" unicode="&#x179;" horiz-adv-x="692" 
d="M243 781l141 183h189l-191 -183h-139zM32 0v122l407 471h-390v148h597v-134l-401 -465h412v-142h-625z" />
    <glyph glyph-name="zacute" unicode="&#x17a;" horiz-adv-x="540" 
d="M168 620l141 183h189l-191 -183h-139zM20 0v105l281 327h-265v134h476v-107l-283 -333h294v-126h-503z" />
    <glyph glyph-name="Zdotaccent" unicode="&#x17b;" horiz-adv-x="692" 
d="M32 0v122l407 471h-390v148h597v-134l-401 -465h412v-142h-625zM266 779v139h159v-139h-159z" />
    <glyph glyph-name="zdotaccent" unicode="&#x17c;" horiz-adv-x="540" 
d="M20 0v105l281 327h-265v134h476v-107l-283 -333h294v-126h-503zM191 618v139h159v-139h-159z" />
    <glyph glyph-name="Zcaron" unicode="&#x17d;" horiz-adv-x="692" 
d="M265 781l-155 183h147l91 -86l90 86h144l-155 -183h-162zM32 0v122l407 471h-390v148h597v-134l-401 -465h412v-142h-625z" />
    <glyph glyph-name="zcaron" unicode="&#x17e;" horiz-adv-x="540" 
d="M190 620l-155 183h147l91 -86l90 86h144l-155 -183h-162zM20 0v105l281 327h-265v134h476v-107l-283 -333h294v-126h-503z" />
    <glyph glyph-name="longs" unicode="&#x17f;" horiz-adv-x="444" 
d="M132 0v593q0 102 47 151.5t167 49.5q39 0 75 -2v-128h-54q-46 0 -62.5 -17t-16.5 -53v-594h-156z" />
    <glyph glyph-name="florin" unicode="&#x192;" horiz-adv-x="615" 
d="M84 327v135h136l24 110q8 42 20 69t36 52t67.5 36.5t107.5 11.5h56v-140h-47q-49 0 -67 -18t-26 -58l-14 -63h154v-135h-183l-105 -493h-157l105 493h-107z" />
    <glyph glyph-name="Ohorn" unicode="&#x1a0;" horiz-adv-x="853" 
d="M818 901v-137q0 -95 -78 -128q79 -94 79 -265q0 -383 -393 -383q-392 0 -392 383q0 382 392 382q148 0 241 -55q67 3 71 54h-69v149h149zM426 132q122 0 174.5 60.5t52.5 175.5t-52.5 175t-174.5 60t-174.5 -60t-52.5 -175t52.5 -175.5t174.5 -60.5z" />
    <glyph glyph-name="ohorn" unicode="&#x1a1;" horiz-adv-x="677" 
d="M654 740v-136q0 -94 -75 -128q47 -71 47 -192q0 -148 -69.5 -221.5t-225.5 -73.5t-226 74t-70 221t70 221t226 74q113 0 182 -40q56 5 62 53h-70v148h149zM331 123q77 0 107.5 39t30.5 118q0 78 -30.5 117t-107.5 39q-78 0 -108 -38.5t-30 -117.5t30 -118t108 -39z" />
    <glyph glyph-name="Uhorn" unicode="&#x1af;" horiz-adv-x="846" 
d="M874 944v-137q0 -57 -31 -95.5t-96 -46.5v-382q0 -35 -2 -61.5t-10.5 -59t-22.5 -56.5t-39.5 -47.5t-60.5 -38.5t-87 -24.5t-117 -9.5t-117 9.5t-87 24.5t-60.5 38.5t-39.5 47.5t-22.5 56.5t-10.5 59t-2 61.5v458h164v-437q0 -90 35.5 -131.5t141.5 -41.5t142 40.5
t36 132.5v437h129q74 0 78 54h-69v149h148z" />
    <glyph glyph-name="uhorn" unicode="&#x1b0;" horiz-adv-x="727" 
d="M732 768v-137q0 -58 -33 -96.5t-102 -44.5v-225q0 -151 -56 -213.5t-213 -62.5t-213 62t-56 213v302h157v-305q0 -30 1 -45t7 -35.5t17.5 -30t33.5 -16.5t55 -7q32 0 54 7t33.5 17t17.5 30t7 35.5t1 45.5v304h132q74 0 78 53h-70v149h149z" />
    <glyph glyph-name="Aringacute" unicode="&#x1fa;" horiz-adv-x="789" 
d="M290 972l141 183h189l-191 -183h-139zM14 0l277 696q-40 37 -40 110q0 66 35 106.5t108 40.5q70 0 106 -41t36 -106q0 -69 -40 -109l280 -697h-170l-48 122h-336l-48 -122h-160zM274 257h232l-116 295zM394 738q64 0 64 68q0 69 -64 69q-65 0 -65 -69q0 -68 65 -68z" />
    <glyph glyph-name="aringacute" unicode="&#x1fb;" horiz-adv-x="645" 
d="M238 -9q-122 0 -167.5 45.5t-45.5 129.5q0 116 83 157t280 41h23q-1 42 -22 59.5t-90 17.5q-90 0 -164 -46l-78 115q38 25 108.5 47t150.5 22q101 0 154.5 -24t72.5 -70t19 -131v-172q0 -35 7.5 -43.5t41.5 -8.5v-128q-15 -4 -66 -4q-46 0 -69 11.5t-39 44.5
q-47 -63 -199 -63zM269 117q74 0 108 28t34 90v21h-13q-101 0 -148 -7t-61.5 -22t-14.5 -48t21 -47.5t74 -14.5zM220 937l141 183h189l-191 -183h-139zM323 604q-73 0 -108 39.5t-35 105.5t35 106.5t108 40.5q70 0 106 -41t36 -106t-36 -105t-106 -40zM323 681q64 0 64 68
q0 69 -64 69q-65 0 -65 -69q0 -68 65 -68z" />
    <glyph glyph-name="AEacute" unicode="&#x1fc;" horiz-adv-x="1148" 
d="M447 781l141 183h189l-191 -183h-139zM3 0l465 741h624v-148h-393v-144h383v-143h-383v-164h397v-142h-554v127h-295l-85 -127h-159zM325 260h217v338z" />
    <glyph glyph-name="aeacute" unicode="&#x1fd;" horiz-adv-x="989" 
d="M359 620l141 183h189l-191 -183h-139zM700 -11q-168 0 -231 83q-34 -52 -85.5 -66.5t-145.5 -14.5q-121 0 -167 44.5t-46 130.5q0 116 82 157t281 41h23q-1 42 -22 59.5t-90 17.5q-90 0 -164 -46l-78 115q38 25 108.5 47t150.5 22q133 0 182 -55q68 55 201 55
q73 0 123 -19t75.5 -52t39.5 -77.5t14 -97v-109.5h-394q7 -54 39 -81t104 -27q109 0 178 52l79 -102q-55 -42 -112.5 -59.5t-144.5 -17.5zM268 117q76 0 109.5 28t33.5 90v21h-13q-101 0 -148 -7t-61.5 -22t-14.5 -48t19.5 -47.5t74.5 -14.5zM695 448q-70 0 -101 -28
t-37 -84h251q-1 30 -4.5 46t-14 33.5t-33.5 25t-61 7.5z" />
    <glyph glyph-name="Oslashacute" unicode="&#x1fe;" horiz-adv-x="853" 
d="M426 -12q-78 0 -142 15l-26 -44h-153l58 97q-129 92 -129 315q0 382 392 382q75 0 138 -15l27 45h152l-58 -96q134 -93 134 -316q0 -383 -393 -383zM426 126q127 0 180 62t53 180q0 128 -59 186l-247 -422q33 -6 73 -6zM193 368q0 -124 55 -182l243 418q-32 5 -65 5
q-127 0 -180 -61.5t-53 -179.5zM323 781l141 183h189l-191 -183h-139z" />
    <glyph glyph-name="oslashacute" unicode="&#x1ff;" horiz-adv-x="661" 
d="M331 -11q-60 0 -110 11l-27 -43h-140l60 94q-79 69 -79 233q0 149 68 222t228 73q59 0 108 -11l28 43h141l-61 -95q79 -71 79 -232q0 -149 -67.5 -222t-227.5 -73zM331 119q79 0 110 41t31 120q0 65 -19 100l-161 -258q16 -3 39 -3zM190 280q0 -62 16 -97l158 254
q-15 3 -33 3q-80 0 -110.5 -40.5t-30.5 -119.5zM227 620l141 183h189l-191 -183h-139z" />
    <glyph glyph-name="Scommaaccent" unicode="&#x218;" horiz-adv-x="741" 
d="M328 -330l-34 66q45 22 57.5 34t12.5 37h-74v155h158v-110q0 -81 -21.5 -115t-98.5 -67zM375 -11q-222 0 -353 97l82 118q118 -79 266 -79q104 0 138 20.5t34 69.5q0 42 -39 58.5t-137 30.5q-82 12 -132 25t-91.5 37.5t-59.5 64t-18 98.5q0 121 74.5 172.5t234.5 51.5
q190 0 300 -73l-88 -127q-37 24 -96.5 40.5t-117.5 16.5q-84 0 -114 -17.5t-30 -59.5q0 -18 8 -31t20 -21t38 -15t48.5 -11t64.5 -10q62 -9 100.5 -17t80 -24t64 -38t37.5 -58t15 -85q0 -118 -75 -176t-254 -58z" />
    <glyph glyph-name="scommaaccent" unicode="&#x219;" horiz-adv-x="573" 
d="M244 -330l-34 66q45 22 57.5 34t12.5 37h-74v155h158v-110q0 -81 -21.5 -115t-98.5 -67zM280 -9q-164 0 -270 71l80 115q92 -59 200 -59q60 0 81 9t21 38q0 24 -20 33t-80 17q-36 5 -58 8.5t-51.5 11t-47 15.5t-37 22t-29.5 31.5t-17 42.5t-7 56q0 89 58 133t189 44
q147 0 239 -52l-75 -122q-70 37 -159 37q-57 0 -76.5 -9.5t-19.5 -31.5q0 -23 18 -32t75 -17q45 -6 69.5 -10.5t59 -13t52 -20t36.5 -29.5t26.5 -44.5t7.5 -60.5q0 -98 -60 -140.5t-205 -42.5z" />
    <glyph glyph-name="circumflex" unicode="&#x2c6;" horiz-adv-x="590" 
d="M59 620l155 183h162l155 -183h-147l-91 86l-90 -86h-144z" />
    <glyph glyph-name="caron" unicode="&#x2c7;" horiz-adv-x="590" 
d="M214 620l-155 183h147l91 -86l90 86h144l-155 -183h-162z" />
    <glyph glyph-name="breve" unicode="&#x2d8;" horiz-adv-x="590" 
d="M295 605q-104 0 -150 49t-65 147l113 21q12 -54 32.5 -75.5t69.5 -21.5t69.5 21.5t32.5 75.5l114 -20q-21 -99 -67 -148t-149 -49z" />
    <glyph glyph-name="dotaccent" unicode="&#x2d9;" horiz-adv-x="590" 
d="M215 618v139h159v-139h-159z" />
    <glyph glyph-name="ring" unicode="&#x2da;" horiz-adv-x="590" 
d="M295 604q-73 0 -108 39.5t-35 105.5t35 106.5t108 40.5q70 0 106 -41t36 -106t-36 -105t-106 -40zM295 681q64 0 64 68q0 69 -64 69q-65 0 -65 -69q0 -68 65 -68z" />
    <glyph glyph-name="ogonek" unicode="&#x2db;" horiz-adv-x="590" 
d="M314 -238q-82 0 -116 27t-34 79q0 49 29 85t65 56h125q-50 -30 -74.5 -59.5t-24.5 -50.5q0 -20 10.5 -29t40.5 -9q44 0 87 15l29 -85q-63 -29 -137 -29z" />
    <glyph glyph-name="tilde" unicode="&#x2dc;" horiz-adv-x="590" 
d="M142 616l-87 71q87 108 168 108q38 0 78 -27t60 -27q35 0 84 59l87 -71q-89 -110 -168 -110q-36 0 -76.5 27t-61.5 27q-38 0 -84 -57z" />
    <glyph glyph-name="hungarumlaut" unicode="&#x2dd;" horiz-adv-x="590" 
d="M55 620l126 183h181l-176 -183h-131zM325 620l126 183h181l-176 -183h-131z" />
    <glyph glyph-name="hookabovecomb" unicode="&#x309;" horiz-adv-x="590" 
d="M242 532q-7 37 4.5 63t48.5 48q27 16 34.5 23t7.5 18q0 26 -48 26q-50 0 -92 -20l-44 89q54 27 143 27q75 0 117 -28t42 -74q0 -39 -15.5 -62t-46.5 -41q-28 -16 -37.5 -30.5t-9.5 -38.5h-104z" />
    <glyph glyph-name="dotbelowcomb" unicode="&#x323;" horiz-adv-x="590" 
d="M215 -197v139h159v-139h-159z" />
    <glyph glyph-name="commaaccent" unicode="&#x326;" horiz-adv-x="293" 
d="M105 -330l-34 66q45 22 57.5 34t12.5 37h-74v155h158v-110q0 -81 -21.5 -115t-98.5 -67z" />
    <glyph glyph-name="uni0340" unicode="&#x340;" horiz-adv-x="590" 
d="M259 620l-191 183h189l141 -183h-139z" />
    <glyph glyph-name="uni0341" unicode="&#x341;" horiz-adv-x="590" 
d="M192 620l141 183h189l-191 -183h-139z" />
    <glyph glyph-name="tonos" unicode="&#x384;" horiz-adv-x="590" 
d="M232 620l79 183h145l-106 -183h-118z" />
    <glyph glyph-name="dieresistonos" unicode="&#x385;" horiz-adv-x="590" 
d="M62 620v136h111v-136h-111zM418 620v136h111v-136h-111zM204 620l71 183h137l-98 -183h-110z" />
    <glyph glyph-name="Alphatonos" unicode="&#x386;" horiz-adv-x="804" 
d="M21 562l79 183h145l-106 -183h-118zM29 0l297 746h166l299 -746h-170l-48 122h-336l-48 -122h-160zM289 257h232l-116 295z" />
    <glyph glyph-name="Epsilontonos" unicode="&#x388;" horiz-adv-x="899" 
d="M21 558l79 183h145l-106 -183h-118zM285 0v741h557v-148h-393v-144h383v-143h-383v-164h397v-142h-561z" />
    <glyph glyph-name="Etatonos" unicode="&#x389;" horiz-adv-x="1027" 
d="M21 558l79 183h145l-106 -183h-118zM285 0v741h164v-284h339v284h164v-741h-164v304h-339v-304h-164z" />
    <glyph glyph-name="Iotatonos" unicode="&#x38a;" horiz-adv-x="544" 
d="M21 558l79 183h145l-106 -183h-118zM294 0v741h163v-741h-163z" />
    <glyph glyph-name="Omicrontonos" unicode="&#x38c;" horiz-adv-x="1014" 
d="M21 558l79 183h145l-106 -183h-118zM587 -12q-392 0 -392 383q0 382 392 382q393 0 393 -382q0 -383 -393 -383zM587 132q122 0 174.5 60.5t52.5 175.5t-52.5 175t-174.5 60t-174.5 -60t-52.5 -175t52.5 -175.5t174.5 -60.5z" />
    <glyph glyph-name="Upsilontonos" unicode="&#x38e;" horiz-adv-x="1031" 
d="M21 558l79 183h145l-106 -183h-118zM569 0v260l-295 481h176l204 -334l204 334h169l-295 -481v-260h-163z" />
    <glyph glyph-name="Omegatonos" unicode="&#x38f;" horiz-adv-x="1040" 
d="M596 753q193 0 293 -93t100 -237q0 -223 -212 -263v-26h223v-134h-340v215q88 17 125.5 61.5t37.5 120.5q0 97 -58 151.5t-169 54.5q-112 0 -170 -54.5t-58 -151.5q0 -76 37.5 -120.5t125.5 -61.5v-215h-340v134h223v26q-211 40 -211 263q0 144 99.5 237t293.5 93z
M21 558l79 183h145l-106 -183h-118z" />
    <glyph glyph-name="iotadieresistonos" unicode="&#x390;" horiz-adv-x="293" 
d="M-86 620v136h111v-136h-111zM270 620v136h111v-136h-111zM56 620l71 183h137l-98 -183h-110zM68 0v566h156v-566h-156z" />
    <glyph glyph-name="Alpha" unicode="&#x391;" horiz-adv-x="789" 
d="M14 0l297 746h166l299 -746h-170l-48 122h-336l-48 -122h-160zM274 257h232l-116 295z" />
    <glyph glyph-name="Beta" unicode="&#x392;" horiz-adv-x="755" 
d="M74 0v741h344q148 0 214.5 -44.5t66.5 -146.5q0 -129 -99 -164q64 -15 91.5 -58.5t27.5 -123.5q0 -116 -72.5 -160t-230.5 -44h-342zM235 136h200q63 0 90.5 19t27.5 65t-27 64.5t-91 18.5h-200v-167zM235 445h189q62 0 85.5 19.5t23.5 61.5q0 40 -24 58t-85 18h-189
v-157z" />
    <glyph glyph-name="Gamma" unicode="&#x393;" horiz-adv-x="652" 
d="M238 593v-593h-164v741h539v-148h-375z" />
    <glyph glyph-name="Delta" unicode="&#x394;" horiz-adv-x="789" 
d="M14 0l297 746h166l298 -746h-761zM226 135h327l-164 417z" />
    <glyph glyph-name="Delta" unicode="&#x2206;" horiz-adv-x="789" 
d="M14 0l297 746h166l298 -746h-761zM226 135h327l-164 417z" />
    <glyph glyph-name="Epsilon" unicode="&#x395;" horiz-adv-x="687" 
d="M74 0v741h557v-148h-393v-144h383v-143h-383v-164h397v-142h-561z" />
    <glyph glyph-name="Zeta" unicode="&#x396;" horiz-adv-x="692" 
d="M32 0v122l407 471h-390v148h597v-134l-401 -465h412v-142h-625z" />
    <glyph glyph-name="Eta" unicode="&#x397;" horiz-adv-x="815" 
d="M74 0v741h164v-284h339v284h164v-741h-164v304h-339v-304h-164z" />
    <glyph glyph-name="Theta" unicode="&#x398;" horiz-adv-x="853" 
d="M280 298v143h292v-143h-292zM426 -12q-392 0 -392 383q0 382 392 382q393 0 393 -382q0 -383 -393 -383zM426 132q122 0 174.5 60.5t52.5 175.5t-52.5 175t-174.5 60t-174.5 -60t-52.5 -175t52.5 -175.5t174.5 -60.5z" />
    <glyph glyph-name="Iota" unicode="&#x399;" horiz-adv-x="333" 
d="M85 0v741h163v-741h-163z" />
    <glyph glyph-name="Kappa" unicode="&#x39a;" horiz-adv-x="760" 
d="M549 0l-208 323l-105 -124v-199h-162v741h162v-335l281 335h181l-251 -293l287 -448h-185z" />
    <glyph glyph-name="Lambda" unicode="&#x39b;" horiz-adv-x="781" 
d="M473 746l293 -746h-172l-207 542l-206 -542h-169l295 746h166z" />
    <glyph glyph-name="Mu" unicode="&#x39c;" horiz-adv-x="978" 
d="M74 0v741h214l201 -506l201 506h213v-741h-160v495l-199 -495h-124l-198 492v-492h-148z" />
    <glyph glyph-name="Nu" unicode="&#x39d;" horiz-adv-x="823" 
d="M74 0v741h177l341 -467v467h156v-741h-150l-367 500v-500h-157z" />
    <glyph glyph-name="Xi" unicode="&#x39e;" horiz-adv-x="683" 
d="M55 593v148h571v-148h-571zM111 308v143h462v-143h-462zM51 0v142h581v-142h-581z" />
    <glyph glyph-name="Omicron" unicode="&#x39f;" horiz-adv-x="853" 
d="M426 -12q-392 0 -392 383q0 382 392 382q393 0 393 -382q0 -383 -393 -383zM426 132q122 0 174.5 60.5t52.5 175.5t-52.5 175t-174.5 60t-174.5 -60t-52.5 -175t52.5 -175.5t174.5 -60.5z" />
    <glyph glyph-name="Pi" unicode="&#x3a0;" horiz-adv-x="790" 
d="M74 0v741h641v-741h-164v595h-315v-595h-162z" />
    <glyph glyph-name="Rho" unicode="&#x3a1;" horiz-adv-x="760" 
d="M74 0v741h356q163 0 229.5 -63t66.5 -185q0 -60 -14 -106t-47.5 -83.5t-94.5 -57t-148 -19.5h-188v-227h-160zM234 367h195q71 0 102 27t31 91q0 66 -30.5 91t-104.5 25h-193v-234z" />
    <glyph glyph-name="Sigma" unicode="&#x3a3;" horiz-adv-x="662" 
d="M32 0v122l227 248l-216 237v134h567v-148h-359l203 -223l-209 -228h382v-142h-595z" />
    <glyph glyph-name="Tau" unicode="&#x3a4;" horiz-adv-x="706" 
d="M271 0v593h-257v148h678v-148h-256v-593h-165z" />
    <glyph glyph-name="Upsilon" unicode="&#x3a5;" horiz-adv-x="760" 
d="M298 0v260l-295 481h176l204 -334l204 334h169l-295 -481v-260h-163z" />
    <glyph glyph-name="Phi" unicode="&#x3a6;" horiz-adv-x="914" 
d="M376 0v47q-354 28 -354 324q0 293 354 323v47h163v-47q168 -14 261 -93t93 -230q0 -294 -354 -324v-47h-163zM187 368q0 -151 189 -175v350q-189 -24 -189 -175zM727 368q0 151 -188 175v-350q188 24 188 175z" />
    <glyph glyph-name="Chi" unicode="&#x3a7;" horiz-adv-x="781" 
d="M569 0l-186 267l-176 -267h-181l272 389l-244 352h184l159 -228l150 228h181l-247 -349l274 -392h-186z" />
    <glyph glyph-name="Psi" unicode="&#x3a8;" horiz-adv-x="813" 
d="M325 0v247q-153 12 -211 74.5t-58 197.5v222h156v-225q0 -29 3 -46t13.5 -36t34 -30.5t62.5 -16.5v354h164v-354q39 5 63 16.5t34.5 30.5t13 36t2.5 47v224h155v-221q0 -134 -59.5 -197.5t-208.5 -75.5v-247h-164z" />
    <glyph glyph-name="Omega" unicode="&#x3a9;" horiz-adv-x="887" 
d="M444 753q193 0 293 -93t100 -237q0 -223 -212 -263v-26h223v-134h-340v215q88 17 125.5 61.5t37.5 120.5q0 97 -58 151.5t-169 54.5q-112 0 -170 -54.5t-58 -151.5q0 -76 37.5 -120.5t125.5 -61.5v-215h-340v134h223v26q-211 40 -211 263q0 144 99.5 237t293.5 93z" />
    <glyph glyph-name="Omega" unicode="&#x2126;" horiz-adv-x="887" 
d="M444 753q193 0 293 -93t100 -237q0 -223 -212 -263v-26h223v-134h-340v215q88 17 125.5 61.5t37.5 120.5q0 97 -58 151.5t-169 54.5q-112 0 -170 -54.5t-58 -151.5q0 -76 37.5 -120.5t125.5 -61.5v-215h-340v134h223v26q-211 40 -211 263q0 144 99.5 237t293.5 93z" />
    <glyph glyph-name="Iotadieresis" unicode="&#x3aa;" horiz-adv-x="333" 
d="M-17 789v136h142v-136h-142zM210 789v136h141v-136h-141zM85 0v741h163v-741h-163z" />
    <glyph glyph-name="Upsilondieresis" unicode="&#x3ab;" horiz-adv-x="760" 
d="M195 789v136h142v-136h-142zM422 789v136h141v-136h-141zM298 0v260l-295 481h176l204 -334l204 334h169l-295 -481v-260h-163z" />
    <glyph glyph-name="alphatonos" unicode="&#x3ac;" horiz-adv-x="697" 
d="M261 620l79 183h145l-106 -183h-118zM318 124q76 0 107 38.5t31 123.5q0 83 -28.5 117.5t-109.5 34.5q-72 0 -98 -38.5t-26 -113.5q0 -78 26.5 -120t97.5 -42zM486 61q-28 -37 -76 -53.5t-129 -16.5q-70 0 -119.5 22.5t-76.5 64.5t-38.5 92.5t-11.5 115.5t12 115t39 91.5
t77.5 63.5t122.5 22q144 0 191 -58l31 49l106 -9v-378q0 -35 7.5 -43.5t41.5 -8.5v-128q-15 -4 -66 -4q-47 0 -72 13.5t-39 49.5z" />
    <glyph glyph-name="epsilontonos" unicode="&#x3ad;" horiz-adv-x="522" 
d="M212 620l79 183h145l-106 -183h-118zM270 -13q-128 0 -182.5 44t-54.5 132q0 59 21.5 90t66.5 43q-72 26 -72 123q0 161 215 161q156 0 248 -71l-80 -98q-60 37 -145 37q-83 0 -83 -50q0 -26 17 -37.5t71 -11.5h86v-112h-80q-69 0 -90.5 -14t-21.5 -43q0 -32 22.5 -48
t76.5 -16q85 0 153 47l85 -96q-92 -80 -253 -80z" />
    <glyph glyph-name="etatonos" unicode="&#x3ae;" horiz-adv-x="664" 
d="M276 620l79 183h145l-106 -183h-118zM62 0v557l122 9l13 -49q56 62 205 62q62 0 103.5 -16.5t62.5 -49.5t29 -73t8 -97v-508h-156v477q0 61 -19 90t-84 29q-76 0 -101.5 -31t-25.5 -95v-305h-157z" />
    <glyph glyph-name="iotatonos" unicode="&#x3af;" horiz-adv-x="293" 
d="M85 620l79 183h145l-106 -183h-118zM68 0v566h156v-566h-156z" />
    <glyph glyph-name="upsilondieresistonos" unicode="&#x3b0;" horiz-adv-x="656" 
d="M95 620v136h111v-136h-111zM451 620v136h111v-136h-111zM237 620l71 183h137l-98 -183h-110zM329 -9q-157 0 -213.5 61t-56.5 212v302h157v-305q0 -30 1 -45t7 -35.5t17.5 -30t33.5 -16.5t55 -7q32 0 54 7t33.5 17t17.5 30t7 35.5t1 45.5v304h154v-301q0 -76 -11.5 -125
t-41.5 -84t-82 -50t-133 -15z" />
    <glyph glyph-name="alpha" unicode="&#x3b1;" horiz-adv-x="697" 
d="M318 124q76 0 107 38.5t31 123.5q0 83 -28.5 117.5t-109.5 34.5q-72 0 -98 -38.5t-26 -113.5q0 -78 26.5 -120t97.5 -42zM486 61q-28 -37 -76 -53.5t-129 -16.5q-70 0 -119.5 22.5t-76.5 64.5t-38.5 92.5t-11.5 115.5t12 115t39 91.5t77.5 63.5t122.5 22q144 0 191 -58
l31 49l106 -9v-378q0 -35 7.5 -43.5t41.5 -8.5v-128q-15 -4 -66 -4q-47 0 -72 13.5t-39 49.5z" />
    <glyph glyph-name="beta" unicode="&#x3b2;" horiz-adv-x="695" 
d="M62 -165v684q0 44 6.5 79.5t25 71.5t49 60t82 39t120.5 15q259 0 259 -202q0 -78 -19.5 -117t-66.5 -59q74 -14 109.5 -56t35.5 -131q0 -81 -23.5 -126t-92.5 -69t-197 -24h-60v133h55q68 0 105 12.5t47.5 32t10.5 52.5q0 53 -38.5 72t-156.5 19v123q79 0 107.5 21.5
t28.5 74.5q0 46 -24.5 69t-82.5 23q-66 0 -95.5 -29t-29.5 -90v-678h-155z" />
    <glyph glyph-name="gamma" unicode="&#x3b3;" horiz-adv-x="613" 
d="M224 -166v160l-225 572h169l143 -384l143 384h159l-225 -572v-160h-164z" />
    <glyph glyph-name="delta" unicode="&#x3b4;" horiz-adv-x="661" 
d="M331 -11q-152 0 -224 71.5t-72 193.5q0 111 60 181t188 81l-185 154v106h464v-133h-237l210 -178q91 -65 91 -211q0 -122 -71.5 -193.5t-223.5 -71.5zM331 123q138 0 138 126q0 134 -138 134q-76 0 -107 -35.5t-31 -98.5q0 -126 138 -126z" />
    <glyph glyph-name="epsilon" unicode="&#x3b5;" horiz-adv-x="534" 
d="M270 -13q-128 0 -182.5 44t-54.5 132q0 59 21.5 90t66.5 43q-72 26 -72 123q0 161 215 161q156 0 248 -71l-80 -98q-60 37 -145 37q-83 0 -83 -50q0 -26 17 -37.5t71 -11.5h86v-112h-80q-69 0 -90.5 -14t-21.5 -43q0 -32 22.5 -48t76.5 -16q85 0 153 47l85 -96
q-92 -80 -253 -80z" />
    <glyph glyph-name="zeta" unicode="&#x3b6;" horiz-adv-x="540" 
d="M334 -161q-72 0 -133 34l38 73q48 -25 89 -25q35 0 49 9t14 29q0 19 -17.5 27t-58.5 10q-81 1 -138 22t-86.5 56.5t-42.5 75.5t-13 88q0 57 16 106t53 99t81 93.5t116 106.5h-265v133h476v-107q-182 -144 -250.5 -237t-68.5 -178q0 -54 29.5 -88.5t104.5 -42.5
q94 -10 132 -42t38 -98q0 -73 -39.5 -108.5t-123.5 -35.5z" />
    <glyph glyph-name="eta" unicode="&#x3b7;" horiz-adv-x="664" 
d="M62 0v557l122 9l13 -49q56 62 205 62q62 0 103.5 -16.5t62.5 -49.5t29 -73t8 -97v-508h-156v477q0 61 -19 90t-84 29q-76 0 -101.5 -31t-25.5 -95v-305h-157z" />
    <glyph glyph-name="theta" unicode="&#x3b8;" horiz-adv-x="772" 
d="M387 -11q-172 0 -248.5 101.5t-76.5 296.5q0 196 76.5 297t248.5 101q170 0 246.5 -101.5t76.5 -296.5q0 -194 -76.5 -296t-246.5 -102zM387 643q-82 0 -119 -51.5t-43 -152.5h321q-6 101 -42 152.5t-117 51.5zM387 125q80 0 116 52t43 151h-320q6 -99 43 -151t118 -52z
" />
    <glyph glyph-name="iota" unicode="&#x3b9;" horiz-adv-x="293" 
d="M68 0v566h156v-566h-156z" />
    <glyph glyph-name="kappa" unicode="&#x3ba;" horiz-adv-x="605" 
d="M62 0v566h155v-234l193 234h171l-190 -231l207 -335h-174l-139 218l-68 -81v-137h-155z" />
    <glyph glyph-name="lambda" unicode="&#x3bb;" horiz-adv-x="611" 
d="M134 777q102 0 154.5 -32.5t82.5 -112.5l241 -632h-169l-140 391l-145 -391h-159l227 574l-16 41q-10 25 -27 33.5t-63 8.5h-42v118q34 2 56 2z" />
    <glyph glyph-name="uni03BC" unicode="&#x3bc;" horiz-adv-x="666" 
d="M268 -11q-32 0 -62 5v-159h-144v731h157v-317q0 -63 20 -92.5t82 -29.5q75 0 99.5 31.5t24.5 96.5v311h158v-560l-120 -11l-15 57q-54 -63 -200 -63z" />
    <glyph glyph-name="nu" unicode="&#x3bd;" horiz-adv-x="613" 
d="M224 -6l-225 572h169l143 -384l143 384h159l-225 -572h-164z" />
    <glyph glyph-name="xi" unicode="&#x3be;" horiz-adv-x="540" 
d="M334 -161q-72 0 -133 34l38 73q48 -25 89 -25q35 0 49 9t14 29q0 19 -17.5 27t-58.5 10q-81 1 -137 17t-86.5 45t-43.5 65t-13 83q0 167 168 195q-113 20 -113 128q0 42 20 72t53 42h-127v133h476v-133h-126q-78 0 -112 -22.5t-34 -71.5q0 -50 33 -73t128 -24v-108
q-32 0 -36 -1q-102 -1 -138.5 -28t-36.5 -78q0 -55 30 -80.5t107 -33.5q95 -9 132.5 -41.5t37.5 -98.5q0 -73 -39.5 -108.5t-123.5 -35.5z" />
    <glyph glyph-name="omicron" unicode="&#x3bf;" horiz-adv-x="661" 
d="M331 -11q-156 0 -226 74t-70 221t70 221t226 74t225.5 -74t69.5 -221t-69.5 -221t-225.5 -74zM331 123q77 0 107.5 39.5t30.5 117.5q0 77 -30.5 116.5t-107.5 39.5t-107.5 -39t-30.5 -117t30.5 -117.5t107.5 -39.5z" />
    <glyph glyph-name="pi" unicode="&#x3c0;" horiz-adv-x="669" 
d="M62 0v566h545v-566h-157v435h-233v-435h-155z" />
    <glyph glyph-name="rho" unicode="&#x3c1;" horiz-adv-x="681" 
d="M62 -165l-1 449q0 148 70 221.5t227 73.5q85 0 143.5 -22.5t89 -65t43 -92t12.5 -115.5q0 -65 -11.5 -115t-38.5 -92t-77.5 -64t-123.5 -22q-74 0 -113.5 13t-62.5 40v-209h-157zM364 124q71 0 97 39.5t26 114.5q0 77 -25.5 117.5t-97.5 40.5q-79 0 -112 -38.5
t-33 -119.5q0 -84 31 -119t114 -35z" />
    <glyph glyph-name="sigma1" unicode="&#x3c2;" horiz-adv-x="587" 
d="M344 -161q-71 0 -134 34l39 73q47 -25 89 -25q35 0 49 9t14 29t-17.5 27t-58.5 7q-85 0 -143.5 21t-89.5 62t-44 91t-13 117t12.5 117t44 92t92 64t148.5 22q149 0 230 -92l-110 -104q-50 52 -120 52q-79 0 -109 -38.5t-30 -116.5t29.5 -115.5t112.5 -43.5
q93 -9 132.5 -39t39.5 -100q0 -72 -39.5 -107.5t-123.5 -35.5z" />
    <glyph glyph-name="sigma" unicode="&#x3c3;" horiz-adv-x="693" 
d="M331 -11q-156 0 -226 74t-70 221t70 221t226 74q96 0 160 -29h200v-134h-83q18 -57 18 -132q0 -147 -69.5 -221t-225.5 -74zM331 123q77 0 107.5 39.5t30.5 117.5q0 77 -30.5 116.5t-107.5 39.5t-107.5 -39t-30.5 -117t30.5 -117.5t107.5 -39.5z" />
    <glyph glyph-name="tau" unicode="&#x3c4;" horiz-adv-x="593" 
d="M10 432v134h573v-134h-208v-432h-157v432h-208z" />
    <glyph glyph-name="upsilon" unicode="&#x3c5;" horiz-adv-x="656" 
d="M329 -9q-157 0 -213.5 61t-56.5 212v302h157v-305q0 -30 1 -45t7 -35.5t17.5 -30t33.5 -16.5t55 -7q32 0 54 7t33.5 17t17.5 30t7 35.5t1 45.5v304h154v-301q0 -76 -11.5 -125t-41.5 -84t-82 -50t-133 -15z" />
    <glyph glyph-name="phi" unicode="&#x3c6;" horiz-adv-x="797" 
d="M35 284q0 208 144 264l56 -140q-42 -33 -42 -128q0 -73 26.5 -111.5t94.5 -44.5v455h164q150 -4 216.5 -78t66.5 -217q0 -144 -66.5 -217.5t-216.5 -77.5v-154h-164v155q-148 5 -213.5 78.5t-65.5 215.5zM604 280q0 74 -27.5 112.5t-98.5 42.5v-312q71 4 98.5 43
t27.5 114z" />
    <glyph glyph-name="chi" unicode="&#x3c7;" horiz-adv-x="599" 
d="M418 0l-127 182l-121 -182h-165l207 296l-188 270h175l109 -157l103 157h165l-188 -271l206 -295h-176z" />
    <glyph glyph-name="psi" unicode="&#x3c8;" horiz-adv-x="806" 
d="M323 -165v154q-80 1 -131 17t-80.5 51t-41 83.5t-11.5 123.5v302h157v-305q0 -29 1 -43.5t6.5 -34.5t16 -29.5t31.5 -17.5t52 -9v439h163v-439q31 1 51.5 9t31.5 18t16.5 30t6.5 35t1 43v304h154v-301q0 -148 -54.5 -210.5t-206.5 -65.5v-154h-163z" />
    <glyph glyph-name="omega" unicode="&#x3c9;" horiz-adv-x="903" 
d="M529 482v-238q2 -66 24 -93t65 -27q46 0 66.5 29.5t20.5 100.5q0 109 -79 242l127 78q57 -93 82 -173.5t25 -168.5q0 -124 -62 -183.5t-160 -59.5q-82 0 -126 33.5t-61 107.5q-17 -73 -60.5 -107t-125.5 -34q-98 0 -160 59.5t-62 183.5q0 88 25 168.5t82 173.5l127 -78
q-78 -131 -78 -242q0 -71 20.5 -100.5t65.5 -29.5q43 0 66 27t23 93v238h155z" />
    <glyph glyph-name="iotadieresis" unicode="&#x3ca;" horiz-adv-x="293" 
d="M-16 625v136h126v-136h-126zM183 625v136h126v-136h-126zM68 0v566h156v-566h-156z" />
    <glyph glyph-name="upsilondieresis" unicode="&#x3cb;" horiz-adv-x="656" 
d="M144 625v136h142v-136h-142zM371 625v136h141v-136h-141zM329 -9q-157 0 -213.5 61t-56.5 212v302h157v-305q0 -30 1 -45t7 -35.5t17.5 -30t33.5 -16.5t55 -7q32 0 54 7t33.5 17t17.5 30t7 35.5t1 45.5v304h154v-301q0 -76 -11.5 -125t-41.5 -84t-82 -50t-133 -15z" />
    <glyph glyph-name="omicrontonos" unicode="&#x3cc;" horiz-adv-x="661" 
d="M262 620l79 183h145l-106 -183h-118zM331 -11q-156 0 -226 74t-70 221t70 221t226 74t225.5 -74t69.5 -221t-69.5 -221t-225.5 -74zM331 123q77 0 107.5 39.5t30.5 117.5q0 77 -30.5 116.5t-107.5 39.5t-107.5 -39t-30.5 -117t30.5 -117.5t107.5 -39.5z" />
    <glyph glyph-name="upsilontonos" unicode="&#x3cd;" horiz-adv-x="656" 
d="M268 620l79 183h145l-106 -183h-118zM329 -9q-157 0 -213.5 61t-56.5 212v302h157v-305q0 -30 1 -45t7 -35.5t17.5 -30t33.5 -16.5t55 -7q32 0 54 7t33.5 17t17.5 30t7 35.5t1 45.5v304h154v-301q0 -76 -11.5 -125t-41.5 -84t-82 -50t-133 -15z" />
    <glyph glyph-name="omegatonos" unicode="&#x3ce;" horiz-adv-x="923" 
d="M407 620l79 183h145l-106 -183h-118zM542 482v-238q2 -66 24 -93t65 -27q46 0 66.5 29.5t20.5 100.5q0 109 -79 242l127 78q57 -93 82 -173.5t25 -168.5q0 -124 -62 -183.5t-160 -59.5q-82 0 -126 33.5t-61 107.5q-17 -73 -60.5 -107t-125.5 -34q-98 0 -160 59.5
t-62 183.5q0 88 25 168.5t82 173.5l127 -78q-78 -131 -78 -242q0 -71 20.5 -100.5t65.5 -29.5q43 0 66 27t23 93v238h155z" />
    <glyph glyph-name="afii10023" unicode="&#x401;" horiz-adv-x="687" 
d="M159 786v136h142v-136h-142zM386 786v136h141v-136h-141zM74 0v741h557v-148h-393v-144h383v-143h-383v-164h397v-142h-561z" />
    <glyph glyph-name="afii10051" unicode="&#x402;" horiz-adv-x="886" 
d="M592 -169v119h13q34 0 43 13.5t9 59.5v213q0 31 -2.5 48.5t-11.5 36t-30 26.5t-55 8q-75 0 -98.5 -30t-23.5 -94v-231h-165v593h-257v148h678v-148h-256v-141q47 51 178 51q120 0 164 -59.5t44 -176.5v-243q0 -114 -42.5 -153.5t-158.5 -39.5h-29z" />
    <glyph glyph-name="afii10052" unicode="&#x403;" horiz-adv-x="618" 
d="M205 781l141 183h189l-191 -183h-139zM74 0v741h529v-148h-365v-593h-164z" />
    <glyph glyph-name="afii10053" unicode="&#x404;" horiz-adv-x="757" 
d="M413 -11q-200 0 -289.5 96t-89.5 286q0 194 99 288t280 94q197 0 301 -107l-112 -113q-72 70 -180 70q-187 0 -220 -155h363v-142h-367q26 -171 215 -171q72 0 115.5 19t83.5 56l107 -106q-52 -54 -122 -84.5t-184 -30.5z" />
    <glyph glyph-name="afii10054" unicode="&#x405;" horiz-adv-x="741" 
d="M375 -11q-222 0 -353 97l82 118q118 -79 266 -79q104 0 138 20.5t34 69.5q0 42 -39 58.5t-137 30.5q-82 12 -132 25t-91.5 37.5t-59.5 64t-18 98.5q0 121 74.5 172.5t234.5 51.5q190 0 300 -73l-88 -127q-37 24 -96.5 40.5t-117.5 16.5q-84 0 -114 -17.5t-30 -59.5
q0 -18 8 -31t20 -21t38 -15t48.5 -11t64.5 -10q62 -9 100.5 -17t80 -24t64 -38t37.5 -58t15 -85q0 -118 -75 -176t-254 -58z" />
    <glyph glyph-name="afii10055" unicode="&#x406;" horiz-adv-x="333" 
d="M85 0v741h163v-741h-163z" />
    <glyph glyph-name="afii10056" unicode="&#x407;" horiz-adv-x="333" 
d="M85 0v741h163v-741h-163zM-17 786v136h142v-136h-142zM210 786v136h141v-136h-141z" />
    <glyph glyph-name="afii10057" unicode="&#x408;" horiz-adv-x="455" 
d="M131 -2q-75 0 -109 2v142h89q63 0 87 22t24 76v501h163v-507q0 -68 -18 -115.5t-53.5 -73t-79.5 -36.5t-103 -11z" />
    <glyph glyph-name="afii10058" unicode="&#x409;" horiz-adv-x="1301" 
d="M41 2v140h19q34 0 44.5 11.5t10.5 46.5v541h660v-235h196q163 0 229.5 -62t66.5 -184q0 -125 -67.5 -192.5t-236.5 -67.5h-347v595h-337v-424q0 -96 -40.5 -134.5t-121.5 -38.5q-54 0 -76 4zM775 136h195q71 0 102 26t31 90q0 65 -30.5 90t-104.5 25h-193v-231z" />
    <glyph glyph-name="afii10059" unicode="&#x40a;" horiz-adv-x="1262" 
d="M74 0v741h164v-284h339v284h159v-235h196q163 0 229.5 -62t66.5 -184q0 -125 -67.5 -192.5t-236.5 -67.5h-347v304h-339v-304h-164zM736 136h195q71 0 102 26t31 90q0 65 -30.5 90t-104.5 25h-193v-231z" />
    <glyph glyph-name="afii10060" unicode="&#x40b;" horiz-adv-x="886" 
d="M271 0v593h-257v148h678v-148h-256v-141q47 51 178 51q120 0 164 -59.5t44 -176.5v-267h-165v236q0 31 -2.5 48.5t-11.5 36t-30 26.5t-55 8q-75 0 -98.5 -30t-23.5 -94v-231h-165z" />
    <glyph glyph-name="afii10061" unicode="&#x40c;" horiz-adv-x="760" 
d="M276 781l141 183h189l-191 -183h-139zM549 0l-237 328h-76v-328h-161v741h161v-276h68l214 276h187l-265 -330l301 -411h-192z" />
    <glyph glyph-name="afii10062" unicode="&#x40e;" horiz-adv-x="719" 
d="M221 -2q-50 0 -86 2v137h58q47 0 62.5 7t25.5 35l5 13l-275 549h176l192 -393l173 393h166l-279 -598q-41 -87 -82 -116t-136 -29zM359 766q-104 0 -150 49t-65 147l113 21q12 -54 32.5 -75.5t69.5 -21.5t69.5 21.5t32.5 75.5l114 -20q-21 -99 -67 -148t-149 -49z" />
    <glyph glyph-name="afii10145" unicode="&#x40f;" horiz-adv-x="811" 
d="M324 -166v166h-250v741h164v-602h337v602h162v-741h-249v-166h-164z" />
    <glyph glyph-name="afii10017" unicode="&#x410;" horiz-adv-x="789" 
d="M14 0l297 746h166l299 -746h-170l-48 122h-336l-48 -122h-160zM274 257h232l-116 295z" />
    <glyph glyph-name="afii10018" unicode="&#x411;" horiz-adv-x="761" 
d="M74 0v741h560v-148h-404v-111h200q165 0 230.5 -56.5t65.5 -176.5q0 -60 -14 -103.5t-47.5 -77.5t-94 -51t-148.5 -17h-348zM230 135h199q73 0 103 21.5t30 83.5q0 64 -29 84t-106 20h-197v-209z" />
    <glyph glyph-name="afii10019" unicode="&#x412;" horiz-adv-x="755" 
d="M74 0v741h344q148 0 214.5 -44.5t66.5 -146.5q0 -129 -99 -164q64 -15 91.5 -58.5t27.5 -123.5q0 -116 -72.5 -160t-230.5 -44h-342zM235 136h200q63 0 90.5 19t27.5 65t-27 64.5t-91 18.5h-200v-167zM235 445h189q62 0 85.5 19.5t23.5 61.5q0 40 -24 58t-85 18h-189
v-157z" />
    <glyph glyph-name="afii10020" unicode="&#x413;" horiz-adv-x="618" 
d="M74 0v741h529v-148h-365v-593h-164z" />
    <glyph glyph-name="afii10021" unicode="&#x414;" horiz-adv-x="897" 
d="M42 -166v308h22q35 0 46 12t11 46v541h661v-599h73v-308h-165v166h-484v-166h-164zM266 138h351v457h-335v-401q0 -44 -16 -56z" />
    <glyph glyph-name="afii10022" unicode="&#x415;" horiz-adv-x="687" 
d="M74 0v741h557v-148h-393v-144h383v-143h-383v-164h397v-142h-561z" />
    <glyph glyph-name="afii10024" unicode="&#x416;" horiz-adv-x="1218" 
d="M1000 0l-236 327h-77v-327h-156v327h-77l-236 -327h-193l301 411l-265 330h188l213 -276h69v276h156v-276h69l213 276h188l-265 -330l301 -411h-193z" />
    <glyph glyph-name="afii10025" unicode="&#x417;" horiz-adv-x="713" 
d="M351 -12q-209 0 -338 80l79 128q118 -67 252 -67q98 0 133.5 17t35.5 79q0 51 -37 70.5t-143 19.5h-178v139h176q86 0 123.5 17t37.5 66q0 44 -34.5 58.5t-117.5 14.5q-56 0 -122 -14.5t-102 -36.5l-85 124q54 33 144 51.5t180 18.5q302 0 302 -178q0 -77 -20 -114
t-70 -56q61 -22 85.5 -61.5t24.5 -128.5q0 -227 -326 -227z" />
    <glyph glyph-name="afii10026" unicode="&#x418;" horiz-adv-x="823" 
d="M74 0v741h157v-467l341 467h176v-741h-156v500l-367 -500h-151z" />
    <glyph glyph-name="afii10027" unicode="&#x419;" horiz-adv-x="823" 
d="M74 0v741h157v-467l341 467h176v-741h-156v500l-367 -500h-151zM410 766q-104 0 -150 49t-65 147l113 21q12 -54 32.5 -75.5t69.5 -21.5t69.5 21.5t32.5 75.5l114 -20q-21 -99 -67 -148t-149 -49z" />
    <glyph glyph-name="afii10028" unicode="&#x41a;" horiz-adv-x="767" 
d="M549 0l-237 328h-76v-328h-161v741h161v-276h68l214 276h187l-265 -330l301 -411h-192z" />
    <glyph glyph-name="afii10029" unicode="&#x41b;" horiz-adv-x="856" 
d="M42 2v140h20q34 0 44.5 11.5t10.5 46.5v541h665v-741h-165v595h-337v-424q0 -96 -40.5 -134.5t-121.5 -38.5q-52 0 -76 4z" />
    <glyph glyph-name="afii10030" unicode="&#x41c;" horiz-adv-x="978" 
d="M74 0v741h214l201 -506l201 506h213v-741h-160v495l-199 -495h-124l-198 492v-492h-148z" />
    <glyph glyph-name="afii10031" unicode="&#x41d;" horiz-adv-x="815" 
d="M74 0v741h164v-284h339v284h164v-741h-164v304h-339v-304h-164z" />
    <glyph glyph-name="afii10032" unicode="&#x41e;" horiz-adv-x="853" 
d="M426 -12q-392 0 -392 383q0 382 392 382q393 0 393 -382q0 -383 -393 -383zM426 132q122 0 174.5 60.5t52.5 175.5t-52.5 175t-174.5 60t-174.5 -60t-52.5 -175t52.5 -175.5t174.5 -60.5z" />
    <glyph glyph-name="afii10033" unicode="&#x41f;" horiz-adv-x="812" 
d="M74 0v741h663v-741h-164v595h-337v-595h-162z" />
    <glyph glyph-name="afii10034" unicode="&#x420;" horiz-adv-x="760" 
d="M74 0v741h356q163 0 229.5 -63t66.5 -185q0 -60 -14 -106t-47.5 -83.5t-94.5 -57t-148 -19.5h-188v-227h-160zM234 367h195q71 0 102 27t31 91q0 66 -30.5 91t-104.5 25h-193v-234z" />
    <glyph glyph-name="afii10035" unicode="&#x421;" horiz-adv-x="759" 
d="M415 -11q-202 0 -291.5 96t-89.5 286q0 382 391 382q186 0 291 -107l-113 -113q-72 70 -179 70q-117 0 -171 -58.5t-54 -175.5t51.5 -175.5t174.5 -58.5q66 0 107 18.5t81 56.5l108 -106q-52 -54 -121.5 -84.5t-184.5 -30.5z" />
    <glyph glyph-name="afii10036" unicode="&#x422;" horiz-adv-x="706" 
d="M271 0v593h-257v148h678v-148h-256v-593h-165z" />
    <glyph glyph-name="afii10037" unicode="&#x423;" horiz-adv-x="719" 
d="M221 -2q-50 0 -86 2v137h58q47 0 62.5 7t25.5 35l5 13l-275 549h176l192 -393l173 393h166l-279 -598q-41 -87 -82 -116t-136 -29z" />
    <glyph glyph-name="afii10038" unicode="&#x424;" horiz-adv-x="939" 
d="M388 0v47q-354 28 -354 324q0 293 354 323v47h163v-47q168 -14 261 -93t93 -230q0 -294 -354 -324v-47h-163zM199 368q0 -151 189 -175v350q-189 -24 -189 -175zM739 368q0 151 -188 175v-350q188 24 188 175z" />
    <glyph glyph-name="afii10039" unicode="&#x425;" horiz-adv-x="781" 
d="M569 0l-186 267l-176 -267h-181l272 389l-244 352h184l159 -228l150 228h181l-247 -349l274 -392h-186z" />
    <glyph glyph-name="afii10040" unicode="&#x426;" horiz-adv-x="855" 
d="M648 -166v166h-574v741h164v-602h337v602h162v-599h76v-308h-165z" />
    <glyph glyph-name="afii10041" unicode="&#x427;" horiz-adv-x="782" 
d="M544 0v251q-20 -22 -78.5 -37.5t-153.5 -15.5q-146 0 -201.5 63t-55.5 181v299h163v-265q0 -67 30 -97.5t120 -30.5q104 0 140 34.5t36 100.5v258h163v-741h-163z" />
    <glyph glyph-name="afii10042" unicode="&#x428;" horiz-adv-x="1210" 
d="M74 0v750h164v-611h285v611h165v-611h285v611h162v-750h-1061z" />
    <glyph glyph-name="afii10043" unicode="&#x429;" horiz-adv-x="1252" 
d="M1046 -166v166h-972v750h164v-611h285v611h165v-611h285v611h162v-608h75v-308h-164z" />
    <glyph glyph-name="afii10044" unicode="&#x42a;" horiz-adv-x="799" 
d="M113 0v593h-74v148h234v-235h196q163 0 229.5 -62t66.5 -184q0 -125 -67.5 -192.5t-236.5 -67.5h-348zM273 136h195q71 0 102 26t31 90q0 65 -30.5 90t-104.5 25h-193v-231z" />
    <glyph glyph-name="afii10045" unicode="&#x42b;" horiz-adv-x="1024" 
d="M74 0v741h160v-235h196q163 0 229.5 -62t66.5 -184q0 -125 -67.5 -192.5t-236.5 -67.5h-348zM234 136h195q71 0 102 26t31 90q0 65 -30.5 90t-104.5 25h-193v-231zM786 0v741h164v-741h-164z" />
    <glyph glyph-name="afii10046" unicode="&#x42c;" horiz-adv-x="760" 
d="M74 0v741h160v-235h196q163 0 229.5 -62t66.5 -184q0 -125 -67.5 -192.5t-236.5 -67.5h-348zM234 136h195q71 0 102 26t31 90q0 65 -30.5 90t-104.5 25h-193v-231z" />
    <glyph glyph-name="afii10047" unicode="&#x42d;" horiz-adv-x="757" 
d="M344 -11q-114 0 -184 30.5t-122 84.5l108 106q40 -38 83 -56.5t115 -18.5q189 0 214 171h-366v142h363q-35 155 -220 155q-107 0 -179 -70l-113 113q105 107 301 107q181 0 280 -94t99 -288q0 -190 -89.5 -286t-289.5 -96z" />
    <glyph glyph-name="afii10048" unicode="&#x42e;" horiz-adv-x="1171" 
d="M74 0v741h164v-289h127q37 301 379 301q393 0 393 -382q0 -383 -393 -383q-351 0 -381 318h-125v-306h-164zM744 132q122 0 174.5 60.5t52.5 175.5t-52.5 175t-174.5 60t-174.5 -60t-52.5 -175t52.5 -175.5t174.5 -60.5z" />
    <glyph glyph-name="afii10049" unicode="&#x42f;" horiz-adv-x="772" 
d="M59 0l148 264q-157 49 -157 235q0 57 13 98.5t44 75.5t89.5 51t143.5 17h357v-741h-160v246h-166l-136 -246h-176zM344 387h193v214h-191q-72 0 -101.5 -22.5t-29.5 -85.5q0 -61 30 -83.5t99 -22.5z" />
    <glyph glyph-name="afii10065" unicode="&#x430;" horiz-adv-x="645" 
d="M238 -9q-122 0 -167.5 45.5t-45.5 129.5q0 116 83 157t280 41h23q-1 42 -22 59.5t-90 17.5q-90 0 -164 -46l-78 115q38 25 108.5 47t150.5 22q101 0 154.5 -24t72.5 -70t19 -131v-172q0 -35 7.5 -43.5t41.5 -8.5v-128q-15 -4 -66 -4q-46 0 -69 11.5t-39 44.5
q-47 -63 -199 -63zM269 117q74 0 108 28t34 90v21h-13q-101 0 -148 -7t-61.5 -22t-14.5 -48t21 -47.5t74 -14.5z" />
    <glyph glyph-name="afii10066" unicode="&#x431;" horiz-adv-x="662" 
d="M332 -11q-152 0 -224.5 74.5t-72.5 242.5v88q0 147 35 230.5t105 117.5t192 34h102v-139h-94q-95 0 -138.5 -35t-43.5 -119q41 65 186 65q76 0 127.5 -22t76.5 -64t34.5 -88.5t9.5 -109.5q0 -275 -295 -275zM332 123q73 0 105 37t32 108q0 70 -31.5 105.5t-105.5 35.5
q-75 0 -107 -35t-32 -106t32 -108t107 -37z" />
    <glyph glyph-name="afii10067" unicode="&#x432;" horiz-adv-x="651" 
d="M62 0v566h290q127 0 183.5 -30.5t56.5 -108.5q0 -107 -75 -132q49 -12 69.5 -44.5t20.5 -94.5q0 -91 -60 -123.5t-197 -32.5h-288zM210 118h156q49 0 68.5 12t19.5 45q0 32 -20 43.5t-69 11.5h-155v-112zM210 342h146q49 0 66.5 12t17.5 40t-18 38.5t-66 10.5h-146v-101z
" />
    <glyph glyph-name="afii10068" unicode="&#x433;" horiz-adv-x="542" 
d="M62 0v566h458v-134h-301v-432h-157z" />
    <glyph glyph-name="afii10069" unicode="&#x434;" horiz-adv-x="775" 
d="M41 -166v297h19q34 0 44.5 12t10.5 47v376h545v-435h74v-297h-146v166h-400v-166h-147zM256 123h250v312h-234v-256q0 -41 -16 -56z" />
    <glyph glyph-name="afii10070" unicode="&#x435;" horiz-adv-x="619" 
d="M330 -11q-89 0 -149 22.5t-91 65.5t-43 92t-12 115q0 51 7 92t27 80t52 65t85 42t123 16q61 0 105.5 -13t71.5 -37t44.5 -57t23 -72t8 -84t-0.5 -92h-394q7 -54 39 -81t104 -27q108 0 178 52l79 -102q-55 -41 -114 -59t-143 -18zM324 448q-69 0 -100 -28t-37 -84h251
q-4 57 -25.5 84.5t-88.5 27.5z" />
    <glyph glyph-name="afii10072" unicode="&#x436;" horiz-adv-x="939" 
d="M750 0l-156 234h-51v-234h-147v234h-51l-156 -234h-182l217 308l-200 258h179l145 -198h48v198h147v-198h48l145 198h179l-201 -259l218 -307h-182z" />
    <glyph glyph-name="afii10073" unicode="&#x437;" horiz-adv-x="608" 
d="M292 -12q-180 0 -280 62l67 113q89 -49 192 -49q81 0 107 10.5t26 52.5q0 36 -26 46.5t-115 10.5h-128v121h126q80 0 103 8t23 42q0 31 -24 39t-95 8q-44 0 -92 -10.5t-76 -26.5l-75 109q42 25 120 40t150 15q128 0 190.5 -31t62.5 -107q0 -58 -17.5 -87.5t-56.5 -43.5
q48 -12 68.5 -45t20.5 -102q0 -99 -68.5 -137t-202.5 -38z" />
    <glyph glyph-name="afii10074" unicode="&#x438;" horiz-adv-x="674" 
d="M62 0v566h153v-318l229 318h168v-566h-153v353l-255 -353h-142z" />
    <glyph glyph-name="afii10075" unicode="&#x439;" horiz-adv-x="674" 
d="M62 0v566h153v-318l229 318h168v-566h-153v353l-255 -353h-142zM336 605q-104 0 -150 49t-65 147l113 21q12 -54 32.5 -75.5t69.5 -21.5t69.5 21.5t32.5 75.5l114 -20q-21 -99 -67 -148t-149 -49z" />
    <glyph glyph-name="afii10076" unicode="&#x43a;" horiz-adv-x="613" 
d="M217 566v-198h49l144 198h180l-201 -259l218 -307h-183l-156 234h-51v-234h-155v566h155z" />
    <glyph glyph-name="afii10077" unicode="&#x43b;" horiz-adv-x="724" 
d="M41 2v129h19q35 0 46.5 12t11.5 47v376h544v-566h-156v435h-234v-264q0 -97 -37.5 -135t-117.5 -38q-54 0 -76 4z" />
    <glyph glyph-name="afii10078" unicode="&#x43c;" horiz-adv-x="822" 
d="M62 0v566h198l154 -369l154 369h196v-566h-156v338l-136 -338h-128l-135 339v-339h-147z" />
    <glyph glyph-name="afii10079" unicode="&#x43d;" horiz-adv-x="671" 
d="M62 0v566h157v-203h233v203h157v-566h-157v222h-233v-222h-157z" />
    <glyph glyph-name="afii10080" unicode="&#x43e;" horiz-adv-x="661" 
d="M331 -11q-156 0 -226 74t-70 221t70 221t226 74t225.5 -74t69.5 -221t-69.5 -221t-225.5 -74zM331 123q77 0 107.5 39.5t30.5 117.5q0 77 -30.5 116.5t-107.5 39.5t-107.5 -39t-30.5 -117t30.5 -117.5t107.5 -39.5z" />
    <glyph glyph-name="afii10081" unicode="&#x43f;" horiz-adv-x="669" 
d="M62 0v566h545v-566h-157v435h-233v-435h-155z" />
    <glyph glyph-name="afii10082" unicode="&#x440;" horiz-adv-x="681" 
d="M62 -165v722l122 9l13 -50q53 63 207 63q70 0 119 -22.5t75 -64.5t37 -92t11 -116q0 -65 -11.5 -115t-38.5 -92t-77.5 -64t-123.5 -22q-134 0 -176 53v-209h-157zM364 124q71 0 97 39.5t26 114.5q0 77 -25.5 117.5t-97.5 40.5q-79 0 -112 -37.5t-33 -120.5q0 -84 31 -119
t114 -35z" />
    <glyph glyph-name="afii10083" unicode="&#x441;" horiz-adv-x="587" 
d="M325 -9q-85 0 -143.5 21.5t-89.5 63.5t-44 91.5t-13 116.5t12.5 116.5t44 92t92 64.5t148.5 22q148 0 230 -92l-110 -104q-50 52 -120 52q-79 0 -109 -39t-30 -116q0 -78 29.5 -117.5t110.5 -39.5q70 0 128 55l100 -96q-53 -49 -104 -70t-132 -21z" />
    <glyph glyph-name="afii10084" unicode="&#x442;" horiz-adv-x="595" 
d="M219 0v432h-196v134h549v-134h-196v-432h-157z" />
    <glyph glyph-name="afii10085" unicode="&#x443;" horiz-adv-x="584" 
d="M134 -170q-22 0 -56 2v118h42q46 0 63 8.5t25 33.5l7 21l-216 553h169l131 -360l127 360h159l-227 -591q-30 -81 -77 -113t-147 -32z" />
    <glyph glyph-name="afii10086" unicode="&#x444;" horiz-adv-x="1073" 
d="M462 -165v210q-53 -55 -181 -55q-71 0 -120.5 22.5t-76 65t-38 93t-11.5 115.5t12 115t39 91.5t77.5 64t122.5 22.5q134 0 176 -53v250h148v-251q46 54 186 54q70 0 119 -22.5t75 -64.5t37 -92t11 -116q0 -65 -11.5 -115t-38.5 -92t-77.5 -64t-123.5 -22q-134 0 -176 53
v-209h-149zM318 124q79 0 111.5 39t32.5 123q0 83 -30.5 117.5t-113.5 34.5q-72 0 -98 -38.5t-26 -113.5q0 -78 26.5 -120t97.5 -42zM756 124q71 0 97 39.5t26 114.5q0 77 -25.5 117.5t-97.5 40.5q-79 0 -112 -37.5t-33 -120.5q0 -84 31 -119t114 -35z" />
    <glyph glyph-name="afii10087" unicode="&#x445;" horiz-adv-x="599" 
d="M418 0l-127 182l-121 -182h-165l207 296l-188 270h175l109 -157l103 157h165l-188 -271l206 -295h-176z" />
    <glyph glyph-name="afii10088" unicode="&#x446;" horiz-adv-x="722" 
d="M534 -166v166h-472v566h157v-439h233v439h155v-435h74v-297h-147z" />
    <glyph glyph-name="afii10089" unicode="&#x447;" horiz-adv-x="656" 
d="M438 0v187q-46 -60 -187 -60q-119 0 -162 59.5t-43 176.5v203h157v-172q0 -61 20 -90t85 -29q76 0 102.5 31.5t26.5 94.5v165h157v-566h-156z" />
    <glyph glyph-name="afii10090" unicode="&#x448;" horiz-adv-x="1028" 
d="M62 0v566h157v-439h218v439h157v-439h217v439h154v-566h-903z" />
    <glyph glyph-name="afii10091" unicode="&#x449;" horiz-adv-x="1081" 
d="M893 -166v166h-831v566h157v-439h218v439h157v-439h217v439h154v-435h75v-297h-147z" />
    <glyph glyph-name="afii10092" unicode="&#x44a;" horiz-adv-x="698" 
d="M115 0v432h-74v134h230v-138h159q124 0 176 -55t52 -153q0 -220 -235 -220h-308zM271 121h127q53 0 77 22t24 71q0 51 -23 71.5t-78 20.5h-127v-185z" />
    <glyph glyph-name="afii10093" unicode="&#x44b;" horiz-adv-x="866" 
d="M62 0v566h155v-138h160q124 0 176 -55t52 -153q0 -220 -235 -220h-308zM217 121h128q53 0 77 22t24 71q0 51 -23.5 71.5t-78.5 20.5h-127v-185zM647 0v566h157v-566h-157z" />
    <glyph glyph-name="afii10094" unicode="&#x44c;" horiz-adv-x="645" 
d="M62 0v566h155v-138h160q124 0 176 -55t52 -153q0 -220 -235 -220h-308zM217 121h128q53 0 77 22t24 71q0 51 -23.5 71.5t-78.5 20.5h-127v-185z" />
    <glyph glyph-name="afii10095" unicode="&#x44d;" horiz-adv-x="587" 
d="M262 -9q-82 0 -133.5 21t-104.5 70l97 93q55 -52 135 -52q67 0 98 23t39 75h-245v119h245q-9 54 -41 78.5t-97 24.5q-69 0 -123 -59l-106 103q81 92 232 92q87 0 147 -22t91 -64t43.5 -92t12.5 -117t-13 -117t-44 -91.5t-89.5 -63t-143.5 -21.5z" />
    <glyph glyph-name="afii10096" unicode="&#x44e;" horiz-adv-x="905" 
d="M62 0v566h157v-207h71q15 110 82.5 165t201.5 55q156 0 226 -74t70 -221t-70 -221t-226 -74q-139 0 -206 59t-79 177h-70v-225h-157zM574 123q78 0 108 39t30 118t-30 117.5t-108 38.5q-77 0 -107 -38.5t-30 -117.5t30 -118t107 -39z" />
    <glyph glyph-name="afii10097" unicode="&#x44f;" horiz-adv-x="667" 
d="M55 0l102 184q-109 43 -109 182q0 101 57.5 150.5t180.5 49.5h319v-566h-156v163h-136l-90 -163h-168zM292 289h157v147h-155q-45 0 -65.5 -16t-20.5 -58t20 -57.5t64 -15.5z" />
    <glyph glyph-name="afii10071" unicode="&#x451;" horiz-adv-x="619" 
d="M125 625v136h142v-136h-142zM352 625v136h141v-136h-141zM330 -11q-89 0 -149 22.5t-91 65.5t-43 92t-12 115q0 51 7 92t27 80t52 65t85 42t123 16q61 0 105.5 -13t71.5 -37t44.5 -57t23 -72t8 -84t-0.5 -92h-394q7 -54 39 -81t104 -27q108 0 178 52l79 -102
q-55 -41 -114 -59t-143 -18zM324 448q-69 0 -100 -28t-37 -84h251q-4 57 -25.5 84.5t-88.5 27.5z" />
    <glyph glyph-name="afii10099" unicode="&#x452;" horiz-adv-x="667" 
d="M-2 585v134h67v57h156v-57h118v-134h-118v-80q47 51 184 51q119 0 161 -59t42 -177v-331q0 -91 -42.5 -124.5t-149.5 -33.5h-30v119h13q32 0 41.5 11.5t10.5 46.5v281q0 61 -19 90.5t-84 29.5q-76 0 -101.5 -31.5t-25.5 -95.5v-282h-156v585h-67z" />
    <glyph glyph-name="afii10100" unicode="&#x453;" horiz-adv-x="542" 
d="M169 620l141 183h189l-191 -183h-139zM62 0v566h458v-134h-301v-432h-157z" />
    <glyph glyph-name="afii10101" unicode="&#x454;" horiz-adv-x="587" 
d="M325 -9q-85 0 -143.5 21.5t-89.5 63t-44 91.5t-13 117t12.5 117t44 92t92 64t148.5 22q149 0 230 -92l-107 -103q-52 59 -123 59q-66 0 -98 -24.5t-40 -78.5h245v-119h-245q8 -53 39.5 -75.5t99.5 -22.5q76 0 131 52l97 -93q-53 -49 -104 -70t-132 -21z" />
    <glyph glyph-name="afii10102" unicode="&#x455;" horiz-adv-x="573" 
d="M280 -9q-164 0 -270 71l80 115q92 -59 200 -59q60 0 81 9t21 38q0 24 -20 33t-80 17q-36 5 -58 8.5t-51.5 11t-47 15.5t-37 22t-29.5 31.5t-17 42.5t-7 56q0 89 58 133t189 44q147 0 239 -52l-75 -122q-70 37 -159 37q-57 0 -76.5 -9.5t-19.5 -31.5q0 -23 18 -32t75 -17
q45 -6 69.5 -10.5t59 -13t52 -20t36.5 -29.5t26.5 -44.5t7.5 -60.5q0 -98 -60 -140.5t-205 -42.5z" />
    <glyph glyph-name="afii10103" unicode="&#x456;" horiz-adv-x="293" 
d="M68 0v566h156v-566h-156zM67 618v143h158v-143h-158z" />
    <glyph glyph-name="afii10104" unicode="&#x457;" horiz-adv-x="293" 
d="M-16 625v136h126v-136h-126zM183 625v136h126v-136h-126zM68 0v566h156v-566h-156z" />
    <glyph glyph-name="afii10105" unicode="&#x458;" horiz-adv-x="293" 
d="M3 -169v119h12q35 0 44 13.5t9 59.5v543h156v-542q0 -115 -38.5 -154t-153.5 -39h-29zM67 618v143h158v-143h-158z" />
    <glyph glyph-name="afii10106" unicode="&#x459;" horiz-adv-x="1083" 
d="M41 2v129h19q35 0 46.5 12t11.5 47v376h538v-138h159q124 0 176 -55t52 -153q0 -220 -235 -220h-304v435h-232v-264q0 -97 -37.5 -135t-117.5 -38q-54 0 -76 4zM656 121h127q53 0 77 22t24 71q0 51 -23.5 71.5t-78.5 20.5h-126v-185z" />
    <glyph glyph-name="afii10107" unicode="&#x45a;" horiz-adv-x="1030" 
d="M62 0v566h157v-203h232v203h152v-138h159q123 0 175 -55t52 -153q0 -220 -234 -220h-304v222h-232v-222h-157zM603 121h127q53 0 76.5 22t23.5 71q0 51 -23 71.5t-78 20.5h-126v-185z" />
    <glyph glyph-name="afii10108" unicode="&#x45b;" horiz-adv-x="667" 
d="M-2 585v134h67v57h156v-57h118v-134h-118v-80q47 51 184 51q119 0 161 -59t42 -177v-320h-157v289q0 61 -19 90.5t-84 29.5q-76 0 -101.5 -31.5t-25.5 -95.5v-282h-156v585h-67z" />
    <glyph glyph-name="afii10109" unicode="&#x45c;" horiz-adv-x="614" 
d="M217 566v-198h49l144 198h180l-201 -259l218 -307h-183l-156 234h-51v-234h-155v566h155zM219 620l141 183h189l-191 -183h-139z" />
    <glyph glyph-name="afii10110" unicode="&#x45e;" horiz-adv-x="584" 
d="M134 -170q-22 0 -56 2v118h42q46 0 63 8.5t25 33.5l7 21l-216 553h169l131 -360l127 360h159l-227 -591q-30 -81 -77 -113t-147 -32zM293 605q-104 0 -150 49t-65 147l113 21q12 -54 32.5 -75.5t69.5 -21.5t69.5 21.5t32.5 75.5l114 -20q-21 -99 -67 -148t-149 -49z" />
    <glyph glyph-name="afii10193" unicode="&#x45f;" horiz-adv-x="669" 
d="M261 -166v166h-199v566h157v-439h233v439h155v-566h-199v-166h-147z" />
    <glyph glyph-name="afii10050" unicode="&#x490;" horiz-adv-x="618" 
d="M74 0v741h365v166h164v-314h-365v-593h-164z" />
    <glyph glyph-name="afii10098" unicode="&#x491;" horiz-adv-x="542" 
d="M62 0v566h311v167h147v-301h-301v-432h-157z" />
    <glyph glyph-name="Wgrave" unicode="&#x1e80;" horiz-adv-x="1082" 
d="M245 -5l-226 746h171l138 -476l144 476h148l145 -476l138 476h160l-225 -746h-145l-152 498l-152 -498h-144zM509 781l-191 183h189l141 -183h-139z" />
    <glyph glyph-name="wgrave" unicode="&#x1e81;" horiz-adv-x="920" 
d="M194 -6l-185 572h165l104 -345l108 345h155l108 -344l104 344h158l-184 -572h-150l-117 364l-117 -364h-149zM423 620l-191 183h189l141 -183h-139z" />
    <glyph glyph-name="Wacute" unicode="&#x1e82;" horiz-adv-x="1082" 
d="M442 781l141 183h189l-191 -183h-139zM245 -5l-226 746h171l138 -476l144 476h148l145 -476l138 476h160l-225 -746h-145l-152 498l-152 -498h-144z" />
    <glyph glyph-name="wacute" unicode="&#x1e83;" horiz-adv-x="920" 
d="M356 620l141 183h189l-191 -183h-139zM194 -6l-185 572h165l104 -345l108 345h155l108 -344l104 344h158l-184 -572h-150l-117 364l-117 -364h-149z" />
    <glyph glyph-name="Wdieresis" unicode="&#x1e84;" horiz-adv-x="1082" 
d="M357 786v136h142v-136h-142zM584 786v136h141v-136h-141zM245 -5l-226 746h171l138 -476l144 476h148l145 -476l138 476h160l-225 -746h-145l-152 498l-152 -498h-144z" />
    <glyph glyph-name="wdieresis" unicode="&#x1e85;" horiz-adv-x="920" 
d="M275 625v136h142v-136h-142zM502 625v136h141v-136h-141zM194 -6l-185 572h165l104 -345l108 345h155l108 -344l104 344h158l-184 -572h-150l-117 364l-117 -364h-149z" />
    <glyph glyph-name="uni1EA0" unicode="&#x1ea0;" horiz-adv-x="789" 
d="M14 0l297 746h166l299 -746h-170l-48 122h-336l-48 -122h-160zM274 257h232l-116 295zM314 -197v139h159v-139h-159z" />
    <glyph glyph-name="uni1EA1" unicode="&#x1ea1;" horiz-adv-x="645" 
d="M238 -9q-122 0 -167.5 45.5t-45.5 129.5q0 116 83 157t280 41h23q-1 42 -22 59.5t-90 17.5q-90 0 -164 -46l-78 115q38 25 108.5 47t150.5 22q101 0 154.5 -24t72.5 -70t19 -131v-172q0 -35 7.5 -43.5t41.5 -8.5v-128q-15 -4 -66 -4q-46 0 -69 11.5t-39 44.5
q-47 -63 -199 -63zM269 117q74 0 108 28t34 90v21h-13q-101 0 -148 -7t-61.5 -22t-14.5 -48t21 -47.5t74 -14.5zM241 -197v139h159v-139h-159z" />
    <glyph glyph-name="uni1EA2" unicode="&#x1ea2;" horiz-adv-x="789" 
d="M14 0l297 746h166l299 -746h-170l-48 122h-336l-48 -122h-160zM274 257h232l-116 295zM343 774q-7 37 4.5 63t48.5 48q27 16 34.5 23t7.5 18q0 26 -48 26q-50 0 -92 -20l-44 89q54 27 143 27q75 0 117 -28t42 -74q0 -39 -15.5 -62t-46.5 -41q-28 -16 -37.5 -30.5
t-9.5 -38.5h-104z" />
    <glyph glyph-name="uni1EA3" unicode="&#x1ea3;" horiz-adv-x="645" 
d="M238 -9q-122 0 -167.5 45.5t-45.5 129.5q0 116 83 157t280 41h23q-1 42 -22 59.5t-90 17.5q-90 0 -164 -46l-78 115q38 25 108.5 47t150.5 22q101 0 154.5 -24t72.5 -70t19 -131v-172q0 -35 7.5 -43.5t41.5 -8.5v-128q-15 -4 -66 -4q-46 0 -69 11.5t-39 44.5
q-47 -63 -199 -63zM269 117q74 0 108 28t34 90v21h-13q-101 0 -148 -7t-61.5 -22t-14.5 -48t21 -47.5t74 -14.5zM265 616q-7 37 4.5 63t48.5 48q27 16 34.5 23t7.5 18q0 26 -48 26q-50 0 -92 -20l-44 89q54 27 143 27q75 0 117 -28t42 -74q0 -39 -15.5 -62t-46.5 -41
q-28 -16 -37.5 -30.5t-9.5 -38.5h-104z" />
    <glyph glyph-name="uni1EA4" unicode="&#x1ea4;" horiz-adv-x="789" 
d="M14 0l297 746h166l299 -746h-170l-48 122h-336l-48 -122h-160zM274 257h232l-116 295zM27 883l141 184h189l-191 -184h-139zM157 781l155 183h162l155 -183h-147l-90 86l-91 -86h-144z" />
    <glyph glyph-name="uni1EA5" unicode="&#x1ea5;" horiz-adv-x="645" 
d="M238 -9q-122 0 -167.5 45.5t-45.5 129.5q0 116 83 157t280 41h23q-1 42 -22 59.5t-90 17.5q-90 0 -164 -46l-78 115q38 25 108.5 47t150.5 22q101 0 154.5 -24t72.5 -70t19 -131v-172q0 -35 7.5 -43.5t41.5 -8.5v-128q-15 -4 -66 -4q-46 0 -69 11.5t-39 44.5
q-47 -63 -199 -63zM269 117q74 0 108 28t34 90v21h-13q-101 0 -148 -7t-61.5 -22t-14.5 -48t21 -47.5t74 -14.5zM-44 722l141 184h189l-191 -184h-139zM86 620l155 183h162l155 -183h-147l-90 86l-91 -86h-144z" />
    <glyph glyph-name="uni1EA6" unicode="&#x1ea6;" horiz-adv-x="789" 
d="M14 0l297 746h166l299 -746h-170l-48 122h-336l-48 -122h-160zM274 257h232l-116 295zM621 883l-190 184h188l141 -184h-139zM157 781l155 183h162l155 -183h-147l-91 86l-90 -86h-144z" />
    <glyph glyph-name="uni1EA7" unicode="&#x1ea7;" horiz-adv-x="645" 
d="M238 -9q-122 0 -167.5 45.5t-45.5 129.5q0 116 83 157t280 41h23q-1 42 -22 59.5t-90 17.5q-90 0 -164 -46l-78 115q38 25 108.5 47t150.5 22q101 0 154.5 -24t72.5 -70t19 -131v-172q0 -35 7.5 -43.5t41.5 -8.5v-128q-15 -4 -66 -4q-46 0 -69 11.5t-39 44.5
q-47 -63 -199 -63zM269 117q74 0 108 28t34 90v21h-13q-101 0 -148 -7t-61.5 -22t-14.5 -48t21 -47.5t74 -14.5zM551 722l-190 184h188l141 -184h-139zM87 620l155 183h162l155 -183h-147l-91 86l-90 -86h-144z" />
    <glyph glyph-name="uni1EA8" unicode="&#x1ea8;" horiz-adv-x="789" 
d="M14 0l297 746h166l299 -746h-170l-48 122h-336l-48 -122h-160zM274 257h232l-116 295zM342 992q-6 37 5.5 63t48.5 48q27 17 34 23.5t7 17.5q0 27 -48 27q-49 0 -91 -21l-45 90q59 27 144 27q75 0 117 -28.5t42 -74.5q0 -39 -15.5 -61.5t-47.5 -40.5q-28 -16 -37.5 -31
t-8.5 -39h-105zM157 781l155 183h162l155 -183h-147l-91 86l-90 -86h-144z" />
    <glyph glyph-name="uni1EA9" unicode="&#x1ea9;" horiz-adv-x="645" 
d="M238 -9q-122 0 -167.5 45.5t-45.5 129.5q0 116 83 157t280 41h23q-1 42 -22 59.5t-90 17.5q-90 0 -164 -46l-78 115q38 25 108.5 47t150.5 22q101 0 154.5 -24t72.5 -70t19 -131v-172q0 -35 7.5 -43.5t41.5 -8.5v-128q-15 -4 -66 -4q-46 0 -69 11.5t-39 44.5
q-47 -63 -199 -63zM269 117q74 0 108 28t34 90v21h-13q-101 0 -148 -7t-61.5 -22t-14.5 -48t21 -47.5t74 -14.5zM271 831q-6 37 5.5 63t48.5 48q27 17 34 23.5t7 17.5q0 27 -48 27q-49 0 -91 -21l-45 90q59 27 144 27q75 0 117 -28.5t42 -74.5q0 -39 -15.5 -61.5
t-47.5 -40.5q-28 -16 -37.5 -31t-8.5 -39h-105zM86 620l155 183h162l155 -183h-147l-91 86l-90 -86h-144z" />
    <glyph glyph-name="uni1EAA" unicode="&#x1eaa;" horiz-adv-x="789" 
d="M14 0l297 746h166l299 -746h-170l-48 122h-336l-48 -122h-160zM274 257h232l-116 295zM244 987l-88 71q87 108 169 108q37 0 77.5 -26.5t60.5 -26.5q35 0 84 59l87 -72q-89 -109 -169 -109q-35 0 -75.5 27t-61.5 27q-38 0 -84 -58zM157 781l155 183h162l155 -183h-147
l-91 86l-90 -86h-144z" />
    <glyph glyph-name="uni1EAB" unicode="&#x1eab;" horiz-adv-x="645" 
d="M238 -9q-122 0 -167.5 45.5t-45.5 129.5q0 116 83 157t280 41h23q-1 42 -22 59.5t-90 17.5q-90 0 -164 -46l-78 115q38 25 108.5 47t150.5 22q101 0 154.5 -24t72.5 -70t19 -131v-172q0 -35 7.5 -43.5t41.5 -8.5v-128q-15 -4 -66 -4q-46 0 -69 11.5t-39 44.5
q-47 -63 -199 -63zM269 117q74 0 108 28t34 90v21h-13q-101 0 -148 -7t-61.5 -22t-14.5 -48t21 -47.5t74 -14.5zM174 826l-88 71q87 108 169 108q37 0 77.5 -26.5t60.5 -26.5q35 0 84 59l87 -72q-89 -109 -169 -109q-35 0 -75.5 27t-61.5 27q-38 0 -84 -58zM87 620l155 183
h162l155 -183h-147l-91 86l-90 -86h-144z" />
    <glyph glyph-name="uni1EAC" unicode="&#x1eac;" horiz-adv-x="789" 
d="M14 0l297 746h166l299 -746h-170l-48 122h-336l-48 -122h-160zM274 257h232l-116 295zM157 781l155 183h162l155 -183h-147l-91 86l-90 -86h-144zM314 -197v139h159v-139h-159z" />
    <glyph glyph-name="uni1EAD" unicode="&#x1ead;" horiz-adv-x="645" 
d="M238 -9q-122 0 -167.5 45.5t-45.5 129.5q0 116 83 157t280 41h23q-1 42 -22 59.5t-90 17.5q-90 0 -164 -46l-78 115q38 25 108.5 47t150.5 22q101 0 154.5 -24t72.5 -70t19 -131v-172q0 -35 7.5 -43.5t41.5 -8.5v-128q-15 -4 -66 -4q-46 0 -69 11.5t-39 44.5
q-47 -63 -199 -63zM269 117q74 0 108 28t34 90v21h-13q-101 0 -148 -7t-61.5 -22t-14.5 -48t21 -47.5t74 -14.5zM87 620l155 183h162l155 -183h-147l-91 86l-90 -86h-144zM242 -197v139h159v-139h-159z" />
    <glyph glyph-name="uni1EAE" unicode="&#x1eae;" horiz-adv-x="789" 
d="M14 0l297 746h166l299 -746h-170l-48 122h-336l-48 -122h-160zM274 257h232l-116 295zM320 1014l141 183h188l-190 -183h-139zM393 771q-103 0 -149.5 49t-65.5 148l113 21q12 -54 32.5 -75.5t69.5 -21.5t69.5 21.5t32.5 75.5l114 -20q-21 -100 -67 -149t-149 -49z" />
    <glyph glyph-name="uni1EAF" unicode="&#x1eaf;" horiz-adv-x="645" 
d="M238 -9q-122 0 -167.5 45.5t-45.5 129.5q0 116 83 157t280 41h23q-1 42 -22 59.5t-90 17.5q-90 0 -164 -46l-78 115q38 25 108.5 47t150.5 22q101 0 154.5 -24t72.5 -70t19 -131v-172q0 -35 7.5 -43.5t41.5 -8.5v-128q-15 -4 -66 -4q-46 0 -69 11.5t-39 44.5
q-47 -63 -199 -63zM269 117q74 0 108 28t34 90v21h-13q-101 0 -148 -7t-61.5 -22t-14.5 -48t21 -47.5t74 -14.5zM250 853l141 183h188l-190 -183h-139zM323 610q-103 0 -149.5 49t-65.5 148l113 21q12 -54 32.5 -75.5t69.5 -21.5t69.5 21.5t32.5 75.5l114 -20
q-21 -100 -67 -149t-149 -49z" />
    <glyph glyph-name="uni1EB0" unicode="&#x1eb0;" horiz-adv-x="789" 
d="M14 0l297 746h166l299 -746h-170l-48 122h-336l-48 -122h-160zM274 257h232l-116 295zM328 1014l-190 183h188l141 -183h-139zM393 771q-103 0 -149.5 49t-65.5 148l113 21q12 -54 32.5 -75.5t69.5 -21.5t69.5 21.5t32.5 75.5l114 -20q-21 -100 -67 -149t-149 -49z" />
    <glyph glyph-name="uni1EB1" unicode="&#x1eb1;" horiz-adv-x="645" 
d="M238 -9q-122 0 -167.5 45.5t-45.5 129.5q0 116 83 157t280 41h23q-1 42 -22 59.5t-90 17.5q-90 0 -164 -46l-78 115q38 25 108.5 47t150.5 22q101 0 154.5 -24t72.5 -70t19 -131v-172q0 -35 7.5 -43.5t41.5 -8.5v-128q-15 -4 -66 -4q-46 0 -69 11.5t-39 44.5
q-47 -63 -199 -63zM269 117q74 0 108 28t34 90v21h-13q-101 0 -148 -7t-61.5 -22t-14.5 -48t21 -47.5t74 -14.5zM258 853l-190 183h188l141 -183h-139zM323 610q-103 0 -149.5 49t-65.5 148l113 21q12 -54 32.5 -75.5t69.5 -21.5t69.5 21.5t32.5 75.5l114 -20
q-21 -100 -67 -149t-149 -49z" />
    <glyph glyph-name="uni1EB2" unicode="&#x1eb2;" horiz-adv-x="789" 
d="M14 0l297 746h166l299 -746h-170l-48 122h-336l-48 -122h-160zM274 257h232l-116 295zM340 988q-6 37 5.5 63t48.5 48q26 15 33.5 22.5t7.5 18.5q0 26 -48 26q-51 0 -91 -20l-44 89q54 27 143 27q75 0 117 -28t42 -74q0 -39 -15.5 -62t-46.5 -41q-28 -17 -38 -31t-9 -38
h-105zM392 771q-103 0 -149.5 49t-65.5 148l113 21q12 -54 32.5 -75.5t69.5 -21.5t69.5 21.5t32.5 75.5l115 -20q-22 -100 -68 -149t-149 -49z" />
    <glyph glyph-name="uni1EB3" unicode="&#x1eb3;" horiz-adv-x="645" 
d="M238 -9q-122 0 -167.5 45.5t-45.5 129.5q0 116 83 157t280 41h23q-1 42 -22 59.5t-90 17.5q-90 0 -164 -46l-78 115q38 25 108.5 47t150.5 22q101 0 154.5 -24t72.5 -70t19 -131v-172q0 -35 7.5 -43.5t41.5 -8.5v-128q-15 -4 -66 -4q-46 0 -69 11.5t-39 44.5
q-47 -63 -199 -63zM269 117q74 0 108 28t34 90v21h-13q-101 0 -148 -7t-61.5 -22t-14.5 -48t21 -47.5t74 -14.5zM270 827q-6 37 5.5 63t48.5 48q26 15 33.5 22.5t7.5 18.5q0 26 -48 26q-51 0 -91 -20l-44 89q54 27 143 27q75 0 117 -28t42 -74q0 -39 -15.5 -62t-46.5 -41
q-28 -17 -38 -31t-9 -38h-105zM322 610q-103 0 -149.5 49t-65.5 148l113 21q12 -54 32.5 -75.5t69.5 -21.5t69.5 21.5t32.5 75.5l115 -20q-22 -100 -68 -149t-149 -49z" />
    <glyph glyph-name="uni1EB4" unicode="&#x1eb4;" horiz-adv-x="789" 
d="M14 0l297 746h166l299 -746h-170l-48 122h-336l-48 -122h-160zM274 257h232l-116 295zM243 1016l-87 71q87 108 169 108q37 0 77.5 -26.5t60.5 -26.5q36 0 84 58l86 -71q-88 -109 -168 -109q-36 0 -76.5 27t-60.5 27q-38 0 -85 -58zM392 771q-103 0 -149.5 49t-65.5 148
l113 21q12 -54 32.5 -75.5t69.5 -21.5t69.5 21.5t32.5 75.5l115 -20q-22 -100 -68 -149t-149 -49z" />
    <glyph glyph-name="uni1EB5" unicode="&#x1eb5;" horiz-adv-x="645" 
d="M238 -9q-122 0 -167.5 45.5t-45.5 129.5q0 116 83 157t280 41h23q-1 42 -22 59.5t-90 17.5q-90 0 -164 -46l-78 115q38 25 108.5 47t150.5 22q101 0 154.5 -24t72.5 -70t19 -131v-172q0 -35 7.5 -43.5t41.5 -8.5v-128q-15 -4 -66 -4q-46 0 -69 11.5t-39 44.5
q-47 -63 -199 -63zM269 117q74 0 108 28t34 90v21h-13q-101 0 -148 -7t-61.5 -22t-14.5 -48t21 -47.5t74 -14.5zM173 855l-87 71q87 108 169 108q37 0 77.5 -26.5t60.5 -26.5q36 0 84 58l86 -71q-88 -109 -168 -109q-36 0 -76.5 27t-60.5 27q-38 0 -85 -58zM322 610
q-103 0 -149.5 49t-65.5 148l113 21q12 -54 32.5 -75.5t69.5 -21.5t69.5 21.5t32.5 75.5l115 -20q-22 -100 -68 -149t-149 -49z" />
    <glyph glyph-name="uni1EB6" unicode="&#x1eb6;" horiz-adv-x="789" 
d="M14 0l297 746h166l299 -746h-170l-48 122h-336l-48 -122h-160zM274 257h232l-116 295zM314 -197v139h159v-139h-159zM393 766q-104 0 -150 49t-65 147l113 21q12 -54 32.5 -75.5t69.5 -21.5t69.5 21.5t32.5 75.5l114 -20q-21 -99 -67 -148t-149 -49z" />
    <glyph glyph-name="uni1EB7" unicode="&#x1eb7;" horiz-adv-x="645" 
d="M238 -9q-122 0 -167.5 45.5t-45.5 129.5q0 116 83 157t280 41h23q-1 42 -22 59.5t-90 17.5q-90 0 -164 -46l-78 115q38 25 108.5 47t150.5 22q101 0 154.5 -24t72.5 -70t19 -131v-172q0 -35 7.5 -43.5t41.5 -8.5v-128q-15 -4 -66 -4q-46 0 -69 11.5t-39 44.5
q-47 -63 -199 -63zM269 117q74 0 108 28t34 90v21h-13q-101 0 -148 -7t-61.5 -22t-14.5 -48t21 -47.5t74 -14.5zM241 -197v139h159v-139h-159zM323 605q-104 0 -150 49t-65 147l113 21q12 -54 32.5 -75.5t69.5 -21.5t69.5 21.5t32.5 75.5l114 -20q-21 -99 -67 -148t-149 -49
z" />
    <glyph glyph-name="uni1EB8" unicode="&#x1eb8;" horiz-adv-x="687" 
d="M74 0v741h557v-148h-393v-144h383v-143h-383v-164h397v-142h-561zM281 -197v139h159v-139h-159z" />
    <glyph glyph-name="uni1EB9" unicode="&#x1eb9;" horiz-adv-x="619" 
d="M330 -11q-89 0 -149 22.5t-91 65.5t-43 92t-12 115q0 51 7 92t27 80t52 65t85 42t123 16q61 0 105.5 -13t71.5 -37t44.5 -57t23 -72t8 -84t-0.5 -92h-394q7 -54 39 -81t104 -27q108 0 178 52l79 -102q-55 -41 -114 -59t-143 -18zM324 448q-69 0 -100 -28t-37 -84h251
q-4 57 -25.5 84.5t-88.5 27.5zM239 -197v139h159v-139h-159z" />
    <glyph glyph-name="uni1EBA" unicode="&#x1eba;" horiz-adv-x="687" 
d="M74 0v741h557v-148h-393v-144h383v-143h-383v-164h397v-142h-561zM310 774q-7 37 4.5 63t48.5 48q27 16 34.5 23t7.5 18q0 26 -48 26q-50 0 -92 -20l-44 89q54 27 143 27q75 0 117 -28t42 -74q0 -39 -15.5 -62t-46.5 -41q-28 -16 -37.5 -30.5t-9.5 -38.5h-104z" />
    <glyph glyph-name="uni1EBB" unicode="&#x1ebb;" horiz-adv-x="619" 
d="M330 -11q-89 0 -149 22.5t-91 65.5t-43 92t-12 115q0 51 7 92t27 80t52 65t85 42t123 16q61 0 105.5 -13t71.5 -37t44.5 -57t23 -72t8 -84t-0.5 -92h-394q7 -54 39 -81t104 -27q108 0 178 52l79 -102q-55 -41 -114 -59t-143 -18zM324 448q-69 0 -100 -28t-37 -84h251
q-4 57 -25.5 84.5t-88.5 27.5zM264 615q-7 37 4.5 63t48.5 48q27 16 34.5 23t7.5 18q0 26 -48 26q-50 0 -92 -20l-44 89q54 27 143 27q75 0 117 -28t42 -74q0 -39 -15.5 -62t-46.5 -41q-28 -16 -37.5 -30.5t-9.5 -38.5h-104z" />
    <glyph glyph-name="uni1EBC" unicode="&#x1ebc;" horiz-adv-x="687" 
d="M74 0v741h557v-148h-393v-144h383v-143h-383v-164h397v-142h-561zM196 797l-87 71q87 108 168 108q38 0 78 -27t60 -27q35 0 84 59l87 -71q-89 -110 -168 -110q-36 0 -76.5 27t-61.5 27q-38 0 -84 -57z" />
    <glyph glyph-name="uni1EBD" unicode="&#x1ebd;" horiz-adv-x="619" 
d="M330 -11q-89 0 -149 22.5t-91 65.5t-43 92t-12 115q0 51 7 92t27 80t52 65t85 42t123 16q61 0 105.5 -13t71.5 -37t44.5 -57t23 -72t8 -84t-0.5 -92h-394q7 -54 39 -81t104 -27q108 0 178 52l79 -102q-55 -41 -114 -59t-143 -18zM324 448q-69 0 -100 -28t-37 -84h251
q-4 57 -25.5 84.5t-88.5 27.5zM156 617l-87 71q87 108 168 108q38 0 78 -27t60 -27q35 0 84 59l87 -71q-89 -110 -168 -110q-36 0 -76.5 27t-61.5 27q-38 0 -84 -57z" />
    <glyph glyph-name="uni1EBE" unicode="&#x1ebe;" horiz-adv-x="687" 
d="M-23 883l141 184h189l-191 -184h-139zM107 781l155 183h162l155 -183h-147l-90 86l-91 -86h-144zM74 0v741h557v-148h-393v-144h383v-143h-383v-164h397v-142h-561z" />
    <glyph glyph-name="uni1EBF" unicode="&#x1ebf;" horiz-adv-x="619" 
d="M-58 722l141 184h189l-191 -184h-139zM72 620l155 183h162l155 -183h-147l-90 86l-91 -86h-144zM330 -11q-89 0 -149 22.5t-91 65.5t-43 92t-12 115q0 51 7 92t27 80t52 65t85 42t123 16q61 0 105.5 -13t71.5 -37t44.5 -57t23 -72t8 -84t-0.5 -92h-394q7 -54 39 -81
t104 -27q108 0 178 52l79 -102q-55 -41 -114 -59t-143 -18zM324 448q-69 0 -100 -28t-37 -84h251q-4 57 -25.5 84.5t-88.5 27.5z" />
    <glyph glyph-name="uni1EC0" unicode="&#x1ec0;" horiz-adv-x="687" 
d="M571 883l-190 184h188l141 -184h-139zM107 781l155 183h162l155 -183h-147l-91 86l-90 -86h-144zM74 0v741h557v-148h-393v-144h383v-143h-383v-164h397v-142h-561z" />
    <glyph glyph-name="uni1EC1" unicode="&#x1ec1;" horiz-adv-x="619" 
d="M537 722l-190 184h188l141 -184h-139zM73 620l155 183h162l155 -183h-147l-91 86l-90 -86h-144zM330 -11q-89 0 -149 22.5t-91 65.5t-43 92t-12 115q0 51 7 92t27 80t52 65t85 42t123 16q61 0 105.5 -13t71.5 -37t44.5 -57t23 -72t8 -84t-0.5 -92h-394q7 -54 39 -81
t104 -27q108 0 178 52l79 -102q-55 -41 -114 -59t-143 -18zM324 448q-69 0 -100 -28t-37 -84h251q-4 57 -25.5 84.5t-88.5 27.5z" />
    <glyph glyph-name="uni1EC2" unicode="&#x1ec2;" horiz-adv-x="687" 
d="M74 0v741h557v-148h-393v-144h383v-143h-383v-164h397v-142h-561zM293 992q-6 37 5.5 63t48.5 48q27 17 34 23.5t7 17.5q0 27 -48 27q-49 0 -91 -21l-45 90q59 27 144 27q75 0 117 -28.5t42 -74.5q0 -39 -15.5 -61.5t-47.5 -40.5q-28 -16 -37.5 -31t-8.5 -39h-105z
M108 781l155 183h162l155 -183h-147l-91 86l-90 -86h-144z" />
    <glyph glyph-name="uni1EC3" unicode="&#x1ec3;" horiz-adv-x="619" 
d="M330 -11q-89 0 -149 22.5t-91 65.5t-43 92t-12 115q0 51 7 92t27 80t52 65t85 42t123 16q61 0 105.5 -13t71.5 -37t44.5 -57t23 -72t8 -84t-0.5 -92h-394q7 -54 39 -81t104 -27q108 0 178 52l79 -102q-55 -41 -114 -59t-143 -18zM324 448q-69 0 -100 -28t-37 -84h251
q-4 57 -25.5 84.5t-88.5 27.5zM258 831q-6 37 5.5 63t48.5 48q27 17 34 23.5t7 17.5q0 27 -48 27q-49 0 -91 -21l-45 90q59 27 144 27q75 0 117 -28.5t42 -74.5q0 -39 -15.5 -61.5t-47.5 -40.5q-28 -16 -37.5 -31t-8.5 -39h-105zM73 620l155 183h162l155 -183h-147l-91 86
l-90 -86h-144z" />
    <glyph glyph-name="uni1EC4" unicode="&#x1ec4;" horiz-adv-x="687" 
d="M74 0v741h557v-148h-393v-144h383v-143h-383v-164h397v-142h-561zM194 987l-88 71q87 108 169 108q37 0 77.5 -26.5t60.5 -26.5q35 0 84 59l87 -72q-89 -109 -169 -109q-35 0 -75.5 27t-61.5 27q-38 0 -84 -58zM107 781l155 183h162l155 -183h-147l-91 86l-90 -86h-144z
" />
    <glyph glyph-name="uni1EC5" unicode="&#x1ec5;" horiz-adv-x="619" 
d="M330 -11q-89 0 -149 22.5t-91 65.5t-43 92t-12 115q0 51 7 92t27 80t52 65t85 42t123 16q61 0 105.5 -13t71.5 -37t44.5 -57t23 -72t8 -84t-0.5 -92h-394q7 -54 39 -81t104 -27q108 0 178 52l79 -102q-55 -41 -114 -59t-143 -18zM324 448q-69 0 -100 -28t-37 -84h251
q-4 57 -25.5 84.5t-88.5 27.5zM160 826l-88 71q87 108 169 108q37 0 77.5 -26.5t60.5 -26.5q35 0 84 59l87 -72q-89 -109 -169 -109q-35 0 -75.5 27t-61.5 27q-38 0 -84 -58zM73 620l155 183h162l155 -183h-147l-91 86l-90 -86h-144z" />
    <glyph glyph-name="uni1EC6" unicode="&#x1ec6;" horiz-adv-x="687" 
d="M107 781l155 183h162l155 -183h-147l-91 86l-90 -86h-144zM74 0v741h557v-148h-393v-144h383v-143h-383v-164h397v-142h-561zM281 -197v139h159v-139h-159z" />
    <glyph glyph-name="uni1EC7" unicode="&#x1ec7;" horiz-adv-x="619" 
d="M73 620l155 183h162l155 -183h-147l-91 86l-90 -86h-144zM330 -11q-89 0 -149 22.5t-91 65.5t-43 92t-12 115q0 51 7 92t27 80t52 65t85 42t123 16q61 0 105.5 -13t71.5 -37t44.5 -57t23 -72t8 -84t-0.5 -92h-394q7 -54 39 -81t104 -27q108 0 178 52l79 -102
q-55 -41 -114 -59t-143 -18zM324 448q-69 0 -100 -28t-37 -84h251q-4 57 -25.5 84.5t-88.5 27.5zM239 -197v139h159v-139h-159z" />
    <glyph glyph-name="uni1EC8" unicode="&#x1ec8;" horiz-adv-x="333" 
d="M85 0v741h163v-741h-163zM116 774q-7 37 4.5 63t48.5 48q27 16 34.5 23t7.5 18q0 26 -48 26q-50 0 -92 -20l-44 89q54 27 143 27q75 0 117 -28t42 -74q0 -39 -15.5 -62t-46.5 -41q-28 -16 -37.5 -30.5t-9.5 -38.5h-104z" />
    <glyph glyph-name="uni1EC9" unicode="&#x1ec9;" horiz-adv-x="293" 
d="M68 0v566h156v-566h-156zM96 615q-7 37 4.5 63t48.5 48q27 16 34.5 23t7.5 18q0 26 -48 26q-50 0 -92 -20l-44 89q54 27 143 27q75 0 117 -28t42 -74q0 -39 -15.5 -62t-46.5 -41q-28 -16 -37.5 -30.5t-9.5 -38.5h-104z" />
    <glyph glyph-name="uni1ECA" unicode="&#x1eca;" horiz-adv-x="333" 
d="M85 0v741h163v-741h-163zM87 -197v139h159v-139h-159z" />
    <glyph glyph-name="uni1ECB" unicode="&#x1ecb;" horiz-adv-x="293" 
d="M68 0v566h156v-566h-156zM67 618v143h158v-143h-158zM67 -197v139h159v-139h-159z" />
    <glyph glyph-name="uni1ECC" unicode="&#x1ecc;" horiz-adv-x="853" 
d="M426 -12q-392 0 -392 383q0 382 392 382q393 0 393 -382q0 -383 -393 -383zM426 132q122 0 174.5 60.5t52.5 175.5t-52.5 175t-174.5 60t-174.5 -60t-52.5 -175t52.5 -175.5t174.5 -60.5zM348 -197v139h159v-139h-159z" />
    <glyph glyph-name="uni1ECD" unicode="&#x1ecd;" horiz-adv-x="661" 
d="M331 -11q-156 0 -226 74t-70 221t70 221t226 74t225.5 -74t69.5 -221t-69.5 -221t-225.5 -74zM331 123q77 0 107.5 39.5t30.5 117.5q0 77 -30.5 116.5t-107.5 39.5t-107.5 -39t-30.5 -117t30.5 -117.5t107.5 -39.5zM251 -197v139h159v-139h-159z" />
    <glyph glyph-name="uni1ECE" unicode="&#x1ece;" horiz-adv-x="853" 
d="M426 -12q-392 0 -392 383q0 382 392 382q393 0 393 -382q0 -383 -393 -383zM426 132q122 0 174.5 60.5t52.5 175.5t-52.5 175t-174.5 60t-174.5 -60t-52.5 -175t52.5 -175.5t174.5 -60.5zM373 779q-7 37 4.5 63t48.5 48q27 16 34.5 23t7.5 18q0 26 -48 26q-50 0 -92 -20
l-44 89q54 27 143 27q75 0 117 -28t42 -74q0 -39 -15.5 -62t-46.5 -41q-28 -16 -37.5 -30.5t-9.5 -38.5h-104z" />
    <glyph glyph-name="uni1ECF" unicode="&#x1ecf;" horiz-adv-x="661" 
d="M331 -11q-156 0 -226 74t-70 221t70 221t226 74t225.5 -74t69.5 -221t-69.5 -221t-225.5 -74zM331 123q77 0 107.5 39.5t30.5 117.5q0 77 -30.5 116.5t-107.5 39.5t-107.5 -39t-30.5 -117t30.5 -117.5t107.5 -39.5zM278 615q-7 37 4.5 63t48.5 48q27 16 34.5 23t7.5 18
q0 26 -48 26q-50 0 -92 -20l-44 89q54 27 143 27q75 0 117 -28t42 -74q0 -39 -15.5 -62t-46.5 -41q-28 -16 -37.5 -30.5t-9.5 -38.5h-104z" />
    <glyph glyph-name="uni1ED0" unicode="&#x1ed0;" horiz-adv-x="853" 
d="M59 883l141 184h189l-191 -184h-139zM189 781l155 183h162l155 -183h-147l-90 86l-91 -86h-144zM426 -12q-392 0 -392 383q0 382 392 382q393 0 393 -382q0 -383 -393 -383zM426 132q122 0 174.5 60.5t52.5 175.5t-52.5 175t-174.5 60t-174.5 -60t-52.5 -175t52.5 -175.5
t174.5 -60.5z" />
    <glyph glyph-name="uni1ED1" unicode="&#x1ed1;" horiz-adv-x="661" 
d="M-36 722l141 184h189l-191 -184h-139zM94 620l155 183h162l155 -183h-147l-90 86l-91 -86h-144zM331 -11q-156 0 -226 74t-70 221t70 221t226 74t225.5 -74t69.5 -221t-69.5 -221t-225.5 -74zM331 123q77 0 107.5 39.5t30.5 117.5q0 77 -30.5 116.5t-107.5 39.5
t-107.5 -39t-30.5 -117t30.5 -117.5t107.5 -39.5z" />
    <glyph glyph-name="uni1ED2" unicode="&#x1ed2;" horiz-adv-x="853" 
d="M654 883l-190 184h188l141 -184h-139zM190 781l155 183h162l155 -183h-147l-91 86l-90 -86h-144zM426 -12q-392 0 -392 383q0 382 392 382q393 0 393 -382q0 -383 -393 -383zM426 132q122 0 174.5 60.5t52.5 175.5t-52.5 175t-174.5 60t-174.5 -60t-52.5 -175
t52.5 -175.5t174.5 -60.5z" />
    <glyph glyph-name="uni1ED3" unicode="&#x1ed3;" horiz-adv-x="661" 
d="M558 722l-190 184h188l141 -184h-139zM94 620l155 183h162l155 -183h-147l-91 86l-90 -86h-144zM331 -11q-156 0 -226 74t-70 221t70 221t226 74t225.5 -74t69.5 -221t-69.5 -221t-225.5 -74zM331 123q77 0 107.5 39.5t30.5 117.5q0 77 -30.5 116.5t-107.5 39.5
t-107.5 -39t-30.5 -117t30.5 -117.5t107.5 -39.5z" />
    <glyph glyph-name="uni1ED4" unicode="&#x1ed4;" horiz-adv-x="853" 
d="M375 992q-6 37 5.5 63t48.5 48q27 17 34 23.5t7 17.5q0 27 -48 27q-49 0 -91 -21l-45 90q59 27 144 27q75 0 117 -28.5t42 -74.5q0 -39 -15.5 -61.5t-47.5 -40.5q-28 -16 -37.5 -31t-8.5 -39h-105zM190 781l155 183h162l155 -183h-147l-91 86l-90 -86h-144zM426 -12
q-392 0 -392 383q0 382 392 382q393 0 393 -382q0 -383 -393 -383zM426 132q122 0 174.5 60.5t52.5 175.5t-52.5 175t-174.5 60t-174.5 -60t-52.5 -175t52.5 -175.5t174.5 -60.5z" />
    <glyph glyph-name="uni1ED5" unicode="&#x1ed5;" horiz-adv-x="661" 
d="M278 831q-6 37 5.5 63t48.5 48q27 17 34 23.5t7 17.5q0 27 -48 27q-49 0 -91 -21l-45 90q59 27 144 27q75 0 117 -28.5t42 -74.5q0 -39 -15.5 -61.5t-47.5 -40.5q-28 -16 -37.5 -31t-8.5 -39h-105zM93 620l155 183h162l155 -183h-147l-91 86l-90 -86h-144zM331 -11
q-156 0 -226 74t-70 221t70 221t226 74t225.5 -74t69.5 -221t-69.5 -221t-225.5 -74zM331 123q77 0 107.5 39.5t30.5 117.5q0 77 -30.5 116.5t-107.5 39.5t-107.5 -39t-30.5 -117t30.5 -117.5t107.5 -39.5z" />
    <glyph glyph-name="uni1ED6" unicode="&#x1ed6;" horiz-adv-x="853" 
d="M426 -12q-392 0 -392 383q0 382 392 382q393 0 393 -382q0 -383 -393 -383zM426 132q122 0 174.5 60.5t52.5 175.5t-52.5 175t-174.5 60t-174.5 -60t-52.5 -175t52.5 -175.5t174.5 -60.5zM277 987l-88 71q87 108 169 108q37 0 77.5 -26.5t60.5 -26.5q35 0 84 59l87 -72
q-89 -109 -169 -109q-35 0 -75.5 27t-61.5 27q-38 0 -84 -58zM190 781l155 183h162l155 -183h-147l-91 86l-90 -86h-144z" />
    <glyph glyph-name="uni1ED7" unicode="&#x1ed7;" horiz-adv-x="661" 
d="M331 -11q-156 0 -226 74t-70 221t70 221t226 74t225.5 -74t69.5 -221t-69.5 -221t-225.5 -74zM331 123q77 0 107.5 39.5t30.5 117.5q0 77 -30.5 116.5t-107.5 39.5t-107.5 -39t-30.5 -117t30.5 -117.5t107.5 -39.5zM181 826l-88 71q87 108 169 108q37 0 77.5 -26.5
t60.5 -26.5q35 0 84 59l87 -72q-89 -109 -169 -109q-35 0 -75.5 27t-61.5 27q-38 0 -84 -58zM94 620l155 183h162l155 -183h-147l-91 86l-90 -86h-144z" />
    <glyph glyph-name="uni1ED8" unicode="&#x1ed8;" horiz-adv-x="853" 
d="M190 781l155 183h162l155 -183h-147l-91 86l-90 -86h-144zM346 -197v139h159v-139h-159zM426 -12q-392 0 -392 383q0 382 392 382q393 0 393 -382q0 -383 -393 -383zM426 132q122 0 174.5 60.5t52.5 175.5t-52.5 175t-174.5 60t-174.5 -60t-52.5 -175t52.5 -175.5
t174.5 -60.5z" />
    <glyph glyph-name="uni1ED9" unicode="&#x1ed9;" horiz-adv-x="661" 
d="M94 620l155 183h162l155 -183h-147l-91 86l-90 -86h-144zM251 -197v139h159v-139h-159zM331 -11q-156 0 -226 74t-70 221t70 221t226 74t225.5 -74t69.5 -221t-69.5 -221t-225.5 -74zM331 123q77 0 107.5 39.5t30.5 117.5q0 77 -30.5 116.5t-107.5 39.5t-107.5 -39
t-30.5 -117t30.5 -117.5t107.5 -39.5z" />
    <glyph glyph-name="uni1EDA" unicode="&#x1eda;" horiz-adv-x="853" 
d="M323 781l141 183h189l-191 -183h-139zM818 901v-137q0 -95 -78 -128q79 -94 79 -265q0 -383 -393 -383q-392 0 -392 383q0 382 392 382q148 0 241 -55q67 3 71 54h-69v149h149zM426 132q122 0 174.5 60.5t52.5 175.5t-52.5 175t-174.5 60t-174.5 -60t-52.5 -175
t52.5 -175.5t174.5 -60.5z" />
    <glyph glyph-name="uni1EDB" unicode="&#x1edb;" horiz-adv-x="677" 
d="M182 620l141 183h189l-191 -183h-139zM654 740v-136q0 -94 -75 -128q47 -71 47 -192q0 -148 -69.5 -221.5t-225.5 -73.5t-226 74t-70 221t70 221t226 74q113 0 182 -40q56 5 62 53h-70v148h149zM331 123q77 0 107.5 39t30.5 118q0 78 -30.5 117t-107.5 39
q-78 0 -108 -38.5t-30 -117.5t30 -118t108 -39z" />
    <glyph glyph-name="uni1EDC" unicode="&#x1edc;" horiz-adv-x="853" 
d="M818 901v-137q0 -95 -78 -128q79 -94 79 -265q0 -383 -393 -383q-392 0 -392 383q0 382 392 382q148 0 241 -55q67 3 71 54h-69v149h149zM426 132q122 0 174.5 60.5t52.5 175.5t-52.5 175t-174.5 60t-174.5 -60t-52.5 -175t52.5 -175.5t174.5 -60.5zM390 781l-191 183
h189l141 -183h-139z" />
    <glyph glyph-name="uni1EDD" unicode="&#x1edd;" horiz-adv-x="677" 
d="M654 740v-136q0 -94 -75 -128q47 -71 47 -192q0 -148 -69.5 -221.5t-225.5 -73.5t-226 74t-70 221t70 221t226 74q113 0 182 -40q56 5 62 53h-70v148h149zM331 123q77 0 107.5 39t30.5 118q0 78 -30.5 117t-107.5 39q-78 0 -108 -38.5t-30 -117.5t30 -118t108 -39z
M294 620l-191 183h189l141 -183h-139z" />
    <glyph glyph-name="uni1EDE" unicode="&#x1ede;" horiz-adv-x="853" 
d="M818 901v-137q0 -95 -78 -128q79 -94 79 -265q0 -383 -393 -383q-392 0 -392 383q0 382 392 382q148 0 241 -55q67 3 71 54h-69v149h149zM426 132q122 0 174.5 60.5t52.5 175.5t-52.5 175t-174.5 60t-174.5 -60t-52.5 -175t52.5 -175.5t174.5 -60.5zM370 779
q-7 37 4.5 63t48.5 48q27 16 34.5 23t7.5 18q0 26 -48 26q-50 0 -92 -20l-44 89q54 27 143 27q75 0 117 -28t42 -74q0 -39 -15.5 -62t-46.5 -41q-28 -16 -37.5 -30.5t-9.5 -38.5h-104z" />
    <glyph glyph-name="uni1EDF" unicode="&#x1edf;" horiz-adv-x="677" 
d="M654 740v-136q0 -94 -75 -128q47 -71 47 -192q0 -148 -69.5 -221.5t-225.5 -73.5t-226 74t-70 221t70 221t226 74q113 0 182 -40q56 5 62 53h-70v148h149zM331 123q77 0 107.5 39t30.5 118q0 78 -30.5 117t-107.5 39q-78 0 -108 -38.5t-30 -117.5t30 -118t108 -39z
M253 615q-7 37 4.5 63t48.5 48q27 16 34.5 23t7.5 18q0 26 -48 26q-50 0 -92 -20l-44 89q54 27 143 27q75 0 117 -28t42 -74q0 -39 -15.5 -62t-46.5 -41q-28 -16 -37.5 -30.5t-9.5 -38.5h-104z" />
    <glyph glyph-name="uni1EE0" unicode="&#x1ee0;" horiz-adv-x="853" 
d="M818 901v-137q0 -95 -78 -128q79 -94 79 -265q0 -383 -393 -383q-392 0 -392 383q0 382 392 382q148 0 241 -55q67 3 71 54h-69v149h149zM426 132q122 0 174.5 60.5t52.5 175.5t-52.5 175t-174.5 60t-174.5 -60t-52.5 -175t52.5 -175.5t174.5 -60.5zM242 777l-87 71
q87 108 168 108q38 0 78 -27t60 -27q35 0 84 59l87 -71q-89 -110 -168 -110q-36 0 -76.5 27t-61.5 27q-38 0 -84 -57z" />
    <glyph glyph-name="uni1EE1" unicode="&#x1ee1;" horiz-adv-x="677" 
d="M654 740v-136q0 -94 -75 -128q47 -71 47 -192q0 -148 -69.5 -221.5t-225.5 -73.5t-226 74t-70 221t70 221t226 74q113 0 182 -40q56 5 62 53h-58v148h137zM331 123q77 0 107.5 39t30.5 118q0 78 -30.5 117t-107.5 39q-78 0 -108 -38.5t-30 -117.5t30 -118t108 -39z
M148 622l-76 64q21 50 57 79t78 29q37 0 81.5 -26.5t64.5 -26.5q43 0 68 55l76 -68q-21 -50 -56.5 -78t-77.5 -28q-36 0 -80.5 27.5t-65.5 27.5q-45 0 -69 -55z" />
    <glyph glyph-name="uni1EE2" unicode="&#x1ee2;" horiz-adv-x="853" 
d="M818 901v-137q0 -95 -78 -128q79 -94 79 -265q0 -383 -393 -383q-392 0 -392 383q0 382 392 382q148 0 241 -55q67 3 71 54h-69v149h149zM426 132q122 0 174.5 60.5t52.5 175.5t-52.5 175t-174.5 60t-174.5 -60t-52.5 -175t52.5 -175.5t174.5 -60.5zM346 -197v139h159
v-139h-159z" />
    <glyph glyph-name="uni1EE3" unicode="&#x1ee3;" horiz-adv-x="677" 
d="M654 740v-136q0 -94 -75 -128q47 -71 47 -192q0 -148 -69.5 -221.5t-225.5 -73.5t-226 74t-70 221t70 221t226 74q113 0 182 -40q56 5 62 53h-70v148h149zM331 123q77 0 107.5 39t30.5 118q0 78 -30.5 117t-107.5 39q-78 0 -108 -38.5t-30 -117.5t30 -118t108 -39z
M251 -197v139h159v-139h-159z" />
    <glyph glyph-name="uni1EE4" unicode="&#x1ee4;" horiz-adv-x="816" 
d="M408 -14q-65 0 -117 9.5t-87 24.5t-60.5 38.5t-39.5 47.5t-22.5 56.5t-10.5 59t-2 61.5v458h164v-437q0 -90 35.5 -131.5t141.5 -41.5t142 40.5t36 132.5v437h159v-458q0 -50 -5 -86t-25 -79t-55 -69.5t-99.5 -44.5t-154.5 -18zM328 -197v139h159v-139h-159z" />
    <glyph glyph-name="uni1EE5" unicode="&#x1ee5;" horiz-adv-x="656" 
d="M329 -9q-157 0 -213.5 61t-56.5 212v302h157v-305q0 -30 1 -45t7 -35.5t17.5 -30t33.5 -16.5t55 -7q32 0 54 7t33.5 17t17.5 30t7 35.5t1 45.5v304h154v-301q0 -76 -11.5 -125t-41.5 -84t-82 -50t-133 -15zM248 -197v139h159v-139h-159z" />
    <glyph glyph-name="uni1EE6" unicode="&#x1ee6;" horiz-adv-x="816" 
d="M408 -14q-65 0 -117 9.5t-87 24.5t-60.5 38.5t-39.5 47.5t-22.5 56.5t-10.5 59t-2 61.5v458h164v-437q0 -90 35.5 -131.5t141.5 -41.5t142 40.5t36 132.5v437h159v-458q0 -50 -5 -86t-25 -79t-55 -69.5t-99.5 -44.5t-154.5 -18zM360 759q-7 37 4.5 63t48.5 48
q27 16 34.5 23t7.5 18q0 26 -48 26q-50 0 -92 -20l-44 89q54 27 143 27q75 0 117 -28t42 -74q0 -39 -15.5 -62t-46.5 -41q-28 -16 -37.5 -30.5t-9.5 -38.5h-104z" />
    <glyph glyph-name="uni1EE7" unicode="&#x1ee7;" horiz-adv-x="656" 
d="M329 -9q-157 0 -213.5 61t-56.5 212v302h157v-305q0 -30 1 -45t7 -35.5t17.5 -30t33.5 -16.5t55 -7q32 0 54 7t33.5 17t17.5 30t7 35.5t1 45.5v304h154v-301q0 -76 -11.5 -125t-41.5 -84t-82 -50t-133 -15zM276 615q-7 37 4.5 63t48.5 48q27 16 34.5 23t7.5 18
q0 26 -48 26q-50 0 -92 -20l-44 89q54 27 143 27q75 0 117 -28t42 -74q0 -39 -15.5 -62t-46.5 -41q-28 -16 -37.5 -30.5t-9.5 -38.5h-104z" />
    <glyph glyph-name="uni1EE8" unicode="&#x1ee8;" horiz-adv-x="846" 
d="M304 781l141 183h189l-191 -183h-139zM874 944v-137q0 -57 -31 -95.5t-96 -46.5v-382q0 -35 -2 -61.5t-10.5 -59t-22.5 -56.5t-39.5 -47.5t-60.5 -38.5t-87 -24.5t-117 -9.5t-117 9.5t-87 24.5t-60.5 38.5t-39.5 47.5t-22.5 56.5t-10.5 59t-2 61.5v458h164v-437
q0 -90 35.5 -131.5t141.5 -41.5t142 40.5t36 132.5v437h129q74 0 78 54h-69v149h148z" />
    <glyph glyph-name="uni1EE9" unicode="&#x1ee9;" horiz-adv-x="727" 
d="M225 620l141 183h189l-191 -183h-139zM732 768v-137q0 -58 -33 -96.5t-102 -44.5v-225q0 -151 -56 -213.5t-213 -62.5t-213 62t-56 213v302h157v-305q0 -30 1 -45t7 -35.5t17.5 -30t33.5 -16.5t55 -7q32 0 54 7t33.5 17t17.5 30t7 35.5t1 45.5v304h132q74 0 78 53h-70
v149h149z" />
    <glyph glyph-name="uni1EEA" unicode="&#x1eea;" horiz-adv-x="846" 
d="M371 781l-191 183h189l141 -183h-139zM874 944v-137q0 -57 -31 -95.5t-96 -46.5v-382q0 -35 -2 -61.5t-10.5 -59t-22.5 -56.5t-39.5 -47.5t-60.5 -38.5t-87 -24.5t-117 -9.5t-117 9.5t-87 24.5t-60.5 38.5t-39.5 47.5t-22.5 56.5t-10.5 59t-2 61.5v458h164v-437
q0 -90 35.5 -131.5t141.5 -41.5t142 40.5t36 132.5v437h129q74 0 78 54h-69v149h148z" />
    <glyph glyph-name="uni1EEB" unicode="&#x1eeb;" horiz-adv-x="727" 
d="M292 620l-191 183h189l141 -183h-139zM732 768v-137q0 -58 -33 -96.5t-102 -44.5v-225q0 -151 -56 -213.5t-213 -62.5t-213 62t-56 213v302h157v-305q0 -30 1 -45t7 -35.5t17.5 -30t33.5 -16.5t55 -7q32 0 54 7t33.5 17t17.5 30t7 35.5t1 45.5v304h132q74 0 78 53h-70
v149h149z" />
    <glyph glyph-name="uni1EEC" unicode="&#x1eec;" horiz-adv-x="846" 
d="M360 759q-7 37 4.5 63t48.5 48q27 16 34.5 23t7.5 18q0 26 -48 26q-50 0 -92 -20l-44 89q54 27 143 27q75 0 117 -28t42 -74q0 -39 -15.5 -62t-46.5 -41q-28 -16 -37.5 -30.5t-9.5 -38.5h-104zM874 944v-137q0 -57 -31 -95.5t-96 -46.5v-382q0 -35 -2 -61.5t-10.5 -59
t-22.5 -56.5t-39.5 -47.5t-60.5 -38.5t-87 -24.5t-117 -9.5t-117 9.5t-87 24.5t-60.5 38.5t-39.5 47.5t-22.5 56.5t-10.5 59t-2 61.5v458h164v-437q0 -90 35.5 -131.5t141.5 -41.5t142 40.5t36 132.5v437h129q74 0 78 54h-69v149h148z" />
    <glyph glyph-name="uni1EED" unicode="&#x1eed;" horiz-adv-x="727" 
d="M279 615q-7 37 4.5 63t48.5 48q27 16 34.5 23t7.5 18q0 26 -48 26q-50 0 -92 -20l-44 89q54 27 143 27q75 0 117 -28t42 -74q0 -39 -15.5 -62t-46.5 -41q-28 -16 -37.5 -30.5t-9.5 -38.5h-104zM732 768v-137q0 -58 -33 -96.5t-102 -44.5v-225q0 -151 -56 -213.5
t-213 -62.5t-213 62t-56 213v302h157v-305q0 -30 1 -45t7 -35.5t17.5 -30t33.5 -16.5t55 -7q32 0 54 7t33.5 17t17.5 30t7 35.5t1 45.5v304h132q74 0 78 53h-70v149h149z" />
    <glyph glyph-name="uni1EEE" unicode="&#x1eee;" horiz-adv-x="846" 
d="M874 944v-137q0 -57 -31 -95.5t-96 -46.5v-382q0 -35 -2 -61.5t-10.5 -59t-22.5 -56.5t-39.5 -47.5t-60.5 -38.5t-87 -24.5t-117 -9.5t-117 9.5t-87 24.5t-60.5 38.5t-39.5 47.5t-22.5 56.5t-10.5 59t-2 61.5v458h164v-437q0 -90 35.5 -131.5t141.5 -41.5t142 40.5
t36 132.5v437h129q74 0 78 54h-69v149h148zM263 777l-87 71q87 108 168 108q38 0 78 -27t60 -27q35 0 84 59l87 -71q-89 -110 -168 -110q-36 0 -76.5 27t-61.5 27q-38 0 -84 -57z" />
    <glyph glyph-name="uni1EEF" unicode="&#x1eef;" horiz-adv-x="727" 
d="M732 768v-137q0 -58 -33 -96.5t-102 -44.5v-225q0 -151 -56 -213.5t-213 -62.5t-213 62t-56 213v302h157v-305q0 -30 1 -45t7 -35.5t17.5 -30t33.5 -16.5t55 -7q32 0 54 7t33.5 17t17.5 30t7 35.5t1 45.5v304h132q74 0 78 53h-70v149h149zM158 616l-87 71q87 108 168 108
q38 0 78 -27t60 -27q35 0 84 59l87 -71q-89 -110 -168 -110q-36 0 -76.5 27t-61.5 27q-38 0 -84 -57z" />
    <glyph glyph-name="uni1EF0" unicode="&#x1ef0;" horiz-adv-x="846" 
d="M328 -197v139h159v-139h-159zM874 944v-137q0 -57 -31 -95.5t-96 -46.5v-382q0 -35 -2 -61.5t-10.5 -59t-22.5 -56.5t-39.5 -47.5t-60.5 -38.5t-87 -24.5t-117 -9.5t-117 9.5t-87 24.5t-60.5 38.5t-39.5 47.5t-22.5 56.5t-10.5 59t-2 61.5v458h164v-437
q0 -90 35.5 -131.5t141.5 -41.5t142 40.5t36 132.5v437h129q74 0 78 54h-69v149h148z" />
    <glyph glyph-name="uni1EF1" unicode="&#x1ef1;" horiz-adv-x="727" 
d="M248 -197v139h159v-139h-159zM732 768v-137q0 -58 -33 -96.5t-102 -44.5v-225q0 -151 -56 -213.5t-213 -62.5t-213 62t-56 213v302h157v-305q0 -30 1 -45t7 -35.5t17.5 -30t33.5 -16.5t55 -7q32 0 54 7t33.5 17t17.5 30t7 35.5t1 45.5v304h132q74 0 78 53h-70v149h149z
" />
    <glyph glyph-name="Ygrave" unicode="&#x1ef2;" horiz-adv-x="760" 
d="M298 0v260l-295 481h176l204 -334l204 334h169l-295 -481v-260h-163zM350 781l-191 183h189l141 -183h-139z" />
    <glyph glyph-name="ygrave" unicode="&#x1ef3;" horiz-adv-x="584" 
d="M134 -170q-22 0 -56 2v118h42q46 0 63 8.5t25 33.5l7 21l-216 553h169l131 -360l127 360h159l-227 -591q-30 -81 -77 -113t-147 -32zM267 620l-191 183h189l141 -183h-139z" />
    <glyph glyph-name="uni1EF4" unicode="&#x1ef4;" horiz-adv-x="760" 
d="M298 0v260l-295 481h176l204 -334l204 334h169l-295 -481v-260h-163zM300 -197v139h159v-139h-159z" />
    <glyph glyph-name="uni1EF5" unicode="&#x1ef5;" horiz-adv-x="584" 
d="M134 -170q-22 0 -56 2v118h42q46 0 63 8.5t25 33.5l7 21l-216 553h169l131 -360l127 360h159l-227 -591q-30 -81 -77 -113t-147 -32zM410 -197v139h159v-139h-159z" />
    <glyph glyph-name="uni1EF6" unicode="&#x1ef6;" horiz-adv-x="760" 
d="M298 0v260l-295 481h176l204 -334l204 334h169l-295 -481v-260h-163zM330 759q-7 37 4.5 63t48.5 48q27 16 34.5 23t7.5 18q0 26 -48 26q-50 0 -92 -20l-44 89q54 27 143 27q75 0 117 -28t42 -74q0 -39 -15.5 -62t-46.5 -41q-28 -16 -37.5 -30.5t-9.5 -38.5h-104z" />
    <glyph glyph-name="uni1EF7" unicode="&#x1ef7;" horiz-adv-x="584" 
d="M134 -170q-22 0 -56 2v118h42q46 0 63 8.5t25 33.5l7 21l-216 553h169l131 -360l127 360h159l-227 -591q-30 -81 -77 -113t-147 -32zM245 615q-7 37 4.5 63t48.5 48q27 16 34.5 23t7.5 18q0 26 -48 26q-50 0 -92 -20l-44 89q54 27 143 27q75 0 117 -28t42 -74
q0 -39 -15.5 -62t-46.5 -41q-28 -16 -37.5 -30.5t-9.5 -38.5h-104z" />
    <glyph glyph-name="uni1EF8" unicode="&#x1ef8;" horiz-adv-x="760" 
d="M298 0v260l-295 481h176l204 -334l204 334h169l-295 -481v-260h-163zM226 797l-87 71q87 108 168 108q38 0 78 -27t60 -27q35 0 84 59l87 -71q-89 -110 -168 -110q-36 0 -76.5 27t-61.5 27q-38 0 -84 -57z" />
    <glyph glyph-name="uni1EF9" unicode="&#x1ef9;" horiz-adv-x="584" 
d="M134 -170q-22 0 -56 2v118h42q46 0 63 8.5t25 33.5l7 21l-216 553h169l131 -360l127 360h159l-227 -591q-30 -81 -77 -113t-147 -32zM143 617l-87 71q87 108 168 108q38 0 78 -27t60 -27q35 0 84 59l87 -71q-89 -110 -168 -110q-36 0 -76.5 27t-61.5 27q-38 0 -84 -57z
" />
    <glyph glyph-name="endash" unicode="&#x2013;" horiz-adv-x="747" 
d="M38 258v140h671v-140h-671z" />
    <glyph glyph-name="emdash" unicode="&#x2014;" horiz-adv-x="962" 
d="M38 258v140h886v-140h-886z" />
    <glyph glyph-name="quoteleft" unicode="&#x2018;" horiz-adv-x="293" 
d="M55 395v128q0 96 25.5 138t114.5 82l38 -77q-52 -25 -66.5 -41.5t-14.5 -49.5h85v-180h-182z" />
    <glyph glyph-name="quoteright" unicode="&#x2019;" horiz-adv-x="293" 
d="M98 393l-38 77q52 24 66.5 40.5t14.5 49.5h-86v181h182v-128q0 -98 -25 -139.5t-114 -80.5z" />
    <glyph glyph-name="quotesinglbase" unicode="&#x201a;" horiz-adv-x="293" 
d="M98 -162l-38 77q51 24 66 41t15 50h-86v180h182v-129q0 -91 -26 -136t-113 -83z" />
    <glyph glyph-name="quotedblleft" unicode="&#x201c;" horiz-adv-x="531" 
d="M55 402v125q0 94 25 135t112 79l36 -75q-50 -23 -64.5 -39.5t-14.5 -48.5h84v-176h-178zM299 402v125q0 94 24.5 135t110.5 79l37 -75q-50 -23 -64.5 -39.5t-14.5 -48.5h83v-176h-176z" />
    <glyph glyph-name="quotedblright" unicode="&#x201d;" horiz-adv-x="531" 
d="M96 402l-36 74q50 25 64.5 41t14.5 49h-84v175h178v-125q0 -94 -25 -135t-112 -79zM340 402l-38 74q51 25 65.5 41t14.5 49h-83v175h176v-125q0 -94 -24.5 -135t-110.5 -79z" />
    <glyph glyph-name="quotedblbase" unicode="&#x201e;" horiz-adv-x="531" 
d="M96 -157l-36 74q50 23 64.5 39.5t14.5 49.5h-84v175h178v-124q0 -89 -25.5 -133.5t-111.5 -80.5zM340 -157l-38 74q50 23 65 39.5t15 49.5h-83v175h176v-124q0 -89 -25.5 -133.5t-109.5 -80.5z" />
    <glyph glyph-name="dagger" unicode="&#x2020;" horiz-adv-x="598" 
d="M221 -166v573h-174v141h174v228h155v-228h175v-141h-175v-573h-155z" />
    <glyph glyph-name="daggerdbl" unicode="&#x2021;" horiz-adv-x="598" 
d="M221 -166v237h-174v141h174v195h-174v141h174v228h155v-228h175v-141h-175v-195h175v-141h-175v-237h-155z" />
    <glyph glyph-name="bullet" unicode="&#x2022;" horiz-adv-x="388" 
d="M89 190v228h211v-228h-211z" />
    <glyph glyph-name="ellipsis" unicode="&#x2026;" horiz-adv-x="843" 
d="M55 0v180h182v-180h-182zM330 0v180h182v-180h-182zM605 0v180h182v-180h-182z" />
    <glyph glyph-name="perthousand" unicode="&#x2030;" horiz-adv-x="1757" 
d="M270 263q-116 0 -177 63.5t-61 181.5q0 116 61.5 180.5t176.5 64.5q113 0 174 -64.5t61 -180.5q0 -117 -61 -181t-174 -64zM270 380q95 0 95 128q0 124 -95 124q-98 0 -98 -124q0 -128 98 -128zM978 -9q-114 0 -175 64t-61 182q0 116 61 180.5t175 64.5
q113 0 174.5 -64.5t61.5 -180.5q0 -117 -61 -181.5t-175 -64.5zM978 108q96 0 96 129q0 123 -96 123t-96 -123q0 -129 96 -129zM1489 -9q-114 0 -175 64t-61 182q0 116 61 180.5t175 64.5q113 0 174.5 -64.5t61.5 -180.5q0 -117 -61 -181.5t-175 -64.5zM1489 108
q96 0 96 129q0 123 -96 123t-96 -123q0 -129 96 -129zM343 0l414 742h146l-415 -742h-145z" />
    <glyph glyph-name="guilsinglleft" unicode="&#x2039;" horiz-adv-x="486" 
d="M234 0l-151 282l151 284h141l-139 -284l139 -282h-141z" />
    <glyph glyph-name="guilsinglright" unicode="&#x203a;" horiz-adv-x="486" 
d="M111 0l139 283l-139 283h141l151 -283l-151 -283h-141z" />
    <glyph glyph-name="fraction" unicode="&#x2044;" horiz-adv-x="553" 
d="M0 0l415 741h139l-416 -741h-138z" />
    <glyph glyph-name="fraction" unicode="&#x2215;" horiz-adv-x="553" 
d="M0 0l415 741h139l-416 -741h-138z" />
    <glyph glyph-name="zero.superior" unicode="&#x2070;" horiz-adv-x="598" 
d="M299 248q-115 0 -166.5 62.5t-51.5 189.5q0 126 51.5 188t166.5 62q114 0 166 -62t52 -188q0 -127 -52 -189.5t-166 -62.5zM299 350q58 0 78 35t20 115q0 78 -20 111t-78 33t-78 -33.5t-20 -110.5q0 -80 20 -115t78 -35z" />
    <glyph glyph-name="four.superior" unicode="&#x2074;" horiz-adv-x="554" 
d="M62 342v90l212 309h129l-210 -304h115l22 123h92v-123h75v-95h-75v-88h-115v88h-245z" />
    <glyph glyph-name="five.superior" unicode="&#x2075;" horiz-adv-x="539" 
d="M270 248q-122 0 -208 53l63 91q76 -42 136 -42q55 0 76.5 13t21.5 56q0 42 -21 55.5t-75 13.5q-48 0 -81 -15l-91 26l13 242h334v-101h-234l-5 -71q39 14 97 14q41 0 69 -5.5t56 -21.5t42.5 -50.5t14.5 -86.5q0 -102 -51 -136.5t-157 -34.5z" />
    <glyph glyph-name="six.superior" unicode="&#x2076;" horiz-adv-x="572" 
d="M299 248q-115 0 -168 54t-53 165q0 150 65 212t233 62h48v-101h-51q-102 0 -137.5 -24t-41.5 -73q33 42 140 42q92 0 131 -40.5t39 -122.5q0 -174 -205 -174zM299 340q53 0 70 19t17 60q0 39 -18 58.5t-68 19.5q-97 0 -97 -74q0 -45 22.5 -64t73.5 -19z" />
    <glyph glyph-name="seven.superior" unicode="&#x2077;" horiz-adv-x="477" 
d="M126 254l165 382h-245v105h374v-103l-164 -384h-130z" />
    <glyph glyph-name="eight.superior" unicode="&#x2078;" horiz-adv-x="582" 
d="M290 247q-115 0 -166 41t-51 108q0 101 77 128q-36 16 -48.5 40.5t-12.5 62.5q0 125 201 125q202 0 202 -125q0 -38 -12.5 -63.5t-49.5 -40.5q79 -26 79 -127q0 -67 -51.5 -108t-167.5 -41zM290 338q98 0 98 68q0 69 -98 69q-96 0 -96 -69q0 -68 96 -68zM290 556
q48 0 66.5 13.5t18.5 40.5q0 26 -18.5 38.5t-66.5 12.5t-65.5 -12.5t-17.5 -38.5q0 -28 17.5 -41t65.5 -13z" />
    <glyph glyph-name="nine.superior" unicode="&#x2079;" horiz-adv-x="572" 
d="M155 254v99h51q101 0 137 26t42 76q-33 -42 -140 -42q-92 0 -131 40.5t-39 122.5q0 174 205 174q115 0 168 -54t53 -165q0 -151 -65 -214t-233 -63h-48zM279 496q97 0 97 73q0 45 -22.5 64.5t-73.5 19.5q-53 0 -70 -19t-17 -60q0 -39 18 -58.5t68 -19.5z" />
    <glyph glyph-name="zero.inferior" unicode="&#x2080;" horiz-adv-x="598" 
d="M299 -6q-115 0 -166.5 62.5t-51.5 189.5q0 126 51.5 188t166.5 62q114 0 166 -62t52 -188q0 -127 -52 -189.5t-166 -62.5zM299 96q58 0 78 35t20 115q0 78 -20 111t-78 33t-78 -33.5t-20 -110.5q0 -80 20 -115t78 -35z" />
    <glyph glyph-name="one.inferior" unicode="&#x2081;" horiz-adv-x="375" 
d="M144 0v382h-84v105h207v-487h-123z" />
    <glyph glyph-name="two.inferior" unicode="&#x2082;" horiz-adv-x="513" 
d="M62 0v84l155 133q64 55 80.5 75.5t16.5 49.5q0 26 -17.5 38.5t-63.5 12.5q-71 0 -125 -30l-54 91q79 41 195 41q92 0 138 -32.5t46 -106.5q0 -54 -26.5 -92t-94.5 -96l-79 -71h204v-97h-375z" />
    <glyph glyph-name="three.inferior" unicode="&#x2083;" horiz-adv-x="525" 
d="M255 -6q-126 0 -212 55l60 86q68 -40 140 -40q52 0 71.5 12.5t19.5 49.5q0 33 -20 44.5t-78 11.5h-86v95h84q51 0 68.5 7.5t17.5 34.5q0 25 -17 33.5t-63 8.5q-78 0 -133 -33l-56 90q75 47 207 47q98 0 141 -29t43 -89q0 -84 -62 -108q75 -22 75 -127q0 -78 -49 -113.5
t-151 -35.5z" />
    <glyph glyph-name="four.inferior" unicode="&#x2084;" horiz-adv-x="554" 
d="M62 88v90l212 309h129l-210 -304h115l22 123h92v-123h75v-95h-75v-88h-115v88h-245z" />
    <glyph glyph-name="five.inferior" unicode="&#x2085;" horiz-adv-x="539" 
d="M270 -6q-122 0 -208 53l63 91q76 -42 136 -42q55 0 76.5 13t21.5 56q0 42 -21 55.5t-75 13.5q-48 0 -81 -15l-91 26l13 242h334v-101h-234l-5 -71q39 14 97 14q41 0 69 -5.5t56 -21.5t42.5 -50.5t14.5 -86.5q0 -102 -51 -136.5t-157 -34.5z" />
    <glyph glyph-name="six.inferior" unicode="&#x2086;" horiz-adv-x="572" 
d="M299 -6q-115 0 -168 54t-53 165q0 150 65 212t233 62h48v-101h-51q-102 0 -137.5 -24t-41.5 -73q33 42 140 42q92 0 131 -40.5t39 -122.5q0 -174 -205 -174zM299 86q53 0 70 19t17 60q0 39 -18 58.5t-68 19.5q-97 0 -97 -74q0 -45 22.5 -64t73.5 -19z" />
    <glyph glyph-name="seven.inferior" unicode="&#x2087;" horiz-adv-x="477" 
d="M126 0l165 382h-245v105h374v-103l-164 -384h-130z" />
    <glyph glyph-name="eight.inferior" unicode="&#x2088;" horiz-adv-x="582" 
d="M290 -7q-115 0 -166 41t-51 108q0 101 77 128q-36 16 -48.5 40.5t-12.5 62.5q0 125 201 125q202 0 202 -125q0 -38 -12.5 -63.5t-49.5 -40.5q79 -26 79 -127q0 -67 -51.5 -108t-167.5 -41zM290 84q98 0 98 68q0 69 -98 69q-96 0 -96 -69q0 -68 96 -68zM290 302
q48 0 66.5 13.5t18.5 40.5q0 26 -18.5 38.5t-66.5 12.5t-65.5 -12.5t-17.5 -38.5q0 -28 17.5 -41t65.5 -13z" />
    <glyph glyph-name="nine.inferior" unicode="&#x2089;" horiz-adv-x="572" 
d="M155 0v99h51q101 0 137 26t42 76q-33 -42 -140 -42q-92 0 -131 40.5t-39 122.5q0 174 205 174q115 0 168 -54t53 -165q0 -151 -65 -214t-233 -63h-48zM279 242q97 0 97 73q0 45 -22.5 64.5t-73.5 19.5q-53 0 -70 -19t-17 -60q0 -39 18 -58.5t68 -19.5z" />
    <glyph glyph-name="dong" unicode="&#x20ab;" horiz-adv-x="681" 
d="M347 603v123h115v50h157v-50h62v-123h-62v-597l-120 -11l-16 57q-54 -63 -202 -63q-71 0 -120.5 23t-76 65.5t-38 93t-11.5 115.5t12 115t39 91.5t77.5 64t122.5 22.5q134 0 176 -53v77h-115zM318 124q79 0 111.5 39t32.5 123q0 83 -30.5 117.5t-113.5 34.5
q-72 0 -98 -38.5t-26 -113.5q0 -78 26.5 -120t97.5 -42zM90 -186v123h530v-123h-530z" />
    <glyph glyph-name="Euro" unicode="&#x20ac;" horiz-adv-x="718" 
d="M29 394v109h124q22 126 95 188t203 62q80 0 125.5 -10t90.5 -33l-69 -129q-61 32 -143 32q-66 0 -101.5 -28t-48.5 -82h212v-109h-223v-19v-39h223v-110h-206q32 -104 142 -104q84 0 146 38l73 -118q-88 -54 -227 -54q-241 0 -289 238h-127v110h114v36v22h-114z" />
    <glyph glyph-name="litre" unicode="&#x2113;" horiz-adv-x="538" 
d="M294 338v-138q0 -40 14 -56t42 -16q37 0 68 35l57 -75q-73 -93 -180 -93q-80 0 -119 39.5t-39 142.5v34l-43 -35l-48 92l91 72v220q0 89 46 146.5t133 57.5q74 0 112 -43t38 -108q0 -77 -38.5 -136t-113.5 -122zM366 606q0 55 -33 55q-20 0 -29.5 -22.5t-9.5 -78.5v-94
q72 68 72 140z" />
    <glyph glyph-name="afii61352" unicode="&#x2116;" horiz-adv-x="1432" 
d="M74 0v741h177l341 -467v467h156v-741h-150l-367 500v-500h-157zM1077 276q-125 0 -182 60t-57 179q0 118 57 178t182 60q124 0 181.5 -60t57.5 -178t-57.5 -178.5t-181.5 -60.5zM1077 386q110 0 110 125t-110 125t-110 -125t110 -125zM867 114v112h420v-112h-420z" />
    <glyph glyph-name="copyrightsound" unicode="&#x2117;" horiz-adv-x="809" 
d="M404 -12q-179 0 -275 106.5t-96 276.5t96 276.5t275 106.5t275.5 -107t96.5 -276t-96.5 -276t-275.5 -107zM404 45q81 0 142 25t97.5 70t54 103t17.5 128t-17.5 128t-54 103t-97.5 70t-142 25q-159 0 -235 -89.5t-76 -236.5t76 -236.5t235 -89.5zM223 130v475h227
q107 0 147 -39.5t40 -118.5q0 -81 -40.5 -123.5t-152.5 -42.5h-120v-151h-101zM324 367h125q47 0 65.5 16.5t18.5 58.5t-18.5 58t-67.5 16h-123v-149z" />
    <glyph glyph-name="trademark" unicode="&#x2122;" horiz-adv-x="1113" 
d="M501 281v460h133l120 -310l121 310h133v-460h-115v267l-102 -267h-77l-102 267v-267h-111zM197 281v356h-149v104h415v-104h-149v-356h-117z" />
    <glyph glyph-name="estimated" unicode="&#x212e;" horiz-adv-x="656" 
d="M621 289h-441q0 -84 3.5 -119t17.5 -59q47 -78 158 -78q67 0 120 25.5t85 68.5h12l26 -31q-41 -51 -106.5 -79.5t-140.5 -28.5q-143 0 -220.5 84t-77.5 221q0 132 77.5 216.5t213.5 84.5q67 0 121 -26t86 -67t49 -86.5t17 -88.5v-37zM180 328h308q-4 117 -12 146
q-15 58 -71 73q-29 8 -71 8q-100 0 -129.5 -47t-24.5 -180z" />
    <glyph glyph-name="partialdiff" unicode="&#x2202;" horiz-adv-x="663" 
d="M330 -11q-295 0 -295 275q0 272 248 272q122 0 159 -40q-23 104 -151 252l151 49q84 -79 134.5 -210t50.5 -281q0 -168 -72.5 -242.5t-224.5 -74.5zM330 123q75 0 107 37t32 108t-31.5 106t-107.5 35q-74 0 -105.5 -35.5t-31.5 -105.5q0 -71 32 -108t105 -37z" />
    <glyph glyph-name="product" unicode="&#x220f;" horiz-adv-x="790" 
d="M74 -173v914h641v-914h-164v768h-315v-768h-162z" />
    <glyph glyph-name="summation" unicode="&#x2211;" horiz-adv-x="662" 
d="M32 -165v122l227 333l-216 317v134h567v-148h-370l203 -303l-208 -313h392v-142h-595z" />
    <glyph glyph-name="minus" unicode="&#x2212;" horiz-adv-x="722" 
d="M93 282v141h536v-141h-536z" />
    <glyph glyph-name="radical" unicode="&#x221a;" horiz-adv-x="691" 
d="M209 -6l-177 452h165l99 -263l209 558h155l-287 -747h-164z" />
    <glyph glyph-name="infinity" unicode="&#x221e;" horiz-adv-x="896" 
d="M256 165q-98 0 -149 47t-51 132q0 86 51.5 133t148.5 47q96 0 194 -98q100 98 191 98t145 -43.5t54 -136.5q0 -92 -54.5 -135.5t-144.5 -43.5q-97 0 -194 97q-99 -97 -191 -97zM260 279q44 0 110 64q-63 67 -110 67q-81 0 -81 -66q0 -65 81 -65zM638 410q-46 0 -111 -65
q64 -66 111 -66q79 0 79 65q0 66 -79 66z" />
    <glyph glyph-name="integral" unicode="&#x222b;" horiz-adv-x="444" 
d="M-1 -167v129h55q45 0 61.5 17t16.5 53v561q0 102 47 151.5t167 49.5q39 0 75 -2v-128h-54q-46 0 -62.5 -17t-16.5 -53v-562q0 -102 -47 -151.5t-167 -49.5q-37 0 -75 2z" />
    <glyph glyph-name="approxequal" unicode="&#x2248;" horiz-adv-x="722" 
d="M181 380l-87 71q92 113 176 113q40 0 99 -28.5t82 -28.5q37 0 90 63l86 -72q-93 -113 -174 -113q-38 0 -96.5 29t-83.5 29q-42 0 -92 -63zM181 134l-87 71q91 112 176 112q40 0 99 -28.5t82 -28.5q37 0 90 63l86 -71q-92 -114 -174 -114q-38 0 -96.5 29t-83.5 29
q-42 0 -92 -62z" />
    <glyph glyph-name="notequal" unicode="&#x2260;" horiz-adv-x="722" 
d="M160 57l48 104h-109v136h175l51 111h-226v135h285l49 105h129l-50 -105h112v-135h-177l-51 -111h228v-136h-287l-48 -104h-129z" />
    <glyph glyph-name="lessequal" unicode="&#x2264;" horiz-adv-x="722" 
d="M111 6v135h350l-350 168v100l461 220v-142l-297 -132l297 -131v-218h-461z" />
    <glyph glyph-name="greaterequal" unicode="&#x2265;" horiz-adv-x="722" 
d="M150 6v218l297 131l-297 132v142l461 -220v-100l-351 -168h351v-135h-461z" />
    <glyph glyph-name="lozenge" unicode="&#x25ca;" horiz-adv-x="641" 
d="M239 0l-224 371l225 370h153l225 -370l-226 -371h-153zM317 121l143 247l-145 252l-144 -248z" />
    <glyph glyph-name="apple" unicode="&#xf8ff;" horiz-adv-x="832" 
d="M172 654l-7 8q107 97 251 97t252 -97l-7 -8q-105 95 -245 95q-139 0 -244 -95zM416 -17q-144 0 -252 97l7 8q105 -95 245 -95q139 0 244 94l2 -1l4 -4l1 -2q-107 -97 -251 -97zM706 120q-3 3 -8 7q88 106 88 244t-88 244l8 7q90 -108 90 -251q0 -142 -90 -251zM126 120
q-90 108 -90 251q0 142 90 250q3 -2 7 -6q-87 -106 -87 -244t88 -244zM416 60q-116 0 -201 77l7 7q84 -74 194 -74q111 0 193 74l7 -8q-86 -76 -200 -76zM610 597q-81 75 -194 75q-110 0 -194 -74l-7 7q87 77 201 77t201 -77zM183 170q-72 88 -72 201t71 200l8 -7
q-69 -83 -69 -193q0 -111 69 -194zM649 171l-7 6q69 85 69 194q0 110 -70 193l8 7q72 -86 72 -200t-72 -200zM416 121q-92 0 -161 61l7 8q65 -59 154 -59t153 59l7 -8q-67 -61 -160 -61zM604 211q-3 2 -8 7q55 66 55 153q0 89 -55 153l8 7q57 -68 57 -160t-57 -160zM570 552
q-65 59 -154 59q-87 0 -153 -58l-7 7q69 61 160 61q92 0 161 -61zM228 211q-57 70 -57 160t56 160l8 -7q-54 -67 -54 -153q0 -88 54 -153q-1 -1 -2 -2.5t-2.5 -2.5t-2.5 -2zM295 516l-7 8q54 48 128 48t128 -49l-2 -1l-2 -4l-2 -2q-52 46 -122 46t-121 -46zM568 243l-8 7
q43 53 43 121t-43 121l8 7q45 -56 45 -128t-45 -128zM264 243q-45 56 -45 128t45 128l8 -7q-43 -53 -43 -121t43 -121zM416 170q-72 0 -129 49l7 7q52 -46 122 -46t121 46l7 -8q-54 -48 -128 -48zM540 269l-8 7q33 43 33 95q0 53 -34 95l8 7q36 -44 36 -102q0 -57 -35 -102z
M416 209q-57 0 -103 38l7 8q43 -36 96 -36t96 36l6 -8q-45 -38 -102 -38zM292 269q-35 45 -35 102q0 58 36 102l7 -7q-33 -43 -33 -95t33 -95zM320 487l-7 8q44 38 103 38q58 0 102 -39l-6 -7q-41 36 -96 36q-53 0 -96 -36zM416 240q-48 0 -83 30l7 8q35 -28 76 -28
q42 0 75 28l7 -7q-36 -31 -82 -31zM316 289q-28 36 -28 82q0 47 28 81l7 -7q-25 -33 -25 -74t26 -75zM516 290l-7 7q25 33 25 74t-26 75l8 7q28 -36 28 -82q0 -47 -28 -81zM341 464l-7 7q36 31 82 31q47 0 82 -30l-7 -8q-33 28 -75 28t-75 -28zM358 445q-3 2 -7 7l-1 1
q29 24 66 24t66 -24l-8 -8q-25 22 -58 22t-58 -22zM416 265q-37 0 -66 24l7 8q25 -22 59 -22q33 0 58 22l7 -8q-29 -24 -65 -24zM334 306q-21 29 -21 65t21 65l8 -7q-19 -25 -19 -58q0 -32 19 -57zM498 306l-8 7q19 25 19 58t-19 58l7 7q22 -28 22 -65q0 -34 -21 -65z
M416 285q-29 0 -53 19l7 8q22 -17 46 -17q25 0 45 17l7 -8q-22 -19 -52 -19zM371 430l-7 8q22 19 52 19t52 -19l-7 -8q-19 17 -45 17t-45 -17zM349 320q-16 22 -16 51t16 51l8 -7q-14 -20 -14 -44t14 -44zM482 319q-3 4 -7 7q14 20 14 45t-14 44l7 7q17 -22 17 -51t-17 -52z
M468 333l-8 7q10 15 10 31t-10 31l8 7q12 -16 12 -38q0 -21 -12 -38zM416 305q-21 0 -40 14l7 7q17 -12 33 -12q17 0 32 12l7 -7q-17 -14 -39 -14zM364 333q-12 17 -12 38t12 38q1 -1 2 -2.5t2.5 -2.5t2.5 -2q-9 -16 -9 -31t9 -31zM384 416l-7 7q17 14 39 14q21 0 38 -14
l-6 -7q-14 12 -32 12q-17 0 -32 -12zM416 324q-15 0 -27 9l6 6q10 -7 21 -7q13 0 21 7q2 -2 5 -6q-10 -9 -26 -9zM395 403l-5 6q10 9 26 9t26 -9l-5 -6q-11 7 -21 7q-13 0 -21 -7zM378 346q-7 12 -7 25t7 25l6 -5q-5 -10 -5 -20t5 -20q-2 -2 -6 -5zM454 346l-6 5q5 10 5 20
t-5 20l6 5q7 -12 7 -25t-7 -25z" />
    <glyph glyph-name="onesuperior" horiz-adv-x="375" 
d="M144 254v382h-84v105h207v-487h-123z" />
    <glyph glyph-name="twosuperior" horiz-adv-x="513" 
d="M62 254v84l155 133q64 55 80.5 75.5t16.5 49.5q0 26 -17.5 38.5t-63.5 12.5q-71 0 -125 -30l-54 91q79 41 195 41q92 0 138 -32.5t46 -106.5q0 -54 -26.5 -92t-94.5 -96l-79 -71h204v-97h-375z" />
    <glyph glyph-name="a.alt" horiz-adv-x="676" 
d="M281 -9q-70 0 -119.5 22.5t-76.5 64.5t-38.5 92.5t-11.5 115.5t12 115t39 91.5t77.5 63.5t122.5 22q144 0 191 -58l31 49l106 -9v-554l-121 -11l-16 57q-52 -61 -196 -61zM318 124q76 0 107 38.5t31 123.5q0 83 -28.5 117.5t-109.5 34.5q-72 0 -98 -38.5t-26 -113.5
q0 -78 26.5 -120t97.5 -42z" />
    <glyph glyph-name="g.alt" horiz-adv-x="681" 
d="M325 -179q-157 0 -255 39l49 125q91 -34 185 -34q70 0 105 12t44 31t9 56v13q-34 -32 -76.5 -43.5t-107.5 -11.5q-122 0 -182.5 77.5t-60.5 206.5q0 287 251 287q144 0 196 -58l32 48l105 -9v-468q0 -47 -3 -78t-12.5 -65.5t-29 -55t-51.5 -38.5t-81.5 -26t-116.5 -8z
M318 139q77 0 110.5 37.5t33.5 114.5q0 78 -32 112.5t-112 34.5q-70 0 -97 -38t-27 -109t27 -111.5t97 -40.5z" />
    <glyph glyph-name="l.alt" horiz-adv-x="292" 
d="M68 0v776h156v-776h-156z" />
    <glyph glyph-name="u.alt" horiz-adv-x="663" 
d="M265 -11q-116 0 -161 58.5t-45 174.5v344h157v-317q0 -63 20 -92.5t82 -29.5q75 0 99.5 31.5t24.5 96.5v311h158v-560l-120 -11l-15 57q-54 -63 -200 -63z" />
    <glyph glyph-name="aacute.alt" horiz-adv-x="676" 
d="M234 620l141 183h189l-191 -183h-139zM281 -9q-70 0 -119.5 22.5t-76.5 64.5t-38.5 92.5t-11.5 115.5t12 115t39 91.5t77.5 63.5t122.5 22q144 0 191 -58l31 49l106 -9v-554l-121 -11l-16 57q-52 -61 -196 -61zM318 124q76 0 107 38.5t31 123.5q0 83 -28.5 117.5
t-109.5 34.5q-72 0 -98 -38.5t-26 -113.5q0 -78 26.5 -120t97.5 -42z" />
    <glyph glyph-name="abreve.alt" horiz-adv-x="676" 
d="M281 -9q-70 0 -119.5 22.5t-76.5 64.5t-38.5 92.5t-11.5 115.5t12 115t39 91.5t77.5 63.5t122.5 22q144 0 191 -58l31 49l106 -9v-554l-121 -11l-16 57q-52 -61 -196 -61zM318 124q76 0 107 38.5t31 123.5q0 83 -28.5 117.5t-109.5 34.5q-72 0 -98 -38.5t-26 -113.5
q0 -78 26.5 -120t97.5 -42zM337 605q-104 0 -150 49t-65 147l113 21q12 -54 32.5 -75.5t69.5 -21.5t69.5 21.5t32.5 75.5l114 -20q-21 -99 -67 -148t-149 -49z" />
    <glyph glyph-name="acircumflex.alt" horiz-adv-x="676" 
d="M101 620l155 183h162l155 -183h-147l-91 86l-90 -86h-144zM281 -9q-70 0 -119.5 22.5t-76.5 64.5t-38.5 92.5t-11.5 115.5t12 115t39 91.5t77.5 63.5t122.5 22q144 0 191 -58l31 49l106 -9v-554l-121 -11l-16 57q-52 -61 -196 -61zM318 124q76 0 107 38.5t31 123.5
q0 83 -28.5 117.5t-109.5 34.5q-72 0 -98 -38.5t-26 -113.5q0 -78 26.5 -120t97.5 -42z" />
    <glyph glyph-name="adieresis.alt" horiz-adv-x="676" 
d="M153 625v136h142v-136h-142zM380 625v136h141v-136h-141zM281 -9q-70 0 -119.5 22.5t-76.5 64.5t-38.5 92.5t-11.5 115.5t12 115t39 91.5t77.5 63.5t122.5 22q144 0 191 -58l31 49l106 -9v-554l-121 -11l-16 57q-52 -61 -196 -61zM318 124q76 0 107 38.5t31 123.5
q0 83 -28.5 117.5t-109.5 34.5q-72 0 -98 -38.5t-26 -113.5q0 -78 26.5 -120t97.5 -42z" />
    <glyph glyph-name="agrave.alt" horiz-adv-x="676" 
d="M281 -9q-70 0 -119.5 22.5t-76.5 64.5t-38.5 92.5t-11.5 115.5t12 115t39 91.5t77.5 63.5t122.5 22q144 0 191 -58l31 49l106 -9v-554l-121 -11l-16 57q-52 -61 -196 -61zM318 124q76 0 107 38.5t31 123.5q0 83 -28.5 117.5t-109.5 34.5q-72 0 -98 -38.5t-26 -113.5
q0 -78 26.5 -120t97.5 -42zM301 620l-191 183h189l141 -183h-139z" />
    <glyph glyph-name="amacron.alt" horiz-adv-x="676" 
d="M281 -9q-70 0 -119.5 22.5t-76.5 64.5t-38.5 92.5t-11.5 115.5t12 115t39 91.5t77.5 63.5t122.5 22q144 0 191 -58l31 49l106 -9v-554l-121 -11l-16 57q-52 -61 -196 -61zM318 124q76 0 107 38.5t31 123.5q0 83 -28.5 117.5t-109.5 34.5q-72 0 -98 -38.5t-26 -113.5
q0 -78 26.5 -120t97.5 -42zM127 610v125h420v-125h-420z" />
    <glyph glyph-name="aogonek.alt" horiz-adv-x="676" 
d="M281 -9q-70 0 -119.5 22.5t-76.5 64.5t-38.5 92.5t-11.5 115.5t12 115t39 91.5t77.5 63.5t122.5 22q144 0 191 -58l31 49l106 -9v-554q-99 -60 -99 -107q0 -20 10.5 -29t40.5 -9q37 0 77 14l29 -85q-61 -28 -127 -28q-82 0 -116 27t-34 79q0 46 29 84t64 59l-11 41
q-52 -61 -196 -61zM318 124q76 0 107 38.5t31 123.5q0 83 -28.5 117.5t-109.5 34.5q-72 0 -98 -38.5t-26 -113.5q0 -78 26.5 -120t97.5 -42z" />
    <glyph glyph-name="aring.alt" horiz-adv-x="676" 
d="M337 604q-73 0 -108 39.5t-35 105.5t35 106.5t108 40.5q70 0 106 -41t36 -106t-36 -105t-106 -40zM337 681q64 0 64 68q0 69 -64 69q-65 0 -65 -69q0 -68 65 -68zM281 -9q-70 0 -119.5 22.5t-76.5 64.5t-38.5 92.5t-11.5 115.5t12 115t39 91.5t77.5 63.5t122.5 22
q144 0 191 -58l31 49l106 -9v-554l-121 -11l-16 57q-52 -61 -196 -61zM318 124q76 0 107 38.5t31 123.5q0 83 -28.5 117.5t-109.5 34.5q-72 0 -98 -38.5t-26 -113.5q0 -78 26.5 -120t97.5 -42z" />
    <glyph glyph-name="atilde.alt" horiz-adv-x="676" 
d="M281 -9q-70 0 -119.5 22.5t-76.5 64.5t-38.5 92.5t-11.5 115.5t12 115t39 91.5t77.5 63.5t122.5 22q144 0 191 -58l31 49l106 -9v-554l-121 -11l-16 57q-52 -61 -196 -61zM318 124q76 0 107 38.5t31 123.5q0 83 -28.5 117.5t-109.5 34.5q-72 0 -98 -38.5t-26 -113.5
q0 -78 26.5 -120t97.5 -42zM184 616l-87 71q87 108 168 108q38 0 78 -27t60 -27q35 0 84 59l87 -71q-89 -110 -168 -110q-36 0 -76.5 27t-61.5 27q-38 0 -84 -57z" />
    <glyph glyph-name="gbreve.alt" horiz-adv-x="681" 
d="M325 -179q-157 0 -255 39l49 125q91 -34 185 -34q70 0 105 12t44 31t9 56v13q-34 -32 -76.5 -43.5t-107.5 -11.5q-122 0 -182.5 77.5t-60.5 206.5q0 287 251 287q144 0 196 -58l32 48l105 -9v-468q0 -47 -3 -78t-12.5 -65.5t-29 -55t-51.5 -38.5t-81.5 -26t-116.5 -8z
M318 139q77 0 110.5 37.5t33.5 114.5q0 78 -32 112.5t-112 34.5q-70 0 -97 -38t-27 -109t27 -111.5t97 -40.5zM340 605q-104 0 -150 49t-65 147l113 21q12 -54 32.5 -75.5t69.5 -21.5t69.5 21.5t32.5 75.5l114 -20q-21 -99 -67 -148t-149 -49z" />
    <glyph glyph-name="gcommaaccent.alt" horiz-adv-x="681" 
d="M261 619v96q0 80 22 114t100 68l32 -66q-45 -22 -57 -34.5t-12 -36.5h73v-141h-158zM325 -179q-157 0 -255 39l49 125q91 -34 185 -34q70 0 105 12t44 31t9 56v13q-34 -32 -76.5 -43.5t-107.5 -11.5q-122 0 -182.5 77.5t-60.5 206.5q0 287 251 287q144 0 196 -58l32 48
l105 -9v-468q0 -47 -3 -78t-12.5 -65.5t-29 -55t-51.5 -38.5t-81.5 -26t-116.5 -8zM318 139q77 0 110.5 37.5t33.5 114.5q0 78 -32 112.5t-112 34.5q-70 0 -97 -38t-27 -109t27 -111.5t97 -40.5z" />
    <glyph glyph-name="lacute.alt" horiz-adv-x="292" 
d="M73 816l141 183h189l-191 -183h-139zM68 0v776h156v-776h-156z" />
    <glyph glyph-name="lcommaaccent.alt" horiz-adv-x="292" 
d="M105 -330l-34 66q45 22 57.5 34t12.5 37h-74v155h158v-110q0 -81 -21.5 -115t-98.5 -67zM68 0v776h156v-776h-156z" />
    <glyph glyph-name="lslash.alt" horiz-adv-x="332" 
d="M0 323v132l88 50v271h156v-181l88 51v-132l-88 -51v-463h-156v373z" />
    <glyph glyph-name="lcaron.alt" horiz-adv-x="442" 
d="M320 484l-33 67q45 21 57 33t12 37h-66v155h151v-110q0 -80 -22 -114t-99 -68zM68 0v776h156v-776h-156z" />
    <glyph glyph-name="uacute.alt" horiz-adv-x="663" 
d="M227 620l141 183h189l-191 -183h-139zM265 -11q-116 0 -161 58.5t-45 174.5v344h157v-317q0 -63 20 -92.5t82 -29.5q75 0 99.5 31.5t24.5 96.5v311h158v-560l-120 -11l-15 57q-54 -63 -200 -63z" />
    <glyph glyph-name="ucircumflex.alt" horiz-adv-x="663" 
d="M94 620l155 183h162l155 -183h-147l-91 86l-90 -86h-144zM265 -11q-116 0 -161 58.5t-45 174.5v344h157v-317q0 -63 20 -92.5t82 -29.5q75 0 99.5 31.5t24.5 96.5v311h158v-560l-120 -11l-15 57q-54 -63 -200 -63z" />
    <glyph glyph-name="udieresis.alt" horiz-adv-x="663" 
d="M146 625v136h142v-136h-142zM373 625v136h141v-136h-141zM265 -11q-116 0 -161 58.5t-45 174.5v344h157v-317q0 -63 20 -92.5t82 -29.5q75 0 99.5 31.5t24.5 96.5v311h158v-560l-120 -11l-15 57q-54 -63 -200 -63z" />
    <glyph glyph-name="ugrave.alt" horiz-adv-x="663" 
d="M294 620l-191 183h189l141 -183h-139zM265 -11q-116 0 -161 58.5t-45 174.5v344h157v-317q0 -63 20 -92.5t82 -29.5q75 0 99.5 31.5t24.5 96.5v311h158v-560l-120 -11l-15 57q-54 -63 -200 -63z" />
    <glyph glyph-name="uhungarumlaut.alt" horiz-adv-x="663" 
d="M90 620l126 183h181l-176 -183h-131zM360 620l126 183h181l-176 -183h-131zM265 -11q-116 0 -161 58.5t-45 174.5v344h157v-317q0 -63 20 -92.5t82 -29.5q75 0 99.5 31.5t24.5 96.5v311h158v-560l-120 -11l-15 57q-54 -63 -200 -63z" />
    <glyph glyph-name="umacron.alt" horiz-adv-x="663" 
d="M120 610v125h420v-125h-420zM265 -11q-116 0 -161 58.5t-45 174.5v344h157v-317q0 -63 20 -92.5t82 -29.5q75 0 99.5 31.5t24.5 96.5v311h158v-560l-120 -11l-15 57q-54 -63 -200 -63z" />
    <glyph glyph-name="uogonek.alt" horiz-adv-x="663" 
d="M265 -11q-116 0 -161 58.5t-45 174.5v344h157v-317q0 -63 20 -92.5t82 -29.5q75 0 99.5 31.5t24.5 96.5v311h158v-560q-99 -60 -99 -107q0 -20 10.5 -29t40.5 -9q37 0 77 14l29 -85q-61 -28 -127 -28q-82 0 -116 27t-34 79q0 47 29.5 84.5t64.5 59.5l-10 40
q-54 -63 -200 -63z" />
    <glyph glyph-name="uring.alt" horiz-adv-x="663" 
d="M330 604q-73 0 -108 39.5t-35 105.5t35 106.5t108 40.5q70 0 106 -41t36 -106t-36 -105t-106 -40zM330 681q64 0 64 68q0 69 -64 69q-65 0 -65 -69q0 -68 65 -68zM265 -11q-116 0 -161 58.5t-45 174.5v344h157v-317q0 -63 20 -92.5t82 -29.5q75 0 99.5 31.5t24.5 96.5
v311h158v-560l-120 -11l-15 57q-54 -63 -200 -63z" />
    <glyph glyph-name="fl.alt" horiz-adv-x="717" 
d="M25 432v134h107v27q0 102 47 151.5t167 49.5q39 0 75 -2v-128h-54q-46 0 -62.5 -17t-16.5 -53v-28h133v-134h-133v-432h-156v432h-107zM492 0v776h157v-776h-157z" />
    <glyph glyph-name="f_f_l.alt" horiz-adv-x="1077" 
d="M492 0v432h-204v-432h-156v432h-107v134h107v27q0 102 47 151.5t167 49.5q39 0 75 -2v-128h-54q-46 0 -62.5 -17t-16.5 -53v-28h204v27q0 102 47 151.5t167 49.5q39 0 75 -2v-128h-54q-45 0 -61.5 -17t-16.5 -53v-28h132v-134h-132v-432h-157zM852 0v776h157v-776h-157z
" />
    <glyph glyph-name="commaaccent.2" horiz-adv-x="293" 
d="M67 619v96q0 80 22 114t100 68l32 -66q-45 -22 -57 -34.5t-12 -36.5h73v-141h-158z" />
    <glyph glyph-name="space.lftab" horiz-adv-x="375" 
 />
    <glyph glyph-name="comma.lftab" horiz-adv-x="375" 
d="M139 -156l-38 76q53 25 67 38.5t14 41.5h-85v180h182v-128q0 -92 -25 -131t-115 -77z" />
    <glyph glyph-name="period.lftab" horiz-adv-x="375" 
d="M97 0v180h182v-180h-182z" />
    <glyph glyph-name="minus.lftab" 
d="M107 282v141h536v-141h-536z" />
    <glyph glyph-name="multiply.lftab" 
d="M225 104l-95 99l149 149l-149 149l97 99l149 -149l148 149l96 -99l-149 -149l149 -148l-96 -99l-148 149z" />
    <glyph glyph-name="quotedbl.lftab" 
d="M181 398l-10 343h163l-9 -343h-144zM425 398l-10 343h164l-10 -343h-144z" />
    <glyph glyph-name="numbersign.lftab" 
d="M105 0l34 178h-109v136h135l16 88h-151v137h178l39 202h150l-40 -202h99l39 202h149l-38 -202h115v-137h-141l-16 -88h157v-136h-184l-34 -178h-150l34 178h-98l-34 -178h-150zM301 306h123l20 105h-123z" />
    <glyph glyph-name="dollar.lftab" 
d="M305 -94v96q-148 14 -240 77l66 109q104 -64 235 -64q86 0 119 22.5t33 69.5q0 48 -33.5 66t-126.5 31q-41 6 -64.5 10.5t-58.5 14.5t-55.5 24.5t-41 35.5t-30 53t-9.5 73q0 99 51 151t155 63v74h144v-73q103 -10 184 -56l-67 -116q-32 20 -85.5 32.5t-103.5 12.5
q-73 0 -100 -19.5t-27 -59.5q0 -20 8 -34.5t18 -23t35.5 -16t44.5 -11t62 -10.5q47 -7 76 -13.5t66 -22t57.5 -36t35 -56t14.5 -82.5q0 -196 -218 -224v-98h-144z" />
    </font>
</defs>
</svg>
