<?xml version="1.0" standalone="no"?>
<!DOCTYPE svg PUBLIC "-//W3C//DTD SVG 1.1//EN" "http://www.w3.org/Graphics/SVG/1.1/DTD/svg11.dtd" >
<svg xmlns="http://www.w3.org/2000/svg" xmlns:xlink="http://www.w3.org/1999/xlink" version="1.1">
<metadata>
Created by FontForge 20170731 at Fri Jun 25 20:22:41 2010
 By Aleksey,,,
Copyright (c) The Font Bureau, Inc., 2006. All rights reserved.
</metadata>
<defs>
<font id="FordAntenna-Regular" horiz-adv-x="750" >
  <font-face 
    font-family="Ford Antenna Regular"
    font-weight="400"
    font-stretch="normal"
    units-per-em="1000"
    panose-1="2 0 5 5 0 0 0 2 0 4"
    ascent="800"
    descent="-200"
    x-height="556"
    cap-height="741"
    bbox="-84 -267 1565 1224"
    underline-thickness="50"
    underline-position="-200"
    unicode-range="U+0020-FB04"
  />
<missing-glyph horiz-adv-x="500" 
d="M0 0v700h500v-700h-500zM50 650v-600h400v600h-400z" />
    <glyph glyph-name="f_f" unicode="ff" horiz-adv-x="729" 
d="M463 0v468h-232v-468h-97v468h-105v88h105v39q0 89 39 135t138 46h64v-85h-52q-52 0 -72 -25t-20 -71v-39h232v39q0 89 39 135t138 46h65v-85h-53q-52 0 -72 -25t-20 -71v-39h145v-88h-145v-468h-97z" />
    <glyph glyph-name="fi" unicode="fi" horiz-adv-x="638" 
d="M29 468v88h105v39q0 89 39 135t138 46h64v-85h-52q-52 0 -72 -25t-20 -71v-39h144v-88h-144v-468h-97v468h-105zM463 0v556h97v-556h-97zM462 623v118h98v-118h-98z" />
    <glyph glyph-name="fl" unicode="fl" horiz-adv-x="690" 
d="M29 468v88h105v39q0 89 39 135t138 46h64v-85h-52q-52 0 -72 -25t-20 -71v-39h144v-88h-144v-468h-97v468h-105zM588 -1q-69 0 -97 32.5t-28 112.5v632h97v-621q0 -41 11 -55t50 -14h23v-85q-18 -2 -56 -2z" />
    <glyph glyph-name="f_f_i" unicode="ffi" horiz-adv-x="966" 
d="M463 0v468h-232v-468h-97v468h-105v88h105v39q0 89 39 135t138 46h64v-85h-52q-52 0 -72 -25t-20 -71v-39h232v39q0 89 39 135t138 46h65v-85h-53q-52 0 -72 -25t-20 -71v-39h145v-88h-145v-468h-97zM792 0v556h96v-556h-96zM791 623v118h98v-118h-98z" />
    <glyph glyph-name="f_f_l" unicode="ffl" horiz-adv-x="1019" 
d="M463 0v468h-232v-468h-97v468h-105v88h105v39q0 89 39 135t138 46h64v-85h-52q-52 0 -72 -25t-20 -71v-39h232v39q0 89 39 135t138 46h65v-85h-53q-52 0 -72 -25t-20 -71v-39h145v-88h-145v-468h-97zM917 -1q-69 0 -97 32.5t-28 112.5v632h96v-621q0 -41 11.5 -55
t49.5 -14h23v-85q-16 -2 -55 -2z" />
    <glyph glyph-name="f_j" unicode="fj" horiz-adv-x="638" 
d="M29 468v88h105v39q0 89 39 135t138 46h64v-85h-52q-52 0 -72 -25t-20 -71v-39h144v-88h-144v-468h-97v468h-105zM387 -168v80h9q43 1 55 16.5t12 65.5v562h97v-561q0 -95 -31 -129t-124 -34h-18zM462 623v118h98v-118h-98z" />
    <glyph glyph-name="f_t" unicode="ft" horiz-adv-x="752" 
d="M621 -1q-94 0 -127 35.5t-33 117.5v316h-230v-468h-97v468h-105v88h105v39q0 89 39 135t138 46h64v-85h-52q-52 0 -72 -25t-20 -71v-39h233l17 158l76 15v-173h148v-88h-148v-303q0 -42 15.5 -60.5t66.5 -18.5h66v-86q-13 -1 -84 -1z" />
    <glyph glyph-name=".notdef" horiz-adv-x="500" 
d="M0 0v700h500v-700h-500zM50 650v-600h400v600h-400z" />
    <glyph glyph-name=".null" horiz-adv-x="0" 
 />
    <glyph glyph-name="nonmarkingreturn" horiz-adv-x="333" 
 />
    <glyph glyph-name="space" unicode=" " horiz-adv-x="230" 
 />
    <glyph glyph-name="exclam" unicode="!" horiz-adv-x="370" 
d="M124 0v130h121v-130h-121zM142 212l-11 529h107l-11 -529h-85z" />
    <glyph glyph-name="quotedbl" unicode="&#x22;" horiz-adv-x="505" 
d="M102 438l-7 303h100l-6 -303h-87zM317 438l-7 303h101l-7 -303h-87z" />
    <glyph glyph-name="numbersign" unicode="#" horiz-adv-x="753" 
d="M140 0l41 209h-118v89h134l26 136h-160v90h177l43 217h93l-43 -217h145l42 217h93l-41 -217h119v-90h-136l-27 -136h163v-89h-179l-41 -209h-93l40 209h-144l-40 -209h-94zM283 293h157l29 147h-157z" />
    <glyph glyph-name="dollar" unicode="$" horiz-adv-x="670" 
d="M294 -94v95q-142 7 -237 73l46 72q90 -58 195 -63v264q-49 10 -81 21t-64 32t-48 56.5t-16 85.5q0 95 50 142.5t155 55.5v68h89v-68q111 -9 182 -54l-46 -76q-51 34 -139 42v-232q42 -8 70 -16t59.5 -23.5t50 -36t31 -53t12.5 -74.5q0 -198 -220 -215v-96h-89zM510 210
q0 54 -30.5 79.5t-99.5 41.5v-247q68 7 99 38.5t31 87.5zM183 546q0 -47 27.5 -70.5t87.5 -38.5v216q-63 -6 -89 -32t-26 -75z" />
    <glyph glyph-name="percent" unicode="%" horiz-adv-x="1146" 
d="M251 278q-107 0 -158.5 62.5t-51.5 174.5q0 111 52 174.5t158 63.5q104 0 155.5 -63.5t51.5 -174.5t-51 -174t-156 -63zM251 356q120 0 120 159q0 157 -120 157q-122 0 -122 -157q0 -159 122 -159zM895 -10q-105 0 -156.5 63t-51.5 175q0 111 51.5 174.5t156.5 63.5
t157 -64t52 -174q0 -112 -52 -175t-157 -63zM895 68q120 0 120 160q0 156 -120 156t-120 -156q0 -160 120 -160zM319 0l414 742h92l-414 -742h-92z" />
    <glyph glyph-name="ampersand" unicode="&#x26;" horiz-adv-x="804" 
d="M301 -10q-138 0 -197.5 49t-59.5 161q0 77 42 129t114 91q-38 90 -38 166q0 84 45.5 125.5t126.5 41.5t120 -40t39 -127q0 -38 -13.5 -69t-40.5 -55.5t-52 -41t-64 -37.5q52 -89 123 -156q31 -29 64 -56q52 74 103 264l83 -20q-52 -203 -114 -291q68 -36 150 -36h10v-88
h-13q-122 0 -212 54q-80 -64 -216 -64zM301 72q87 0 142 34q-44 38 -71 65q-79 76 -135 174q-98 -64 -98 -143q0 -66 32.5 -98t129.5 -32zM255 586q0 -58 32 -133q58 32 89 62.5t31 70.5q0 42 -16.5 61.5t-56.5 19.5q-79 0 -79 -81z" />
    <glyph glyph-name="quotesingle" unicode="'" horiz-adv-x="291" 
d="M102 438l-7 304h100l-6 -304h-87z" />
    <glyph glyph-name="parenleft" unicode="(" horiz-adv-x="489" 
d="M323 -186q-86 72 -149.5 197.5t-63.5 289.5q0 156 65 289t148 202l70 -51q-183 -176 -183 -440q0 -149 54.5 -259.5t128.5 -177.5z" />
    <glyph glyph-name="parenright" unicode=")" horiz-adv-x="489" 
d="M165 -186l-68 50q181 179 181 437q0 148 -54.5 261t-126.5 179l68 51q85 -72 149 -199.5t64 -291.5q0 -156 -64.5 -286.5t-148.5 -200.5z" />
    <glyph glyph-name="asterisk" unicode="*" horiz-adv-x="584" 
d="M253 260l9 183l-158 -98l-39 70l165 85l-165 86l39 70l158 -100l-9 186h77l-8 -186l158 100l39 -70l-166 -86l166 -85l-39 -70l-158 99l8 -184h-77z" />
    <glyph glyph-name="plus" unicode="+" horiz-adv-x="703" 
d="M303 107v199h-200v93h200v199h96v-199h201v-93h-201v-199h-96z" />
    <glyph glyph-name="comma" unicode="," horiz-adv-x="253" 
d="M89 -130l-26 51q38 21 50 35.5t12 43.5h-60v132h122v-98q0 -71 -18.5 -103t-79.5 -61z" />
    <glyph glyph-name="hyphen" unicode="-" horiz-adv-x="445" 
d="M48 268v91h347v-91h-347z" />
    <glyph glyph-name="hyphen" unicode="&#xad;" horiz-adv-x="445" 
d="M48 268v91h347v-91h-347z" />
    <glyph glyph-name="period" unicode="." horiz-adv-x="253" 
d="M65 0v132h122v-132h-122z" />
    <glyph glyph-name="slash" unicode="/" horiz-adv-x="515" 
d="M0 0l415 741h100l-415 -741h-100z" />
    <glyph glyph-name="zero" unicode="0" horiz-adv-x="741" 
d="M371 -11q-86 0 -145 26.5t-91.5 79t-46 119t-13.5 157.5q0 92 13.5 158.5t46 118.5t91.5 78.5t145 26.5q85 0 143 -26.5t90.5 -78.5t46.5 -118.5t14 -158.5q0 -91 -14 -158t-46 -119t-90.5 -78.5t-143.5 -26.5zM371 79q48 0 83 14.5t56.5 38.5t34 62.5t17 80t4.5 96.5
q0 70 -7.5 119t-28 89.5t-60 60.5t-99.5 20t-100 -20t-60.5 -60.5t-28 -89t-7.5 -119.5q0 -55 4.5 -96.5t17 -80t34 -62.5t57 -38.5t83.5 -14.5z" />
    <glyph glyph-name="one" unicode="1" horiz-adv-x="384" 
d="M173 0v648h-138v93h233v-741h-95z" />
    <glyph glyph-name="two" unicode="2" horiz-adv-x="604" 
d="M36 0v81l248 238q92 88 123 132.5t31 103.5q0 57 -34 82.5t-115 25.5q-118 0 -201 -45l-43 80q102 55 252 55q121 0 179.5 -45t58.5 -144q0 -80 -36.5 -139.5t-133.5 -152.5l-194 -186h375v-86h-510z" />
    <glyph glyph-name="three" unicode="3" horiz-adv-x="622" 
d="M297 -12q-156 0 -280 72l49 78q116 -63 227 -63q92 0 131.5 31.5t39.5 112.5q0 75 -38.5 107t-148.5 32h-110v87h108q94 0 131 26t37 90q0 58 -34 81t-118 23q-115 0 -203 -52l-52 75q106 65 263 65q123 0 181 -40t58 -135q0 -142 -91 -170q60 -14 86 -60.5t26 -135.5
q0 -124 -65.5 -174t-196.5 -50z" />
    <glyph glyph-name="four" unicode="4" horiz-adv-x="676" 
d="M48 176v79l330 486h106l-328 -481h264l20 235h70v-235h133v-84h-133v-176h-91v176h-371z" />
    <glyph glyph-name="five" unicode="5" horiz-adv-x="646" 
d="M318 -11q-145 0 -267 72l50 78q116 -64 215 -64q89 0 138.5 34.5t49.5 128.5q0 93 -46.5 129t-132.5 36q-94 0 -165 -34l-82 25l19 347h450v-88h-362l-11 -195q64 32 174 32q58 0 100.5 -10.5t79 -37t55.5 -77t19 -124.5q0 -76 -20.5 -127t-61 -77.5t-88 -37
t-114.5 -10.5z" />
    <glyph glyph-name="six" unicode="6" horiz-adv-x="700" 
d="M368 -11q-153 0 -225 75.5t-72 241.5q0 121 19 199.5t68 133.5t131.5 78.5t211.5 23.5h41v-88h-44q-79 0 -137 -12t-92 -31t-55.5 -49.5t-30 -60t-13.5 -70.5q55 69 227 69q135 0 190.5 -63.5t55.5 -187.5q0 -128 -63 -193.5t-212 -65.5zM369 74q100 0 139 43t39 128
q0 84 -40 128t-138 44q-91 0 -144.5 -39t-53.5 -115q0 -102 49.5 -145.5t148.5 -43.5z" />
    <glyph glyph-name="seven" unicode="7" horiz-adv-x="548" 
d="M137 0l287 653h-405v88h511v-77l-291 -664h-102z" />
    <glyph glyph-name="eight" unicode="8" horiz-adv-x="707" 
d="M353 -14q-290 0 -290 222q0 165 122 199q-97 32 -97 161q0 88 60 136.5t205 48.5q146 0 205.5 -48.5t59.5 -136.5q0 -132 -96 -161q122 -36 122 -199q0 -222 -291 -222zM353 70q193 0 193 145t-193 145q-100 0 -146 -36t-46 -109t46 -109t146 -36zM353 442
q92 0 131.5 28.5t39.5 86.5q0 57 -39.5 85t-131.5 28t-131.5 -28t-39.5 -85q0 -58 39.5 -86.5t131.5 -28.5z" />
    <glyph glyph-name="nine" unicode="9" horiz-adv-x="700" 
d="M161 0v86h44q80 0 138 12.5t92 31t55.5 50t30 60.5t13.5 70q-56 -69 -227 -69q-135 0 -190.5 64.5t-55.5 186.5q0 128 63.5 194.5t211.5 66.5q153 0 225 -75.5t72 -241.5q0 -121 -19 -199.5t-67.5 -134t-132 -79t-211.5 -23.5h-42zM334 321q92 0 145.5 39t53.5 114
q0 103 -49.5 146.5t-147.5 43.5q-101 0 -140 -43t-39 -128q0 -84 39.5 -128t137.5 -44z" />
    <glyph glyph-name="colon" unicode=":" horiz-adv-x="273" 
d="M75 0v128h122v-128h-122zM75 428v128h122v-128h-122z" />
    <glyph glyph-name="semicolon" unicode=";" horiz-adv-x="273" 
d="M99 -130l-26 51q38 21 50 35.5t12 43.5h-60v128h122v-94q0 -69 -19 -102t-79 -62zM75 428v128h122v-128h-122z" />
    <glyph glyph-name="less" unicode="&#x3c;" horiz-adv-x="703" 
d="M557 83l-451 227v72l451 225v-91l-351 -170l351 -169v-94z" />
    <glyph glyph-name="equal" unicode="=" horiz-adv-x="703" 
d="M109 195v91h486v-91h-486zM109 419v90h486v-90h-486z" />
    <glyph glyph-name="greater" unicode="&#x3e;" horiz-adv-x="703" 
d="M146 83v94l351 168l-351 170v92l451 -226v-72z" />
    <glyph glyph-name="question" unicode="?" horiz-adv-x="674" 
d="M269 202q-11 99 11.5 145.5t101.5 88.5q72 38 93.5 60.5t21.5 66.5q0 51 -31 74.5t-127 23.5q-116 0 -216 -51l-41 85q49 27 121 42.5t143 15.5q138 0 194 -43t56 -139q0 -72 -32.5 -112t-105.5 -79q-69 -36 -84.5 -66t-9.5 -112h-95zM255 0v118h122v-118h-122z" />
    <glyph glyph-name="at" unicode="@" horiz-adv-x="1079" 
d="M549 -165q-234 0 -349 112t-115 345t116.5 347.5t337.5 114.5q223 0 340 -114.5t117 -347.5q0 -149 -36 -204.5t-138 -55.5q-75 0 -101.5 22t-30.5 58q-25 -39 -70 -57.5t-124 -18.5q-215 0 -215 261q0 259 219 259q78 0 118.5 -16.5t60.5 -53.5l21 65l61 -5v-374
q0 -40 15 -62.5t63 -22.5q62 0 80 42.5t18 162.5q0 206 -99.5 305t-298.5 99q-395 0 -395 -404q0 -202 100.5 -300.5t303.5 -98.5q155 0 274 57l25 -51q-128 -64 -298 -64zM514 114q82 0 120.5 42t38.5 141q0 98 -37 137t-122 39q-77 0 -111 -45t-34 -131q0 -183 145 -183z
" />
    <glyph glyph-name="A" unicode="A" horiz-adv-x="741" 
d="M22 0l297 746h103l297 -746h-104l-61 156h-370l-61 -156h-101zM218 249h300l-150 376z" />
    <glyph glyph-name="B" unicode="B" horiz-adv-x="717" 
d="M84 0v741h327q129 0 188.5 -44.5t59.5 -138.5q0 -140 -93 -169q61 -15 86.5 -59t25.5 -125q0 -112 -66.5 -158.5t-206.5 -46.5h-321zM183 91h233q83 0 121.5 29t38.5 94q0 64 -38.5 92t-123.5 28h-231v-243zM183 428h231q80 0 111.5 30t31.5 86q0 53 -33.5 79t-109.5 26
h-231v-221z" />
    <glyph glyph-name="C" unicode="C" horiz-adv-x="731" 
d="M411 -11q-190 0 -280 96t-90 286q0 192 96.5 287t278.5 95q166 0 268 -97l-73 -73q-79 73 -196 73q-272 0 -272 -286q0 -143 66.5 -214.5t206.5 -71.5q73 0 117.5 19.5t83.5 56.5l72 -69q-102 -102 -278 -102z" />
    <glyph glyph-name="D" unicode="D" horiz-adv-x="761" 
d="M84 0v741h248q109 0 180 -17t119.5 -60t69 -113.5t20.5 -179.5q0 -208 -91.5 -289.5t-308.5 -81.5h-237zM185 93h141q167 0 230 61.5t63 216.5q0 158 -58.5 216t-227.5 58h-148v-552z" />
    <glyph glyph-name="E" unicode="E" horiz-adv-x="652" 
d="M84 0v741h507v-97h-406v-213h396v-96h-396v-242h410v-93h-511z" />
    <glyph glyph-name="F" unicode="F" horiz-adv-x="614" 
d="M84 0v741h493v-97h-392v-223h383v-96h-383v-325h-101z" />
    <glyph glyph-name="G" unicode="G" horiz-adv-x="783" 
d="M410 -11q-199 0 -284 94t-85 288q0 382 374 382q182 0 278 -96l-72 -74q-82 73 -206 73q-139 0 -206 -70.5t-67 -215.5q0 -151 62.5 -221t209.5 -70q132 0 180 52t48 169v21h-239v90h339v-93q0 -82 -14 -138.5t-49.5 -101.5t-102 -67t-166.5 -22z" />
    <glyph glyph-name="H" unicode="H" horiz-adv-x="787" 
d="M84 0v741h101v-306h417v306h101v-741h-101v335h-417v-335h-101z" />
    <glyph glyph-name="I" unicode="I" horiz-adv-x="284" 
d="M92 0v741h100v-741h-100z" />
    <glyph glyph-name="J" unicode="J" horiz-adv-x="414" 
d="M112 -1q-55 0 -84 1v93h73q73 0 103.5 29.5t30.5 97.5v521h100v-525q0 -117 -55.5 -167t-167.5 -50z" />
    <glyph glyph-name="K" unicode="K" horiz-adv-x="719" 
d="M569 0l-249 375l-137 -153v-222h-99v741h99v-389l349 389h116l-262 -292l298 -449h-115z" />
    <glyph glyph-name="L" unicode="L" horiz-adv-x="595" 
d="M84 0v741h101v-648h386v-93h-487z" />
    <glyph glyph-name="M" unicode="M" horiz-adv-x="931" 
d="M84 0v741h132l250 -599l251 599h130v-741h-99v572l-242 -572h-84l-241 571v-571h-97z" />
    <glyph glyph-name="N" unicode="N" horiz-adv-x="791" 
d="M84 0v741h110l415 -571v571h98v-741h-93l-432 593v-593h-98z" />
    <glyph glyph-name="O" unicode="O" horiz-adv-x="839" 
d="M419 -12q-378 0 -378 383q0 382 378 382t378 -382q0 -383 -378 -383zM419 82q277 0 277 287t-277 287q-276 0 -276 -287t276 -287z" />
    <glyph glyph-name="P" unicode="P" horiz-adv-x="720" 
d="M84 0v741h333q138 0 200 -56.5t62 -172.5q0 -119 -63 -181.5t-202 -62.5h-231v-268h-99zM183 362h234q82 0 121.5 33.5t39.5 111.5q0 79 -38.5 109.5t-124.5 30.5h-232v-285z" />
    <glyph glyph-name="Q" unicode="Q" horiz-adv-x="839" 
d="M541 -187q-120 0 -161.5 40.5t-35.5 144.5q-151 16 -227 106t-76 267q0 197 95.5 289.5t282.5 92.5q188 0 283 -92.5t95 -289.5q0 -192 -89.5 -282t-266.5 -95q-3 -56 16 -74.5t84 -18.5h82v-87q-4 0 -36 -0.5t-46 -0.5zM419 82q146 0 211.5 72t65.5 215t-65.5 215
t-211.5 72t-211 -72t-65 -215t65 -215t211 -72z" />
    <glyph glyph-name="R" unicode="R" horiz-adv-x="732" 
d="M555 0l-165 285h-207v-285h-99v741h330q137 0 198.5 -56t61.5 -168q0 -193 -179 -225l168 -292h-108zM183 378h230q81 0 120 29.5t39 105.5t-39 105t-123 29h-227v-269z" />
    <glyph glyph-name="S" unicode="S" horiz-adv-x="713" 
d="M355 -10q-188 0 -319 88l51 78q118 -77 265 -77q112 0 160 30.5t48 98.5q0 27 -10.5 47t-25 32t-46 21.5t-55.5 14.5t-72 13q-59 10 -95 18t-74.5 23.5t-59 36.5t-34 54.5t-13.5 78.5q0 110 68 158t210 48q167 0 270 -68l-55 -83q-87 58 -215 58q-95 0 -136.5 -26
t-41.5 -85q0 -25 9.5 -43t23.5 -29.5t43 -21t54 -15t71 -13.5q43 -7 68.5 -12t59.5 -14.5t54 -19t42 -25.5t33.5 -35.5t19 -46.5t7.5 -61q0 -113 -73.5 -168t-231.5 -55z" />
    <glyph glyph-name="T" unicode="T" horiz-adv-x="693" 
d="M296 0v644h-272v97h646v-97h-272v-644h-102z" />
    <glyph glyph-name="U" unicode="U" horiz-adv-x="788" 
d="M393 -13q-80 0 -138.5 16.5t-91.5 41.5t-52.5 64.5t-25.5 76.5t-6 86v469h101v-457q0 -101 45 -151.5t169 -50.5q125 0 171.5 50.5t46.5 151.5v457h98v-469q0 -49 -6 -86.5t-26 -76.5t-54 -64.5t-92.5 -41.5t-138.5 -16z" />
    <glyph glyph-name="V" unicode="V" horiz-adv-x="739" 
d="M318 -5l-295 746h106l242 -619l240 619h106l-296 -746h-103z" />
    <glyph glyph-name="W" unicode="W" horiz-adv-x="1083" 
d="M267 -5l-236 746h105l180 -577l184 577h89l184 -577l180 577h99l-235 -746h-89l-186 581l-185 -581h-90z" />
    <glyph glyph-name="X" unicode="X" horiz-adv-x="728" 
d="M579 0l-219 312l-212 -312h-112l271 388l-246 353h112l194 -277l189 277h112l-248 -353l273 -388h-114z" />
    <glyph glyph-name="Y" unicode="Y" horiz-adv-x="716" 
d="M308 0v280l-298 461h110l239 -369l241 369h105l-297 -459v-282h-100z" />
    <glyph glyph-name="Z" unicode="Z" horiz-adv-x="672" 
d="M42 0v80l448 564h-431v97h558v-88l-446 -560h457v-93h-586z" />
    <glyph glyph-name="bracketleft" unicode="[" horiz-adv-x="476" 
d="M119 -165v941h260v-89h-161v-766h164v-86h-263z" />
    <glyph glyph-name="backslash" unicode="\" horiz-adv-x="515" 
d="M415 0l-415 741h100l415 -741h-100z" />
    <glyph glyph-name="bracketright" unicode="]" horiz-adv-x="476" 
d="M96 -165v86h162v766h-163v89h261v-941h-260z" />
    <glyph glyph-name="asciicircum" unicode="^" horiz-adv-x="590" 
d="M89 587l153 164h105l153 -164h-94l-113 101l-111 -101h-93z" />
    <glyph glyph-name="underscore" unicode="_" horiz-adv-x="453" 
d="M-37 -132v79h527v-79h-527z" />
    <glyph glyph-name="grave" unicode="`" horiz-adv-x="590" 
d="M289 613l-177 164h119l148 -164h-90z" />
    <glyph glyph-name="a" unicode="a" horiz-adv-x="627" 
d="M238 -10q-112 0 -155.5 44.5t-43.5 123.5q0 118 78.5 161t288.5 43h30q-2 65 -28.5 90.5t-110.5 25.5q-89 0 -164 -47l-51 76q34 23 95.5 42.5t128.5 19.5q71 0 115 -12t68 -41t32.5 -68t8.5 -102v-198q0 -41 8.5 -51.5t46.5 -10.5v-85q-7 -2 -40 -2q-45 0 -64.5 14
t-30.5 49q-51 -72 -212 -72zM254 74q96 0 139 40.5t43 130.5v34h-25q-116 0 -175 -10.5t-81.5 -34t-22.5 -69.5q0 -47 27 -69t95 -22z" />
    <glyph glyph-name="b" unicode="b" horiz-adv-x="656" 
d="M368 -10q-88 0 -136 16t-74 53l-18 -63l-68 7v773h97v-275q45 68 204 68q132 0 185 -75.5t53 -214.5q0 -67 -11.5 -117.5t-38.5 -90.5t-75.5 -60.5t-117.5 -20.5zM352 77q89 0 124.5 50t35.5 148q0 100 -34.5 150.5t-125.5 50.5q-99 0 -140.5 -45.5t-41.5 -155.5
t40.5 -154t141.5 -44z" />
    <glyph glyph-name="c" unicode="c" horiz-adv-x="569" 
d="M316 -10q-151 0 -211 74.5t-60 214.5q0 141 60.5 215.5t214.5 74.5q133 0 207 -83l-71 -67q-54 56 -136 56q-98 0 -137.5 -49.5t-39.5 -148.5q0 -100 39 -150t138 -50q78 0 141 57l65 -62q-46 -42 -93 -62t-117 -20z" />
    <glyph glyph-name="d" unicode="d" horiz-adv-x="656" 
d="M284 -10q-131 0 -185 75.5t-54 215.5q0 138 54.5 212.5t187.5 74.5q159 0 199 -67v275h98v-772l-75 -7l-11 65q-27 -37 -76.5 -54.5t-137.5 -17.5zM305 79q98 0 139.5 46t41.5 156q0 109 -40 152.5t-141 43.5q-91 0 -126 -49t-35 -147q0 -100 35 -151t126 -51z" />
    <glyph glyph-name="e" unicode="e" horiz-adv-x="600" 
d="M318 -11q-67 0 -116 15t-78.5 40t-47.5 63.5t-24.5 79t-6.5 92.5q0 65 11.5 113.5t40 90.5t84 64t135.5 22q48 0 85 -10t62 -25t42 -41.5t26 -51t13.5 -62t5.5 -66.5t0 -72h-411q5 -83 43.5 -125.5t135.5 -42.5q62 0 101 13.5t76 41.5l52 -68q-91 -71 -229 -71zM313 483
q-90 0 -128 -39.5t-45 -116.5h318q-2 32 -4.5 50.5t-11 41.5t-23 35t-41.5 20.5t-65 8.5z" />
    <glyph glyph-name="f" unicode="f" horiz-adv-x="400" 
d="M29 468v88h105v39q0 89 39 135t138 46h64v-85h-52q-52 0 -72 -25t-20 -71v-39h144v-88h-144v-468h-97v468h-105z" />
    <glyph glyph-name="g" unicode="g" horiz-adv-x="611" 
d="M295 203q-54 0 -92 7q-13 -16 -13 -34q0 -24 21.5 -31t89.5 -7q156 0 214 -31.5t58 -115.5q0 -90 -64.5 -130t-216.5 -40q-146 0 -205.5 28.5t-59.5 109.5q0 114 106 136q-31 21 -31 67q0 43 25 77q-68 43 -68 143q0 94 56.5 140.5t179.5 46.5q24 0 36 -1l219 31v-80h-90
q72 -39 72 -137q0 -92 -57 -135.5t-180 -43.5zM295 -102q104 0 142 21t38 67q0 42 -38 56t-142 14q-72 0 -111 -11.5t-49 -27.5t-10 -42q0 -44 38.5 -60.5t131.5 -16.5zM295 283q76 0 108.5 23.5t32.5 75.5t-34.5 75.5t-106.5 23.5q-77 0 -109.5 -23t-32.5 -76
q0 -52 33 -75.5t109 -23.5z" />
    <glyph glyph-name="h" unicode="h" horiz-adv-x="632" 
d="M72 0v776h97v-268q42 61 193 61q64 0 105 -15.5t61 -49t27 -71t7 -94.5v-339h-97v320q0 32 -2 51t-9 41t-21 33.5t-39.5 19.5t-62.5 8q-95 0 -128 -41.5t-33 -123.5v-308h-98z" />
    <glyph glyph-name="i" unicode="i" horiz-adv-x="252" 
d="M78 0v556h96v-556h-96zM77 623v118h98v-118h-98z" />
    <glyph glyph-name="j" unicode="j" horiz-adv-x="252" 
d="M2 -168v80h8q43 1 55.5 17t12.5 65v562h96v-561q0 -95 -31 -129t-123 -34h-18zM77 623v118h98v-118h-98z" />
    <glyph glyph-name="k" unicode="k" horiz-adv-x="558" 
d="M72 0v776h96v-506l246 286h108l-197 -231l217 -325h-108l-174 254l-92 -105v-149h-96z" />
    <glyph glyph-name="l" unicode="l" horiz-adv-x="305" 
d="M203 -1q-69 0 -97 32.5t-28 112.5v632h96v-621q0 -41 11.5 -55t50.5 -14h22v-85q-18 -2 -55 -2z" />
    <glyph glyph-name="m" unicode="m" horiz-adv-x="1002" 
d="M72 0v551l77 5l8 -53q40 66 199 66q83 0 120 -18t50 -52q46 70 213 70q52 0 88 -11.5t57 -29.5t32 -49.5t14.5 -62.5t3.5 -77v-339h-98v320q0 33 -1.5 51t-8 41t-19.5 34t-37.5 19t-61.5 8q-50 0 -82 -11.5t-48 -35.5t-21.5 -51t-5.5 -67v-308h-96v320q0 41 -3 63
t-14.5 46t-39 34t-72.5 10q-50 0 -82 -11.5t-47.5 -35.5t-21 -51t-5.5 -67v-308h-98z" />
    <glyph glyph-name="n" unicode="n" horiz-adv-x="632" 
d="M72 0v551l77 5l8 -53q49 66 205 66q64 0 105 -15.5t61 -49t27 -71t7 -94.5v-339h-97v320q0 32 -2 51t-9 41t-21 33.5t-39.5 19.5t-62.5 8q-95 0 -128 -41.5t-33 -123.5v-308h-98z" />
    <glyph glyph-name="o" unicode="o" horiz-adv-x="639" 
d="M319 -11q-144 0 -209 72t-65 218t65 218t209 72q145 0 210 -72t65 -218t-65 -218t-210 -72zM319 77q95 0 135.5 50t40.5 150t-40.5 149.5t-135.5 49.5t-135.5 -49.5t-40.5 -149.5t40.5 -150t135.5 -50z" />
    <glyph glyph-name="p" unicode="p" horiz-adv-x="656" 
d="M72 -165v716l77 5l8 -59q46 72 216 72q132 0 185 -75t53 -215q0 -138 -54.5 -213t-187.5 -75q-85 0 -131 16t-68 51v-223h-98zM352 79q90 0 125 49.5t35 147.5q0 99 -34.5 149.5t-125.5 50.5q-99 0 -140.5 -45t-41.5 -155t40.5 -153.5t141.5 -43.5z" />
    <glyph glyph-name="q" unicode="q" horiz-adv-x="656" 
d="M486 -165v221q-28 -36 -73.5 -51t-128.5 -15q-131 0 -185 75.5t-54 214.5t54.5 214t187.5 75q88 0 136.5 -16t74.5 -51l18 61l68 -6v-722h-98zM305 79q98 0 139.5 46t41.5 155q0 110 -40 153.5t-141 43.5q-91 0 -126 -49t-35 -148t35 -150t126 -51z" />
    <glyph glyph-name="r" unicode="r" horiz-adv-x="371" 
d="M72 0v551l77 5l10 -68q17 31 67 52.5t121 22.5v-98q-95 -1 -136 -45.5t-41 -126.5v-293h-98z" />
    <glyph glyph-name="s" unicode="s" horiz-adv-x="536" 
d="M265 -10q-143 0 -240 65l50 76q87 -56 196 -56q74 0 104 16.5t30 65.5q0 38 -27 52.5t-107 28.5q-46 8 -73.5 14.5t-59 19.5t-47.5 29.5t-27 44t-11 64.5q0 79 51.5 119t166.5 40q128 0 212 -49l-46 -80q-71 39 -164 39q-69 0 -96 -17t-27 -52q0 -37 26 -52.5t99 -28.5
q51 -9 77 -15t59.5 -18.5t49 -28.5t27 -42.5t11.5 -63.5q0 -94 -54.5 -132.5t-179.5 -38.5z" />
    <glyph glyph-name="t" unicode="t" horiz-adv-x="418" 
d="M29 468v88h101l17 158l77 15v-173h147v-88h-147v-303q0 -42 14.5 -60.5t65.5 -18.5h67v-86q-12 -1 -84 -1q-94 0 -127 35.5t-33 117.5v316h-98z" />
    <glyph glyph-name="u" unicode="u" horiz-adv-x="625" 
d="M314 -10q-79 0 -128.5 15t-74.5 49.5t-33.5 76t-8.5 107.5v318h97v-320q0 -28 1 -42.5t5 -36.5t13 -33t25 -23t42 -17t62 -5t62 5t42 17t25 23t13 34t4.5 37t0.5 44v317h95v-315q0 -68 -8 -109.5t-32.5 -76.5t-73.5 -50t-128 -15z" />
    <glyph glyph-name="v" unicode="v" horiz-adv-x="562" 
d="M228 -5l-221 561h104l171 -445l171 445h101l-221 -561h-105z" />
    <glyph glyph-name="w" unicode="w" horiz-adv-x="888" 
d="M208 -5l-195 561h102l144 -420l138 420h96l138 -419l145 419h99l-196 -561h-97l-138 414l-138 -414h-98z" />
    <glyph glyph-name="x" unicode="x" horiz-adv-x="556" 
d="M431 0l-157 220l-152 -220h-106l207 290l-189 266h108l139 -195l137 195h105l-191 -267l208 -289h-109z" />
    <glyph glyph-name="y" unicode="y" horiz-adv-x="544" 
d="M128 -168q-39 0 -51 1v79h43q41 0 58.5 10.5t27.5 40.5l17 43l-216 550h104l163 -434l162 434h102l-236 -603q-25 -66 -63 -93.5t-111 -27.5z" />
    <glyph glyph-name="z" unicode="z" horiz-adv-x="512" 
d="M30 0v71l317 397h-301v88h428v-73l-318 -400h329v-83h-455z" />
    <glyph glyph-name="braceleft" unicode="{" horiz-adv-x="513" 
d="M329 -165q-94 0 -135.5 32.5t-41.5 100.5q0 33 27 126.5t27 117.5q0 31 -27 41t-101 10v84q73 0 100.5 9.5t27.5 43.5q0 23 -27 116.5t-27 126.5q0 68 41.5 100.5t135.5 32.5h90v-89h-70q-56 0 -76.5 -15.5t-20.5 -54.5q0 -20 25.5 -111t25.5 -123q0 -60 -59 -77
q59 -19 59 -78q0 -32 -25.5 -124t-25.5 -112q0 -39 20.5 -55t76.5 -16h70v-86h-90z" />
    <glyph glyph-name="bar" unicode="|" horiz-adv-x="338" 
d="M119 -165v941h99v-941h-99z" />
    <glyph glyph-name="braceright" unicode="}" horiz-adv-x="513" 
d="M94 -165v86h71q56 0 76.5 16t20.5 55q0 20 -26 112t-26 124q0 59 59 78q-59 18 -59 77q0 32 26 123t26 111q0 39 -20.5 54.5t-76.5 15.5h-71v89h91q95 0 135.5 -32.5t40.5 -100.5q0 -33 -27 -126.5t-27 -116.5q0 -32 27 -42t101 -10v-84q-73 0 -100.5 -9.5t-27.5 -42.5
q0 -24 27 -117.5t27 -126.5q0 -68 -40.5 -100.5t-135.5 -32.5h-91z" />
    <glyph glyph-name="asciitilde" unicode="~" horiz-adv-x="590" 
d="M150 409l-60 47q67 83 134 83q37 0 77 -25t62 -25q32 0 80 55l57 -46q-72 -90 -135 -90q-33 0 -75 25t-64 25q-38 0 -76 -49z" />
    <glyph glyph-name="uni00A0" unicode="&#xa0;" horiz-adv-x="230" 
 />
    <glyph glyph-name="exclamdown" unicode="&#xa1;" horiz-adv-x="370" 
d="M131 0l11 529h86l10 -529h-107zM124 611v130h122v-130h-122z" />
    <glyph glyph-name="cent" unicode="&#xa2;" horiz-adv-x="566" 
d="M269 -94v89q-123 11 -172.5 83.5t-49.5 200.5q0 62 10.5 108.5t34.5 85.5t68.5 62t108.5 29v64h92v-63q100 -10 163 -79l-69 -65q-46 44 -100 53v-397q53 8 105 55l64 -60q-75 -67 -163 -76v-90h-92zM141 277q0 -88 30.5 -138t103.5 -61v396q-73 -12 -103.5 -61
t-30.5 -136z" />
    <glyph glyph-name="sterling" unicode="&#xa3;" horiz-adv-x="627" 
d="M417 -8q-111 0 -204 50q-51 -42 -174 -42v84q48 0 76 5.5t41.5 20.5t17 32t3.5 50q0 44 -28 150h-117v80h95q-21 84 -21 135q0 94 52.5 145.5t174.5 51.5q111 0 203 -39l-38 -85q-68 32 -167 32q-72 0 -100.5 -30t-28.5 -87q0 -39 20 -123h218v-80h-199q24 -98 24 -148
q0 -47 -8 -78q81 -37 158 -37q54 0 71 21t17 76v26h85v-29q0 -99 -37.5 -140t-133.5 -41z" />
    <glyph glyph-name="yen" unicode="&#xa5;" horiz-adv-x="640" 
d="M68 231v83h204v7l-258 420h103l203 -336l203 336h103l-258 -418v-9h204v-83h-204v-73h204v-82h-204v-76h-96v76h-204v82h204v73h-204z" />
    <glyph glyph-name="brokenbar" unicode="&#xa6;" horiz-adv-x="338" 
d="M119 -165v392h99v-392h-99zM119 384v392h99v-392h-99z" />
    <glyph glyph-name="section" unicode="&#xa7;" horiz-adv-x="560" 
d="M154 -8q-44 0 -64 2v81h54q57 0 74 23t17 72v52q-90 7 -134.5 43t-44.5 105q0 133 166 150v46q0 43 6 72t23.5 56t54.5 40.5t94 13.5q45 0 65 -2v-84h-54q-58 0 -75 -23t-17 -72v-46q185 -12 185 -151q0 -132 -172 -147v-49q0 -43 -6 -72t-23.5 -56t-54.5 -40.5
t-94 -13.5zM279 288q75 0 110 19t35 61q0 43 -35 61.5t-110 18.5q-74 0 -108 -18.5t-34 -61.5q0 -42 34 -61t108 -19z" />
    <glyph glyph-name="dieresis" unicode="&#xa8;" horiz-adv-x="590" 
d="M143 616v112h89v-112h-89zM359 616v112h88v-112h-88z" />
    <glyph glyph-name="copyright" unicode="&#xa9;" horiz-adv-x="826" 
d="M419 122q-121 0 -183 64.5t-62 188.5q0 126 66 189t182 63q111 0 177 -63l-46 -49q-54 48 -132 48q-86 0 -132 -48t-46 -140q0 -93 45.5 -141t133.5 -48q83 0 136 49l44 -45q-68 -68 -183 -68zM411 -12q-180 0 -275 105t-95 278t95 278t275 105q181 0 276.5 -105
t95.5 -278t-95.5 -278t-276.5 -105zM411 31q165 0 247 92t82 248t-82 248t-247 92q-164 0 -245 -92t-81 -248t81 -248t245 -92z" />
    <glyph glyph-name="ordfeminine" unicode="&#xaa;" horiz-adv-x="596" 
d="M221 282q-158 0 -158 138q0 93 69.5 129t229.5 36h21q-2 52 -23 72t-86 20q-71 0 -130 -37l-43 62q27 19 76.5 34.5t104.5 15.5q111 0 145.5 -39.5t34.5 -141.5v-157q0 -34 7.5 -42.5t38.5 -8.5v-73q-2 0 -12 -0.5t-19 -0.5q-45 0 -63 13t-23 55q-20 -39 -58.5 -57
t-111.5 -18zM239 352q73 0 108.5 33.5t35.5 105.5v29h-16q-132 0 -179 -19.5t-47 -74.5q0 -74 98 -74zM105 140v74h359v-74h-359z" />
    <glyph glyph-name="guillemotleft" unicode="&#xab;" horiz-adv-x="701" 
d="M248 0l-151 277l151 279h86l-145 -279l145 -277h-86zM492 0l-151 277l151 279h87l-144 -279l144 -277h-87z" />
    <glyph glyph-name="logicalnot" unicode="&#xac;" horiz-adv-x="703" 
d="M103 397h497v-289h-98v200h-399v89z" />
    <glyph glyph-name="registered" unicode="&#xae;" horiz-adv-x="826" 
d="M411 -12q-180 0 -275 105t-95 278t95 278t275 105q181 0 276.5 -105t95.5 -278t-95.5 -278t-276.5 -105zM411 31q165 0 247 92t82 248t-82 248t-247 92q-164 0 -245 -92t-81 -248t81 -248t245 -92zM543 128l-109 191h-137v-191h-64v482h214q92 0 129 -35.5t37 -108.5
q0 -62 -26 -97.5t-89 -45.5l114 -195h-69zM297 376h149q54 0 78.5 19.5t24.5 68.5t-24 68t-80 19h-148v-175z" />
    <glyph glyph-name="macron" unicode="&#xaf;" horiz-adv-x="590" 
d="M107 607v83h376v-83h-376z" />
    <glyph glyph-name="macron" unicode="&#x304;" horiz-adv-x="590" 
d="M107 607v83h376v-83h-376z" />
    <glyph glyph-name="degree" unicode="&#xb0;" horiz-adv-x="569" 
d="M284 275q-113 0 -168 65t-55 174t55 174t168 65t168.5 -65t55.5 -174t-55.5 -174t-168.5 -65zM284 352q144 0 144 160t-144 160q-143 0 -143 -160t143 -160z" />
    <glyph glyph-name="plusminus" unicode="&#xb1;" horiz-adv-x="703" 
d="M303 107v199h-200v93h200v199h96v-199h201v-93h-201v-199h-96zM103 14v91h497v-91h-497z" />
    <glyph glyph-name="two.superior" unicode="&#xb2;" horiz-adv-x="460" 
d="M63 279v57l147 139q59 56 76 81t17 62q0 33 -20.5 48.5t-69.5 15.5q-70 0 -120 -27l-34 59q66 34 163 34q80 0 118.5 -29t38.5 -93q0 -52 -23 -87t-88 -98l-102 -98h218v-64h-321z" />
    <glyph glyph-name="threesuperior" unicode="&#xb3;" horiz-adv-x="478" 
d="M231 273q-101 0 -181 46l39 57q64 -37 136 -37q57 0 80 17.5t23 64.5q0 43 -23 60.5t-90 17.5h-69v62h67q58 0 79.5 12.5t21.5 49.5q0 33 -20.5 45.5t-70.5 12.5q-72 0 -126 -31l-37 57q68 42 173 42q84 0 121.5 -26.5t37.5 -84.5q0 -82 -63 -103q76 -20 76 -122
q0 -76 -42 -108t-132 -32z" />
    <glyph glyph-name="acute" unicode="&#xb4;" horiz-adv-x="590" 
d="M211 613l148 164h119l-177 -164h-90z" />
    <glyph glyph-name="mu" unicode="&#xb5;" horiz-adv-x="634" 
d="M274 -11q-68 0 -111 20v-174h-91v721h97v-318q0 -40 4 -65t17 -48.5t41 -34.5t72 -11q50 0 82.5 12.5t49 37t22.5 52t6 67.5v308h97v-552l-74 -7l-11 61q-50 -69 -201 -69z" />
    <glyph glyph-name="paragraph" unicode="&#xb6;" horiz-adv-x="635" 
d="M249 0v279q-109 13 -153.5 70t-44.5 163q0 119 58.5 174t204.5 55h231v-741h-92v276h-112v-276h-92zM310 358h143v293h-141q-90 0 -126.5 -31t-36.5 -113q0 -81 37 -115t124 -34z" />
    <glyph glyph-name="periodcentered" unicode="&#xb7;" horiz-adv-x="253" 
d="M65 274v134h122v-134h-122z" />
    <glyph glyph-name="periodcentered" unicode="&#x2219;" horiz-adv-x="253" 
d="M65 274v134h122v-134h-122z" />
    <glyph glyph-name="cedilla" unicode="&#xb8;" horiz-adv-x="590" 
d="M301 -232q-68 0 -121 30l27 51q44 -23 90 -23q43 0 59 12.5t16 36.5q0 27 -20.5 36t-71.5 6l-24 17l14 73h59l-9 -51q26 1 45 -1t37 -10.5t27.5 -27.5t9.5 -48q0 -101 -138 -101z" />
    <glyph glyph-name="one.superior" unicode="&#xb9;" horiz-adv-x="340" 
d="M150 279v394h-89v68h166v-462h-77z" />
    <glyph glyph-name="ordmasculine" unicode="&#xba;" horiz-adv-x="597" 
d="M299 284q-222 0 -222 235q0 234 222 234q221 0 221 -234q0 -235 -221 -235zM299 359q139 0 139 158t-139 158q-140 0 -140 -158t140 -158zM105 138v76h387v-76h-387z" />
    <glyph glyph-name="guillemotright" unicode="&#xbb;" horiz-adv-x="701" 
d="M123 0l144 278l-144 278h86l151 -278l-151 -278h-86zM367 0l144 278l-144 278h87l151 -278l-151 -278h-87z" />
    <glyph glyph-name="onequarter" unicode="&#xbc;" horiz-adv-x="917" 
d="M729 0v101h-228v60l206 303h85l-203 -298h140l15 117h60v-117h75v-65h-75v-101h-75zM140 277v393h-89v71h169v-464h-80zM186 0l414 741h87l-413 -741h-88z" />
    <glyph glyph-name="onehalf" unicode="&#xbd;" horiz-adv-x="981" 
d="M588 0v59l146 138q63 60 78.5 82t15.5 58q0 32 -20.5 47.5t-69.5 15.5q-64 0 -120 -27l-35 62q70 34 164 34q80 0 118.5 -29.5t38.5 -94.5q0 -51 -22.5 -85.5t-88.5 -98.5l-98 -95h209v-66h-316zM140 277v393h-89v71h169v-464h-80zM186 0l414 741h87l-413 -741h-88z" />
    <glyph glyph-name="threequarters" unicode="&#xbe;" horiz-adv-x="1022" 
d="M219 275q-98 0 -182 47l42 60q66 -38 133 -38q57 0 80 16.5t23 63.5q0 42 -23 59t-89 17h-69v66h67q58 0 79.5 12.5t21.5 47.5q0 32 -21 44.5t-71 12.5q-71 0 -124 -32l-39 60q67 42 174 42q84 0 121 -26.5t37 -84.5q0 -80 -65 -104q79 -20 79 -122q0 -76 -42 -108.5
t-132 -32.5zM834 0v101h-228v60l205 303h86l-203 -298h141l14 117h60v-117h74v-65h-74v-101h-75zM292 0l413 741h87l-414 -741h-86z" />
    <glyph glyph-name="questiondown" unicode="&#xbf;" horiz-adv-x="674" 
d="M327 -10q-137 0 -193.5 43.5t-56.5 139.5q0 72 32.5 112t105.5 78q69 37 84.5 67t9.5 111h95q12 -99 -10.5 -145.5t-102.5 -87.5q-71 -38 -92.5 -60.5t-21.5 -66.5q0 -34 10 -53.5t45.5 -32.5t101.5 -13q117 0 216 51l41 -85q-49 -27 -121 -42.5t-143 -15.5zM296 625v118
h122v-118h-122z" />
    <glyph glyph-name="Agrave" unicode="&#xc0;" horiz-adv-x="742" 
d="M22 0l297 746h103l297 -746h-104l-61 156h-370l-61 -156h-101zM218 249h300l-150 376zM363 784l-177 164h119l148 -164h-90z" />
    <glyph glyph-name="Aacute" unicode="&#xc1;" horiz-adv-x="742" 
d="M22 0l297 746h103l297 -746h-104l-61 156h-370l-61 -156h-101zM218 249h300l-150 376zM285 784l148 164h119l-177 -164h-90z" />
    <glyph glyph-name="Acircumflex" unicode="&#xc2;" horiz-adv-x="742" 
d="M22 0l297 746h103l297 -746h-104l-61 156h-370l-61 -156h-101zM218 249h300l-150 376zM163 784l153 164h105l153 -164h-94l-113 101l-111 -101h-93z" />
    <glyph glyph-name="Atilde" unicode="&#xc3;" horiz-adv-x="742" 
d="M22 0l297 746h103l297 -746h-104l-61 156h-370l-61 -156h-101zM218 249h300l-150 376zM224 786l-60 47q67 83 134 83q37 0 77 -25t62 -25q32 0 80 55l57 -46q-72 -90 -135 -90q-33 0 -75 25t-64 25q-38 0 -76 -49z" />
    <glyph glyph-name="Adieresis" unicode="&#xc4;" horiz-adv-x="742" 
d="M22 0l297 746h103l297 -746h-104l-61 156h-370l-61 -156h-101zM218 249h300l-150 376zM217 787v112h89v-112h-89zM433 787v112h88v-112h-88z" />
    <glyph glyph-name="Aring" unicode="&#xc5;" horiz-adv-x="742" 
d="M22 0l279 700q-56 32 -56 113q0 58 31 93.5t94 35.5q62 0 94 -36t32 -93q0 -81 -56 -112l280 -701h-103l-62 155h-372l-60 -155h-101zM219 248h300l-150 377zM370 738q72 0 72 75q0 76 -72 76q-36 0 -54 -21t-18 -55q0 -75 72 -75z" />
    <glyph glyph-name="AE" unicode="&#xc6;" horiz-adv-x="1091" 
d="M15 0l466 741h550v-97h-407v-215h397v-93h-397v-243h411v-93h-508v156h-312l-100 -156h-100zM266 243h261v408z" />
    <glyph glyph-name="Ccedilla" unicode="&#xc7;" horiz-adv-x="731" 
d="M370 -232q-68 0 -121 30l27 51q44 -23 90 -23q43 0 59 12.5t16 36.5q0 27 -20.5 36t-71.5 6l-24 17l11 59q-295 35 -295 378q0 192 96.5 287t278.5 95q166 0 268 -97l-73 -73q-79 73 -196 73q-272 0 -272 -286q0 -143 66.5 -214.5t206.5 -71.5q73 0 117.5 19.5t83.5 56.5
l72 -69q-102 -102 -278 -102h-16l-6 -33q26 1 45 -1t37 -10.5t27.5 -27.5t9.5 -48q0 -101 -138 -101z" />
    <glyph glyph-name="Egrave" unicode="&#xc8;" horiz-adv-x="652" 
d="M84 0v741h507v-97h-406v-213h396v-96h-396v-242h410v-93h-511zM318 784l-177 164h119l148 -164h-90z" />
    <glyph glyph-name="Eacute" unicode="&#xc9;" horiz-adv-x="652" 
d="M240 784l148 164h119l-177 -164h-90zM84 0v741h507v-97h-406v-213h396v-96h-396v-242h410v-93h-511z" />
    <glyph glyph-name="Ecircumflex" unicode="&#xca;" horiz-adv-x="652" 
d="M118 784l153 164h105l153 -164h-94l-113 101l-111 -101h-93zM84 0v741h507v-97h-406v-213h396v-96h-396v-242h410v-93h-511z" />
    <glyph glyph-name="Edieresis" unicode="&#xcb;" horiz-adv-x="652" 
d="M172 787v112h89v-112h-89zM388 787v112h88v-112h-88zM84 0v741h507v-97h-406v-213h396v-96h-396v-242h410v-93h-511z" />
    <glyph glyph-name="Igrave" unicode="&#xcc;" horiz-adv-x="284" 
d="M100 784l-162 163h122l132 -163h-92zM92 0v741h100v-741h-100z" />
    <glyph glyph-name="Iacute" unicode="&#xcd;" horiz-adv-x="284" 
d="M92 784l131 163h122l-161 -163h-92zM92 0v741h100v-741h-100z" />
    <glyph glyph-name="Icircumflex" unicode="&#xce;" horiz-adv-x="284" 
d="M-42 784l132 163h103l132 -163h-95l-90 103l-89 -103h-93zM92 0v741h100v-741h-100z" />
    <glyph glyph-name="Idieresis" unicode="&#xcf;" horiz-adv-x="284" 
d="M92 0v741h100v-741h-100zM-8 787v112h89v-112h-89zM208 787v112h88v-112h-88z" />
    <glyph glyph-name="Eth" unicode="&#xd0;" horiz-adv-x="761" 
d="M0 339v84h84v318h248q109 0 180 -17t119.5 -60t69 -113.5t20.5 -179.5q0 -207 -93 -289t-307 -82h-237v339h-84zM185 93h141q167 0 230 61.5t63 216.5q0 158 -58.5 216t-227.5 58h-148v-222h160v-84h-160v-246z" />
    <glyph glyph-name="Ntilde" unicode="&#xd1;" horiz-adv-x="791" 
d="M84 0v741h110l415 -571v571h98v-741h-93l-432 593v-593h-98zM248 786l-60 47q67 83 134 83q37 0 77 -25t62 -25q32 0 80 55l57 -46q-72 -90 -135 -90q-33 0 -75 25t-64 25q-38 0 -76 -49z" />
    <glyph glyph-name="Ograve" unicode="&#xd2;" horiz-adv-x="839" 
d="M419 -12q-378 0 -378 383q0 382 378 382t378 -382q0 -383 -378 -383zM419 82q277 0 277 287t-277 287q-276 0 -276 -287t276 -287zM412 784l-177 164h119l148 -164h-90z" />
    <glyph glyph-name="Oacute" unicode="&#xd3;" horiz-adv-x="839" 
d="M334 784l148 164h119l-177 -164h-90zM419 -12q-378 0 -378 383q0 382 378 382t378 -382q0 -383 -378 -383zM419 82q277 0 277 287t-277 287q-276 0 -276 -287t276 -287z" />
    <glyph glyph-name="Ocircumflex" unicode="&#xd4;" horiz-adv-x="839" 
d="M212 784l153 164h105l153 -164h-94l-113 101l-111 -101h-93zM419 -12q-378 0 -378 383q0 382 378 382t378 -382q0 -383 -378 -383zM419 82q277 0 277 287t-277 287q-276 0 -276 -287t276 -287z" />
    <glyph glyph-name="Otilde" unicode="&#xd5;" horiz-adv-x="839" 
d="M419 -12q-378 0 -378 383q0 382 378 382t378 -382q0 -383 -378 -383zM419 82q277 0 277 287t-277 287q-276 0 -276 -287t276 -287zM273 786l-60 47q67 83 134 83q37 0 77 -25t62 -25q32 0 80 55l57 -46q-72 -90 -135 -90q-33 0 -75 25t-64 25q-38 0 -76 -49z" />
    <glyph glyph-name="Odieresis" unicode="&#xd6;" horiz-adv-x="839" 
d="M266 787v112h89v-112h-89zM482 787v112h88v-112h-88zM419 -12q-378 0 -378 383q0 382 378 382t378 -382q0 -383 -378 -383zM419 82q277 0 277 287t-277 287q-276 0 -276 -287t276 -287z" />
    <glyph glyph-name="multiply" unicode="&#xd7;" horiz-adv-x="703" 
d="M194 135l-59 61l156 156l-156 156l60 63l157 -157l155 157l60 -63l-156 -156l156 -155l-60 -62l-155 156z" />
    <glyph glyph-name="Oslash" unicode="&#xd8;" horiz-adv-x="839" 
d="M419 -12q-93 0 -162 22l-29 -51h-97l49 86q-139 90 -139 326q0 197 95.5 289.5t282.5 92.5q84 0 152 -20l29 50h96l-47 -82q148 -87 148 -330q0 -198 -95 -290.5t-283 -92.5zM419 79q148 0 214 73t66 217q0 180 -102 247l-296 -522q49 -15 118 -15zM140 369
q0 -173 92 -241l294 518q-50 13 -107 13q-147 0 -213 -73t-66 -217z" />
    <glyph glyph-name="Ugrave" unicode="&#xd9;" horiz-adv-x="788" 
d="M393 -13q-80 0 -138.5 16.5t-91.5 41.5t-52.5 64.5t-25.5 76.5t-6 86v469h101v-457q0 -101 45 -151.5t169 -50.5q125 0 171.5 50.5t46.5 151.5v457h98v-469q0 -49 -6 -86.5t-26 -76.5t-54 -64.5t-92.5 -41.5t-138.5 -16zM386 784l-177 164h119l148 -164h-90z" />
    <glyph glyph-name="Uacute" unicode="&#xda;" horiz-adv-x="788" 
d="M308 784l148 164h119l-177 -164h-90zM393 -13q-80 0 -138.5 16.5t-91.5 41.5t-52.5 64.5t-25.5 76.5t-6 86v469h101v-457q0 -101 45 -151.5t169 -50.5q125 0 171.5 50.5t46.5 151.5v457h98v-469q0 -49 -6 -86.5t-26 -76.5t-54 -64.5t-92.5 -41.5t-138.5 -16z" />
    <glyph glyph-name="Ucircumflex" unicode="&#xdb;" horiz-adv-x="788" 
d="M186 784l153 164h105l153 -164h-94l-113 101l-111 -101h-93zM393 -13q-80 0 -138.5 16.5t-91.5 41.5t-52.5 64.5t-25.5 76.5t-6 86v469h101v-457q0 -101 45 -151.5t169 -50.5q125 0 171.5 50.5t46.5 151.5v457h98v-469q0 -49 -6 -86.5t-26 -76.5t-54 -64.5t-92.5 -41.5
t-138.5 -16z" />
    <glyph glyph-name="Udieresis" unicode="&#xdc;" horiz-adv-x="788" 
d="M240 787v112h89v-112h-89zM456 787v112h88v-112h-88zM393 -13q-80 0 -138.5 16.5t-91.5 41.5t-52.5 64.5t-25.5 76.5t-6 86v469h101v-457q0 -101 45 -151.5t169 -50.5q125 0 171.5 50.5t46.5 151.5v457h98v-469q0 -49 -6 -86.5t-26 -76.5t-54 -64.5t-92.5 -41.5
t-138.5 -16z" />
    <glyph glyph-name="Yacute" unicode="&#xdd;" horiz-adv-x="716" 
d="M308 0v280l-298 461h110l239 -369l241 369h105l-297 -459v-282h-100zM272 784l148 164h119l-177 -164h-90z" />
    <glyph glyph-name="Thorn" unicode="&#xde;" horiz-adv-x="720" 
d="M84 0v741h99v-115h234q146 0 204 -55.5t58 -175.5q0 -121 -59 -181.5t-206 -60.5h-231v-153h-99zM183 246h234q87 0 124 33t37 113q0 81 -36.5 111.5t-126.5 30.5h-232v-288z" />
    <glyph glyph-name="germandbls" unicode="&#xdf;" horiz-adv-x="660" 
d="M72 0v536q0 245 257 245q122 0 180 -49t58 -147q0 -138 -102 -176q82 -15 121 -60t39 -133q0 -56 -11.5 -93t-42 -66.5t-89 -43t-147.5 -13.5h-63v88h61q62 0 102.5 9.5t60 29t26.5 41.5t7 54q0 71 -45.5 101t-167.5 30v81q80 0 117.5 30.5t37.5 96.5q0 62 -33.5 91.5
t-109.5 29.5q-160 0 -160 -150v-532h-96z" />
    <glyph glyph-name="agrave" unicode="&#xe0;" horiz-adv-x="627" 
d="M238 -10q-112 0 -155.5 44.5t-43.5 123.5q0 118 78.5 161t288.5 43h30q-2 65 -28.5 90.5t-110.5 25.5q-89 0 -164 -47l-51 76q34 23 95.5 42.5t128.5 19.5q71 0 115 -12t68 -41t32.5 -68t8.5 -102v-198q0 -41 8.5 -51.5t46.5 -10.5v-85q-7 -2 -40 -2q-45 0 -64.5 14
t-30.5 49q-51 -72 -212 -72zM254 74q96 0 139 40.5t43 130.5v34h-25q-116 0 -175 -10.5t-81.5 -34t-22.5 -69.5q0 -47 27 -69t95 -22zM308 613l-177 164h119l148 -164h-90z" />
    <glyph glyph-name="aacute" unicode="&#xe1;" horiz-adv-x="627" 
d="M238 -10q-112 0 -155.5 44.5t-43.5 123.5q0 118 78.5 161t288.5 43h30q-2 65 -28.5 90.5t-110.5 25.5q-89 0 -164 -47l-51 76q34 23 95.5 42.5t128.5 19.5q71 0 115 -12t68 -41t32.5 -68t8.5 -102v-198q0 -41 8.5 -51.5t46.5 -10.5v-85q-7 -2 -40 -2q-45 0 -64.5 14
t-30.5 49q-51 -72 -212 -72zM254 74q96 0 139 40.5t43 130.5v34h-25q-116 0 -175 -10.5t-81.5 -34t-22.5 -69.5q0 -47 27 -69t95 -22zM230 613l148 164h119l-177 -164h-90z" />
    <glyph glyph-name="acircumflex" unicode="&#xe2;" horiz-adv-x="627" 
d="M238 -10q-112 0 -155.5 44.5t-43.5 123.5q0 118 78.5 161t288.5 43h30q-2 65 -28.5 90.5t-110.5 25.5q-89 0 -164 -47l-51 76q34 23 95.5 42.5t128.5 19.5q71 0 115 -12t68 -41t32.5 -68t8.5 -102v-198q0 -41 8.5 -51.5t46.5 -10.5v-85q-7 -2 -40 -2q-45 0 -64.5 14
t-30.5 49q-51 -72 -212 -72zM254 74q96 0 139 40.5t43 130.5v34h-25q-116 0 -175 -10.5t-81.5 -34t-22.5 -69.5q0 -47 27 -69t95 -22zM108 613l153 164h105l153 -164h-94l-113 101l-111 -101h-93z" />
    <glyph glyph-name="atilde" unicode="&#xe3;" horiz-adv-x="627" 
d="M238 -10q-112 0 -155.5 44.5t-43.5 123.5q0 118 78.5 161t288.5 43h30q-2 65 -28.5 90.5t-110.5 25.5q-89 0 -164 -47l-51 76q34 23 95.5 42.5t128.5 19.5q71 0 115 -12t68 -41t32.5 -68t8.5 -102v-198q0 -41 8.5 -51.5t46.5 -10.5v-85q-7 -2 -40 -2q-45 0 -64.5 14
t-30.5 49q-51 -72 -212 -72zM254 74q96 0 139 40.5t43 130.5v34h-25q-116 0 -175 -10.5t-81.5 -34t-22.5 -69.5q0 -47 27 -69t95 -22zM169 615l-60 47q67 83 134 83q37 0 77 -25t62 -25q32 0 80 55l57 -46q-72 -90 -135 -90q-33 0 -75 25t-64 25q-38 0 -76 -49z" />
    <glyph glyph-name="adieresis" unicode="&#xe4;" horiz-adv-x="627" 
d="M238 -10q-112 0 -155.5 44.5t-43.5 123.5q0 118 78.5 161t288.5 43h30q-2 65 -28.5 90.5t-110.5 25.5q-89 0 -164 -47l-51 76q34 23 95.5 42.5t128.5 19.5q71 0 115 -12t68 -41t32.5 -68t8.5 -102v-198q0 -41 8.5 -51.5t46.5 -10.5v-85q-7 -2 -40 -2q-45 0 -64.5 14
t-30.5 49q-51 -72 -212 -72zM254 74q96 0 139 40.5t43 130.5v34h-25q-116 0 -175 -10.5t-81.5 -34t-22.5 -69.5q0 -47 27 -69t95 -22zM162 616v112h89v-112h-89zM378 616v112h88v-112h-88z" />
    <glyph glyph-name="aring" unicode="&#xe5;" horiz-adv-x="627" 
d="M238 -10q-112 0 -155.5 44.5t-43.5 123.5q0 118 78.5 161t288.5 43h30q-2 65 -28.5 90.5t-110.5 25.5q-89 0 -164 -47l-51 76q34 23 95.5 42.5t128.5 19.5q71 0 115 -12t68 -41t32.5 -68t8.5 -102v-198q0 -41 8.5 -51.5t46.5 -10.5v-85q-7 -2 -40 -2q-45 0 -64.5 14
t-30.5 49q-51 -72 -212 -72zM254 74q96 0 139 40.5t43 130.5v34h-25q-116 0 -175 -10.5t-81.5 -34t-22.5 -69.5q0 -47 27 -69t95 -22zM314 601q-64 0 -95 35.5t-31 93.5q0 59 31 95t95 36q61 0 93 -36.5t32 -94.5t-32 -93.5t-93 -35.5zM314 655q36 0 53.5 20.5t17.5 54.5
t-17.5 54.5t-53.5 20.5q-72 0 -72 -75t72 -75z" />
    <glyph glyph-name="ae" unicode="&#xe6;" horiz-adv-x="986" 
d="M705 -11q-173 0 -229 102q-33 -59 -87.5 -80t-148.5 -21q-106 0 -153.5 41t-47.5 127q0 117 81 160.5t286 43.5h30q-2 65 -28.5 90.5t-110.5 25.5q-89 0 -166 -46l-49 75q34 23 95.5 42.5t128.5 19.5q150 0 188 -77q59 77 208 77q57 0 99.5 -12.5t67 -35t40.5 -53
t20.5 -67t7 -77.5t-0.5 -83h-410q4 -83 42.5 -125.5t136.5 -42.5q62 0 100.5 13.5t75.5 41.5l53 -68q-48 -36 -100 -53.5t-129 -17.5zM255 74q96 0 138.5 40.5t42.5 130.5v34h-25q-115 0 -173.5 -10t-82 -33.5t-23.5 -70.5t27 -69t96 -22zM700 483q-90 0 -128 -40t-45 -117
h317q-2 40 -6 63t-18 47.5t-43.5 35.5t-76.5 11z" />
    <glyph glyph-name="ccedilla" unicode="&#xe7;" horiz-adv-x="569" 
d="M292 -232q-68 0 -121 30l27 51q44 -23 90 -23q43 0 59 12.5t16 36.5q0 27 -20.5 36t-71.5 6l-24 17l11 60q-61 7 -103 30t-66 61.5t-34 85.5t-10 108q0 141 60.5 215.5t214.5 74.5q133 0 207 -83l-71 -67q-54 56 -136 56q-98 0 -137.5 -49.5t-39.5 -148.5q0 -100 39 -150
t138 -50q78 0 141 57l65 -62q-46 -42 -93 -62t-116 -20l-6 -34q26 1 45 -1t37 -10.5t27.5 -27.5t9.5 -48q0 -101 -138 -101z" />
    <glyph glyph-name="egrave" unicode="&#xe8;" horiz-adv-x="600" 
d="M318 -11q-67 0 -116 15t-78.5 40t-47.5 63.5t-24.5 79t-6.5 92.5q0 65 11.5 113.5t40 90.5t84 64t135.5 22q48 0 85 -10t62 -25t42 -41.5t26 -51t13.5 -62t5.5 -66.5t0 -72h-411q5 -83 43.5 -125.5t135.5 -42.5q62 0 101 13.5t76 41.5l52 -68q-91 -71 -229 -71zM313 483
q-90 0 -128 -39.5t-45 -116.5h318q-2 32 -4.5 50.5t-11 41.5t-23 35t-41.5 20.5t-65 8.5zM292 613l-177 164h119l148 -164h-90z" />
    <glyph glyph-name="eacute" unicode="&#xe9;" horiz-adv-x="600" 
d="M214 613l148 164h119l-177 -164h-90zM318 -11q-67 0 -116 15t-78.5 40t-47.5 63.5t-24.5 79t-6.5 92.5q0 65 11.5 113.5t40 90.5t84 64t135.5 22q48 0 85 -10t62 -25t42 -41.5t26 -51t13.5 -62t5.5 -66.5t0 -72h-411q5 -83 43.5 -125.5t135.5 -42.5q62 0 101 13.5
t76 41.5l52 -68q-91 -71 -229 -71zM313 483q-90 0 -128 -39.5t-45 -116.5h318q-2 32 -4.5 50.5t-11 41.5t-23 35t-41.5 20.5t-65 8.5z" />
    <glyph glyph-name="ecircumflex" unicode="&#xea;" horiz-adv-x="600" 
d="M92 613l153 164h105l153 -164h-94l-113 101l-111 -101h-93zM318 -11q-67 0 -116 15t-78.5 40t-47.5 63.5t-24.5 79t-6.5 92.5q0 65 11.5 113.5t40 90.5t84 64t135.5 22q48 0 85 -10t62 -25t42 -41.5t26 -51t13.5 -62t5.5 -66.5t0 -72h-411q5 -83 43.5 -125.5t135.5 -42.5
q62 0 101 13.5t76 41.5l52 -68q-91 -71 -229 -71zM313 483q-90 0 -128 -39.5t-45 -116.5h318q-2 32 -4.5 50.5t-11 41.5t-23 35t-41.5 20.5t-65 8.5z" />
    <glyph glyph-name="edieresis" unicode="&#xeb;" horiz-adv-x="600" 
d="M146 616v112h89v-112h-89zM362 616v112h88v-112h-88zM318 -11q-67 0 -116 15t-78.5 40t-47.5 63.5t-24.5 79t-6.5 92.5q0 65 11.5 113.5t40 90.5t84 64t135.5 22q48 0 85 -10t62 -25t42 -41.5t26 -51t13.5 -62t5.5 -66.5t0 -72h-411q5 -83 43.5 -125.5t135.5 -42.5
q62 0 101 13.5t76 41.5l52 -68q-91 -71 -229 -71zM313 483q-90 0 -128 -39.5t-45 -116.5h318q-2 32 -4.5 50.5t-11 41.5t-23 35t-41.5 20.5t-65 8.5z" />
    <glyph glyph-name="igrave" unicode="&#xec;" horiz-adv-x="252" 
d="M84 613l-137 162h118l109 -162h-90zM78 0v556h96v-556h-96z" />
    <glyph glyph-name="iacute" unicode="&#xed;" horiz-adv-x="252" 
d="M80 613l107 162h119l-137 -162h-89zM78 0v556h96v-556h-96z" />
    <glyph glyph-name="icircumflex" unicode="&#xee;" horiz-adv-x="252" 
d="M-45 613l121 162h99l122 -162h-93l-79 102l-81 -102h-89zM78 0v556h96v-556h-96z" />
    <glyph glyph-name="idieresis" unicode="&#xef;" horiz-adv-x="252" 
d="M-9 624v111h80v-111h-80zM182 624v111h80v-111h-80zM78 0v556h96v-556h-96z" />
    <glyph glyph-name="eth" unicode="&#xf0;" horiz-adv-x="639" 
d="M295 591v69l75 19q-32 36 -72 72l90 38q47 -39 83 -84l137 35v-70l-96 -24q82 -141 82 -354q0 -158 -66.5 -230.5t-209.5 -72.5t-208 71t-65 207q0 134 58 206t190 72q133 0 182 -57q-17 70 -60 133zM318 77q95 0 136 48t41 144q0 97 -41 144t-136 47q-93 0 -134 -47
t-41 -144q0 -96 41 -144t134 -48z" />
    <glyph glyph-name="ntilde" unicode="&#xf1;" horiz-adv-x="632" 
d="M72 0v551l77 5l8 -53q49 66 205 66q64 0 105 -15.5t61 -49t27 -71t7 -94.5v-339h-97v320q0 32 -2 51t-9 41t-21 33.5t-39.5 19.5t-62.5 8q-95 0 -128 -41.5t-33 -123.5v-308h-98zM169 615l-60 47q67 83 134 83q37 0 77 -25t62 -25q32 0 80 55l57 -46q-72 -90 -135 -90
q-33 0 -75 25t-64 25q-38 0 -76 -49z" />
    <glyph glyph-name="ograve" unicode="&#xf2;" horiz-adv-x="639" 
d="M319 -11q-144 0 -209 72t-65 218t65 218t209 72q145 0 210 -72t65 -218t-65 -218t-210 -72zM319 77q95 0 135.5 50t40.5 150t-40.5 149.5t-135.5 49.5t-135.5 -49.5t-40.5 -149.5t40.5 -150t135.5 -50zM312 613l-177 164h119l148 -164h-90z" />
    <glyph glyph-name="oacute" unicode="&#xf3;" horiz-adv-x="639" 
d="M234 613l148 164h119l-177 -164h-90zM319 -11q-144 0 -209 72t-65 218t65 218t209 72q145 0 210 -72t65 -218t-65 -218t-210 -72zM319 77q95 0 135.5 50t40.5 150t-40.5 149.5t-135.5 49.5t-135.5 -49.5t-40.5 -149.5t40.5 -150t135.5 -50z" />
    <glyph glyph-name="ocircumflex" unicode="&#xf4;" horiz-adv-x="639" 
d="M112 613l153 164h105l153 -164h-94l-113 101l-111 -101h-93zM319 -11q-144 0 -209 72t-65 218t65 218t209 72q145 0 210 -72t65 -218t-65 -218t-210 -72zM319 77q95 0 135.5 50t40.5 150t-40.5 149.5t-135.5 49.5t-135.5 -49.5t-40.5 -149.5t40.5 -150t135.5 -50z" />
    <glyph glyph-name="otilde" unicode="&#xf5;" horiz-adv-x="639" 
d="M319 -11q-144 0 -209 72t-65 218t65 218t209 72q145 0 210 -72t65 -218t-65 -218t-210 -72zM319 77q95 0 135.5 50t40.5 150t-40.5 149.5t-135.5 49.5t-135.5 -49.5t-40.5 -149.5t40.5 -150t135.5 -50zM173 615l-60 47q67 83 134 83q37 0 77 -25t62 -25q32 0 80 55
l57 -46q-72 -90 -135 -90q-33 0 -75 25t-64 25q-38 0 -76 -49z" />
    <glyph glyph-name="odieresis" unicode="&#xf6;" horiz-adv-x="639" 
d="M166 616v112h89v-112h-89zM382 616v112h88v-112h-88zM319 -11q-144 0 -209 72t-65 218t65 218t209 72q145 0 210 -72t65 -218t-65 -218t-210 -72zM319 77q95 0 135.5 50t40.5 150t-40.5 149.5t-135.5 49.5t-135.5 -49.5t-40.5 -149.5t40.5 -150t135.5 -50z" />
    <glyph glyph-name="divide" unicode="&#xf7;" horiz-adv-x="703" 
d="M297 100v105h109v-105h-109zM103 306v93h497v-93h-497zM297 501v105h109v-105h-109z" />
    <glyph glyph-name="oslash" unicode="&#xf8;" horiz-adv-x="639" 
d="M319 -11q-69 0 -119 15l-28 -46h-89l49 81q-87 67 -87 240q0 147 63.5 218.5t210.5 71.5q70 0 119 -16l28 47h89l-48 -82q87 -68 87 -239q0 -147 -64 -218.5t-211 -71.5zM319 75q96 0 137 50.5t41 151.5q0 109 -46 156l-207 -348q30 -10 75 -10zM141 277q0 -108 45 -156
l205 347q-35 10 -72 10q-96 0 -137 -50t-41 -151z" />
    <glyph glyph-name="ugrave" unicode="&#xf9;" horiz-adv-x="625" 
d="M314 -10q-79 0 -128.5 15t-74.5 49.5t-33.5 76t-8.5 107.5v318h97v-320q0 -28 1 -42.5t5 -36.5t13 -33t25 -23t42 -17t62 -5t62 5t42 17t25 23t13 34t4.5 37t0.5 44v317h95v-315q0 -68 -8 -109.5t-32.5 -76.5t-73.5 -50t-128 -15zM305 613l-177 164h119l148 -164h-90z
" />
    <glyph glyph-name="uacute" unicode="&#xfa;" horiz-adv-x="625" 
d="M227 613l148 164h119l-177 -164h-90zM314 -10q-79 0 -128.5 15t-74.5 49.5t-33.5 76t-8.5 107.5v318h97v-320q0 -28 1 -42.5t5 -36.5t13 -33t25 -23t42 -17t62 -5t62 5t42 17t25 23t13 34t4.5 37t0.5 44v317h95v-315q0 -68 -8 -109.5t-32.5 -76.5t-73.5 -50t-128 -15z
" />
    <glyph glyph-name="ucircumflex" unicode="&#xfb;" horiz-adv-x="625" 
d="M105 613l153 164h105l153 -164h-94l-113 101l-111 -101h-93zM314 -10q-79 0 -128.5 15t-74.5 49.5t-33.5 76t-8.5 107.5v318h97v-320q0 -28 1 -42.5t5 -36.5t13 -33t25 -23t42 -17t62 -5t62 5t42 17t25 23t13 34t4.5 37t0.5 44v317h95v-315q0 -68 -8 -109.5t-32.5 -76.5
t-73.5 -50t-128 -15z" />
    <glyph glyph-name="udieresis" unicode="&#xfc;" horiz-adv-x="625" 
d="M159 616v112h89v-112h-89zM375 616v112h88v-112h-88zM314 -10q-79 0 -128.5 15t-74.5 49.5t-33.5 76t-8.5 107.5v318h97v-320q0 -28 1 -42.5t5 -36.5t13 -33t25 -23t42 -17t62 -5t62 5t42 17t25 23t13 34t4.5 37t0.5 44v317h95v-315q0 -68 -8 -109.5t-32.5 -76.5
t-73.5 -50t-128 -15z" />
    <glyph glyph-name="yacute" unicode="&#xfd;" horiz-adv-x="544" 
d="M128 -168q-39 0 -51 1v79h43q41 0 58.5 10.5t27.5 40.5l17 43l-216 550h104l163 -434l162 434h102l-236 -603q-25 -66 -63 -93.5t-111 -27.5zM190 613l148 164h119l-177 -164h-90z" />
    <glyph glyph-name="thorn" unicode="&#xfe;" horiz-adv-x="656" 
d="M72 -165v941h97v-275q45 68 204 68q132 0 185 -75t53 -215q0 -138 -54.5 -213.5t-187.5 -75.5q-85 0 -131.5 16.5t-67.5 51.5v-223h-98zM352 79q90 0 125 49.5t35 147.5q0 99 -34.5 149.5t-125.5 50.5q-99 0 -140.5 -45t-41.5 -155t40.5 -153.5t141.5 -43.5z" />
    <glyph glyph-name="ydieresis" unicode="&#xff;" horiz-adv-x="544" 
d="M128 -168q-39 0 -51 1v79h43q41 0 58.5 10.5t27.5 40.5l17 43l-216 550h104l163 -434l162 434h102l-236 -603q-25 -66 -63 -93.5t-111 -27.5zM122 616v112h89v-112h-89zM338 616v112h88v-112h-88z" />
    <glyph glyph-name="Amacron" unicode="&#x100;" horiz-adv-x="742" 
d="M22 0l297 746h103l297 -746h-104l-61 156h-370l-61 -156h-101zM218 249h300l-150 376zM181 778v83h376v-83h-376z" />
    <glyph glyph-name="amacron" unicode="&#x101;" horiz-adv-x="627" 
d="M238 -10q-112 0 -155.5 44.5t-43.5 123.5q0 118 78.5 161t288.5 43h30q-2 65 -28.5 90.5t-110.5 25.5q-89 0 -164 -47l-51 76q34 23 95.5 42.5t128.5 19.5q71 0 115 -12t68 -41t32.5 -68t8.5 -102v-198q0 -41 8.5 -51.5t46.5 -10.5v-85q-7 -2 -40 -2q-45 0 -64.5 14
t-30.5 49q-51 -72 -212 -72zM254 74q96 0 139 40.5t43 130.5v34h-25q-116 0 -175 -10.5t-81.5 -34t-22.5 -69.5q0 -47 27 -69t95 -22zM126 607v83h376v-83h-376z" />
    <glyph glyph-name="Abreve" unicode="&#x102;" horiz-adv-x="742" 
d="M22 0l297 746h103l297 -746h-104l-61 156h-370l-61 -156h-101zM218 249h300l-150 376zM369 773q-94 0 -136.5 42t-57.5 120l72 15q11 -49 37 -73t85 -24t85 24t37 73l73 -14q-17 -79 -59.5 -121t-135.5 -42z" />
    <glyph glyph-name="abreve" unicode="&#x103;" horiz-adv-x="627" 
d="M238 -10q-112 0 -155.5 44.5t-43.5 123.5q0 118 78.5 161t288.5 43h30q-2 65 -28.5 90.5t-110.5 25.5q-89 0 -164 -47l-51 76q34 23 95.5 42.5t128.5 19.5q71 0 115 -12t68 -41t32.5 -68t8.5 -102v-198q0 -41 8.5 -51.5t46.5 -10.5v-85q-7 -2 -40 -2q-45 0 -64.5 14
t-30.5 49q-51 -72 -212 -72zM254 74q96 0 139 40.5t43 130.5v34h-25q-116 0 -175 -10.5t-81.5 -34t-22.5 -69.5q0 -47 27 -69t95 -22zM314 602q-94 0 -136.5 42t-57.5 120l72 15q11 -49 37 -73t85 -24t85 24t37 73l73 -14q-17 -79 -59.5 -121t-135.5 -42z" />
    <glyph glyph-name="Aogonek" unicode="&#x104;" horiz-adv-x="742" 
d="M22 0l297 746h103l297 -746h-31q-91 -55 -91 -107q0 -22 12.5 -34.5t46.5 -12.5t72 12l22 -59q-42 -21 -106 -21q-70 0 -98.5 26.5t-28.5 73.5q0 42 27.5 77.5t65.5 57.5l-56 143h-370l-61 -156h-101zM218 249h300l-150 376z" />
    <glyph glyph-name="aogonek" unicode="&#x105;" horiz-adv-x="627" 
d="M238 -10q-112 0 -155.5 44.5t-43.5 123.5q0 118 78.5 161t288.5 43h30q-2 65 -28.5 90.5t-110.5 25.5q-89 0 -164 -47l-51 76q34 23 95.5 42.5t128.5 19.5q71 0 115 -12t68 -41t32.5 -68t8.5 -102v-198q0 -41 8.5 -51.5t46.5 -10.5v-85q-104 -59 -104 -108
q0 -22 13 -34.5t49 -12.5q41 0 74 13l24 -59q-46 -22 -110 -22q-73 0 -101 26t-28 74q0 42 28 75t65 53q-17 6 -26 17q-13 16 -19 39q-51 -72 -212 -72zM254 74q96 0 139 40.5t43 130.5v34h-25q-116 0 -175 -10.5t-81.5 -34t-22.5 -69.5q0 -47 27 -69t95 -22z" />
    <glyph glyph-name="Cacute" unicode="&#x106;" horiz-adv-x="731" 
d="M280 784l148 164h119l-177 -164h-90zM411 -11q-190 0 -280 96t-90 286q0 192 96.5 287t278.5 95q166 0 268 -97l-73 -73q-79 73 -196 73q-272 0 -272 -286q0 -143 66.5 -214.5t206.5 -71.5q73 0 117.5 19.5t83.5 56.5l72 -69q-102 -102 -278 -102z" />
    <glyph glyph-name="cacute" unicode="&#x107;" horiz-adv-x="569" 
d="M202 613l148 164h119l-177 -164h-90zM316 -10q-151 0 -211 74.5t-60 214.5q0 141 60.5 215.5t214.5 74.5q133 0 207 -83l-71 -67q-54 56 -136 56q-98 0 -137.5 -49.5t-39.5 -148.5q0 -100 39 -150t138 -50q78 0 141 57l65 -62q-46 -42 -93 -62t-117 -20z" />
    <glyph glyph-name="Ccircumflex" unicode="&#x108;" horiz-adv-x="731" 
d="M183 784l153 164h105l153 -164h-94l-113 101l-111 -101h-93zM411 -11q-190 0 -280 96t-90 286q0 192 96.5 287t278.5 95q166 0 268 -97l-73 -73q-79 73 -196 73q-272 0 -272 -286q0 -143 66.5 -214.5t206.5 -71.5q73 0 117.5 19.5t83.5 56.5l72 -69q-102 -102 -278 -102z
" />
    <glyph glyph-name="ccircumflex" unicode="&#x109;" horiz-adv-x="569" 
d="M88 613l153 164h105l153 -164h-94l-113 101l-111 -101h-93zM316 -10q-151 0 -211 74.5t-60 214.5q0 141 60.5 215.5t214.5 74.5q133 0 207 -83l-71 -67q-54 56 -136 56q-98 0 -137.5 -49.5t-39.5 -148.5q0 -100 39 -150t138 -50q78 0 141 57l65 -62q-46 -42 -93 -62
t-117 -20z" />
    <glyph glyph-name="Cdotaccent" unicode="&#x10a;" horiz-adv-x="731" 
d="M411 -11q-190 0 -280 96t-90 286q0 192 96.5 287t278.5 95q166 0 268 -97l-73 -73q-79 73 -196 73q-272 0 -272 -286q0 -143 66.5 -214.5t206.5 -71.5q73 0 117.5 19.5t83.5 56.5l72 -69q-102 -102 -278 -102zM338 783v116h98v-116h-98z" />
    <glyph glyph-name="cdotaccent" unicode="&#x10b;" horiz-adv-x="569" 
d="M316 -10q-151 0 -211 74.5t-60 214.5q0 141 60.5 215.5t214.5 74.5q133 0 207 -83l-71 -67q-54 56 -136 56q-98 0 -137.5 -49.5t-39.5 -148.5q0 -100 39 -150t138 -50q78 0 141 57l65 -62q-46 -42 -93 -62t-117 -20zM252 612v116h98v-116h-98z" />
    <glyph glyph-name="Ccaron" unicode="&#x10c;" horiz-adv-x="731" 
d="M311 784l-153 164h95l112 -101l112 101h92l-153 -164h-105zM411 -11q-190 0 -280 96t-90 286q0 192 96.5 287t278.5 95q166 0 268 -97l-73 -73q-79 73 -196 73q-272 0 -272 -286q0 -143 66.5 -214.5t206.5 -71.5q73 0 117.5 19.5t83.5 56.5l72 -69q-102 -102 -278 -102z
" />
    <glyph glyph-name="ccaron" unicode="&#x10d;" horiz-adv-x="569" 
d="M233 613l-153 164h95l112 -101l112 101h92l-153 -164h-105zM316 -10q-151 0 -211 74.5t-60 214.5q0 141 60.5 215.5t214.5 74.5q133 0 207 -83l-71 -67q-54 56 -136 56q-98 0 -137.5 -49.5t-39.5 -148.5q0 -100 39 -150t138 -50q78 0 141 57l65 -62q-46 -42 -93 -62
t-117 -20z" />
    <glyph glyph-name="Dcaron" unicode="&#x10e;" horiz-adv-x="761" 
d="M326 784l-153 164h95l112 -101l112 101h92l-153 -164h-105zM84 0v741h248q109 0 180 -17t119.5 -60t69 -113.5t20.5 -179.5q0 -208 -91.5 -289.5t-308.5 -81.5h-237zM185 93h141q167 0 230 61.5t63 216.5q0 158 -58.5 216t-227.5 58h-148v-552z" />
    <glyph glyph-name="dcaron" unicode="&#x10f;" horiz-adv-x="772" 
d="M681 548l-24 44q35 18 46 32t11 41h-49v111h104v-82q0 -63 -16.5 -91.5t-71.5 -54.5zM284 -10q-131 0 -185 75.5t-54 215.5q0 138 54.5 212.5t187.5 74.5q159 0 199 -67v275h98v-772l-75 -7l-11 65q-27 -37 -76.5 -54.5t-137.5 -17.5zM305 79q98 0 139.5 46t41.5 156
q0 109 -40 152.5t-141 43.5q-91 0 -126 -49t-35 -147q0 -100 35 -151t126 -51z" />
    <glyph glyph-name="Dcroat" unicode="&#x110;" horiz-adv-x="761" 
d="M0 339v84h84v318h248q109 0 180 -17t119.5 -60t69 -113.5t20.5 -179.5q0 -207 -93 -289t-307 -82h-237v339h-84zM185 93h141q167 0 230 61.5t63 216.5q0 158 -58.5 216t-227.5 58h-148v-222h160v-84h-160v-246z" />
    <glyph glyph-name="dcroat" unicode="&#x111;" horiz-adv-x="656" 
d="M334 615v85h152v76h98v-76h72v-85h-72v-611l-75 -7l-11 65q-27 -37 -76.5 -54.5t-137.5 -17.5q-131 0 -185 75.5t-54 215.5q0 138 54.5 212.5t187.5 74.5q159 0 199 -67v114h-152zM305 79q98 0 139.5 46t41.5 156q0 109 -40 152.5t-141 43.5q-91 0 -126 -49t-35 -147
q0 -100 35 -151t126 -51z" />
    <glyph glyph-name="Emacron" unicode="&#x112;" horiz-adv-x="652" 
d="M84 0v741h507v-97h-406v-213h396v-96h-396v-242h410v-93h-511zM136 778v83h376v-83h-376z" />
    <glyph glyph-name="emacron" unicode="&#x113;" horiz-adv-x="600" 
d="M318 -11q-67 0 -116 15t-78.5 40t-47.5 63.5t-24.5 79t-6.5 92.5q0 65 11.5 113.5t40 90.5t84 64t135.5 22q48 0 85 -10t62 -25t42 -41.5t26 -51t13.5 -62t5.5 -66.5t0 -72h-411q5 -83 43.5 -125.5t135.5 -42.5q62 0 101 13.5t76 41.5l52 -68q-91 -71 -229 -71zM313 483
q-90 0 -128 -39.5t-45 -116.5h318q-2 32 -4.5 50.5t-11 41.5t-23 35t-41.5 20.5t-65 8.5zM110 607v83h376v-83h-376z" />
    <glyph glyph-name="Ebreve" unicode="&#x114;" horiz-adv-x="652" 
d="M84 0v741h507v-97h-406v-213h396v-96h-396v-242h410v-93h-511zM325 773q-94 0 -136.5 42t-57.5 120l72 15q11 -49 37 -73t85 -24t85 24t37 73l73 -14q-17 -79 -59.5 -121t-135.5 -42z" />
    <glyph glyph-name="ebreve" unicode="&#x115;" horiz-adv-x="600" 
d="M318 -11q-67 0 -116 15t-78.5 40t-47.5 63.5t-24.5 79t-6.5 92.5q0 65 11.5 113.5t40 90.5t84 64t135.5 22q48 0 85 -10t62 -25t42 -41.5t26 -51t13.5 -62t5.5 -66.5t0 -72h-411q5 -83 43.5 -125.5t135.5 -42.5q62 0 101 13.5t76 41.5l52 -68q-91 -71 -229 -71zM313 483
q-90 0 -128 -39.5t-45 -116.5h318q-2 32 -4.5 50.5t-11 41.5t-23 35t-41.5 20.5t-65 8.5zM299 602q-94 0 -136.5 42t-57.5 120l72 15q11 -49 37 -73t85 -24t85 24t37 73l73 -14q-17 -79 -59.5 -121t-135.5 -42z" />
    <glyph glyph-name="Edotaccent" unicode="&#x116;" horiz-adv-x="652" 
d="M84 0v741h507v-97h-406v-213h396v-96h-396v-242h410v-93h-511zM275 783v116h98v-116h-98z" />
    <glyph glyph-name="edotaccent" unicode="&#x117;" horiz-adv-x="600" 
d="M318 -11q-67 0 -116 15t-78.5 40t-47.5 63.5t-24.5 79t-6.5 92.5q0 65 11.5 113.5t40 90.5t84 64t135.5 22q48 0 85 -10t62 -25t42 -41.5t26 -51t13.5 -62t5.5 -66.5t0 -72h-411q5 -83 43.5 -125.5t135.5 -42.5q62 0 101 13.5t76 41.5l52 -68q-91 -71 -229 -71zM313 483
q-90 0 -128 -39.5t-45 -116.5h318q-2 32 -4.5 50.5t-11 41.5t-23 35t-41.5 20.5t-65 8.5zM249 612v116h98v-116h-98z" />
    <glyph glyph-name="Eogonek" unicode="&#x118;" horiz-adv-x="652" 
d="M84 0v741h507v-97h-406v-213h396v-96h-396v-242h410v-93h-81q-88 -55 -88 -107q0 -23 12.5 -35t49.5 -12q48 0 86 18l24 -59q-51 -27 -122 -27q-73 0 -101.5 26t-28.5 73q0 38 23.5 70t55.5 53h-341z" />
    <glyph glyph-name="eogonek" unicode="&#x119;" horiz-adv-x="600" 
d="M318 -11q-67 0 -116 15t-78.5 40t-47.5 63.5t-24.5 79t-6.5 92.5q0 65 11.5 113.5t40 90.5t84 64t135.5 22q48 0 85 -10t62 -25t42 -41.5t26 -51t13.5 -62t5.5 -66.5t0 -72h-411q5 -83 43.5 -125.5t135.5 -42.5q62 0 101 13.5t76 41.5l52 -68q-48 -37 -97 -53
q-49 -27 -75 -57.5t-26 -56.5q0 -23 12.5 -35t49.5 -12q48 0 86 18l24 -59q-51 -27 -122 -27q-73 0 -101.5 26t-28.5 73q0 62 64 112h-15zM313 483q-90 0 -128 -39.5t-45 -116.5h318q-2 32 -4.5 50.5t-11 41.5t-23 35t-41.5 20.5t-65 8.5z" />
    <glyph glyph-name="Ecaron" unicode="&#x11a;" horiz-adv-x="652" 
d="M271 784l-153 164h95l112 -101l112 101h92l-153 -164h-105zM84 0v741h507v-97h-406v-213h396v-96h-396v-242h410v-93h-511z" />
    <glyph glyph-name="ecaron" unicode="&#x11b;" horiz-adv-x="600" 
d="M245 613l-153 164h95l112 -101l112 101h92l-153 -164h-105zM318 -11q-67 0 -116 15t-78.5 40t-47.5 63.5t-24.5 79t-6.5 92.5q0 65 11.5 113.5t40 90.5t84 64t135.5 22q48 0 85 -10t62 -25t42 -41.5t26 -51t13.5 -62t5.5 -66.5t0 -72h-411q5 -83 43.5 -125.5t135.5 -42.5
q62 0 101 13.5t76 41.5l52 -68q-91 -71 -229 -71zM313 483q-90 0 -128 -39.5t-45 -116.5h318q-2 32 -4.5 50.5t-11 41.5t-23 35t-41.5 20.5t-65 8.5z" />
    <glyph glyph-name="Gcircumflex" unicode="&#x11c;" horiz-adv-x="783" 
d="M186 784l153 164h105l153 -164h-94l-113 101l-111 -101h-93zM410 -11q-199 0 -284 94t-85 288q0 382 374 382q182 0 278 -96l-72 -74q-82 73 -206 73q-139 0 -206 -70.5t-67 -215.5q0 -151 62.5 -221t209.5 -70q132 0 180 52t48 169v21h-239v90h339v-93q0 -82 -14 -138.5
t-49.5 -101.5t-102 -67t-166.5 -22z" />
    <glyph glyph-name="gcircumflex" unicode="&#x11d;" horiz-adv-x="611" 
d="M94 626l153 164h105l153 -164h-94l-113 101l-111 -101h-93zM295 203q-54 0 -92 7q-13 -16 -13 -34q0 -24 21.5 -31t89.5 -7q156 0 214 -31.5t58 -115.5q0 -90 -64.5 -130t-216.5 -40q-146 0 -205.5 28.5t-59.5 109.5q0 114 106 136q-31 21 -31 67q0 43 25 77
q-68 43 -68 143q0 94 56.5 140.5t179.5 46.5q24 0 36 -1l219 31v-80h-90q72 -39 72 -137q0 -92 -57 -135.5t-180 -43.5zM295 -102q104 0 142 21t38 67q0 42 -38 56t-142 14q-72 0 -111 -11.5t-49 -27.5t-10 -42q0 -44 38.5 -60.5t131.5 -16.5zM295 283q76 0 108.5 23.5
t32.5 75.5t-34.5 75.5t-106.5 23.5q-77 0 -109.5 -23t-32.5 -76q0 -52 33 -75.5t109 -23.5z" />
    <glyph glyph-name="Gbreve" unicode="&#x11e;" horiz-adv-x="783" 
d="M410 -11q-199 0 -284 94t-85 288q0 382 374 382q182 0 278 -96l-72 -74q-82 73 -206 73q-139 0 -206 -70.5t-67 -215.5q0 -151 62.5 -221t209.5 -70q132 0 180 52t48 169v21h-239v90h339v-93q0 -82 -14 -138.5t-49.5 -101.5t-102 -67t-166.5 -22zM390 773
q-94 0 -136.5 42t-57.5 120l72 15q11 -49 37 -73t85 -24t85 24t37 73l73 -14q-17 -79 -59.5 -121t-135.5 -42z" />
    <glyph glyph-name="gbreve" unicode="&#x11f;" horiz-adv-x="611" 
d="M295 203q-54 0 -92 7q-13 -16 -13 -34q0 -24 21.5 -31t89.5 -7q156 0 214 -31.5t58 -115.5q0 -90 -64.5 -130t-216.5 -40q-146 0 -205.5 28.5t-59.5 109.5q0 114 106 136q-31 21 -31 67q0 43 25 77q-68 43 -68 143q0 94 56.5 140.5t179.5 46.5q24 0 36 -1l219 31v-80h-90
q72 -39 72 -137q0 -92 -57 -135.5t-180 -43.5zM295 -102q104 0 142 21t38 67q0 42 -38 56t-142 14q-72 0 -111 -11.5t-49 -27.5t-10 -42q0 -44 38.5 -60.5t131.5 -16.5zM295 283q76 0 108.5 23.5t32.5 75.5t-34.5 75.5t-106.5 23.5q-77 0 -109.5 -23t-32.5 -76
q0 -52 33 -75.5t109 -23.5zM304 602q-94 0 -136.5 42t-57.5 120l72 15q11 -49 37 -73t85 -24t85 24t37 73l73 -14q-17 -79 -59.5 -121t-135.5 -42z" />
    <glyph glyph-name="Gdotaccent" unicode="&#x120;" horiz-adv-x="783" 
d="M410 -11q-199 0 -284 94t-85 288q0 382 374 382q182 0 278 -96l-72 -74q-82 73 -206 73q-139 0 -206 -70.5t-67 -215.5q0 -151 62.5 -221t209.5 -70q132 0 180 52t48 169v21h-239v90h339v-93q0 -82 -14 -138.5t-49.5 -101.5t-102 -67t-166.5 -22zM344 783v116h98v-116
h-98z" />
    <glyph glyph-name="gdotaccent" unicode="&#x121;" horiz-adv-x="611" 
d="M295 203q-54 0 -92 7q-13 -16 -13 -34q0 -24 21.5 -31t89.5 -7q156 0 214 -31.5t58 -115.5q0 -90 -64.5 -130t-216.5 -40q-146 0 -205.5 28.5t-59.5 109.5q0 114 106 136q-31 21 -31 67q0 43 25 77q-68 43 -68 143q0 94 56.5 140.5t179.5 46.5q24 0 36 -1l219 31v-80h-90
q72 -39 72 -137q0 -92 -57 -135.5t-180 -43.5zM295 -102q104 0 142 21t38 67q0 42 -38 56t-142 14q-72 0 -111 -11.5t-49 -27.5t-10 -42q0 -44 38.5 -60.5t131.5 -16.5zM295 283q76 0 108.5 23.5t32.5 75.5t-34.5 75.5t-106.5 23.5q-77 0 -109.5 -23t-32.5 -76
q0 -52 33 -75.5t109 -23.5zM256 612v116h98v-116h-98z" />
    <glyph glyph-name="Gcommaaccent" unicode="&#x122;" horiz-adv-x="783" 
d="M357 -267l-24 44q34 17 45 31.5t11 41.5h-53v111h109v-83q0 -62 -17 -90.5t-71 -54.5zM410 -11q-199 0 -284 94t-85 288q0 382 374 382q182 0 278 -96l-72 -74q-82 73 -206 73q-139 0 -206 -70.5t-67 -215.5q0 -151 62.5 -221t209.5 -70q132 0 180 52t48 169v21h-239v90
h339v-93q0 -82 -14 -138.5t-49.5 -101.5t-102 -67t-166.5 -22z" />
    <glyph glyph-name="gcommaaccent" unicode="&#x123;" horiz-adv-x="611" 
d="M250 612v74q0 63 17 91.5t72 54.5l23 -44q-35 -17 -45.5 -31.5t-10.5 -42.5h53v-102h-109zM295 203q-54 0 -92 7q-13 -16 -13 -34q0 -24 21.5 -31t89.5 -7q156 0 214 -31.5t58 -115.5q0 -90 -64.5 -130t-216.5 -40q-146 0 -205.5 28.5t-59.5 109.5q0 114 106 136
q-31 21 -31 67q0 43 25 77q-68 43 -68 143q0 94 56.5 140.5t179.5 46.5q24 0 36 -1l219 31v-80h-90q72 -39 72 -137q0 -92 -57 -135.5t-180 -43.5zM295 -102q104 0 142 21t38 67q0 42 -38 56t-142 14q-72 0 -111 -11.5t-49 -27.5t-10 -42q0 -44 38.5 -60.5t131.5 -16.5z
M295 283q76 0 108.5 23.5t32.5 75.5t-34.5 75.5t-106.5 23.5q-77 0 -109.5 -23t-32.5 -76q0 -52 33 -75.5t109 -23.5z" />
    <glyph glyph-name="Hcircumflex" unicode="&#x124;" horiz-adv-x="787" 
d="M186 784l153 164h105l153 -164h-94l-113 101l-111 -101h-93zM84 0v741h101v-306h417v306h101v-741h-101v335h-417v-335h-101z" />
    <glyph glyph-name="hcircumflex" unicode="&#x125;" horiz-adv-x="632" 
d="M-84 792l153 164h105l153 -164h-94l-113 101l-111 -101h-93zM72 0v776h97v-268q42 61 193 61q64 0 105 -15.5t61 -49t27 -71t7 -94.5v-339h-97v320q0 32 -2 51t-9 41t-21 33.5t-39.5 19.5t-62.5 8q-95 0 -128 -41.5t-33 -123.5v-308h-98z" />
    <glyph glyph-name="Hbar" unicode="&#x126;" horiz-adv-x="787" 
d="M22 544v78h62v119h101v-119h417v119h101v-119h61v-78h-61v-544h-101v335h-417v-335h-101v544h-62zM185 435h417v109h-417v-109z" />
    <glyph glyph-name="hbar" unicode="&#x127;" horiz-adv-x="632" 
d="M72 0v626h-72v68h72v82h97v-82h153v-68h-153v-118q42 61 193 61q64 0 105 -15.5t61 -49t27 -71t7 -94.5v-339h-97v320q0 32 -2 51t-9 41t-21 33.5t-39.5 19.5t-62.5 8q-95 0 -128 -41.5t-33 -123.5v-308h-98z" />
    <glyph glyph-name="Itilde" unicode="&#x128;" horiz-adv-x="284" 
d="M92 0v741h100v-741h-100zM-2 786l-60 47q67 83 134 83q37 0 77 -25t62 -25q32 0 80 55l57 -46q-72 -90 -135 -90q-33 0 -75 25t-64 25q-38 0 -76 -49z" />
    <glyph glyph-name="itilde" unicode="&#x129;" horiz-adv-x="252" 
d="M78 0v556h96v-556h-96zM-18 615l-60 47q67 83 134 83q37 0 77 -25t62 -25q32 0 80 55l57 -46q-72 -90 -135 -90q-33 0 -75 25t-64 25q-38 0 -76 -49z" />
    <glyph glyph-name="Imacron" unicode="&#x12a;" horiz-adv-x="284" 
d="M92 0v741h100v-741h-100zM-44 778v83h376v-83h-376z" />
    <glyph glyph-name="imacron" unicode="&#x12b;" horiz-adv-x="252" 
d="M78 0v556h96v-556h-96zM-60 607v83h376v-83h-376z" />
    <glyph glyph-name="Ibreve" unicode="&#x12c;" horiz-adv-x="284" 
d="M92 0v741h100v-741h-100zM144 773q-94 0 -136.5 42t-57.5 120l72 15q11 -49 37 -73t85 -24t85 24t37 73l73 -14q-17 -79 -59.5 -121t-135.5 -42z" />
    <glyph glyph-name="ibreve" unicode="&#x12d;" horiz-adv-x="252" 
d="M78 0v556h96v-556h-96zM128 602q-94 0 -136.5 42t-57.5 120l72 15q11 -49 37 -73t85 -24t85 24t37 73l73 -14q-17 -79 -59.5 -121t-135.5 -42z" />
    <glyph glyph-name="Iogonek" unicode="&#x12e;" horiz-adv-x="284" 
d="M142 -222q-127 0 -127 100q0 81 77 128v735h100v-741q-96 -57 -96 -107q0 -22 12.5 -34.5t46.5 -12.5q38 0 76 14l24 -59q-48 -23 -113 -23z" />
    <glyph glyph-name="iogonek" unicode="&#x12f;" horiz-adv-x="252" 
d="M124 -222q-127 0 -127 100q0 80 81 128v550h96v-556q-96 -57 -96 -107q0 -22 12.5 -34.5t46.5 -12.5q38 0 76 14l24 -59q-50 -23 -113 -23zM77 623v118h98v-118h-98z" />
    <glyph glyph-name="Idotaccent" unicode="&#x130;" horiz-adv-x="284" 
d="M92 0v741h100v-741h-100zM95 783v116h98v-116h-98z" />
    <glyph glyph-name="dotlessi" unicode="&#x131;" horiz-adv-x="252" 
d="M78 0v556h96v-556h-96z" />
    <glyph glyph-name="IJ" unicode="&#x132;" horiz-adv-x="698" 
d="M92 0v741h100v-741h-100zM395 -1q-55 0 -84 1v93h73q73 0 103.5 29.5t30.5 97.5v521h100v-525q0 -117 -55.5 -167t-167.5 -50z" />
    <glyph glyph-name="ij" unicode="&#x133;" horiz-adv-x="505" 
d="M78 0v556h96v-556h-96zM77 623v118h98v-118h-98zM253 -168v80h8q43 1 55.5 17t12.5 65v562h96v-561q0 -95 -31 -129t-123 -34h-18zM328 623v118h98v-118h-98z" />
    <glyph glyph-name="Jcircumflex" unicode="&#x134;" horiz-adv-x="414" 
d="M80 784l153 164h105l153 -164h-94l-113 101l-111 -101h-93zM112 -1q-55 0 -84 1v93h73q73 0 103.5 29.5t30.5 97.5v521h100v-525q0 -117 -55.5 -167t-167.5 -50z" />
    <glyph glyph-name="jcircumflex" unicode="&#x135;" horiz-adv-x="252" 
d="M2 -168v77h8q43 0 55.5 16t12.5 66v564h96v-563q0 -93 -31 -126.5t-123 -33.5h-18zM-78 613l153 164h105l153 -164h-94l-113 101l-111 -101h-93z" />
    <glyph glyph-name="Kcommaaccent" unicode="&#x136;" horiz-adv-x="719" 
d="M325 -267l-24 44q34 17 45 31.5t11 41.5h-53v111h109v-83q0 -62 -17 -90.5t-71 -54.5zM569 0l-249 375l-137 -153v-222h-99v741h99v-389l349 389h116l-262 -292l298 -449h-115z" />
    <glyph glyph-name="kcommaaccent" unicode="&#x137;" horiz-adv-x="558" 
d="M244 -267l-24 44q34 17 45 31.5t11 41.5h-53v111h109v-83q0 -62 -17 -90.5t-71 -54.5zM72 0v776h96v-506l246 286h108l-197 -231l217 -325h-108l-174 254l-92 -105v-149h-96z" />
    <glyph glyph-name="kgreenlandic" unicode="&#x138;" horiz-adv-x="558" 
d="M72 0v556h96v-286l246 286h108l-197 -231l217 -325h-108l-174 254l-92 -105v-149h-96z" />
    <glyph glyph-name="Lacute" unicode="&#x139;" horiz-adv-x="595" 
d="M92 784l148 164h119l-177 -164h-90zM84 0v741h101v-648h386v-93h-487z" />
    <glyph glyph-name="lacute" unicode="&#x13a;" horiz-adv-x="305" 
d="M79 811l148 164h119l-177 -164h-90zM203 -1q-69 0 -97 32.5t-28 112.5v632h96v-621q0 -41 11.5 -55t50.5 -14h22v-85q-18 -2 -55 -2z" />
    <glyph glyph-name="Lcommaaccent" unicode="&#x13b;" horiz-adv-x="595" 
d="M262 -267l-24 44q34 17 45 31.5t11 41.5h-53v111h109v-83q0 -62 -17 -90.5t-71 -54.5zM84 0v741h101v-648h386v-93h-487z" />
    <glyph glyph-name="lcommaaccent" unicode="&#x13c;" horiz-adv-x="305" 
d="M118 -267l-24 44q34 17 45 31.5t11 41.5h-53v111h109v-83q0 -62 -17 -90.5t-71 -54.5zM203 -1q-69 0 -97 32.5t-28 112.5v632h96v-621q0 -41 11.5 -55t50.5 -14h22v-85q-18 -2 -55 -2z" />
    <glyph glyph-name="Lcaron" unicode="&#x13d;" horiz-adv-x="595" 
d="M301 548l-23 44q34 18 45 32t11 41h-49v111h104v-82q0 -63 -16.5 -91.5t-71.5 -54.5zM84 0v741h101v-648h386v-93h-487z" />
    <glyph glyph-name="lcaron" unicode="&#x13e;" horiz-adv-x="368" 
d="M276 548l-23 44q34 18 45 32t11 41h-49v111h104v-82q0 -63 -16.5 -91.5t-71.5 -54.5zM203 -1q-69 0 -97 32.5t-28 112.5v632h96v-621q0 -41 11.5 -55t50.5 -14h22v-85q-18 -2 -55 -2z" />
    <glyph glyph-name="Ldot" unicode="&#x13f;" horiz-adv-x="641" 
d="M84 0v741h101v-648h386v-93h-487zM396 313v134h122v-134h-122z" />
    <glyph glyph-name="ldot" unicode="&#x140;" horiz-adv-x="521" 
d="M203 -1q-69 0 -97 32.5t-28 112.5v632h96v-621q0 -41 11.5 -55t50.5 -14h22v-85q-18 -2 -55 -2zM326 274v134h122v-134h-122z" />
    <glyph glyph-name="Lslash" unicode="&#x141;" horiz-adv-x="595" 
d="M0 292v87l84 47v315h101v-259l159 89v-87l-159 -89v-302h386v-93h-487v339z" />
    <glyph glyph-name="lslash" unicode="&#x142;" horiz-adv-x="367" 
d="M23 372v83l96 55v266h98v-209l106 62v-84l-106 -61v-332q0 -42 11 -56t49 -14h23v-81q-18 -2 -55 -2q-69 0 -97.5 32.5t-28.5 110.5v285z" />
    <glyph glyph-name="Nacute" unicode="&#x143;" horiz-adv-x="791" 
d="M309 784l148 164h119l-177 -164h-90zM84 0v741h110l415 -571v571h98v-741h-93l-432 593v-593h-98z" />
    <glyph glyph-name="nacute" unicode="&#x144;" horiz-adv-x="632" 
d="M230 613l148 164h119l-177 -164h-90zM72 0v551l77 5l8 -53q49 66 205 66q64 0 105 -15.5t61 -49t27 -71t7 -94.5v-339h-97v320q0 32 -2 51t-9 41t-21 33.5t-39.5 19.5t-62.5 8q-95 0 -128 -41.5t-33 -123.5v-308h-98z" />
    <glyph glyph-name="Ncommaaccent" unicode="&#x145;" horiz-adv-x="791" 
d="M360 -267l-24 44q34 17 45 31.5t11 41.5h-53v111h109v-83q0 -62 -17 -90.5t-71 -54.5zM84 0v741h110l415 -571v571h98v-741h-93l-432 593v-593h-98z" />
    <glyph glyph-name="ncommaaccent" unicode="&#x146;" horiz-adv-x="632" 
d="M280 -267l-24 44q34 17 45 31.5t11 41.5h-53v111h109v-83q0 -62 -17 -90.5t-71 -54.5zM72 0v551l77 5l8 -53q49 66 205 66q64 0 105 -15.5t61 -49t27 -71t7 -94.5v-339h-97v320q0 32 -2 51t-9 41t-21 33.5t-39.5 19.5t-62.5 8q-95 0 -128 -41.5t-33 -123.5v-308h-98z" />
    <glyph glyph-name="Ncaron" unicode="&#x147;" horiz-adv-x="791" 
d="M340 784l-153 164h95l112 -101l112 101h92l-153 -164h-105zM84 0v741h110l415 -571v571h98v-741h-93l-432 593v-593h-98z" />
    <glyph glyph-name="ncaron" unicode="&#x148;" horiz-adv-x="632" 
d="M261 613l-153 164h95l112 -101l112 101h92l-153 -164h-105zM72 0v551l77 5l8 -53q49 66 205 66q64 0 105 -15.5t61 -49t27 -71t7 -94.5v-339h-97v320q0 32 -2 51t-9 41t-21 33.5t-39.5 19.5t-62.5 8q-95 0 -128 -41.5t-33 -123.5v-308h-98z" />
    <glyph glyph-name="napostrophe" unicode="&#x149;" horiz-adv-x="861" 
d="M89 470l-26 52q38 20 50 36.5t12 47.5h-60v135h122v-99q0 -74 -19 -108.5t-79 -63.5zM301 0v551l77 5l8 -53q49 66 205 66q64 0 105 -15.5t61 -49t27 -71t7 -94.5v-339h-97v320q0 32 -2 51t-9 41t-21 33.5t-39.5 19.5t-62.5 8q-95 0 -128 -41.5t-33 -123.5v-308h-98z" />
    <glyph glyph-name="Eng" unicode="&#x14a;" horiz-adv-x="790" 
d="M84 0v741h108l420 -578v578h93v-705q0 -116 -55.5 -166t-166.5 -50q-53 0 -83 2v86h73q65 0 96 25t37 78l-428 589v-600h-94z" />
    <glyph glyph-name="eng" unicode="&#x14b;" horiz-adv-x="632" 
d="M390 -168v77h7q44 0 56 16t12 66v331q0 40 -3.5 63.5t-16 47t-40.5 34t-74 10.5q-95 0 -128 -42.5t-33 -125.5v-309h-98v550l77 5l8 -76q49 89 205 89q64 0 105 -15.5t61 -48.5t27 -70.5t7 -94.5v-353q0 -88 -31.5 -121t-123.5 -33h-17z" />
    <glyph glyph-name="Omacron" unicode="&#x14c;" horiz-adv-x="839" 
d="M230 778v83h376v-83h-376zM419 -12q-378 0 -378 383q0 382 378 382t378 -382q0 -383 -378 -383zM419 82q277 0 277 287t-277 287q-276 0 -276 -287t276 -287z" />
    <glyph glyph-name="omacron" unicode="&#x14d;" horiz-adv-x="639" 
d="M130 607v83h376v-83h-376zM319 -11q-144 0 -209 72t-65 218t65 218t209 72q145 0 210 -72t65 -218t-65 -218t-210 -72zM319 77q95 0 135.5 50t40.5 150t-40.5 149.5t-135.5 49.5t-135.5 -49.5t-40.5 -149.5t40.5 -150t135.5 -50z" />
    <glyph glyph-name="Obreve" unicode="&#x14e;" horiz-adv-x="839" 
d="M419 -12q-378 0 -378 383q0 382 378 382t378 -382q0 -383 -378 -383zM419 82q277 0 277 287t-277 287q-276 0 -276 -287t276 -287zM418 773q-94 0 -136.5 42t-57.5 120l72 15q11 -49 37 -73t85 -24t85 24t37 73l73 -14q-17 -79 -59.5 -121t-135.5 -42z" />
    <glyph glyph-name="obreve" unicode="&#x14f;" horiz-adv-x="639" 
d="M319 -11q-144 0 -209 72t-65 218t65 218t209 72q145 0 210 -72t65 -218t-65 -218t-210 -72zM319 77q95 0 135.5 50t40.5 150t-40.5 149.5t-135.5 49.5t-135.5 -49.5t-40.5 -149.5t40.5 -150t135.5 -50zM318 602q-94 0 -136.5 42t-57.5 120l72 15q11 -49 37 -73t85 -24
t85 24t37 73l73 -14q-17 -79 -59.5 -121t-135.5 -42z" />
    <glyph glyph-name="Ohungarumlaut" unicode="&#x150;" horiz-adv-x="839" 
d="M219 784l126 162h114l-156 -162h-84zM457 784l126 162h113l-154 -162h-85zM419 -12q-378 0 -378 383q0 382 378 382t378 -382q0 -383 -378 -383zM419 82q277 0 277 287t-277 287q-276 0 -276 -287t276 -287z" />
    <glyph glyph-name="ohungarumlaut" unicode="&#x151;" horiz-adv-x="639" 
d="M119 613l126 162h114l-156 -162h-84zM357 613l126 162h113l-154 -162h-85zM319 -11q-144 0 -209 72t-65 218t65 218t209 72q145 0 210 -72t65 -218t-65 -218t-210 -72zM319 77q95 0 135.5 50t40.5 150t-40.5 149.5t-135.5 49.5t-135.5 -49.5t-40.5 -149.5t40.5 -150
t135.5 -50z" />
    <glyph glyph-name="OE" unicode="&#x152;" horiz-adv-x="1261" 
d="M702 0v98q-87 -110 -283 -110q-187 0 -282.5 92.5t-95.5 290.5q0 197 95.5 289.5t282.5 92.5q196 0 283 -110v98h498v-97h-406v-215h396v-93h-396v-243h410v-93h-502zM419 82q146 0 211.5 72t65.5 215t-65.5 215t-211.5 72t-211 -72t-65 -215t65 -215t211 -72z" />
    <glyph glyph-name="oe" unicode="&#x153;" horiz-adv-x="1050" 
d="M768 -11q-167 0 -225 97q-62 -97 -224 -97q-147 0 -210.5 71.5t-63.5 218.5t63.5 218.5t210.5 71.5q163 0 224 -98q58 98 223 98q57 0 99 -12.5t67 -35t41 -53t20.5 -67t7 -77.5t-0.5 -83h-410q4 -83 42.5 -125.5t135.5 -42.5q62 0 101 13.5t76 41.5l53 -68
q-48 -37 -100.5 -54t-129.5 -17zM319 77q95 0 135.5 50t40.5 150t-40.5 149.5t-135.5 49.5t-135.5 -49.5t-40.5 -149.5t40.5 -150t135.5 -50zM763 483q-90 0 -127.5 -40t-44.5 -117h317q-2 41 -6.5 63t-18 47t-43 36t-77.5 11z" />
    <glyph glyph-name="Racute" unicode="&#x154;" horiz-adv-x="732" 
d="M280 784l148 164h119l-177 -164h-90zM555 0l-165 285h-207v-285h-99v741h330q137 0 198.5 -56t61.5 -168q0 -193 -179 -225l168 -292h-108zM183 378h230q81 0 120 29.5t39 105.5t-39 105t-123 29h-227v-269z" />
    <glyph glyph-name="racute" unicode="&#x155;" horiz-adv-x="371" 
d="M110 613l148 164h119l-177 -164h-90zM72 0v551l77 5l10 -68q17 31 67 52.5t121 22.5v-98q-95 -1 -136 -45.5t-41 -126.5v-293h-98z" />
    <glyph glyph-name="Rcommaaccent" unicode="&#x156;" horiz-adv-x="732" 
d="M332 -267l-24 44q34 17 45 31.5t11 41.5h-53v111h109v-83q0 -62 -17 -90.5t-71 -54.5zM555 0l-165 285h-207v-285h-99v741h330q137 0 198.5 -56t61.5 -168q0 -193 -179 -225l168 -292h-108zM183 378h230q81 0 120 29.5t39 105.5t-39 105t-123 29h-227v-269z" />
    <glyph glyph-name="rcommaaccent" unicode="&#x157;" horiz-adv-x="371" 
d="M89 -267l-24 44q34 17 45 31.5t11 41.5h-53v111h109v-83q0 -62 -17 -90.5t-71 -54.5zM72 0v551l77 5l10 -68q17 31 67 52.5t121 22.5v-98q-95 -1 -136 -45.5t-41 -126.5v-293h-98z" />
    <glyph glyph-name="Rcaron" unicode="&#x158;" horiz-adv-x="732" 
d="M311 784l-153 164h95l112 -101l112 101h92l-153 -164h-105zM555 0l-165 285h-207v-285h-99v741h330q137 0 198.5 -56t61.5 -168q0 -193 -179 -225l168 -292h-108zM183 378h230q81 0 120 29.5t39 105.5t-39 105t-123 29h-227v-269z" />
    <glyph glyph-name="rcaron" unicode="&#x159;" horiz-adv-x="363" 
d="M130 613l-153 164h95l112 -101l112 101h92l-153 -164h-105zM72 0v551l77 5l10 -68q17 31 67 52.5t121 22.5v-98q-95 -1 -136 -45.5t-41 -126.5v-293h-98z" />
    <glyph glyph-name="Sacute" unicode="&#x15a;" horiz-adv-x="713" 
d="M271 784l148 164h119l-177 -164h-90zM355 -10q-188 0 -319 88l51 78q118 -77 265 -77q112 0 160 30.5t48 98.5q0 27 -10.5 47t-25 32t-46 21.5t-55.5 14.5t-72 13q-59 10 -95 18t-74.5 23.5t-59 36.5t-34 54.5t-13.5 78.5q0 110 68 158t210 48q167 0 270 -68l-55 -83
q-87 58 -215 58q-95 0 -136.5 -26t-41.5 -85q0 -25 9.5 -43t23.5 -29.5t43 -21t54 -15t71 -13.5q43 -7 68.5 -12t59.5 -14.5t54 -19t42 -25.5t33.5 -35.5t19 -46.5t7.5 -61q0 -113 -73.5 -168t-231.5 -55z" />
    <glyph glyph-name="sacute" unicode="&#x15b;" horiz-adv-x="536" 
d="M184 613l148 164h119l-177 -164h-90zM265 -10q-143 0 -240 65l50 76q87 -56 196 -56q74 0 104 16.5t30 65.5q0 38 -27 52.5t-107 28.5q-46 8 -73.5 14.5t-59 19.5t-47.5 29.5t-27 44t-11 64.5q0 79 51.5 119t166.5 40q128 0 212 -49l-46 -80q-71 39 -164 39
q-69 0 -96 -17t-27 -52q0 -37 26 -52.5t99 -28.5q51 -9 77 -15t59.5 -18.5t49 -28.5t27 -42.5t11.5 -63.5q0 -94 -54.5 -132.5t-179.5 -38.5z" />
    <glyph glyph-name="Scircumflex" unicode="&#x15c;" horiz-adv-x="713" 
d="M137 784l153 164h105l153 -164h-94l-113 101l-111 -101h-93zM355 -10q-188 0 -319 88l51 78q118 -77 265 -77q112 0 160 30.5t48 98.5q0 27 -10.5 47t-25 32t-46 21.5t-55.5 14.5t-72 13q-59 10 -95 18t-74.5 23.5t-59 36.5t-34 54.5t-13.5 78.5q0 110 68 158t210 48
q167 0 270 -68l-55 -83q-87 58 -215 58q-95 0 -136.5 -26t-41.5 -85q0 -25 9.5 -43t23.5 -29.5t43 -21t54 -15t71 -13.5q43 -7 68.5 -12t59.5 -14.5t54 -19t42 -25.5t33.5 -35.5t19 -46.5t7.5 -61q0 -113 -73.5 -168t-231.5 -55z" />
    <glyph glyph-name="scircumflex" unicode="&#x15d;" horiz-adv-x="536" 
d="M59 613l153 164h105l153 -164h-94l-113 101l-111 -101h-93zM265 -10q-143 0 -240 65l50 76q87 -56 196 -56q74 0 104 16.5t30 65.5q0 38 -27 52.5t-107 28.5q-46 8 -73.5 14.5t-59 19.5t-47.5 29.5t-27 44t-11 64.5q0 79 51.5 119t166.5 40q128 0 212 -49l-46 -80
q-71 39 -164 39q-69 0 -96 -17t-27 -52q0 -37 26 -52.5t99 -28.5q51 -9 77 -15t59.5 -18.5t49 -28.5t27 -42.5t11.5 -63.5q0 -94 -54.5 -132.5t-179.5 -38.5z" />
    <glyph glyph-name="Scedilla" unicode="&#x15e;" horiz-adv-x="713" 
d="M361 -232q-68 0 -121 30l27 51q44 -23 90 -23q43 0 59 12.5t16 36.5q0 27 -20.5 36t-71.5 6l-24 17l11 57q-171 6 -291 87l51 78q118 -77 265 -77q112 0 160 30.5t48 98.5q0 27 -10.5 47t-25 32t-46 21.5t-55.5 14.5t-72 13q-59 10 -95 18t-74.5 23.5t-59 36.5t-34 54.5
t-13.5 78.5q0 110 68 158t210 48q167 0 270 -68l-55 -83q-87 58 -215 58q-95 0 -136.5 -26t-41.5 -85q0 -25 9.5 -43t23.5 -29.5t43 -21t54 -15t71 -13.5q43 -7 68.5 -12t59.5 -14.5t54 -19t42 -25.5t33.5 -35.5t19 -46.5t7.5 -61q0 -107 -66 -162t-208 -60l-6 -35
q26 1 45 -1t37 -10.5t27.5 -27.5t9.5 -48q0 -101 -138 -101z" />
    <glyph glyph-name="scedilla" unicode="&#x15f;" horiz-adv-x="536" 
d="M274 -232q-68 0 -121 30l27 51q44 -23 90 -23q43 0 59 12.5t16 36.5q0 27 -20.5 36t-71.5 6l-24 17l11 57q-128 5 -215 64l50 76q87 -56 196 -56q74 0 104 16.5t30 65.5q0 38 -27 52.5t-107 28.5q-46 8 -73.5 14.5t-59 19.5t-47.5 29.5t-27 44t-11 64.5q0 79 51.5 119
t166.5 40q128 0 212 -49l-46 -80q-71 39 -164 39q-69 0 -96 -17t-27 -52q0 -37 26 -52.5t99 -28.5q51 -9 77 -15t59.5 -18.5t49 -28.5t27 -42.5t11.5 -63.5q0 -88 -47 -126.5t-153 -43.5l-6 -35q26 1 45 -1t37 -10.5t27.5 -27.5t9.5 -48q0 -101 -138 -101z" />
    <glyph glyph-name="Scaron" unicode="&#x160;" horiz-adv-x="713" 
d="M302 784l-153 164h95l112 -101l112 101h92l-153 -164h-105zM355 -10q-188 0 -319 88l51 78q118 -77 265 -77q112 0 160 30.5t48 98.5q0 27 -10.5 47t-25 32t-46 21.5t-55.5 14.5t-72 13q-59 10 -95 18t-74.5 23.5t-59 36.5t-34 54.5t-13.5 78.5q0 110 68 158t210 48
q167 0 270 -68l-55 -83q-87 58 -215 58q-95 0 -136.5 -26t-41.5 -85q0 -25 9.5 -43t23.5 -29.5t43 -21t54 -15t71 -13.5q43 -7 68.5 -12t59.5 -14.5t54 -19t42 -25.5t33.5 -35.5t19 -46.5t7.5 -61q0 -113 -73.5 -168t-231.5 -55z" />
    <glyph glyph-name="scaron" unicode="&#x161;" horiz-adv-x="536" 
d="M215 613l-153 164h95l112 -101l112 101h92l-153 -164h-105zM265 -10q-143 0 -240 65l50 76q87 -56 196 -56q74 0 104 16.5t30 65.5q0 38 -27 52.5t-107 28.5q-46 8 -73.5 14.5t-59 19.5t-47.5 29.5t-27 44t-11 64.5q0 79 51.5 119t166.5 40q128 0 212 -49l-46 -80
q-71 39 -164 39q-69 0 -96 -17t-27 -52q0 -37 26 -52.5t99 -28.5q51 -9 77 -15t59.5 -18.5t49 -28.5t27 -42.5t11.5 -63.5q0 -94 -54.5 -132.5t-179.5 -38.5z" />
    <glyph glyph-name="Tcommaaccent" unicode="&#x162;" horiz-adv-x="693" 
d="M312 -267l-24 44q34 17 45 31.5t11 41.5h-53v111h109v-83q0 -62 -17 -90.5t-71 -54.5zM296 0v644h-272v97h646v-97h-272v-644h-102z" />
    <glyph glyph-name="Tcommaaccent" unicode="&#x21a;" horiz-adv-x="693" 
d="M312 -267l-24 44q34 17 45 31.5t11 41.5h-53v111h109v-83q0 -62 -17 -90.5t-71 -54.5zM296 0v644h-272v97h646v-97h-272v-644h-102z" />
    <glyph glyph-name="tcommaaccent" unicode="&#x163;" horiz-adv-x="418" 
d="M147 -267l-24 44q34 17 45 31.5t11 41.5h-53v111h109v-83q0 -62 -17 -90.5t-71 -54.5zM29 468v88h101l17 158l77 15v-173h147v-88h-147v-303q0 -42 14.5 -60.5t65.5 -18.5h67v-86q-12 -1 -84 -1q-94 0 -127 35.5t-33 117.5v316h-98z" />
    <glyph glyph-name="tcommaaccent" unicode="&#x21b;" horiz-adv-x="418" 
d="M147 -267l-24 44q34 17 45 31.5t11 41.5h-53v111h109v-83q0 -62 -17 -90.5t-71 -54.5zM29 468v88h101l17 158l77 15v-173h147v-88h-147v-303q0 -42 14.5 -60.5t65.5 -18.5h67v-86q-12 -1 -84 -1q-94 0 -127 35.5t-33 117.5v316h-98z" />
    <glyph glyph-name="Tcaron" unicode="&#x164;" horiz-adv-x="693" 
d="M292 784l-153 164h95l112 -101l112 101h92l-153 -164h-105zM296 0v644h-272v97h646v-97h-272v-644h-102z" />
    <glyph glyph-name="tcaron" unicode="&#x165;" horiz-adv-x="418" 
d="M322 647l-23 43q33 17 44 31.5t11 41.5h-47v106h100v-80q0 -62 -16 -89.5t-69 -52.5zM29 468v88h101l17 158l77 15v-173h147v-88h-147v-303q0 -42 14.5 -60.5t65.5 -18.5h67v-86q-12 -1 -84 -1q-94 0 -127 35.5t-33 117.5v316h-98z" />
    <glyph glyph-name="Tbar" unicode="&#x166;" horiz-adv-x="693" 
d="M155 312v82h141v250h-272v97h646v-97h-272v-250h140v-82h-140v-312h-102v312h-141z" />
    <glyph glyph-name="tbar" unicode="&#x167;" horiz-adv-x="418" 
d="M29 468v88h101l17 158l77 15v-173h147v-88h-147v-134h147v-79h-147v-90q0 -42 14.5 -60.5t65.5 -18.5h67v-86q-12 -1 -84 -1q-94 0 -127 35.5t-33 117.5v103h-98v79h98v134h-98z" />
    <glyph glyph-name="Utilde" unicode="&#x168;" horiz-adv-x="788" 
d="M393 -13q-80 0 -138.5 16.5t-91.5 41.5t-52.5 64.5t-25.5 76.5t-6 86v469h101v-457q0 -101 45 -151.5t169 -50.5q125 0 171.5 50.5t46.5 151.5v457h98v-469q0 -49 -6 -86.5t-26 -76.5t-54 -64.5t-92.5 -41.5t-138.5 -16zM252 786l-60 47q67 83 134 83q37 0 77 -25t62 -25
q32 0 80 55l57 -46q-72 -90 -135 -90q-33 0 -75 25t-64 25q-38 0 -76 -49z" />
    <glyph glyph-name="utilde" unicode="&#x169;" horiz-adv-x="625" 
d="M314 -10q-79 0 -128.5 15t-74.5 49.5t-33.5 76t-8.5 107.5v318h97v-320q0 -28 1 -42.5t5 -36.5t13 -33t25 -23t42 -17t62 -5t62 5t42 17t25 23t13 34t4.5 37t0.5 44v317h95v-315q0 -68 -8 -109.5t-32.5 -76.5t-73.5 -50t-128 -15zM169 615l-60 47q67 83 134 83
q37 0 77 -25t62 -25q32 0 80 55l57 -46q-72 -90 -135 -90q-33 0 -75 25t-64 25q-38 0 -76 -49z" />
    <glyph glyph-name="Umacron" unicode="&#x16a;" horiz-adv-x="788" 
d="M393 -13q-80 0 -138.5 16.5t-91.5 41.5t-52.5 64.5t-25.5 76.5t-6 86v469h101v-457q0 -101 45 -151.5t169 -50.5q125 0 171.5 50.5t46.5 151.5v457h98v-469q0 -49 -6 -86.5t-26 -76.5t-54 -64.5t-92.5 -41.5t-138.5 -16zM204 778v83h376v-83h-376z" />
    <glyph glyph-name="umacron" unicode="&#x16b;" horiz-adv-x="625" 
d="M314 -10q-79 0 -128.5 15t-74.5 49.5t-33.5 76t-8.5 107.5v318h97v-320q0 -28 1 -42.5t5 -36.5t13 -33t25 -23t42 -17t62 -5t62 5t42 17t25 23t13 34t4.5 37t0.5 44v317h95v-315q0 -68 -8 -109.5t-32.5 -76.5t-73.5 -50t-128 -15zM123 607v83h376v-83h-376z" />
    <glyph glyph-name="Ubreve" unicode="&#x16c;" horiz-adv-x="788" 
d="M393 -13q-80 0 -138.5 16.5t-91.5 41.5t-52.5 64.5t-25.5 76.5t-6 86v469h101v-457q0 -101 45 -151.5t169 -50.5q125 0 171.5 50.5t46.5 151.5v457h98v-469q0 -49 -6 -86.5t-26 -76.5t-54 -64.5t-92.5 -41.5t-138.5 -16zM393 773q-94 0 -136.5 42t-57.5 120l72 15
q11 -49 37 -73t85 -24t85 24t37 73l73 -14q-17 -79 -59.5 -121t-135.5 -42z" />
    <glyph glyph-name="ubreve" unicode="&#x16d;" horiz-adv-x="625" 
d="M314 -10q-79 0 -128.5 15t-74.5 49.5t-33.5 76t-8.5 107.5v318h97v-320q0 -28 1 -42.5t5 -36.5t13 -33t25 -23t42 -17t62 -5t62 5t42 17t25 23t13 34t4.5 37t0.5 44v317h95v-315q0 -68 -8 -109.5t-32.5 -76.5t-73.5 -50t-128 -15zM311 602q-94 0 -136.5 42t-57.5 120
l72 15q11 -49 37 -73t85 -24t85 24t37 73l73 -14q-17 -79 -59.5 -121t-135.5 -42z" />
    <glyph glyph-name="Uring" unicode="&#x16e;" horiz-adv-x="788" 
d="M392 772q-64 0 -95 35.5t-31 93.5q0 59 31 95t95 36q61 0 93 -36.5t32 -94.5t-32 -93.5t-93 -35.5zM392 826q36 0 53.5 20.5t17.5 54.5t-17.5 54.5t-53.5 20.5q-72 0 -72 -75t72 -75zM393 -13q-80 0 -138.5 16.5t-91.5 41.5t-52.5 64.5t-25.5 76.5t-6 86v469h101v-457
q0 -101 45 -151.5t169 -50.5q125 0 171.5 50.5t46.5 151.5v457h98v-469q0 -49 -6 -86.5t-26 -76.5t-54 -64.5t-92.5 -41.5t-138.5 -16z" />
    <glyph glyph-name="uring" unicode="&#x16f;" horiz-adv-x="625" 
d="M311 601q-64 0 -95 35.5t-31 93.5q0 59 31 95t95 36q61 0 93 -36.5t32 -94.5t-32 -93.5t-93 -35.5zM311 655q36 0 53.5 20.5t17.5 54.5t-17.5 54.5t-53.5 20.5q-72 0 -72 -75t72 -75zM314 -10q-79 0 -128.5 15t-74.5 49.5t-33.5 76t-8.5 107.5v318h97v-320q0 -28 1 -42.5
t5 -36.5t13 -33t25 -23t42 -17t62 -5t62 5t42 17t25 23t13 34t4.5 37t0.5 44v317h95v-315q0 -68 -8 -109.5t-32.5 -76.5t-73.5 -50t-128 -15z" />
    <glyph glyph-name="Uhungarumlaut" unicode="&#x170;" horiz-adv-x="788" 
d="M393 -13q-80 0 -138.5 16.5t-91.5 41.5t-52.5 64.5t-25.5 76.5t-6 86v469h101v-457q0 -101 45 -151.5t169 -50.5q125 0 171.5 50.5t46.5 151.5v457h98v-469q0 -49 -6 -86.5t-26 -76.5t-54 -64.5t-92.5 -41.5t-138.5 -16zM193 784l126 162h114l-156 -162h-84zM431 784
l126 162h113l-154 -162h-85z" />
    <glyph glyph-name="uhungarumlaut" unicode="&#x171;" horiz-adv-x="625" 
d="M314 -10q-79 0 -128.5 15t-74.5 49.5t-33.5 76t-8.5 107.5v318h97v-320q0 -28 1 -42.5t5 -36.5t13 -33t25 -23t42 -17t62 -5t62 5t42 17t25 23t13 34t4.5 37t0.5 44v317h95v-315q0 -68 -8 -109.5t-32.5 -76.5t-73.5 -50t-128 -15zM112 613l126 162h114l-156 -162h-84z
M350 613l126 162h113l-154 -162h-85z" />
    <glyph glyph-name="Uogonek" unicode="&#x172;" horiz-adv-x="788" 
d="M503 -220q-72 0 -98 24t-26 69q0 66 77 118q-25 -4 -63 -4q-80 0 -138.5 16t-91.5 41t-52.5 64.5t-25.5 76.5t-6 86v470h101v-459q0 -49 8.5 -84t31 -63.5t66 -43t108.5 -14.5q126 0 172 51t46 154v459h98v-470q0 -46 -6 -81.5t-20.5 -70t-43 -61t-71.5 -45.5
q-56 -27 -87.5 -62.5t-31.5 -67.5q0 -22 14 -34t53 -12q46 0 90 22l20 -49q-64 -30 -124 -30z" />
    <glyph glyph-name="uogonek" unicode="&#x173;" horiz-adv-x="625" 
d="M400 -220q-72 0 -97.5 23.5t-25.5 69.5q0 66 77 118q-11 -2 -42 -2q-63 0 -107 11t-70.5 29.5t-41 51t-19.5 67.5t-5 87v320h97v-321q0 -35 1 -52t8.5 -41.5t22.5 -36t44 -20.5t72 -9q27 0 48.5 3t37 10t26 13.5t17.5 20.5t10.5 23t5 28.5t2 30t0.5 33.5v318h95v-316
q0 -97 -20.5 -150t-82.5 -83q-47 -23 -76 -57.5t-29 -65.5q0 -22 14 -34t52 -12q47 0 91 22l20 -49q-64 -30 -125 -30z" />
    <glyph glyph-name="Wcircumflex" unicode="&#x174;" horiz-adv-x="1083" 
d="M336 784l153 164h105l153 -164h-94l-113 101l-111 -101h-93zM267 -5l-236 746h105l180 -577l184 577h89l184 -577l180 577h99l-235 -746h-89l-186 581l-185 -581h-90z" />
    <glyph glyph-name="wcircumflex" unicode="&#x175;" horiz-adv-x="888" 
d="M236 613l153 164h105l153 -164h-94l-113 101l-111 -101h-93zM208 -5l-195 561h102l144 -420l138 420h96l138 -419l145 419h99l-196 -561h-97l-138 414l-138 -414h-98z" />
    <glyph glyph-name="Ycircumflex" unicode="&#x176;" horiz-adv-x="716" 
d="M308 0v280l-298 461h110l239 -369l241 369h105l-297 -459v-282h-100zM150 784l153 164h105l153 -164h-94l-113 101l-111 -101h-93z" />
    <glyph glyph-name="ycircumflex" unicode="&#x177;" horiz-adv-x="544" 
d="M128 -168q-39 0 -51 1v79h43q41 0 58.5 10.5t27.5 40.5l17 43l-216 550h104l163 -434l162 434h102l-236 -603q-25 -66 -63 -93.5t-111 -27.5zM69 613l153 164h105l153 -164h-94l-113 101l-111 -101h-93z" />
    <glyph glyph-name="Ydieresis" unicode="&#x178;" horiz-adv-x="716" 
d="M308 0v280l-298 461h110l239 -369l241 369h105l-297 -459v-282h-100zM204 787v112h89v-112h-89zM420 787v112h88v-112h-88z" />
    <glyph glyph-name="Zacute" unicode="&#x179;" horiz-adv-x="672" 
d="M251 784l148 164h119l-177 -164h-90zM42 0v80l448 564h-431v97h558v-88l-446 -560h457v-93h-586z" />
    <glyph glyph-name="zacute" unicode="&#x17a;" horiz-adv-x="512" 
d="M174 613l148 164h119l-177 -164h-90zM30 0v71l317 397h-301v88h428v-73l-318 -400h329v-83h-455z" />
    <glyph glyph-name="Zdotaccent" unicode="&#x17b;" horiz-adv-x="672" 
d="M42 0v80l448 564h-431v97h558v-88l-446 -560h457v-93h-586zM286 783v116h98v-116h-98z" />
    <glyph glyph-name="zdotaccent" unicode="&#x17c;" horiz-adv-x="512" 
d="M30 0v71l317 397h-301v88h428v-73l-318 -400h329v-83h-455zM209 612v116h98v-116h-98z" />
    <glyph glyph-name="Zcaron" unicode="&#x17d;" horiz-adv-x="672" 
d="M282 784l-153 164h95l112 -101l112 101h92l-153 -164h-105zM42 0v80l448 564h-431v97h558v-88l-446 -560h457v-93h-586z" />
    <glyph glyph-name="zcaron" unicode="&#x17e;" horiz-adv-x="512" 
d="M205 613l-153 164h95l112 -101l112 101h92l-153 -164h-105zM30 0v71l317 397h-301v88h428v-73l-318 -400h329v-83h-455z" />
    <glyph glyph-name="longs" unicode="&#x17f;" horiz-adv-x="400" 
d="M134 0v606q0 88 39 134t138 46q55 0 64 -1v-81h-52q-52 0 -72 -25t-20 -72v-607h-97z" />
    <glyph glyph-name="florin" unicode="&#x192;" horiz-adv-x="553" 
d="M87 366v88h124l27 125q8 41 17.5 65.5t29.5 49t56.5 36t90.5 11.5h39v-92h-34q-30 0 -50 -7t-31 -22.5t-16.5 -30t-10.5 -39.5l-21 -96h163v-88h-181l-113 -532h-98l113 532h-105z" />
    <glyph glyph-name="Ohorn" unicode="&#x1a0;" horiz-adv-x="839" 
d="M419 -12q-378 0 -378 383q0 382 378 382q138 0 227 -52q38 1 54.5 19.5t17.5 40.5h-48v113h104v-103q0 -84 -74 -112q97 -95 97 -288q0 -383 -378 -383zM419 82q277 0 277 287t-277 287q-276 0 -276 -287t276 -287z" />
    <glyph glyph-name="ohorn" unicode="&#x1a1;" horiz-adv-x="648" 
d="M319 -11q-144 0 -209 72t-65 218t65 218t209 72q103 0 167 -38q62 5 67 59h-49v112h104v-101q0 -85 -72 -113q58 -70 58 -209q0 -146 -65 -218t-210 -72zM319 77q95 0 135.5 50t40.5 150t-40.5 149.5t-135.5 49.5t-135.5 -49.5t-40.5 -149.5t40.5 -150t135.5 -50z" />
    <glyph glyph-name="Uhorn" unicode="&#x1af;" horiz-adv-x="805" 
d="M393 -13q-80 0 -138.5 16.5t-91.5 41.5t-52.5 64.5t-25.5 76.5t-6 86v469h101v-457q0 -101 45 -151.5t169 -50.5q125 0 171.5 50.5t46.5 151.5v457h81q39 1 56.5 19t18.5 41h-48v112h103v-102q0 -48 -27.5 -81.5t-85.5 -39.5v-418q0 -49 -6 -86.5t-26 -76.5t-54 -64.5
t-92.5 -41.5t-138.5 -16z" />
    <glyph glyph-name="uhorn" unicode="&#x1b0;" horiz-adv-x="668" 
d="M314 -10q-79 0 -128.5 15t-74.5 49.5t-33.5 76t-8.5 107.5v318h97v-320q0 -28 1 -42.5t5 -36.5t13 -33t25 -23t42 -17t62 -5t62 5t42 17t25 23t13 34t4.5 37t0.5 44v317h94q32 4 46.5 21t14.5 37h-48v113h104v-102q0 -48 -28.5 -82.5t-87.5 -39.5v-262q0 -68 -8 -109.5
t-32.5 -76.5t-73.5 -50t-128 -15z" />
    <glyph glyph-name="Aringacute" unicode="&#x1fa;" horiz-adv-x="742" 
d="M285 970l148 164h119l-177 -164h-90zM22 0l279 700q-56 32 -56 113q0 58 31 93.5t94 35.5q62 0 94 -36t32 -93q0 -81 -56 -112l280 -701h-103l-62 155h-372l-60 -155h-101zM219 248h300l-150 377zM370 738q72 0 72 75q0 76 -72 76q-36 0 -54 -21t-18 -55q0 -75 72 -75z
" />
    <glyph glyph-name="aringacute" unicode="&#x1fb;" horiz-adv-x="627" 
d="M238 -10q-112 0 -155.5 44.5t-43.5 123.5q0 118 78.5 161t288.5 43h30q-2 65 -28.5 90.5t-110.5 25.5q-89 0 -164 -47l-51 76q34 23 95.5 42.5t128.5 19.5q71 0 115 -12t68 -41t32.5 -68t8.5 -102v-198q0 -41 8.5 -51.5t46.5 -10.5v-85q-7 -2 -40 -2q-45 0 -64.5 14
t-30.5 49q-51 -72 -212 -72zM254 74q96 0 139 40.5t43 130.5v34h-25q-116 0 -175 -10.5t-81.5 -34t-22.5 -69.5q0 -47 27 -69t95 -22zM230 897l148 164h119l-177 -164h-90zM314 601q-64 0 -95 35.5t-31 93.5q0 59 31 95t95 36q61 0 93 -36.5t32 -94.5t-32 -93.5t-93 -35.5z
M314 655q36 0 53.5 20.5t17.5 54.5t-17.5 54.5t-53.5 20.5q-72 0 -72 -75t72 -75z" />
    <glyph glyph-name="AEacute" unicode="&#x1fc;" horiz-adv-x="1091" 
d="M437 784l148 164h119l-177 -164h-90zM15 0l466 741h550v-97h-407v-215h397v-93h-397v-243h411v-93h-508v156h-312l-100 -156h-100zM266 243h261v408z" />
    <glyph glyph-name="aeacute" unicode="&#x1fd;" horiz-adv-x="986" 
d="M378 613l148 164h119l-177 -164h-90zM705 -11q-173 0 -229 102q-33 -59 -87.5 -80t-148.5 -21q-106 0 -153.5 41t-47.5 127q0 117 81 160.5t286 43.5h30q-2 65 -28.5 90.5t-110.5 25.5q-89 0 -166 -46l-49 75q34 23 95.5 42.5t128.5 19.5q150 0 188 -77q59 77 208 77
q57 0 99.5 -12.5t67 -35t40.5 -53t20.5 -67t7 -77.5t-0.5 -83h-410q4 -83 42.5 -125.5t136.5 -42.5q62 0 100.5 13.5t75.5 41.5l53 -68q-48 -36 -100 -53.5t-129 -17.5zM255 74q96 0 138.5 40.5t42.5 130.5v34h-25q-115 0 -173.5 -10t-82 -33.5t-23.5 -70.5t27 -69t96 -22z
M700 483q-90 0 -128 -40t-45 -117h317q-2 40 -6 63t-18 47.5t-43.5 35.5t-76.5 11z" />
    <glyph glyph-name="Oslashacute" unicode="&#x1fe;" horiz-adv-x="839" 
d="M419 -12q-93 0 -162 22l-29 -51h-97l49 86q-139 90 -139 326q0 197 95.5 289.5t282.5 92.5q84 0 152 -20l29 50h96l-47 -82q148 -87 148 -330q0 -198 -95 -290.5t-283 -92.5zM419 79q148 0 214 73t66 217q0 180 -102 247l-296 -522q49 -15 118 -15zM140 369
q0 -173 92 -241l294 518q-50 13 -107 13q-147 0 -213 -73t-66 -217zM334 784l148 164h119l-177 -164h-90z" />
    <glyph glyph-name="oslashacute" unicode="&#x1ff;" horiz-adv-x="639" 
d="M319 -11q-69 0 -119 15l-28 -46h-89l49 81q-87 67 -87 240q0 147 63.5 218.5t210.5 71.5q70 0 119 -16l28 47h89l-48 -82q87 -68 87 -239q0 -147 -64 -218.5t-211 -71.5zM319 75q96 0 137 50.5t41 151.5q0 109 -46 156l-207 -348q30 -10 75 -10zM141 277q0 -108 45 -156
l205 347q-35 10 -72 10q-96 0 -137 -50t-41 -151zM234 613l148 164h119l-177 -164h-90z" />
    <glyph glyph-name="Scommaaccent" unicode="&#x218;" horiz-adv-x="713" 
d="M321 -267l-24 44q34 17 45 31.5t11 41.5h-53v111h109v-83q0 -62 -17 -90.5t-71 -54.5zM355 -10q-188 0 -319 88l51 78q118 -77 265 -77q112 0 160 30.5t48 98.5q0 27 -10.5 47t-25 32t-46 21.5t-55.5 14.5t-72 13q-59 10 -95 18t-74.5 23.5t-59 36.5t-34 54.5t-13.5 78.5
q0 110 68 158t210 48q167 0 270 -68l-55 -83q-87 58 -215 58q-95 0 -136.5 -26t-41.5 -85q0 -25 9.5 -43t23.5 -29.5t43 -21t54 -15t71 -13.5q43 -7 68.5 -12t59.5 -14.5t54 -19t42 -25.5t33.5 -35.5t19 -46.5t7.5 -61q0 -113 -73.5 -168t-231.5 -55z" />
    <glyph glyph-name="scommaaccent" unicode="&#x219;" horiz-adv-x="536" 
d="M232 -267l-24 44q34 17 45 31.5t11 41.5h-53v111h109v-83q0 -62 -17 -90.5t-71 -54.5zM265 -10q-143 0 -240 65l50 76q87 -56 196 -56q74 0 104 16.5t30 65.5q0 38 -27 52.5t-107 28.5q-46 8 -73.5 14.5t-59 19.5t-47.5 29.5t-27 44t-11 64.5q0 79 51.5 119t166.5 40
q128 0 212 -49l-46 -80q-71 39 -164 39q-69 0 -96 -17t-27 -52q0 -37 26 -52.5t99 -28.5q51 -9 77 -15t59.5 -18.5t49 -28.5t27 -42.5t11.5 -63.5q0 -94 -54.5 -132.5t-179.5 -38.5z" />
    <glyph glyph-name="circumflex" unicode="&#x2c6;" horiz-adv-x="590" 
d="M89 613l153 164h105l153 -164h-94l-113 101l-111 -101h-93z" />
    <glyph glyph-name="caron" unicode="&#x2c7;" horiz-adv-x="590" 
d="M242 613l-153 164h95l112 -101l112 101h92l-153 -164h-105z" />
    <glyph glyph-name="breve" unicode="&#x2d8;" horiz-adv-x="590" 
d="M295 602q-94 0 -136.5 42t-57.5 120l72 15q11 -49 37 -73t85 -24t85 24t37 73l73 -14q-17 -79 -59.5 -121t-135.5 -42z" />
    <glyph glyph-name="dotaccent" unicode="&#x2d9;" horiz-adv-x="590" 
d="M246 612v116h98v-116h-98z" />
    <glyph glyph-name="ring" unicode="&#x2da;" horiz-adv-x="590" 
d="M295 601q-64 0 -95 35.5t-31 93.5q0 59 31 95t95 36q61 0 93 -36.5t32 -94.5t-32 -93.5t-93 -35.5zM295 655q36 0 53.5 20.5t17.5 54.5t-17.5 54.5t-53.5 20.5q-72 0 -72 -75t72 -75z" />
    <glyph glyph-name="ogonek" unicode="&#x2db;" horiz-adv-x="590" 
d="M305 -222q-73 0 -101.5 26t-28.5 73q0 42 28.5 76.5t64.5 54.5h89q-49 -28 -75.5 -58.5t-26.5 -56.5q0 -23 12.5 -35t49.5 -12q48 0 86 18l24 -59q-51 -27 -122 -27z" />
    <glyph glyph-name="tilde" unicode="&#x2dc;" horiz-adv-x="590" 
d="M150 615l-60 47q67 83 134 83q37 0 77 -25t62 -25q32 0 80 55l57 -46q-72 -90 -135 -90q-33 0 -75 25t-64 25q-38 0 -76 -49z" />
    <glyph glyph-name="hungarumlaut" unicode="&#x2dd;" horiz-adv-x="590" 
d="M96 613l126 162h114l-156 -162h-84zM334 613l126 162h113l-154 -162h-85z" />
    <glyph glyph-name="hookabovecomb" unicode="&#x309;" horiz-adv-x="590" 
d="M259 557q-5 38 4.5 61t42.5 43q28 17 37 26t9 23q0 35 -61 35q-47 0 -87 -20l-28 59q47 24 119 24q68 0 100.5 -24t32.5 -63q0 -33 -14.5 -53t-45.5 -38q-27 -17 -34.5 -30t-6.5 -43h-68z" />
    <glyph glyph-name="dotbelowcomb" unicode="&#x323;" horiz-adv-x="590" 
d="M246 -180v116h98v-116h-98z" />
    <glyph glyph-name="commaaccent" unicode="&#x326;" horiz-adv-x="253" 
d="M93 -267l-24 44q34 17 45 31.5t11 41.5h-53v111h109v-83q0 -62 -17 -90.5t-71 -54.5z" />
    <glyph glyph-name="uni0340" unicode="&#x340;" horiz-adv-x="590" 
d="M289 613l-177 164h119l148 -164h-90z" />
    <glyph glyph-name="uni0341" unicode="&#x341;" horiz-adv-x="590" 
d="M211 613l148 164h119l-177 -164h-90z" />
    <glyph glyph-name="tonos" unicode="&#x384;" horiz-adv-x="590" 
d="M241 613l70 162h92l-85 -162h-77z" />
    <glyph glyph-name="dieresistonos" unicode="&#x385;" horiz-adv-x="590" 
d="M119 612v109h71v-109h-71zM401 612v109h71v-109h-71zM232 612l65 162h85l-81 -162h-69z" />
    <glyph glyph-name="Alphatonos" unicode="&#x386;" horiz-adv-x="751" 
d="M53 582l70 162h92l-85 -162h-77zM29 0l297 746h103l297 -746h-104l-61 156h-370l-61 -156h-101zM225 249h300l-150 376z" />
    <glyph glyph-name="Epsilontonos" unicode="&#x388;" horiz-adv-x="843" 
d="M53 580l70 162h92l-85 -162h-77zM274 0v741h507v-97h-406v-213h396v-96h-396v-242h410v-93h-511z" />
    <glyph glyph-name="Etatonos" unicode="&#x389;" horiz-adv-x="978" 
d="M53 580l70 162h92l-85 -162h-77zM274 0v741h101v-306h417v306h101v-741h-101v335h-417v-335h-101z" />
    <glyph glyph-name="Iotatonos" unicode="&#x38a;" horiz-adv-x="472" 
d="M53 580l70 162h92l-85 -162h-77zM277 0v741h100v-741h-100z" />
    <glyph glyph-name="Omicrontonos" unicode="&#x38c;" horiz-adv-x="993" 
d="M53 580l70 162h92l-85 -162h-77zM572 -12q-378 0 -378 383q0 382 378 382t378 -382q0 -383 -378 -383zM572 82q277 0 277 287t-277 287q-276 0 -276 -287t276 -287z" />
    <glyph glyph-name="Upsilontonos" unicode="&#x38e;" horiz-adv-x="963" 
d="M53 580l70 162h92l-85 -162h-77zM554 0v280l-298 461h110l239 -369l241 369h105l-297 -459v-282h-100z" />
    <glyph glyph-name="Omegatonos" unicode="&#x38f;" horiz-adv-x="1008" 
d="M578 753q186 0 282.5 -91.5t96.5 -244.5q0 -120 -57.5 -199t-161.5 -102v-27h223v-89h-298v165q192 41 192 238q0 122 -70.5 189.5t-206.5 67.5t-207 -67.5t-71 -189.5q0 -197 192 -238v-165h-298v89h223v27q-103 23 -160.5 102t-57.5 199q0 153 96.5 244.5t282.5 91.5z
M53 580l70 162h92l-85 -162h-77z" />
    <glyph glyph-name="iotadieresistonos" unicode="&#x390;" horiz-adv-x="251" 
d="M-49 612v109h71v-109h-71zM233 612v109h71v-109h-71zM64 612l65 162h85l-81 -162h-69zM78 0v556h96v-556h-96z" />
    <glyph glyph-name="Alpha" unicode="&#x391;" horiz-adv-x="742" 
d="M22 0l297 746h103l297 -746h-104l-61 156h-370l-61 -156h-101zM218 249h300l-150 376z" />
    <glyph glyph-name="Beta" unicode="&#x392;" horiz-adv-x="717" 
d="M84 0v741h327q129 0 188.5 -44.5t59.5 -138.5q0 -140 -93 -169q61 -15 86.5 -59t25.5 -125q0 -112 -66.5 -158.5t-206.5 -46.5h-321zM183 91h233q83 0 121.5 29t38.5 94q0 64 -38.5 92t-123.5 28h-231v-243zM183 428h231q80 0 111.5 30t31.5 86q0 53 -33.5 79t-109.5 26
h-231v-221z" />
    <glyph glyph-name="Gamma" unicode="&#x393;" horiz-adv-x="614" 
d="M185 649v-649h-101v741h493v-92h-392z" />
    <glyph glyph-name="Delta" unicode="&#x394;" horiz-adv-x="742" 
d="M24 0l297 746h100l298 -746h-695zM154 84h428l-214 541z" />
    <glyph glyph-name="Delta" unicode="&#x2206;" horiz-adv-x="742" 
d="M24 0l297 746h100l298 -746h-695zM154 84h428l-214 541z" />
    <glyph glyph-name="Epsilon" unicode="&#x395;" horiz-adv-x="652" 
d="M84 0v741h507v-97h-406v-213h396v-96h-396v-242h410v-93h-511z" />
    <glyph glyph-name="Zeta" unicode="&#x396;" horiz-adv-x="672" 
d="M42 0v80l448 564h-431v97h558v-88l-446 -560h457v-93h-586z" />
    <glyph glyph-name="Eta" unicode="&#x397;" horiz-adv-x="787" 
d="M84 0v741h101v-306h417v306h101v-741h-101v335h-417v-335h-101z" />
    <glyph glyph-name="Theta" unicode="&#x398;" horiz-adv-x="839" 
d="M274 326v89h285v-89h-285zM419 -12q-378 0 -378 383q0 382 378 382t378 -382q0 -383 -378 -383zM419 82q277 0 277 287t-277 287q-276 0 -276 -287t276 -287z" />
    <glyph glyph-name="Iota" unicode="&#x399;" horiz-adv-x="284" 
d="M92 0v741h100v-741h-100z" />
    <glyph glyph-name="Kappa" unicode="&#x39a;" horiz-adv-x="719" 
d="M569 0l-249 375l-137 -153v-222h-99v741h99v-389l349 389h116l-262 -292l298 -449h-115z" />
    <glyph glyph-name="Lambda" unicode="&#x39b;" horiz-adv-x="738" 
d="M22 0l295 746h103l296 -746h-106l-240 619l-242 -619h-106z" />
    <glyph glyph-name="Mu" unicode="&#x39c;" horiz-adv-x="931" 
d="M84 0v741h132l250 -599l251 599h130v-741h-99v572l-242 -572h-84l-241 571v-571h-97z" />
    <glyph glyph-name="Nu" unicode="&#x39d;" horiz-adv-x="791" 
d="M84 0v741h110l415 -571v571h98v-741h-93l-432 593v-593h-98z" />
    <glyph glyph-name="Xi" unicode="&#x39e;" horiz-adv-x="667" 
d="M62 644v97h543v-97h-543zM126 336v96h416v-96h-416zM52 0v94h562v-94h-562z" />
    <glyph glyph-name="Omicron" unicode="&#x39f;" horiz-adv-x="839" 
d="M419 -12q-378 0 -378 383q0 382 378 382t378 -382q0 -383 -378 -383zM419 82q277 0 277 287t-277 287q-276 0 -276 -287t276 -287z" />
    <glyph glyph-name="Pi" unicode="&#x3a0;" horiz-adv-x="728" 
d="M84 0v741h560v-741h-100v651h-361v-651h-99z" />
    <glyph glyph-name="Rho" unicode="&#x3a1;" horiz-adv-x="720" 
d="M84 0v741h333q138 0 200 -56.5t62 -172.5q0 -119 -63 -181.5t-202 -62.5h-231v-268h-99zM183 362h234q82 0 121.5 33.5t39.5 111.5q0 79 -38.5 109.5t-124.5 30.5h-232v-285z" />
    <glyph glyph-name="Sigma" unicode="&#x3a3;" horiz-adv-x="656" 
d="M42 0v76l263 297l-252 284v84h541v-97h-403l238 -271l-248 -280h430v-93h-569z" />
    <glyph glyph-name="Tau" unicode="&#x3a4;" horiz-adv-x="693" 
d="M296 0v644h-272v97h646v-97h-272v-644h-102z" />
    <glyph glyph-name="Upsilon" unicode="&#x3a5;" horiz-adv-x="716" 
d="M308 0v280l-298 461h110l239 -369l241 369h105l-297 -459v-282h-100z" />
    <glyph glyph-name="Phi" unicode="&#x3a6;" horiz-adv-x="871" 
d="M386 0v52q-173 9 -266.5 90t-93.5 229q0 147 93.5 227.5t266.5 90.5v52h101v-52q174 -10 267.5 -90.5t93.5 -227.5q0 -148 -94 -229t-267 -90v-52h-101zM746 369q0 98 -63 158t-196 69v-453q133 9 196 69t63 157zM128 369q0 -98 63 -157.5t195 -68.5v453
q-132 -9 -195 -69t-63 -158z" />
    <glyph glyph-name="Chi" unicode="&#x3a7;" horiz-adv-x="728" 
d="M579 0l-219 312l-212 -312h-112l271 388l-246 353h112l194 -277l189 277h112l-248 -353l273 -388h-114z" />
    <glyph glyph-name="Psi" unicode="&#x3a8;" horiz-adv-x="732" 
d="M315 0v270q-79 4 -130 21.5t-77 51t-35 73t-9 99.5v226h97v-228q0 -30 1.5 -46.5t9.5 -39t23.5 -34.5t45.5 -22t74 -13v383h102v-384q44 3 74 13.5t46 22.5t23.5 35t9 39.5t1.5 48.5v225h96v-223q0 -60 -9.5 -100.5t-36 -74t-76.5 -51.5t-128 -22v-270h-102z" />
    <glyph glyph-name="Omega" unicode="&#x3a9;" horiz-adv-x="858" 
d="M429 753q186 0 282.5 -91.5t96.5 -244.5q0 -120 -57.5 -199t-161.5 -102v-27h223v-89h-298v165q192 41 192 238q0 122 -70.5 189.5t-206.5 67.5t-207 -67.5t-71 -189.5q0 -197 192 -238v-165h-298v89h223v27q-103 23 -160.5 102t-57.5 199q0 153 96.5 244.5t282.5 91.5z
" />
    <glyph glyph-name="Omega" unicode="&#x2126;" horiz-adv-x="858" 
d="M429 753q186 0 282.5 -91.5t96.5 -244.5q0 -120 -57.5 -199t-161.5 -102v-27h223v-89h-298v165q192 41 192 238q0 122 -70.5 189.5t-206.5 67.5t-207 -67.5t-71 -189.5q0 -197 192 -238v-165h-298v89h223v27q-103 23 -160.5 102t-57.5 199q0 153 96.5 244.5t282.5 91.5z
" />
    <glyph glyph-name="Iotadieresis" unicode="&#x3aa;" horiz-adv-x="284" 
d="M-8 795v112h89v-112h-89zM208 795v112h88v-112h-88zM92 0v741h100v-741h-100z" />
    <glyph glyph-name="Upsilondieresis" unicode="&#x3ab;" horiz-adv-x="716" 
d="M204 795v112h89v-112h-89zM420 795v112h88v-112h-88zM308 0v280l-298 461h110l239 -369l241 369h105l-297 -459v-282h-100z" />
    <glyph glyph-name="alphatonos" unicode="&#x3ac;" horiz-adv-x="676" 
d="M268 613l70 162h92l-85 -162h-77zM579 557v-409q0 -41 8.5 -51.5t46.5 -10.5v-85q-7 -2 -40 -2q-46 0 -68.5 14t-32.5 49q-27 -38 -74.5 -54.5t-134.5 -16.5q-131 0 -185 75.5t-54 214.5q0 138 54.5 212.5t187.5 74.5q86 0 134 -16t71 -51l19 62zM305 79q96 0 136 46
t40 156q0 109 -39 152.5t-137 43.5q-91 0 -126 -49t-35 -147q0 -100 35 -151t126 -51z" />
    <glyph glyph-name="epsilontonos" unicode="&#x3ad;" horiz-adv-x="491" 
d="M215 613l70 162h92l-85 -162h-77zM252 -12q-112 0 -159.5 40.5t-47.5 129.5q0 62 22 95t75 46q-43 13 -62 42.5t-19 83.5q0 75 47 109.5t140 34.5q131 0 213 -60l-50 -69q-61 39 -150 39q-57 0 -81.5 -15t-24.5 -51q0 -39 24.5 -56.5t93.5 -17.5h77v-87h-76
q-82 0 -108.5 -20.5t-26.5 -64.5q0 -50 27.5 -70t93.5 -20q87 0 162 45l52 -68q-90 -66 -222 -66z" />
    <glyph glyph-name="etatonos" unicode="&#x3ae;" horiz-adv-x="632" 
d="M279 613l70 162h92l-85 -162h-77zM72 0v551l77 5l8 -53q49 66 205 66q64 0 105 -15.5t61 -49t27 -71t7 -94.5v-504h-97v485q0 32 -2 51t-9 41t-21 33.5t-39.5 19.5t-62.5 8q-95 0 -128 -41.5t-33 -123.5v-308h-98z" />
    <glyph glyph-name="iotatonos" unicode="&#x3af;" horiz-adv-x="252" 
d="M88 613l70 162h92l-85 -162h-77zM78 0v556h96v-556h-96z" />
    <glyph glyph-name="upsilondieresistonos" unicode="&#x3b0;" horiz-adv-x="624" 
d="M135 612v109h71v-109h-71zM417 612v109h71v-109h-71zM248 612l65 162h85l-81 -162h-69zM314 -10q-79 0 -128.5 15t-74.5 49.5t-33.5 76t-8.5 107.5v318h97v-320q0 -28 1 -42.5t5 -36.5t13 -33t25 -23t42 -17t62 -5t62 5t42 17t25 23t13 34t4.5 37t0.5 44v317h95v-315
q0 -68 -8 -109.5t-32.5 -76.5t-73.5 -50t-128 -15z" />
    <glyph glyph-name="alpha" unicode="&#x3b1;" horiz-adv-x="676" 
d="M579 557v-409q0 -41 8.5 -51.5t46.5 -10.5v-85q-7 -2 -40 -2q-46 0 -68.5 14t-32.5 49q-27 -38 -74.5 -54.5t-134.5 -16.5q-131 0 -185 75.5t-54 214.5q0 138 54.5 212.5t187.5 74.5q86 0 134 -16t71 -51l19 62zM305 79q96 0 136 46t40 156q0 109 -39 152.5t-137 43.5
q-91 0 -126 -49t-35 -147q0 -100 35 -151t126 -51z" />
    <glyph glyph-name="beta" unicode="&#x3b2;" horiz-adv-x="660" 
d="M72 -165v701q0 245 257 245q122 0 180 -49t58 -147q0 -138 -102 -176q82 -15 121 -60t39 -133q0 -56 -11.5 -93t-42 -66.5t-89 -43t-147.5 -13.5h-63v88h61q62 0 102.5 9.5t60 29t26.5 41.5t7 54q0 71 -45.5 101t-167.5 30v81q80 0 117.5 30.5t37.5 96.5q0 62 -33.5 91.5
t-109.5 29.5q-160 0 -160 -150v-697h-96z" />
    <glyph glyph-name="gamma" unicode="&#x3b3;" horiz-adv-x="562" 
d="M228 -5l-221 561h104l171 -445l171 445h101l-221 -561h-2v-161h-101v161h-2z" />
    <glyph glyph-name="delta" unicode="&#x3b4;" horiz-adv-x="639" 
d="M319 -11q-143 0 -208.5 70t-65.5 203q0 273 274 273h9l-208 172v69h399v-83h-259l240 -203l1 -1q93 -64 93 -227q0 -273 -275 -273zM319 77q176 0 176 182q0 92 -41 140t-135 48t-135 -48t-41 -140q0 -182 176 -182z" />
    <glyph glyph-name="epsilon" unicode="&#x3b5;" horiz-adv-x="498" 
d="M252 -12q-112 0 -159.5 40.5t-47.5 129.5q0 62 22 95t75 46q-43 13 -62 42.5t-19 83.5q0 75 47 109.5t140 34.5q131 0 213 -60l-50 -69q-61 39 -150 39q-57 0 -81.5 -15t-24.5 -51q0 -39 24.5 -56.5t93.5 -17.5h77v-87h-76q-82 0 -108.5 -20.5t-26.5 -64.5
q0 -50 27.5 -70t93.5 -20q87 0 162 45l52 -68q-90 -66 -222 -66z" />
    <glyph glyph-name="zeta" unicode="&#x3b6;" horiz-adv-x="512" 
d="M309 -151q-69 0 -120 30l26 50q46 -24 91 -24q74 0 74 49q0 23 -18 33t-71 15q-133 8 -189.5 69.5t-56.5 165.5q0 113 67 213t235 243h-301v83h428v-71q-135 -110 -209.5 -194.5t-98 -142t-23.5 -121.5q0 -71 36.5 -113.5t123.5 -51.5q82 -9 114.5 -35.5t32.5 -79.5
q0 -59 -32 -88.5t-109 -29.5z" />
    <glyph glyph-name="eta" unicode="&#x3b7;" horiz-adv-x="632" 
d="M72 0v551l77 5l8 -53q49 66 205 66q64 0 105 -15.5t61 -49t27 -71t7 -94.5v-504h-97v485q0 32 -2 51t-9 41t-21 33.5t-39.5 19.5t-62.5 8q-95 0 -128 -41.5t-33 -123.5v-308h-98z" />
    <glyph glyph-name="theta" unicode="&#x3b8;" horiz-adv-x="741" 
d="M371 -11q-85 0 -144.5 29t-91.5 84.5t-46 124t-14 159.5t14 159t46 123.5t91.5 84t144.5 28.5q68 0 119.5 -19.5t84 -53.5t53 -84.5t29 -108t8.5 -129.5q0 -91 -14 -160t-46 -124t-91 -84t-143 -29zM371 691q-55 0 -93 -19t-59.5 -56t-31.5 -81.5t-12 -105.5h390
q-2 61 -11.5 105.5t-30.5 81.5t-59 56t-93 19zM371 75q103 0 146 68.5t48 194.5h-389q2 -60 12 -105t31 -82t59 -56.5t93 -19.5z" />
    <glyph glyph-name="iota" unicode="&#x3b9;" horiz-adv-x="252" 
d="M78 0v556h96v-556h-96z" />
    <glyph glyph-name="kappa" unicode="&#x3ba;" horiz-adv-x="558" 
d="M72 0v556h96v-286l246 286h108l-197 -231l217 -325h-108l-174 254l-92 -105v-149h-96z" />
    <glyph glyph-name="lambda" unicode="&#x3bb;" horiz-adv-x="559" 
d="M129 777q73 0 113.5 -28t65.5 -93l242 -656h-104l-163 460l-176 -460h-98l227 573l-27 73q-12 30 -30 42t-58 12h-42v75q24 2 50 2z" />
    <glyph glyph-name="uni03BC" unicode="&#x3bc;" horiz-adv-x="634" 
d="M274 -11q-68 0 -111 20v-174h-91v721h97v-318q0 -40 4 -65t17 -48.5t41 -34.5t72 -11q50 0 82.5 12.5t49 37t22.5 52t6 67.5v308h97v-552l-74 -7l-11 61q-50 -69 -201 -69z" />
    <glyph glyph-name="nu" unicode="&#x3bd;" horiz-adv-x="562" 
d="M228 -5l-221 561h104l171 -445l171 445h101l-221 -561h-105z" />
    <glyph glyph-name="xi" unicode="&#x3be;" horiz-adv-x="512" 
d="M309 -151q-69 0 -120 30l26 50q46 -24 91 -24q74 0 74 49q0 22 -18.5 33t-70.5 15q-132 6 -189 61.5t-57 156.5q0 169 173 199q-118 25 -118 142q0 46 21.5 82t58.5 50h-134v83h428v-83h-133q-147 0 -147 -120q0 -60 36 -89.5t134 -33.5v-70q-25 0 -43 -2
q-102 -4 -141 -39t-39 -102q0 -73 39 -110t123 -45q82 -8 114.5 -35t32.5 -80q0 -59 -32 -88.5t-109 -29.5z" />
    <glyph glyph-name="omicron" unicode="&#x3bf;" horiz-adv-x="639" 
d="M319 -11q-144 0 -209 72t-65 218t65 218t209 72q145 0 210 -72t65 -218t-65 -218t-210 -72zM319 77q95 0 135.5 50t40.5 150t-40.5 149.5t-135.5 49.5t-135.5 -49.5t-40.5 -149.5t40.5 -150t135.5 -50z" />
    <glyph glyph-name="pi" unicode="&#x3c0;" horiz-adv-x="636" 
d="M72 0v556h491v-556h-97v470h-298v-470h-96z" />
    <glyph glyph-name="rho" unicode="&#x3c1;" horiz-adv-x="656" 
d="M352 79q90 0 125 49.5t35 147.5q0 99 -34.5 149.5t-125.5 50.5q-99 0 -140.5 -45t-41.5 -155t40.5 -153.5t141.5 -43.5zM346 569q80 0 133.5 -20.5t81.5 -61.5t39 -90t11 -118q0 -138 -54.5 -213t-187.5 -75q-85 0 -131 16t-68 51v-223h-98v444q0 146 65 218t209 72z" />
    <glyph glyph-name="sigma1" unicode="&#x3c2;" horiz-adv-x="569" 
d="M333 -151q-69 0 -121 30l27 50q45 -24 91 -24q74 0 74 49q0 26 -18 34t-70 8q-152 0 -211.5 70t-59.5 212q0 144 60 217.5t215 73.5q133 0 207 -83l-71 -66q-55 55 -136 55q-97 0 -137 -48t-40 -150q0 -103 38.5 -150t140.5 -50q78 -6 115 -27.5t37 -82.5q0 -58 -32 -88
t-109 -30z" />
    <glyph glyph-name="sigma" unicode="&#x3c3;" horiz-adv-x="656" 
d="M319 -11q-144 0 -209 72t-65 218t65 218t209 72q77 0 135 -22h191v-86h-90q39 -68 39 -182q0 -146 -65 -218t-210 -72zM319 77q95 0 135.5 50t40.5 150t-40.5 149.5t-135.5 49.5t-135.5 -49.5t-40.5 -149.5t40.5 -150t135.5 -50z" />
    <glyph glyph-name="tau" unicode="&#x3c4;" horiz-adv-x="533" 
d="M10 469v87h513v-87h-208v-469h-97v469h-208z" />
    <glyph glyph-name="upsilon" unicode="&#x3c5;" horiz-adv-x="625" 
d="M314 -10q-79 0 -128.5 15t-74.5 49.5t-33.5 76t-8.5 107.5v318h97v-320q0 -28 1 -42.5t5 -36.5t13 -33t25 -23t42 -17t62 -5t62 5t42 17t25 23t13 34t4.5 37t0.5 44v317h95v-315q0 -68 -8 -109.5t-32.5 -76.5t-73.5 -50t-128 -15z" />
    <glyph glyph-name="phi" unicode="&#x3c6;" horiz-adv-x="740" 
d="M45 278q0 183 106 243l39 -84q-47 -44 -47 -160q0 -99 39 -147.5t135 -52.5v491h86q157 0 224 -70.5t67 -219.5q0 -144 -63.5 -214.5t-211.5 -74.5v-154h-102v154q-146 4 -209 75t-63 214zM597 277q0 99 -40 146.5t-138 51.5v-398q98 4 138 52t40 148z" />
    <glyph glyph-name="chi" unicode="&#x3c7;" horiz-adv-x="556" 
d="M431 0l-157 220l-152 -220h-106l207 290l-189 266h108l139 -195l137 195h105l-191 -267l208 -289h-109z" />
    <glyph glyph-name="psi" unicode="&#x3c8;" horiz-adv-x="743" 
d="M322 -165v154q-66 1 -112.5 12.5t-74 30.5t-42.5 51.5t-19.5 66.5t-4.5 85v320h97v-321q0 -28 1 -41.5t5 -34.5t13.5 -32t26.5 -23t44.5 -17.5t65.5 -6.5v476h101v-476q33 1 58 6t41 11.5t27.5 19.5t17 23t8 30t3 31.5t0.5 36.5v318h96v-316q0 -52 -5 -87t-19.5 -67.5
t-42 -51.5t-73 -31t-111.5 -13v-154h-101z" />
    <glyph glyph-name="omega" unicode="&#x3c9;" horiz-adv-x="886" 
d="M491 509v-265q0 -95 31 -131t90 -36q65 0 93.5 38t28.5 124q0 62 -19 125t-71 151l79 48q61 -99 84 -176.5t23 -159.5q0 -238 -207 -238q-78 0 -120.5 34t-59.5 107q-17 -73 -59.5 -107t-119.5 -34q-208 0 -208 238q0 82 23 159.5t84 176.5l79 -48q-52 -88 -71 -151
t-19 -125q0 -86 29 -124t93 -38q59 0 90.5 36t31.5 131v265h95z" />
    <glyph glyph-name="iotadieresis" unicode="&#x3ca;" horiz-adv-x="252" 
d="M-26 616v112h89v-112h-89zM190 616v112h88v-112h-88zM78 0v556h96v-556h-96z" />
    <glyph glyph-name="upsilondieresis" unicode="&#x3cb;" horiz-adv-x="625" 
d="M159 616v112h89v-112h-89zM375 616v112h88v-112h-88zM314 -10q-79 0 -128.5 15t-74.5 49.5t-33.5 76t-8.5 107.5v318h97v-320q0 -28 1 -42.5t5 -36.5t13 -33t25 -23t42 -17t62 -5t62 5t42 17t25 23t13 34t4.5 37t0.5 44v317h95v-315q0 -68 -8 -109.5t-32.5 -76.5
t-73.5 -50t-128 -15z" />
    <glyph glyph-name="omicrontonos" unicode="&#x3cc;" horiz-adv-x="639" 
d="M272 613l70 162h92l-85 -162h-77zM319 -11q-144 0 -209 72t-65 218t65 218t209 72q145 0 210 -72t65 -218t-65 -218t-210 -72zM319 77q95 0 135.5 50t40.5 150t-40.5 149.5t-135.5 49.5t-135.5 -49.5t-40.5 -149.5t40.5 -150t135.5 -50z" />
    <glyph glyph-name="upsilontonos" unicode="&#x3cd;" horiz-adv-x="625" 
d="M269 613l70 162h92l-85 -162h-77zM314 -10q-79 0 -128.5 15t-74.5 49.5t-33.5 76t-8.5 107.5v318h97v-320q0 -28 1 -42.5t5 -36.5t13 -33t25 -23t42 -17t62 -5t62 5t42 17t25 23t13 34t4.5 37t0.5 44v317h95v-315q0 -68 -8 -109.5t-32.5 -76.5t-73.5 -50t-128 -15z" />
    <glyph glyph-name="omegatonos" unicode="&#x3ce;" horiz-adv-x="882" 
d="M413 613l70 162h92l-85 -162h-77zM497 509v-265q0 -95 31 -131t90 -36q65 0 93.5 38t28.5 124q0 62 -19 125t-71 151l79 48q61 -99 84 -176.5t23 -159.5q0 -238 -207 -238q-78 0 -120.5 34t-59.5 107q-17 -73 -59.5 -107t-119.5 -34q-208 0 -208 238q0 82 23 159.5
t84 176.5l79 -48q-52 -88 -71 -151t-19 -125q0 -86 29 -124t93 -38q59 0 90.5 36t31.5 131v265h95z" />
    <glyph glyph-name="afii10023" unicode="&#x401;" horiz-adv-x="652" 
d="M172 786v112h89v-112h-89zM388 786v112h88v-112h-88zM84 0v741h507v-97h-406v-213h396v-96h-396v-242h410v-93h-511z" />
    <glyph glyph-name="afii10051" unicode="&#x402;" horiz-adv-x="871" 
d="M613 -168v80h8q43 1 55 16.5t12 65.5v297q0 32 -1.5 51t-8.5 41t-20.5 33t-38.5 19t-62 8q-94 0 -126.5 -40t-32.5 -119v-284h-102v644h-272v97h646v-97h-272v-167q39 63 190 63q64 0 105 -16t61.5 -49t28 -71t7.5 -95v-314q0 -94 -33 -128.5t-126 -34.5h-18z" />
    <glyph glyph-name="afii10052" unicode="&#x403;" horiz-adv-x="596" 
d="M212 783l148 164h119l-177 -164h-90zM84 0v741h488v-97h-387v-644h-101z" />
    <glyph glyph-name="afii10053" unicode="&#x404;" horiz-adv-x="731" 
d="M410 -11q-369 0 -369 382q0 191 97 286.5t272 95.5q173 0 273 -97l-69 -73q-79 73 -199 73t-189.5 -58t-82.5 -172h434v-94h-436q18 -248 269 -248q130 0 212 77l66 -70q-102 -102 -278 -102z" />
    <glyph glyph-name="afii10054" unicode="&#x405;" horiz-adv-x="713" 
d="M355 -10q-188 0 -319 88l51 78q118 -77 265 -77q112 0 160 30.5t48 98.5q0 27 -10.5 47t-25 32t-46 21.5t-55.5 14.5t-72 13q-59 10 -95 18t-74.5 23.5t-59 36.5t-34 54.5t-13.5 78.5q0 110 68 158t210 48q167 0 270 -68l-55 -83q-87 58 -215 58q-95 0 -136.5 -26
t-41.5 -85q0 -25 9.5 -43t23.5 -29.5t43 -21t54 -15t71 -13.5q43 -7 68.5 -12t59.5 -14.5t54 -19t42 -25.5t33.5 -35.5t19 -46.5t7.5 -61q0 -113 -73.5 -168t-231.5 -55z" />
    <glyph glyph-name="afii10055" unicode="&#x406;" horiz-adv-x="284" 
d="M92 0v741h100v-741h-100z" />
    <glyph glyph-name="afii10056" unicode="&#x407;" horiz-adv-x="284" 
d="M92 0v741h100v-741h-100zM-8 786v112h89v-112h-89zM208 786v112h88v-112h-88z" />
    <glyph glyph-name="afii10057" unicode="&#x408;" horiz-adv-x="414" 
d="M112 -1q-55 0 -84 1v93h73q73 0 103.5 29.5t30.5 97.5v521h100v-525q0 -117 -55.5 -167t-167.5 -50z" />
    <glyph glyph-name="afii10058" unicode="&#x409;" horiz-adv-x="1279" 
d="M44 1v92h22q39 0 50 14t11 54v580h614v-278h233q139 0 201.5 -54.5t62.5 -170.5q0 -118 -63 -178t-203 -60h-330v646h-413v-502q0 -79 -29.5 -112t-100.5 -33q-43 0 -55 2zM741 90h235q82 0 121.5 32.5t39.5 110.5t-39 108.5t-125 30.5h-232v-282z" />
    <glyph glyph-name="afii10059" unicode="&#x40a;" horiz-adv-x="1238" 
d="M84 0v741h101v-306h417v306h99v-278h233q138 0 200.5 -54.5t62.5 -170.5q0 -118 -63 -178t-203 -60h-329v335h-417v-335h-101zM701 90h234q82 0 121.5 32.5t39.5 110.5t-38.5 108.5t-125.5 30.5h-231v-282z" />
    <glyph glyph-name="afii10060" unicode="&#x40b;" horiz-adv-x="871" 
d="M296 0v644h-272v97h646v-97h-272v-167q39 63 190 63q64 0 105 -16t61.5 -49t28 -71t7.5 -95v-309h-102v291q0 32 -1.5 51t-8.5 41t-20.5 33t-38.5 19t-62 8q-94 0 -126.5 -40t-32.5 -119v-284h-102z" />
    <glyph glyph-name="afii10061" unicode="&#x40c;" horiz-adv-x="723" 
d="M274 784l148 164h119l-177 -164h-90zM570 0l-268 352h-118v-352h-99v741h99v-294h113l239 294h116l-274 -334l310 -407h-118z" />
    <glyph glyph-name="afii10062" unicode="&#x40e;" horiz-adv-x="700" 
d="M214 -1q-55 0 -67 1v90h51q40 0 57 10.5t32 43.5l21 45l-286 552h108l237 -460l219 460h102l-306 -620q-35 -70 -67.5 -96t-100.5 -26zM348 772q-94 0 -136.5 42t-57.5 120l72 15q11 -49 37 -73t85 -24t85 24t37 73l73 -14q-17 -79 -59.5 -121t-135.5 -42z" />
    <glyph glyph-name="afii10145" unicode="&#x40f;" horiz-adv-x="783" 
d="M341 -166v166h-257v741h101v-650h414v650h100v-741h-257v-166h-101z" />
    <glyph glyph-name="afii10017" unicode="&#x410;" horiz-adv-x="742" 
d="M22 0l297 746h103l297 -746h-104l-61 156h-370l-61 -156h-101zM218 249h300l-150 376z" />
    <glyph glyph-name="afii10018" unicode="&#x411;" horiz-adv-x="724" 
d="M84 0v741h504v-97h-408v-196h237q140 0 201 -51t61 -166q0 -118 -62 -174.5t-203 -56.5h-330zM180 89h237q84 0 122.5 30t38.5 107t-38 104.5t-125 27.5h-235v-269z" />
    <glyph glyph-name="afii10019" unicode="&#x412;" horiz-adv-x="717" 
d="M84 0v741h327q129 0 188.5 -44.5t59.5 -138.5q0 -140 -93 -169q61 -15 86.5 -59t25.5 -125q0 -112 -66.5 -158.5t-206.5 -46.5h-321zM183 91h233q83 0 121.5 29t38.5 94q0 64 -38.5 92t-123.5 28h-231v-243zM183 428h231q80 0 111.5 30t31.5 86q0 53 -33.5 79t-109.5 26
h-231v-221z" />
    <glyph glyph-name="afii10020" unicode="&#x413;" horiz-adv-x="596" 
d="M84 0v741h488v-97h-387v-644h-101z" />
    <glyph glyph-name="afii10021" unicode="&#x414;" horiz-adv-x="876" 
d="M46 -166v259h25q38 0 50 14t12 54v580h614v-648h83v-259h-102v166h-581v-166h-101zM213 90h432v556h-413v-489q0 -52 -19 -67z" />
    <glyph glyph-name="afii10022" unicode="&#x415;" horiz-adv-x="652" 
d="M84 0v741h507v-97h-406v-213h396v-96h-396v-242h410v-93h-511z" />
    <glyph glyph-name="afii10024" unicode="&#x416;" horiz-adv-x="1177" 
d="M1024 0l-269 352h-117v-352h-100v352h-118l-267 -352h-118l309 407l-273 334h116l239 -294h112v294h100v-294h112l240 294h116l-275 -334l311 -407h-118z" />
    <glyph glyph-name="afii10025" unicode="&#x417;" horiz-adv-x="676" 
d="M335 -12q-191 0 -312 72l48 85q116 -63 261 -63q113 0 158 27.5t45 108.5q0 48 -16 74.5t-64.5 41.5t-139.5 15h-163v93h161q112 0 156.5 25t44.5 90q0 59 -42 80t-142 21q-60 0 -127 -14t-109 -38l-52 82q51 31 133 48t162 17q138 0 208.5 -40t70.5 -135q0 -76 -22 -113
t-77 -57q69 -22 94 -64t25 -132q0 -124 -77 -174t-224 -50z" />
    <glyph glyph-name="afii10026" unicode="&#x418;" horiz-adv-x="791" 
d="M84 0v741h96v-565l417 565h110v-741h-96v588l-435 -588h-92z" />
    <glyph glyph-name="afii10027" unicode="&#x419;" horiz-adv-x="791" 
d="M84 0v741h96v-565l417 565h110v-741h-96v588l-435 -588h-92zM393 772q-94 0 -136.5 42t-57.5 120l72 15q11 -49 37 -73t85 -24t85 24t37 73l73 -14q-17 -79 -59.5 -121t-135.5 -42z" />
    <glyph glyph-name="afii10028" unicode="&#x41a;" horiz-adv-x="723" 
d="M570 0l-268 352h-118v-352h-99v741h99v-294h113l239 294h116l-274 -334l310 -407h-118z" />
    <glyph glyph-name="afii10029" unicode="&#x41b;" horiz-adv-x="831" 
d="M46 1v92h23q39 0 50 14t11 54v580h617v-741h-102v646h-414v-502q0 -79 -29.5 -112t-99.5 -33q-42 0 -56 2z" />
    <glyph glyph-name="afii10030" unicode="&#x41c;" horiz-adv-x="931" 
d="M84 0v741h132l250 -599l251 599h130v-741h-99v572l-242 -572h-84l-241 571v-571h-97z" />
    <glyph glyph-name="afii10031" unicode="&#x41d;" horiz-adv-x="787" 
d="M84 0v741h101v-306h417v306h101v-741h-101v335h-417v-335h-101z" />
    <glyph glyph-name="afii10032" unicode="&#x41e;" horiz-adv-x="839" 
d="M419 -12q-378 0 -378 383q0 382 378 382t378 -382q0 -383 -378 -383zM419 82q277 0 277 287t-277 287q-276 0 -276 -287t276 -287z" />
    <glyph glyph-name="afii10033" unicode="&#x41f;" horiz-adv-x="783" 
d="M84 0v741h615v-741h-101v646h-415v-646h-99z" />
    <glyph glyph-name="afii10034" unicode="&#x420;" horiz-adv-x="720" 
d="M84 0v741h333q138 0 200 -56.5t62 -172.5q0 -119 -63 -181.5t-202 -62.5h-231v-268h-99zM183 362h234q82 0 121.5 33.5t39.5 111.5q0 79 -38.5 109.5t-124.5 30.5h-232v-285z" />
    <glyph glyph-name="afii10035" unicode="&#x421;" horiz-adv-x="731" 
d="M411 -11q-190 0 -280 96t-90 286q0 192 96.5 287t278.5 95q166 0 268 -97l-73 -73q-79 73 -196 73q-272 0 -272 -286q0 -143 66.5 -214.5t206.5 -71.5q73 0 117.5 19.5t83.5 56.5l72 -69q-102 -102 -278 -102z" />
    <glyph glyph-name="afii10036" unicode="&#x422;" horiz-adv-x="693" 
d="M296 0v644h-272v97h646v-97h-272v-644h-102z" />
    <glyph glyph-name="afii10037" unicode="&#x423;" horiz-adv-x="700" 
d="M214 -1q-55 0 -67 1v90h51q40 0 57 10.5t32 43.5l21 45l-286 552h108l237 -460l219 460h102l-306 -620q-35 -70 -67.5 -96t-100.5 -26z" />
    <glyph glyph-name="afii10038" unicode="&#x424;" horiz-adv-x="904" 
d="M401 0v52q-173 9 -266.5 90t-93.5 229q0 147 93.5 227.5t266.5 90.5v52h101v-52q174 -10 267.5 -90.5t93.5 -227.5q0 -148 -94 -229t-267 -90v-52h-101zM761 369q0 98 -63 158t-196 69v-453q133 9 196 69t63 157zM143 369q0 -98 63 -157.5t195 -68.5v453
q-132 -9 -195 -69t-63 -158z" />
    <glyph glyph-name="afii10039" unicode="&#x425;" horiz-adv-x="728" 
d="M579 0l-219 312l-212 -312h-112l271 388l-246 353h112l194 -277l189 277h112l-248 -353l273 -388h-114z" />
    <glyph glyph-name="afii10040" unicode="&#x426;" horiz-adv-x="830" 
d="M682 -166v166h-598v741h101v-650h414v650h100v-648h85v-259h-102z" />
    <glyph glyph-name="afii10041" unicode="&#x427;" horiz-adv-x="745" 
d="M560 0v304q-18 -33 -80 -57.5t-164 -24.5q-78 0 -129.5 16.5t-78 50t-36.5 73t-10 95.5v284h100v-264q0 -40 7 -66t26 -48t56.5 -32.5t95.5 -10.5q122 0 167.5 44t45.5 125v252h101v-741h-101z" />
    <glyph glyph-name="afii10042" unicode="&#x428;" horiz-adv-x="1182" 
d="M84 0v747h101v-656h356v656h101v-656h356v656h100v-747h-1014z" />
    <glyph glyph-name="afii10043" unicode="&#x429;" horiz-adv-x="1228" 
d="M1081 -166v166h-997v747h101v-656h356v656h101v-656h356v656h100v-654h84v-259h-101z" />
    <glyph glyph-name="afii10044" unicode="&#x42a;" horiz-adv-x="759" 
d="M123 0v644h-84v97h183v-278h234q138 0 200 -54.5t62 -170.5q0 -119 -62.5 -178.5t-202.5 -59.5h-330zM222 90h234q82 0 121.5 32.5t39.5 110.5t-38.5 108.5t-124.5 30.5h-232v-282z" />
    <glyph glyph-name="afii10045" unicode="&#x42b;" horiz-adv-x="933" 
d="M84 0v741h99v-278h234q138 0 200 -54.5t62 -170.5q0 -119 -62.5 -178.5t-202.5 -59.5h-330zM183 90h234q82 0 121.5 32.5t39.5 110.5t-38.5 108.5t-124.5 30.5h-232v-282zM749 0v741h101v-741h-101z" />
    <glyph glyph-name="afii10046" unicode="&#x42c;" horiz-adv-x="720" 
d="M84 0v741h99v-278h234q138 0 200 -54.5t62 -170.5q0 -119 -62.5 -178.5t-202.5 -59.5h-330zM183 90h234q82 0 121.5 32.5t39.5 110.5t-38.5 108.5t-124.5 30.5h-232v-282z" />
    <glyph glyph-name="afii10047" unicode="&#x42d;" horiz-adv-x="731" 
d="M320 -11q-174 0 -278 102l67 70q39 -37 87.5 -57t123.5 -20q250 0 267 248h-435v94h434q-13 114 -82 172t-188 58q-121 0 -200 -73l-69 73q102 97 273 97q175 0 272 -95.5t97 -286.5q0 -382 -369 -382z" />
    <glyph glyph-name="afii10048" unicode="&#x42e;" horiz-adv-x="1109" 
d="M84 0v741h101v-313h133q27 325 371 325q379 0 379 -382q0 -383 -379 -383q-355 0 -372 345h-132v-333h-101zM689 82q276 0 276 287t-276 287t-276 -287t276 -287z" />
    <glyph glyph-name="afii10049" unicode="&#x42f;" horiz-adv-x="732" 
d="M69 0l169 292q-181 32 -181 225q0 112 62 168t199 56h330v-741h-99v285h-208l-164 -285h-108zM319 377h230v272h-227q-83 0 -123 -30t-40 -106t40 -106t120 -30z" />
    <glyph glyph-name="afii10065" unicode="&#x430;" horiz-adv-x="627" 
d="M238 -10q-112 0 -155.5 44.5t-43.5 123.5q0 118 78.5 161t288.5 43h30q-2 65 -28.5 90.5t-110.5 25.5q-89 0 -164 -47l-51 76q34 23 95.5 42.5t128.5 19.5q71 0 115 -12t68 -41t32.5 -68t8.5 -102v-198q0 -41 8.5 -51.5t46.5 -10.5v-85q-7 -2 -40 -2q-45 0 -64.5 14
t-30.5 49q-51 -72 -212 -72zM254 74q96 0 139 40.5t43 130.5v34h-25q-116 0 -175 -10.5t-81.5 -34t-22.5 -69.5q0 -47 27 -69t95 -22z" />
    <glyph glyph-name="afii10066" unicode="&#x431;" horiz-adv-x="639" 
d="M320 -11q-142 0 -208.5 72.5t-66.5 230.5v114q0 92 16 158.5t42 107t68 64t86.5 32t103.5 8.5h83v-91h-79q-110 0 -166 -48.5t-56 -162.5q46 77 204 77q71 0 120.5 -20t76.5 -59.5t38.5 -88.5t11.5 -116q0 -136 -65 -207t-209 -71zM320 77q94 0 134.5 48t40.5 144
q0 97 -40.5 144t-134.5 47t-135.5 -47t-41.5 -144q0 -96 41.5 -144t135.5 -48z" />
    <glyph glyph-name="afii10067" unicode="&#x432;" horiz-adv-x="620" 
d="M72 0v556h279q107 0 155 -30t48 -104q0 -55 -15 -86t-57 -44q48 -12 67.5 -44t19.5 -94q0 -90 -52 -122t-170 -32h-275zM164 85h191q64 0 91.5 17t27.5 64q0 43 -28 60.5t-93 17.5h-189v-159zM164 328h189q60 0 83.5 18.5t23.5 56.5q0 37 -24 51.5t-83 14.5h-189v-141z
" />
    <glyph glyph-name="afii10068" unicode="&#x433;" horiz-adv-x="514" 
d="M72 0v556h419v-88h-321v-468h-98z" />
    <glyph glyph-name="afii10069" unicode="&#x434;" horiz-adv-x="746" 
d="M44 -166v252h22q39 0 50 14t11 55v401h491v-470h84v-252h-92v166h-475v-166h-91zM206 81h316v389h-297v-321q0 -49 -19 -68z" />
    <glyph glyph-name="afii10070" unicode="&#x435;" horiz-adv-x="600" 
d="M318 -11q-67 0 -116 15t-78.5 40t-47.5 63.5t-24.5 79t-6.5 92.5q0 65 11.5 113.5t40 90.5t84 64t135.5 22q48 0 85 -10t62 -25t42 -41.5t26 -51t13.5 -62t5.5 -66.5t0 -72h-411q5 -83 43.5 -125.5t135.5 -42.5q62 0 101 13.5t76 41.5l52 -68q-91 -71 -229 -71zM313 483
q-90 0 -128 -39.5t-45 -116.5h318q-2 32 -4.5 50.5t-11 41.5t-23 35t-41.5 20.5t-65 8.5z" />
    <glyph glyph-name="afii10072" unicode="&#x436;" horiz-adv-x="888" 
d="M492 556v-213h78l169 213h113l-205 -255l225 -301h-114l-187 252h-79v-252h-96v252h-80l-186 -252h-114l225 301l-205 255h112l169 -213h79v213h96z" />
    <glyph glyph-name="afii10073" unicode="&#x437;" horiz-adv-x="573" 
d="M274 -12q-158 0 -253 56l43 77q85 -46 200 -46q93 0 126 17t33 74q0 36 -11.5 53.5t-48.5 26.5t-112 9h-123v87h121q97 0 127.5 13.5t30.5 60.5q0 41 -30 53t-115 12q-112 0 -180 -38l-48 76q41 24 109 37t133 13q122 0 176 -29t54 -104q0 -58 -16 -87t-58 -42
q54 -14 71.5 -46.5t17.5 -102.5q0 -97 -59 -133.5t-188 -36.5z" />
    <glyph glyph-name="afii10074" unicode="&#x438;" horiz-adv-x="639" 
d="M72 0v556h95v-395l293 395h106v-556h-95v418l-310 -418h-89z" />
    <glyph glyph-name="afii10075" unicode="&#x439;" horiz-adv-x="639" 
d="M72 0v556h95v-395l293 395h106v-556h-95v418l-310 -418h-89zM318 602q-94 0 -136.5 42t-57.5 120l72 15q11 -49 37 -73t85 -24t85 24t37 73l73 -14q-17 -79 -59.5 -121t-135.5 -42z" />
    <glyph glyph-name="afii10076" unicode="&#x43a;" horiz-adv-x="564" 
d="M168 556v-214h79l169 214h112l-205 -255l225 -301h-114l-186 252h-80v-252h-96v556h96z" />
    <glyph glyph-name="afii10077" unicode="&#x43b;" horiz-adv-x="692" 
d="M44 1v85h22q39 0 51 14t12 55v401h490v-556h-97v470h-297v-326q0 -80 -28 -112.5t-98 -32.5q-43 0 -55 2z" />
    <glyph glyph-name="afii10078" unicode="&#x43c;" horiz-adv-x="756" 
d="M72 0v556h123l190 -428l189 428h121v-556h-97v404l-177 -404h-80l-178 404v-404h-91z" />
    <glyph glyph-name="afii10079" unicode="&#x43d;" horiz-adv-x="637" 
d="M72 0v556h98v-221h297v221h97v-556h-97v243h-297v-243h-98z" />
    <glyph glyph-name="afii10080" unicode="&#x43e;" horiz-adv-x="639" 
d="M319 -11q-144 0 -209 72t-65 218t65 218t209 72q145 0 210 -72t65 -218t-65 -218t-210 -72zM319 77q95 0 135.5 50t40.5 150t-40.5 149.5t-135.5 49.5t-135.5 -49.5t-40.5 -149.5t40.5 -150t135.5 -50z" />
    <glyph glyph-name="afii10081" unicode="&#x43f;" horiz-adv-x="636" 
d="M72 0v556h491v-556h-97v470h-298v-470h-96z" />
    <glyph glyph-name="afii10082" unicode="&#x440;" horiz-adv-x="656" 
d="M72 -165v716l77 5l8 -59q46 72 216 72q132 0 185 -75t53 -215q0 -138 -54.5 -213t-187.5 -75q-85 0 -131 16t-68 51v-223h-98zM352 79q90 0 125 49.5t35 147.5q0 99 -34.5 149.5t-125.5 50.5q-99 0 -140.5 -45t-41.5 -155t40.5 -153.5t141.5 -43.5z" />
    <glyph glyph-name="afii10083" unicode="&#x441;" horiz-adv-x="569" 
d="M316 -10q-151 0 -211 74.5t-60 214.5q0 141 60.5 215.5t214.5 74.5q133 0 207 -83l-71 -67q-54 56 -136 56q-98 0 -137.5 -49.5t-39.5 -148.5q0 -100 39 -150t138 -50q78 0 141 57l65 -62q-46 -42 -93 -62t-117 -20z" />
    <glyph glyph-name="afii10084" unicode="&#x442;" horiz-adv-x="556" 
d="M229 0v468h-205v88h508v-88h-205v-468h-98z" />
    <glyph glyph-name="afii10085" unicode="&#x443;" horiz-adv-x="544" 
d="M128 -168q-39 0 -51 1v79h43q41 0 58.5 10.5t27.5 40.5l17 43l-216 550h104l163 -434l162 434h102l-236 -603q-25 -66 -63 -93.5t-111 -27.5z" />
    <glyph glyph-name="afii10086" unicode="&#x444;" horiz-adv-x="1066" 
d="M486 -165v224q-26 -36 -73.5 -52.5t-128.5 -16.5q-131 0 -185 75.5t-54 215.5q0 138 54.5 213t187.5 75q159 0 199 -67v274h93v-275q43 68 204 68q131 0 184 -75t53 -215q0 -139 -54 -213.5t-188 -74.5q-84 0 -130.5 16t-68.5 51v-223h-93zM305 79q98 0 139.5 46
t41.5 156q0 109 -40 152.5t-141 43.5q-91 0 -126 -49t-35 -147q0 -100 35 -151t126 -51zM761 79q90 0 125.5 49.5t35.5 147.5q0 99 -35 149.5t-126 50.5q-99 0 -140.5 -45t-41.5 -155t40.5 -153.5t141.5 -43.5z" />
    <glyph glyph-name="afii10087" unicode="&#x445;" horiz-adv-x="556" 
d="M431 0l-157 220l-152 -220h-106l207 290l-189 266h108l139 -195l137 195h105l-191 -267l208 -289h-109z" />
    <glyph glyph-name="afii10088" unicode="&#x446;" horiz-adv-x="691" 
d="M555 -166v166h-483v556h98v-472h297v472h96v-470h84v-252h-92z" />
    <glyph glyph-name="afii10089" unicode="&#x447;" horiz-adv-x="629" 
d="M460 0v204q-41 -67 -199 -67q-64 0 -106.5 16t-63.5 48.5t-28.5 70.5t-7.5 95v189h97v-170q0 -78 26.5 -115.5t113.5 -37.5q96 0 131.5 42.5t35.5 122.5v158h97v-556h-96z" />
    <glyph glyph-name="afii10090" unicode="&#x448;" horiz-adv-x="1004" 
d="M72 0v556h98v-472h285v472h96v-472h285v472h95v-556h-859z" />
    <glyph glyph-name="afii10091" unicode="&#x449;" horiz-adv-x="1059" 
d="M924 -166v166h-852v556h98v-472h285v472h96v-472h285v472h95v-470h84v-252h-91z" />
    <glyph glyph-name="afii10092" unicode="&#x44a;" horiz-adv-x="673" 
d="M127 0v468h-83v88h180v-161h199q202 0 202 -193q0 -96 -49.5 -149t-154.5 -53h-294zM224 81h183q60 0 89.5 28t29.5 89t-29 87.5t-92 26.5h-181v-231z" />
    <glyph glyph-name="afii10093" unicode="&#x44b;" horiz-adv-x="798" 
d="M72 0v556h96v-161h200q202 0 202 -193q0 -96 -49.5 -149t-154.5 -53h-294zM168 81h184q60 0 89.5 28t29.5 89t-29 87.5t-92 26.5h-182v-231zM628 0v556h98v-556h-98z" />
    <glyph glyph-name="afii10094" unicode="&#x44c;" horiz-adv-x="619" 
d="M72 0v556h96v-160h200q202 0 202 -194q0 -96 -49.5 -149t-154.5 -53h-294zM168 81h184q60 0 89.5 28t29.5 89t-29 87.5t-92 26.5h-182v-231z" />
    <glyph glyph-name="afii10095" unicode="&#x44d;" horiz-adv-x="569" 
d="M254 -10q-71 0 -118 19.5t-94 62.5l61 61q62 -56 147 -56q92 0 132 38.5t45 124.5h-305v87h304q-8 79 -48.5 116t-127.5 37q-83 0 -140 -61l-66 67q73 83 208 83q153 0 212.5 -73.5t59.5 -216.5t-59.5 -216t-210.5 -73z" />
    <glyph glyph-name="afii10096" unicode="&#x44e;" horiz-adv-x="845" 
d="M72 0v556h98v-224h88q10 120 73.5 178.5t193.5 58.5q145 0 209.5 -71.5t64.5 -218.5t-64.5 -218.5t-209.5 -71.5q-135 0 -198 62.5t-70 192.5h-87v-244h-98zM525 77q96 0 136.5 49t40.5 151t-40.5 150.5t-136.5 48.5q-95 0 -135 -48.5t-40 -150.5q0 -103 40 -151.5
t135 -48.5z" />
    <glyph glyph-name="afii10097" unicode="&#x44f;" horiz-adv-x="633" 
d="M61 0l117 204q-125 30 -125 172q0 180 205 180h303v-556h-97v195h-187l-112 -195h-104zM260 278h204v192h-202q-57 0 -83.5 -21t-26.5 -76q0 -54 26 -74.5t82 -20.5z" />
    <glyph glyph-name="afii10071" unicode="&#x451;" horiz-adv-x="600" 
d="M146 616v112h89v-112h-89zM362 616v112h88v-112h-88zM318 -11q-67 0 -116 15t-78.5 40t-47.5 63.5t-24.5 79t-6.5 92.5q0 65 11.5 113.5t40 90.5t84 64t135.5 22q48 0 85 -10t62 -25t42 -41.5t26 -51t13.5 -62t5.5 -66.5t0 -72h-411q5 -83 43.5 -125.5t135.5 -42.5
q62 0 101 13.5t76 41.5l52 -68q-91 -71 -229 -71zM313 483q-90 0 -128 -39.5t-45 -116.5h318q-2 32 -4.5 50.5t-11 41.5t-23 35t-41.5 20.5t-65 8.5z" />
    <glyph glyph-name="afii10099" unicode="&#x452;" horiz-adv-x="638" 
d="M-5 610v88h83v78h97v-78h138v-88h-138v-111q42 61 193 61q64 0 105 -15.5t61 -49t27 -71t7 -95.5v-355q0 -81 -33 -111.5t-121 -30.5h-18v80h8q41 1 54 15.5t14 58.5v325q0 39 -4 62.5t-16.5 46.5t-41 33.5t-73.5 10.5q-95 0 -128.5 -42t-33.5 -123v-299h-97v610h-83z
" />
    <glyph glyph-name="afii10100" unicode="&#x453;" horiz-adv-x="514" 
d="M175 613l148 164h119l-177 -164h-90zM72 0v556h419v-88h-321v-468h-98z" />
    <glyph glyph-name="afii10101" unicode="&#x454;" horiz-adv-x="569" 
d="M316 -10q-151 0 -211 73t-60 216t60.5 216.5t214.5 73.5q134 0 207 -83l-67 -67q-57 61 -140 61q-87 0 -128 -37t-49 -116h305v-87h-306q5 -86 45.5 -124.5t132.5 -38.5q85 0 145 56l61 -61q-46 -42 -93 -62t-117 -20z" />
    <glyph glyph-name="afii10102" unicode="&#x455;" horiz-adv-x="536" 
d="M265 -10q-143 0 -240 65l50 76q87 -56 196 -56q74 0 104 16.5t30 65.5q0 38 -27 52.5t-107 28.5q-46 8 -73.5 14.5t-59 19.5t-47.5 29.5t-27 44t-11 64.5q0 79 51.5 119t166.5 40q128 0 212 -49l-46 -80q-71 39 -164 39q-69 0 -96 -17t-27 -52q0 -37 26 -52.5t99 -28.5
q51 -9 77 -15t59.5 -18.5t49 -28.5t27 -42.5t11.5 -63.5q0 -94 -54.5 -132.5t-179.5 -38.5z" />
    <glyph glyph-name="afii10103" unicode="&#x456;" horiz-adv-x="252" 
d="M78 0v556h96v-556h-96zM77 623v118h98v-118h-98z" />
    <glyph glyph-name="afii10104" unicode="&#x457;" horiz-adv-x="252" 
d="M-9 624v113h80v-113h-80zM182 624v113h80v-113h-80zM78 0v556h96v-556h-96z" />
    <glyph glyph-name="afii10105" unicode="&#x458;" horiz-adv-x="252" 
d="M2 -168v80h8q43 1 55.5 17t12.5 65v562h96v-561q0 -95 -31 -129t-123 -34h-18zM77 623v118h98v-118h-98z" />
    <glyph glyph-name="afii10106" unicode="&#x459;" horiz-adv-x="1060" 
d="M44 1v85h22q39 0 51 14t12 55v401h484v-161h198q201 0 201 -193q0 -95 -50 -148.5t-154 -53.5h-289v470h-294v-326q0 -80 -28 -112.5t-98 -32.5q-43 0 -55 2zM613 81h182q118 0 118 117q0 61 -29 87.5t-92 26.5h-179v-231z" />
    <glyph glyph-name="afii10107" unicode="&#x45a;" horiz-adv-x="1005" 
d="M72 0v556h98v-221h294v221h95v-161h197q201 0 201 -193q0 -96 -49.5 -149t-153.5 -53h-290v243h-294v-243h-98zM559 81h181q118 0 118 117q0 61 -28.5 87.5t-91.5 26.5h-179v-231z" />
    <glyph glyph-name="afii10108" unicode="&#x45b;" horiz-adv-x="638" 
d="M-5 610v88h83v78h97v-78h138v-88h-138v-111q42 61 193 61q64 0 105 -15.5t61 -49t27 -71t7 -95.5v-329h-96v311q0 39 -4 62.5t-16.5 46.5t-41 33.5t-73.5 10.5q-95 0 -128.5 -42t-33.5 -123v-299h-97v610h-83z" />
    <glyph glyph-name="afii10109" unicode="&#x45c;" horiz-adv-x="564" 
d="M168 556v-214h79l169 214h112l-205 -255l225 -301h-114l-186 252h-80v-252h-96v556h96zM223 613l148 164h119l-177 -164h-90z" />
    <glyph glyph-name="afii10110" unicode="&#x45e;" horiz-adv-x="544" 
d="M128 -168q-39 0 -51 1v79h43q41 0 58.5 10.5t27.5 40.5l17 43l-216 550h104l163 -434l162 434h102l-236 -603q-25 -66 -63 -93.5t-111 -27.5zM274 602q-94 0 -136.5 42t-57.5 120l72 15q11 -49 37 -73t85 -24t85 24t37 73l73 -14q-17 -79 -59.5 -121t-135.5 -42z" />
    <glyph glyph-name="afii10193" unicode="&#x45f;" horiz-adv-x="636" 
d="M272 -166v166h-200v556h98v-472h297v472h96v-556h-199v-166h-92z" />
    <glyph glyph-name="afii10050" unicode="&#x490;" horiz-adv-x="596" 
d="M84 0v741h386v166h102v-263h-387v-644h-101z" />
    <glyph glyph-name="afii10098" unicode="&#x491;" horiz-adv-x="514" 
d="M72 0v556h326v166h93v-254h-321v-468h-98z" />
    <glyph glyph-name="Wgrave" unicode="&#x1e80;" horiz-adv-x="1083" 
d="M267 -5l-236 746h105l180 -577l184 577h89l184 -577l180 577h99l-235 -746h-89l-186 581l-185 -581h-90zM537 784l-177 164h119l148 -164h-90z" />
    <glyph glyph-name="wgrave" unicode="&#x1e81;" horiz-adv-x="888" 
d="M208 -5l-195 561h102l144 -420l138 420h96l138 -419l145 419h99l-196 -561h-97l-138 414l-138 -414h-98zM436 613l-177 164h119l148 -164h-90z" />
    <glyph glyph-name="Wacute" unicode="&#x1e82;" horiz-adv-x="1083" 
d="M459 784l148 164h119l-177 -164h-90zM267 -5l-236 746h105l180 -577l184 577h89l184 -577l180 577h99l-235 -746h-89l-186 581l-185 -581h-90z" />
    <glyph glyph-name="wacute" unicode="&#x1e83;" horiz-adv-x="888" 
d="M358 613l148 164h119l-177 -164h-90zM208 -5l-195 561h102l144 -420l138 420h96l138 -419l145 419h99l-196 -561h-97l-138 414l-138 -414h-98z" />
    <glyph glyph-name="Wdieresis" unicode="&#x1e84;" horiz-adv-x="1083" 
d="M389 787v112h89v-112h-89zM605 787v112h88v-112h-88zM267 -5l-236 746h105l180 -577l184 577h89l184 -577l180 577h99l-235 -746h-89l-186 581l-185 -581h-90z" />
    <glyph glyph-name="wdieresis" unicode="&#x1e85;" horiz-adv-x="888" 
d="M290 616v112h89v-112h-89zM506 616v112h88v-112h-88zM208 -5l-195 561h102l144 -420l138 420h96l138 -419l145 419h99l-196 -561h-97l-138 414l-138 -414h-98z" />
    <glyph glyph-name="uni1EA0" unicode="&#x1ea0;" horiz-adv-x="742" 
d="M22 0l297 746h103l297 -746h-104l-61 156h-370l-61 -156h-101zM218 249h300l-150 376zM321 -180v116h98v-116h-98z" />
    <glyph glyph-name="uni1EA1" unicode="&#x1ea1;" horiz-adv-x="627" 
d="M238 -10q-112 0 -155.5 44.5t-43.5 123.5q0 118 78.5 161t288.5 43h30q-2 65 -28.5 90.5t-110.5 25.5q-89 0 -164 -47l-51 76q34 23 95.5 42.5t128.5 19.5q71 0 115 -12t68 -41t32.5 -68t8.5 -102v-198q0 -41 8.5 -51.5t46.5 -10.5v-85q-7 -2 -40 -2q-45 0 -64.5 14
t-30.5 49q-51 -72 -212 -72zM254 74q96 0 139 40.5t43 130.5v34h-25q-116 0 -175 -10.5t-81.5 -34t-22.5 -69.5q0 -47 27 -69t95 -22zM261 -180v116h98v-116h-98z" />
    <glyph glyph-name="uni1EA2" unicode="&#x1ea2;" horiz-adv-x="742" 
d="M22 0l297 746h103l297 -746h-104l-61 156h-370l-61 -156h-101zM218 249h300l-150 376zM336 771q-5 38 4.5 61t42.5 43q28 17 37 26t9 23q0 35 -61 35q-47 0 -87 -20l-28 59q46 24 119 24q68 0 100.5 -24t32.5 -63q0 -33 -14.5 -53t-45.5 -38q-27 -17 -34.5 -30t-6.5 -43
h-68z" />
    <glyph glyph-name="uni1EA3" unicode="&#x1ea3;" horiz-adv-x="627" 
d="M238 -10q-112 0 -155.5 44.5t-43.5 123.5q0 118 78.5 161t288.5 43h30q-2 65 -28.5 90.5t-110.5 25.5q-89 0 -164 -47l-51 76q34 23 95.5 42.5t128.5 19.5q71 0 115 -12t68 -41t32.5 -68t8.5 -102v-198q0 -41 8.5 -51.5t46.5 -10.5v-85q-7 -2 -40 -2q-45 0 -64.5 14
t-30.5 49q-51 -72 -212 -72zM254 74q96 0 139 40.5t43 130.5v34h-25q-116 0 -175 -10.5t-81.5 -34t-22.5 -69.5q0 -47 27 -69t95 -22zM272 601q-5 38 4.5 61t42.5 43q28 17 37 26t9 23q0 35 -61 35q-47 0 -87 -20l-28 59q46 24 119 24q68 0 100.5 -24t32.5 -63
q0 -33 -14.5 -53t-45.5 -38q-27 -17 -34.5 -30t-6.5 -43h-68z" />
    <glyph glyph-name="uni1EA4" unicode="&#x1ea4;" horiz-adv-x="742" 
d="M22 0l297 746h103l297 -746h-104l-61 156h-370l-61 -156h-101zM218 249h300l-150 376zM54 869l148 164h118l-177 -164h-89zM163 784l153 164h105l153 -164h-94l-113 100l-110 -100h-94z" />
    <glyph glyph-name="uni1EA5" unicode="&#x1ea5;" horiz-adv-x="627" 
d="M238 -10q-112 0 -155.5 44.5t-43.5 123.5q0 118 78.5 161t288.5 43h30q-2 65 -28.5 90.5t-110.5 25.5q-89 0 -164 -47l-51 76q34 23 95.5 42.5t128.5 19.5q71 0 115 -12t68 -41t32.5 -68t8.5 -102v-198q0 -41 8.5 -51.5t46.5 -10.5v-85q-7 -2 -40 -2q-45 0 -64.5 14
t-30.5 49q-51 -72 -212 -72zM254 74q96 0 139 40.5t43 130.5v34h-25q-116 0 -175 -10.5t-81.5 -34t-22.5 -69.5q0 -47 27 -69t95 -22zM-1 698l148 164h118l-177 -164h-89zM108 613l153 164h105l153 -164h-94l-113 100l-110 -100h-94z" />
    <glyph glyph-name="uni1EA6" unicode="&#x1ea6;" horiz-adv-x="742" 
d="M22 0l297 746h103l297 -746h-104l-61 156h-370l-61 -156h-101zM218 249h300l-150 376zM598 869l-176 164h118l148 -164h-90zM164 784l153 164h105l153 -164h-94l-113 100l-110 -100h-94z" />
    <glyph glyph-name="uni1EA7" unicode="&#x1ea7;" horiz-adv-x="627" 
d="M238 -10q-112 0 -155.5 44.5t-43.5 123.5q0 118 78.5 161t288.5 43h30q-2 65 -28.5 90.5t-110.5 25.5q-89 0 -164 -47l-51 76q34 23 95.5 42.5t128.5 19.5q71 0 115 -12t68 -41t32.5 -68t8.5 -102v-198q0 -41 8.5 -51.5t46.5 -10.5v-85q-7 -2 -40 -2q-45 0 -64.5 14
t-30.5 49q-51 -72 -212 -72zM254 74q96 0 139 40.5t43 130.5v34h-25q-116 0 -175 -10.5t-81.5 -34t-22.5 -69.5q0 -47 27 -69t95 -22zM542 698l-176 164h118l148 -164h-90zM108 613l153 164h105l153 -164h-94l-113 100l-110 -100h-94z" />
    <glyph glyph-name="uni1EA8" unicode="&#x1ea8;" horiz-adv-x="742" 
d="M22 0l297 746h103l297 -746h-104l-61 156h-370l-61 -156h-101zM218 249h300l-150 376zM163 784l153 164h105l153 -164h-94l-113 100l-111 -100h-93zM335 973q-5 38 4.5 60t42.5 43q29 18 37.5 26.5t8.5 23.5q0 35 -61 35q-47 0 -87 -20l-28 58q46 25 119 25
q68 0 100.5 -24t32.5 -64q0 -32 -14.5 -52t-45.5 -38q-27 -17 -34.5 -30t-6.5 -43h-68z" />
    <glyph glyph-name="uni1EA9" unicode="&#x1ea9;" horiz-adv-x="627" 
d="M238 -10q-112 0 -155.5 44.5t-43.5 123.5q0 118 78.5 161t288.5 43h30q-2 65 -28.5 90.5t-110.5 25.5q-89 0 -164 -47l-51 76q34 23 95.5 42.5t128.5 19.5q71 0 115 -12t68 -41t32.5 -68t8.5 -102v-198q0 -41 8.5 -51.5t46.5 -10.5v-85q-7 -2 -40 -2q-45 0 -64.5 14
t-30.5 49q-51 -72 -212 -72zM254 74q96 0 139 40.5t43 130.5v34h-25q-116 0 -175 -10.5t-81.5 -34t-22.5 -69.5q0 -47 27 -69t95 -22zM107 613l153 164h105l153 -164h-94l-113 100l-111 -100h-93zM279 802q-5 38 4.5 60t42.5 43q29 18 37.5 26.5t8.5 23.5q0 35 -61 35
q-47 0 -87 -20l-28 58q46 25 119 25q68 0 100.5 -24t32.5 -64q0 -32 -14.5 -52t-45.5 -38q-27 -17 -34.5 -30t-6.5 -43h-68z" />
    <glyph glyph-name="uni1EAA" unicode="&#x1eaa;" horiz-adv-x="742" 
d="M22 0l297 746h103l297 -746h-104l-61 156h-370l-61 -156h-101zM218 249h300l-150 376zM228 974l-59 46q66 84 135 84q36 0 76 -25t62 -25q35 0 80 55l57 -47q-73 -88 -135 -88q-33 0 -75 25t-64 25q-38 0 -77 -50zM163 784l153 164h105l153 -164h-94l-113 100l-111 -100
h-93z" />
    <glyph glyph-name="uni1EAB" unicode="&#x1eab;" horiz-adv-x="627" 
d="M238 -10q-112 0 -155.5 44.5t-43.5 123.5q0 118 78.5 161t288.5 43h30q-2 65 -28.5 90.5t-110.5 25.5q-89 0 -164 -47l-51 76q34 23 95.5 42.5t128.5 19.5q71 0 115 -12t68 -41t32.5 -68t8.5 -102v-198q0 -41 8.5 -51.5t46.5 -10.5v-85q-7 -2 -40 -2q-45 0 -64.5 14
t-30.5 49q-51 -72 -212 -72zM254 74q96 0 139 40.5t43 130.5v34h-25q-116 0 -175 -10.5t-81.5 -34t-22.5 -69.5q0 -47 27 -69t95 -22zM173 803l-59 46q66 84 135 84q36 0 76 -25t62 -25q35 0 80 55l57 -47q-73 -88 -135 -88q-33 0 -75 25t-64 25q-38 0 -77 -50zM108 613
l153 164h105l153 -164h-94l-113 100l-111 -100h-93z" />
    <glyph glyph-name="uni1EAC" unicode="&#x1eac;" horiz-adv-x="742" 
d="M22 0l297 746h103l297 -746h-104l-61 156h-370l-61 -156h-101zM218 249h300l-150 376zM163 784l153 164h105l153 -164h-94l-113 101l-111 -101h-93zM321 -180v116h98v-116h-98z" />
    <glyph glyph-name="uni1EAD" unicode="&#x1ead;" horiz-adv-x="627" 
d="M238 -10q-112 0 -155.5 44.5t-43.5 123.5q0 118 78.5 161t288.5 43h30q-2 65 -28.5 90.5t-110.5 25.5q-89 0 -164 -47l-51 76q34 23 95.5 42.5t128.5 19.5q71 0 115 -12t68 -41t32.5 -68t8.5 -102v-198q0 -41 8.5 -51.5t46.5 -10.5v-85q-7 -2 -40 -2q-45 0 -64.5 14
t-30.5 49q-51 -72 -212 -72zM254 74q96 0 139 40.5t43 130.5v34h-25q-116 0 -175 -10.5t-81.5 -34t-22.5 -69.5q0 -47 27 -69t95 -22zM108 613l153 164h105l153 -164h-94l-113 101l-111 -101h-93zM261 -180v116h98v-116h-98z" />
    <glyph glyph-name="uni1EAE" unicode="&#x1eae;" horiz-adv-x="742" 
d="M22 0l297 746h103l297 -746h-104l-61 156h-370l-61 -156h-101zM218 249h300l-150 376zM318 976l148 164h118l-176 -164h-90zM369 773q-94 0 -136.5 42t-57.5 120l72 15q11 -49 37 -73t85 -24t85 24t37 73l73 -14q-17 -79 -59.5 -121t-135.5 -42z" />
    <glyph glyph-name="uni1EAF" unicode="&#x1eaf;" horiz-adv-x="627" 
d="M238 -10q-112 0 -155.5 44.5t-43.5 123.5q0 118 78.5 161t288.5 43h30q-2 65 -28.5 90.5t-110.5 25.5q-89 0 -164 -47l-51 76q34 23 95.5 42.5t128.5 19.5q71 0 115 -12t68 -41t32.5 -68t8.5 -102v-198q0 -41 8.5 -51.5t46.5 -10.5v-85q-7 -2 -40 -2q-45 0 -64.5 14
t-30.5 49q-51 -72 -212 -72zM254 74q96 0 139 40.5t43 130.5v34h-25q-116 0 -175 -10.5t-81.5 -34t-22.5 -69.5q0 -47 27 -69t95 -22zM263 805l148 164h118l-176 -164h-90zM314 602q-94 0 -136.5 42t-57.5 120l72 15q11 -49 37 -73t85 -24t85 24t37 73l73 -14
q-17 -79 -59.5 -121t-135.5 -42z" />
    <glyph glyph-name="uni1EB0" unicode="&#x1eb0;" horiz-adv-x="742" 
d="M22 0l297 746h103l297 -746h-104l-61 156h-370l-61 -156h-101zM218 249h300l-150 376zM333 976l-176 164h118l148 -164h-90zM369 773q-94 0 -136.5 42t-57.5 120l72 15q11 -49 37 -73t85 -24t85 24t37 73l73 -14q-17 -79 -59.5 -121t-135.5 -42z" />
    <glyph glyph-name="uni1EB1" unicode="&#x1eb1;" horiz-adv-x="627" 
d="M238 -10q-112 0 -155.5 44.5t-43.5 123.5q0 118 78.5 161t288.5 43h30q-2 65 -28.5 90.5t-110.5 25.5q-89 0 -164 -47l-51 76q34 23 95.5 42.5t128.5 19.5q71 0 115 -12t68 -41t32.5 -68t8.5 -102v-198q0 -41 8.5 -51.5t46.5 -10.5v-85q-7 -2 -40 -2q-45 0 -64.5 14
t-30.5 49q-51 -72 -212 -72zM254 74q96 0 139 40.5t43 130.5v34h-25q-116 0 -175 -10.5t-81.5 -34t-22.5 -69.5q0 -47 27 -69t95 -22zM278 805l-176 164h118l148 -164h-90zM314 602q-94 0 -136.5 42t-57.5 120l72 15q11 -49 37 -73t85 -24t85 24t37 73l73 -14
q-17 -79 -59.5 -121t-135.5 -42z" />
    <glyph glyph-name="uni1EB2" unicode="&#x1eb2;" horiz-adv-x="742" 
d="M22 0l297 746h103l297 -746h-104l-61 156h-370l-61 -156h-101zM218 249h300l-150 376zM369 773q-94 0 -136.5 42t-57.5 120l72 15q11 -49 37 -73t85 -24t85 24t37 73l73 -14q-17 -79 -59.5 -121t-135.5 -42zM335 958q-5 38 4.5 60t42.5 43q29 18 37.5 26.5t8.5 23.5
q0 35 -61 35q-47 0 -87 -20l-28 59q46 24 119 24q68 0 100.5 -24t32.5 -64q0 -32 -14.5 -52t-45.5 -38q-27 -17 -34.5 -30t-6.5 -43h-68z" />
    <glyph glyph-name="uni1EB3" unicode="&#x1eb3;" horiz-adv-x="627" 
d="M238 -10q-112 0 -155.5 44.5t-43.5 123.5q0 118 78.5 161t288.5 43h30q-2 65 -28.5 90.5t-110.5 25.5q-89 0 -164 -47l-51 76q34 23 95.5 42.5t128.5 19.5q71 0 115 -12t68 -41t32.5 -68t8.5 -102v-198q0 -41 8.5 -51.5t46.5 -10.5v-85q-7 -2 -40 -2q-45 0 -64.5 14
t-30.5 49q-51 -72 -212 -72zM254 74q96 0 139 40.5t43 130.5v34h-25q-116 0 -175 -10.5t-81.5 -34t-22.5 -69.5q0 -47 27 -69t95 -22zM314 602q-94 0 -136.5 42t-57.5 120l72 15q11 -49 37 -73t85 -24t85 24t37 73l73 -14q-17 -79 -59.5 -121t-135.5 -42zM280 787
q-5 38 4.5 60t42.5 43q29 18 37.5 26.5t8.5 23.5q0 35 -61 35q-47 0 -87 -20l-28 59q46 24 119 24q68 0 100.5 -24t32.5 -64q0 -32 -14.5 -52t-45.5 -38q-27 -17 -34.5 -30t-6.5 -43h-68z" />
    <glyph glyph-name="uni1EB4" unicode="&#x1eb4;" horiz-adv-x="742" 
d="M22 0l297 746h103l297 -746h-104l-61 156h-370l-61 -156h-101zM218 249h300l-150 376zM228 988l-59 46q66 83 134 83q36 0 76.5 -24.5t62.5 -24.5q33 0 80 55l56 -46q-71 -89 -134 -89q-33 0 -75 25t-64 25q-38 0 -77 -50zM369 773q-94 0 -136.5 42t-57.5 120l72 15
q11 -49 37 -73t85 -24t85 24t37 73l73 -14q-17 -79 -59.5 -121t-135.5 -42z" />
    <glyph glyph-name="uni1EB5" unicode="&#x1eb5;" horiz-adv-x="627" 
d="M238 -10q-112 0 -155.5 44.5t-43.5 123.5q0 118 78.5 161t288.5 43h30q-2 65 -28.5 90.5t-110.5 25.5q-89 0 -164 -47l-51 76q34 23 95.5 42.5t128.5 19.5q71 0 115 -12t68 -41t32.5 -68t8.5 -102v-198q0 -41 8.5 -51.5t46.5 -10.5v-85q-7 -2 -40 -2q-45 0 -64.5 14
t-30.5 49q-51 -72 -212 -72zM254 74q96 0 139 40.5t43 130.5v34h-25q-116 0 -175 -10.5t-81.5 -34t-22.5 -69.5q0 -47 27 -69t95 -22zM173 817l-59 46q66 83 134 83q36 0 76.5 -24.5t62.5 -24.5q33 0 80 55l56 -46q-71 -89 -134 -89q-33 0 -75 25t-64 25q-38 0 -77 -50z
M314 602q-94 0 -136.5 42t-57.5 120l72 15q11 -49 37 -73t85 -24t85 24t37 73l73 -14q-17 -79 -59.5 -121t-135.5 -42z" />
    <glyph glyph-name="uni1EB6" unicode="&#x1eb6;" horiz-adv-x="742" 
d="M22 0l297 746h103l297 -746h-104l-61 156h-370l-61 -156h-101zM218 249h300l-150 376zM321 -180v116h98v-116h-98zM369 773q-94 0 -136.5 42t-57.5 120l72 15q11 -49 37 -73t85 -24t85 24t37 73l73 -14q-17 -79 -59.5 -121t-135.5 -42z" />
    <glyph glyph-name="uni1EB7" unicode="&#x1eb7;" horiz-adv-x="627" 
d="M238 -10q-112 0 -155.5 44.5t-43.5 123.5q0 118 78.5 161t288.5 43h30q-2 65 -28.5 90.5t-110.5 25.5q-89 0 -164 -47l-51 76q34 23 95.5 42.5t128.5 19.5q71 0 115 -12t68 -41t32.5 -68t8.5 -102v-198q0 -41 8.5 -51.5t46.5 -10.5v-85q-7 -2 -40 -2q-45 0 -64.5 14
t-30.5 49q-51 -72 -212 -72zM254 74q96 0 139 40.5t43 130.5v34h-25q-116 0 -175 -10.5t-81.5 -34t-22.5 -69.5q0 -47 27 -69t95 -22zM261 -180v116h98v-116h-98zM314 602q-94 0 -136.5 42t-57.5 120l72 15q11 -49 37 -73t85 -24t85 24t37 73l73 -14q-17 -79 -59.5 -121
t-135.5 -42z" />
    <glyph glyph-name="uni1EB8" unicode="&#x1eb8;" horiz-adv-x="652" 
d="M84 0v741h507v-97h-406v-213h396v-96h-396v-242h410v-93h-511zM294 -180v116h98v-116h-98z" />
    <glyph glyph-name="uni1EB9" unicode="&#x1eb9;" horiz-adv-x="600" 
d="M318 -11q-67 0 -116 15t-78.5 40t-47.5 63.5t-24.5 79t-6.5 92.5q0 65 11.5 113.5t40 90.5t84 64t135.5 22q48 0 85 -10t62 -25t42 -41.5t26 -51t13.5 -62t5.5 -66.5t0 -72h-411q5 -83 43.5 -125.5t135.5 -42.5q62 0 101 13.5t76 41.5l52 -68q-91 -71 -229 -71zM313 483
q-90 0 -128 -39.5t-45 -116.5h318q-2 32 -4.5 50.5t-11 41.5t-23 35t-41.5 20.5t-65 8.5zM261 -180v116h98v-116h-98z" />
    <glyph glyph-name="uni1EBA" unicode="&#x1eba;" horiz-adv-x="652" 
d="M84 0v741h507v-97h-406v-213h396v-96h-396v-242h410v-93h-511zM309 771q-5 38 4.5 61t42.5 43q28 17 37 26t9 23q0 35 -61 35q-47 0 -87 -20l-28 59q46 24 119 24q68 0 100.5 -24t32.5 -63q0 -33 -14.5 -53t-45.5 -38q-27 -17 -34.5 -30t-6.5 -43h-68z" />
    <glyph glyph-name="uni1EBB" unicode="&#x1ebb;" horiz-adv-x="600" 
d="M318 -11q-67 0 -116 15t-78.5 40t-47.5 63.5t-24.5 79t-6.5 92.5q0 65 11.5 113.5t40 90.5t84 64t135.5 22q48 0 85 -10t62 -25t42 -41.5t26 -51t13.5 -62t5.5 -66.5t0 -72h-411q5 -83 43.5 -125.5t135.5 -42.5q62 0 101 13.5t76 41.5l52 -68q-91 -71 -229 -71zM313 483
q-90 0 -128 -39.5t-45 -116.5h318q-2 32 -4.5 50.5t-11 41.5t-23 35t-41.5 20.5t-65 8.5zM269 601q-5 38 4.5 61t42.5 43q28 17 37 26t9 23q0 35 -61 35q-47 0 -87 -20l-28 59q46 24 119 24q68 0 100.5 -24t32.5 -63q0 -33 -14.5 -53t-45.5 -38q-27 -17 -34.5 -30t-6.5 -43
h-68z" />
    <glyph glyph-name="uni1EBC" unicode="&#x1ebc;" horiz-adv-x="652" 
d="M84 0v741h507v-97h-406v-213h396v-96h-396v-242h410v-93h-511zM189 796l-60 47q67 83 134 83q37 0 77 -25t62 -25q32 0 80 55l57 -46q-72 -90 -135 -90q-33 0 -75 25t-64 25q-38 0 -76 -49z" />
    <glyph glyph-name="uni1EBD" unicode="&#x1ebd;" horiz-adv-x="600" 
d="M318 -11q-67 0 -116 15t-78.5 40t-47.5 63.5t-24.5 79t-6.5 92.5q0 65 11.5 113.5t40 90.5t84 64t135.5 22q48 0 85 -10t62 -25t42 -41.5t26 -51t13.5 -62t5.5 -66.5t0 -72h-411q5 -83 43.5 -125.5t135.5 -42.5q62 0 101 13.5t76 41.5l52 -68q-91 -71 -229 -71zM313 483
q-90 0 -128 -39.5t-45 -116.5h318q-2 32 -4.5 50.5t-11 41.5t-23 35t-41.5 20.5t-65 8.5zM152 616l-60 47q67 83 134 83q37 0 77 -25t62 -25q32 0 80 55l57 -46q-72 -90 -135 -90q-33 0 -75 25t-64 25q-38 0 -76 -49z" />
    <glyph glyph-name="uni1EBE" unicode="&#x1ebe;" horiz-adv-x="652" 
d="M9 869l148 164h118l-177 -164h-89zM118 784l153 164h105l153 -164h-94l-113 100l-110 -100h-94zM84 0v741h507v-97h-406v-213h396v-96h-396v-242h410v-93h-511z" />
    <glyph glyph-name="uni1EBF" unicode="&#x1ebf;" horiz-adv-x="600" 
d="M-15 698l148 164h118l-177 -164h-89zM94 613l153 164h105l153 -164h-94l-113 100l-110 -100h-94zM318 -11q-67 0 -116 15t-78.5 40t-47.5 63.5t-24.5 79t-6.5 92.5q0 65 11.5 113.5t40 90.5t84 64t135.5 22q48 0 85 -10t62 -25t42 -41.5t26 -51t13.5 -62t5.5 -66.5t0 -72
h-411q5 -83 43.5 -125.5t135.5 -42.5q62 0 101 13.5t76 41.5l52 -68q-91 -71 -229 -71zM313 483q-90 0 -128 -39.5t-45 -116.5h318q-2 32 -4.5 50.5t-11 41.5t-23 35t-41.5 20.5t-65 8.5z" />
    <glyph glyph-name="uni1EC0" unicode="&#x1ec0;" horiz-adv-x="652" 
d="M553 869l-176 164h118l148 -164h-90zM119 784l153 164h105l153 -164h-94l-113 100l-110 -100h-94zM84 0v741h507v-97h-406v-213h396v-96h-396v-242h410v-93h-511z" />
    <glyph glyph-name="uni1EC1" unicode="&#x1ec1;" horiz-adv-x="600" 
d="M527 698l-176 164h118l148 -164h-90zM93 613l153 164h105l153 -164h-94l-113 100l-110 -100h-94zM318 -11q-67 0 -116 15t-78.5 40t-47.5 63.5t-24.5 79t-6.5 92.5q0 65 11.5 113.5t40 90.5t84 64t135.5 22q48 0 85 -10t62 -25t42 -41.5t26 -51t13.5 -62t5.5 -66.5t0 -72
h-411q5 -83 43.5 -125.5t135.5 -42.5q62 0 101 13.5t76 41.5l52 -68q-91 -71 -229 -71zM313 483q-90 0 -128 -39.5t-45 -116.5h318q-2 32 -4.5 50.5t-11 41.5t-23 35t-41.5 20.5t-65 8.5z" />
    <glyph glyph-name="uni1EC2" unicode="&#x1ec2;" horiz-adv-x="652" 
d="M84 0v741h507v-97h-406v-213h396v-96h-396v-242h410v-93h-511zM120 784l153 164h105l153 -164h-94l-113 100l-111 -100h-93zM292 973q-5 38 4.5 60t42.5 43q29 18 37.5 26.5t8.5 23.5q0 35 -61 35q-47 0 -87 -20l-28 58q46 25 119 25q68 0 100.5 -24t32.5 -64
q0 -32 -14.5 -52t-45.5 -38q-27 -17 -34.5 -30t-6.5 -43h-68z" />
    <glyph glyph-name="uni1EC3" unicode="&#x1ec3;" horiz-adv-x="600" 
d="M318 -11q-67 0 -116 15t-78.5 40t-47.5 63.5t-24.5 79t-6.5 92.5q0 65 11.5 113.5t40 90.5t84 64t135.5 22q48 0 85 -10t62 -25t42 -41.5t26 -51t13.5 -62t5.5 -66.5t0 -72h-411q5 -83 43.5 -125.5t135.5 -42.5q62 0 101 13.5t76 41.5l52 -68q-91 -71 -229 -71zM313 483
q-90 0 -128 -39.5t-45 -116.5h318q-2 32 -4.5 50.5t-11 41.5t-23 35t-41.5 20.5t-65 8.5zM92 613l153 164h105l153 -164h-94l-113 100l-111 -100h-93zM264 802q-5 38 4.5 60t42.5 43q29 18 37.5 26.5t8.5 23.5q0 35 -61 35q-47 0 -87 -20l-28 58q46 25 119 25
q68 0 100.5 -24t32.5 -64q0 -32 -14.5 -52t-45.5 -38q-27 -17 -34.5 -30t-6.5 -43h-68z" />
    <glyph glyph-name="uni1EC4" unicode="&#x1ec4;" horiz-adv-x="652" 
d="M84 0v741h507v-97h-406v-213h396v-96h-396v-242h410v-93h-511zM183 974l-59 46q67 84 135 84q36 0 76 -25t62 -25q35 0 80 55l57 -47q-73 -88 -135 -88q-33 0 -75 25t-64 25q-38 0 -77 -50zM118 784l153 164h105l153 -164h-94l-113 100l-111 -100h-93z" />
    <glyph glyph-name="uni1EC5" unicode="&#x1ec5;" horiz-adv-x="600" 
d="M318 -11q-67 0 -116 15t-78.5 40t-47.5 63.5t-24.5 79t-6.5 92.5q0 65 11.5 113.5t40 90.5t84 64t135.5 22q48 0 85 -10t62 -25t42 -41.5t26 -51t13.5 -62t5.5 -66.5t0 -72h-411q5 -83 43.5 -125.5t135.5 -42.5q62 0 101 13.5t76 41.5l52 -68q-91 -71 -229 -71zM313 483
q-90 0 -128 -39.5t-45 -116.5h318q-2 32 -4.5 50.5t-11 41.5t-23 35t-41.5 20.5t-65 8.5zM157 803l-59 46q66 84 135 84q36 0 76 -25t62 -25q35 0 80 55l57 -47q-73 -88 -135 -88q-33 0 -75 25t-64 25q-38 0 -77 -50zM92 613l153 164h105l153 -164h-94l-113 100l-111 -100
h-93z" />
    <glyph glyph-name="uni1EC6" unicode="&#x1ec6;" horiz-adv-x="652" 
d="M118 784l153 164h105l153 -164h-94l-113 101l-111 -101h-93zM84 0v741h507v-97h-406v-213h396v-96h-396v-242h410v-93h-511zM294 -180v116h98v-116h-98z" />
    <glyph glyph-name="uni1EC7" unicode="&#x1ec7;" horiz-adv-x="600" 
d="M92 613l153 164h105l153 -164h-94l-113 101l-111 -101h-93zM318 -11q-67 0 -116 15t-78.5 40t-47.5 63.5t-24.5 79t-6.5 92.5q0 65 11.5 113.5t40 90.5t84 64t135.5 22q48 0 85 -10t62 -25t42 -41.5t26 -51t13.5 -62t5.5 -66.5t0 -72h-411q5 -83 43.5 -125.5t135.5 -42.5
q62 0 101 13.5t76 41.5l52 -68q-91 -71 -229 -71zM313 483q-90 0 -128 -39.5t-45 -116.5h318q-2 32 -4.5 50.5t-11 41.5t-23 35t-41.5 20.5t-65 8.5zM261 -180v116h98v-116h-98z" />
    <glyph glyph-name="uni1EC8" unicode="&#x1ec8;" horiz-adv-x="284" 
d="M92 0v741h100v-741h-100zM110 771q-5 38 4.5 61t42.5 43q28 17 37 26t9 23q0 35 -61 35q-47 0 -87 -20l-28 59q46 24 119 24q68 0 100.5 -24t32.5 -63q0 -33 -14.5 -53t-45.5 -38q-27 -17 -34.5 -30t-6.5 -43h-68z" />
    <glyph glyph-name="uni1EC9" unicode="&#x1ec9;" horiz-adv-x="252" 
d="M78 0v556h96v-556h-96zM94 601q-5 38 4.5 61t42.5 43q28 17 37 26t9 23q0 35 -61 35q-47 0 -87 -20l-28 59q46 24 119 24q68 0 100.5 -24t32.5 -63q0 -33 -14.5 -53t-45.5 -38q-27 -17 -34.5 -30t-6.5 -43h-68z" />
    <glyph glyph-name="uni1ECA" unicode="&#x1eca;" horiz-adv-x="284" 
d="M92 0v741h100v-741h-100zM95 -180v116h98v-116h-98z" />
    <glyph glyph-name="uni1ECB" unicode="&#x1ecb;" horiz-adv-x="252" 
d="M78 0v556h96v-556h-96zM77 623v118h98v-118h-98zM79 -180v116h98v-116h-98z" />
    <glyph glyph-name="uni1ECC" unicode="&#x1ecc;" horiz-adv-x="839" 
d="M419 -12q-378 0 -378 383q0 382 378 382t378 -382q0 -383 -378 -383zM419 82q277 0 277 287t-277 287q-276 0 -276 -287t276 -287zM373 -180v116h98v-116h-98z" />
    <glyph glyph-name="uni1ECD" unicode="&#x1ecd;" horiz-adv-x="639" 
d="M319 -11q-144 0 -209 72t-65 218t65 218t209 72q145 0 210 -72t65 -218t-65 -218t-210 -72zM319 77q95 0 135.5 50t40.5 150t-40.5 149.5t-135.5 49.5t-135.5 -49.5t-40.5 -149.5t40.5 -150t135.5 -50zM270 -180v116h98v-116h-98z" />
    <glyph glyph-name="uni1ECE" unicode="&#x1ece;" horiz-adv-x="839" 
d="M419 -12q-378 0 -378 383q0 382 378 382t378 -382q0 -383 -378 -383zM419 82q277 0 277 287t-277 287q-276 0 -276 -287t276 -287zM382 783q-5 38 4.5 61t42.5 43q28 17 37 26t9 23q0 35 -61 35q-47 0 -87 -20l-28 59q46 24 119 24q68 0 100.5 -24t32.5 -63
q0 -33 -14.5 -53t-45.5 -38q-27 -17 -34.5 -30t-6.5 -43h-68z" />
    <glyph glyph-name="uni1ECF" unicode="&#x1ecf;" horiz-adv-x="639" 
d="M319 -11q-144 0 -209 72t-65 218t65 218t209 72q145 0 210 -72t65 -218t-65 -218t-210 -72zM319 77q95 0 135.5 50t40.5 150t-40.5 149.5t-135.5 49.5t-135.5 -49.5t-40.5 -149.5t40.5 -150t135.5 -50zM283 601q-5 38 4.5 61t42.5 43q28 17 37 26t9 23q0 35 -61 35
q-47 0 -87 -20l-28 59q47 24 119 24q68 0 100.5 -24t32.5 -63q0 -33 -14.5 -53t-45.5 -38q-27 -17 -34.5 -30t-6.5 -43h-68z" />
    <glyph glyph-name="uni1ED0" unicode="&#x1ed0;" horiz-adv-x="839" 
d="M102 869l148 164h118l-177 -164h-89zM211 784l153 164h105l153 -164h-94l-113 100l-110 -100h-94zM419 -12q-378 0 -378 383q0 382 378 382t378 -382q0 -383 -378 -383zM419 82q277 0 277 287t-277 287q-276 0 -276 -287t276 -287z" />
    <glyph glyph-name="uni1ED1" unicode="&#x1ed1;" horiz-adv-x="639" 
d="M5 698l148 164h118l-177 -164h-89zM114 613l153 164h105l153 -164h-94l-113 100l-110 -100h-94zM319 -11q-144 0 -209 72t-65 218t65 218t209 72q145 0 210 -72t65 -218t-65 -218t-210 -72zM319 77q95 0 135.5 50t40.5 150t-40.5 149.5t-135.5 49.5t-135.5 -49.5
t-40.5 -149.5t40.5 -150t135.5 -50z" />
    <glyph glyph-name="uni1ED2" unicode="&#x1ed2;" horiz-adv-x="839" 
d="M646 869l-176 164h118l148 -164h-90zM212 784l153 164h105l153 -164h-94l-113 100l-110 -100h-94zM419 -12q-378 0 -378 383q0 382 378 382t378 -382q0 -383 -378 -383zM419 82q277 0 277 287t-277 287q-276 0 -276 -287t276 -287z" />
    <glyph glyph-name="uni1ED3" unicode="&#x1ed3;" horiz-adv-x="639" 
d="M547 698l-176 164h118l148 -164h-90zM113 613l153 164h105l153 -164h-94l-113 100l-110 -100h-94zM319 -11q-144 0 -209 72t-65 218t65 218t209 72q145 0 210 -72t65 -218t-65 -218t-210 -72zM319 77q95 0 135.5 50t40.5 150t-40.5 149.5t-135.5 49.5t-135.5 -49.5
t-40.5 -149.5t40.5 -150t135.5 -50z" />
    <glyph glyph-name="uni1ED4" unicode="&#x1ed4;" horiz-adv-x="839" 
d="M212 784l153 164h105l153 -164h-94l-113 100l-111 -100h-93zM384 973q-5 38 4.5 60t42.5 43q29 18 37.5 26.5t8.5 23.5q0 35 -61 35q-47 0 -87 -20l-28 58q46 25 119 25q68 0 100.5 -24t32.5 -64q0 -32 -14.5 -52t-45.5 -38q-27 -17 -34.5 -30t-6.5 -43h-68zM419 -12
q-378 0 -378 383q0 382 378 382t378 -382q0 -383 -378 -383zM419 82q277 0 277 287t-277 287q-276 0 -276 -287t276 -287z" />
    <glyph glyph-name="uni1ED5" unicode="&#x1ed5;" horiz-adv-x="639" 
d="M111 613l153 164h105l153 -164h-94l-113 100l-111 -100h-93zM283 802q-5 38 4.5 60t42.5 43q29 18 37.5 26.5t8.5 23.5q0 35 -61 35q-47 0 -87 -20l-28 58q46 25 119 25q68 0 100.5 -24t32.5 -64q0 -32 -14.5 -52t-45.5 -38q-27 -17 -34.5 -30t-6.5 -43h-68zM319 -11
q-144 0 -209 72t-65 218t65 218t209 72q145 0 210 -72t65 -218t-65 -218t-210 -72zM319 77q95 0 135.5 50t40.5 150t-40.5 149.5t-135.5 49.5t-135.5 -49.5t-40.5 -149.5t40.5 -150t135.5 -50z" />
    <glyph glyph-name="uni1ED6" unicode="&#x1ed6;" horiz-adv-x="839" 
d="M419 -12q-378 0 -378 383q0 382 378 382t378 -382q0 -383 -378 -383zM419 82q277 0 277 287t-277 287q-276 0 -276 -287t276 -287zM277 974l-59 46q66 84 135 84q36 0 76 -25t62 -25q35 0 80 55l57 -47q-73 -88 -135 -88q-33 0 -75 25t-64 25q-38 0 -77 -50zM212 784
l153 164h105l153 -164h-94l-113 100l-111 -100h-93z" />
    <glyph glyph-name="uni1ED7" unicode="&#x1ed7;" horiz-adv-x="639" 
d="M319 -11q-144 0 -209 72t-65 218t65 218t209 72q145 0 210 -72t65 -218t-65 -218t-210 -72zM319 77q95 0 135.5 50t40.5 150t-40.5 149.5t-135.5 49.5t-135.5 -49.5t-40.5 -149.5t40.5 -150t135.5 -50zM177 803l-59 46q67 84 135 84q36 0 76 -25t62 -25q35 0 80 55
l57 -47q-73 -88 -135 -88q-33 0 -75 25t-64 25q-38 0 -77 -50zM112 613l153 164h105l153 -164h-94l-113 100l-111 -100h-93z" />
    <glyph glyph-name="uni1ED8" unicode="&#x1ed8;" horiz-adv-x="839" 
d="M212 784l153 164h105l153 -164h-94l-113 101l-111 -101h-93zM369 -180v116h98v-116h-98zM419 -12q-378 0 -378 383q0 382 378 382t378 -382q0 -383 -378 -383zM419 82q277 0 277 287t-277 287q-276 0 -276 -287t276 -287z" />
    <glyph glyph-name="uni1ED9" unicode="&#x1ed9;" horiz-adv-x="639" 
d="M112 613l153 164h105l153 -164h-94l-113 101l-111 -101h-93zM270 -180v116h98v-116h-98zM319 -11q-144 0 -209 72t-65 218t65 218t209 72q145 0 210 -72t65 -218t-65 -218t-210 -72zM319 77q95 0 135.5 50t40.5 150t-40.5 149.5t-135.5 49.5t-135.5 -49.5t-40.5 -149.5
t40.5 -150t135.5 -50z" />
    <glyph glyph-name="uni1EDA" unicode="&#x1eda;" horiz-adv-x="839" 
d="M334 784l148 164h119l-177 -164h-90zM419 -12q-378 0 -378 383q0 382 378 382q138 0 227 -52q38 1 54.5 19.5t17.5 40.5h-48v113h104v-103q0 -84 -74 -112q97 -95 97 -288q0 -383 -378 -383zM419 82q277 0 277 287t-277 287q-276 0 -276 -287t276 -287z" />
    <glyph glyph-name="uni1EDB" unicode="&#x1edb;" horiz-adv-x="648" 
d="M211 613l148 164h119l-177 -164h-90zM319 -11q-144 0 -209 72t-65 218t65 218t209 72q103 0 167 -38q62 5 67 59h-49v112h104v-101q0 -85 -72 -113q58 -70 58 -209q0 -146 -65 -218t-210 -72zM319 77q95 0 135.5 50t40.5 150t-40.5 149.5t-135.5 49.5t-135.5 -49.5
t-40.5 -149.5t40.5 -150t135.5 -50z" />
    <glyph glyph-name="uni1EDC" unicode="&#x1edc;" horiz-adv-x="839" 
d="M419 -12q-378 0 -378 383q0 382 378 382q138 0 227 -52q38 1 54.5 19.5t17.5 40.5h-48v113h104v-103q0 -84 -74 -112q97 -95 97 -288q0 -383 -378 -383zM419 82q277 0 277 287t-277 287q-276 0 -276 -287t276 -287zM412 784l-177 164h119l148 -164h-90z" />
    <glyph glyph-name="uni1EDD" unicode="&#x1edd;" horiz-adv-x="648" 
d="M319 -11q-144 0 -209 72t-65 218t65 218t209 72q103 0 167 -38q62 5 67 59h-49v112h104v-101q0 -85 -72 -113q58 -70 58 -209q0 -146 -65 -218t-210 -72zM319 77q95 0 135.5 50t40.5 150t-40.5 149.5t-135.5 49.5t-135.5 -49.5t-40.5 -149.5t40.5 -150t135.5 -50z
M312 613l-177 164h119l148 -164h-90z" />
    <glyph glyph-name="uni1EDE" unicode="&#x1ede;" horiz-adv-x="839" 
d="M419 -12q-378 0 -378 383q0 382 378 382q138 0 227 -52q38 1 54.5 19.5t17.5 40.5h-48v113h104v-103q0 -84 -74 -112q97 -95 97 -288q0 -383 -378 -383zM419 82q277 0 277 287t-277 287q-276 0 -276 -287t276 -287zM381 783q-5 38 4.5 61t42.5 43q28 17 37 26t9 23
q0 35 -61 35q-47 0 -87 -20l-28 59q46 24 119 24q68 0 100.5 -24t32.5 -63q0 -33 -14.5 -53t-45.5 -38q-27 -17 -34.5 -30t-6.5 -43h-68z" />
    <glyph glyph-name="uni1EDF" unicode="&#x1edf;" horiz-adv-x="648" 
d="M319 -11q-144 0 -209 72t-65 218t65 218t209 72q103 0 167 -38q62 5 67 59h-49v112h104v-101q0 -85 -72 -113q58 -70 58 -209q0 -146 -65 -218t-210 -72zM319 77q95 0 135.5 50t40.5 150t-40.5 149.5t-135.5 49.5t-135.5 -49.5t-40.5 -149.5t40.5 -150t135.5 -50z
M270 601q-5 38 4.5 61t42.5 43q28 17 37 26t9 23q0 35 -61 35q-47 0 -87 -20l-28 59q46 24 119 24q68 0 100.5 -24t32.5 -63q0 -33 -14.5 -53t-45.5 -38q-27 -17 -34.5 -30t-6.5 -43h-68z" />
    <glyph glyph-name="uni1EE0" unicode="&#x1ee0;" horiz-adv-x="839" 
d="M419 -12q-378 0 -378 383q0 382 378 382q138 0 227 -52q38 1 54.5 19.5t17.5 40.5h-48v113h104v-103q0 -84 -74 -112q97 -95 97 -288q0 -383 -378 -383zM419 82q277 0 277 287t-277 287q-276 0 -276 -287t276 -287zM256 786l-60 47q67 83 134 83q37 0 77 -25t62 -25
q32 0 80 55l57 -46q-72 -90 -135 -90q-33 0 -75 25t-64 25q-38 0 -76 -49z" />
    <glyph glyph-name="uni1EE1" unicode="&#x1ee1;" horiz-adv-x="648" 
d="M152 616l-50 41q18 37 49.5 60.5t66.5 23.5q36 0 78 -25t65 -25q39 0 70 54l51 -44q-46 -85 -116 -85q-33 0 -76.5 25t-65.5 25q-20 0 -40 -13.5t-32 -36.5zM319 -11q-144 0 -209 72t-65 218t65 218t209 72q103 0 167 -38q62 5 67 59h-49v112h104v-101q0 -85 -72 -113
q58 -70 58 -209q0 -146 -65 -218t-210 -72zM319 77q95 0 135.5 50t40.5 150t-40.5 149.5t-135.5 49.5t-135.5 -49.5t-40.5 -149.5t40.5 -150t135.5 -50z" />
    <glyph glyph-name="uni1EE2" unicode="&#x1ee2;" horiz-adv-x="839" 
d="M419 -12q-378 0 -378 383q0 382 378 382q138 0 227 -52q38 1 54.5 19.5t17.5 40.5h-48v113h104v-103q0 -84 -74 -112q97 -95 97 -288q0 -383 -378 -383zM419 82q277 0 277 287t-277 287q-276 0 -276 -287t276 -287zM369 -180v116h98v-116h-98z" />
    <glyph glyph-name="uni1EE3" unicode="&#x1ee3;" horiz-adv-x="648" 
d="M319 -11q-144 0 -209 72t-65 218t65 218t209 72q103 0 167 -38q62 5 67 59h-49v112h104v-101q0 -85 -72 -113q58 -70 58 -209q0 -146 -65 -218t-210 -72zM319 77q95 0 135.5 50t40.5 150t-40.5 149.5t-135.5 49.5t-135.5 -49.5t-40.5 -149.5t40.5 -150t135.5 -50z
M270 -180v116h98v-116h-98z" />
    <glyph glyph-name="uni1EE4" unicode="&#x1ee4;" horiz-adv-x="788" 
d="M393 -13q-80 0 -138.5 16.5t-91.5 41.5t-52.5 64.5t-25.5 76.5t-6 86v469h101v-457q0 -101 45 -151.5t169 -50.5q125 0 171.5 50.5t46.5 151.5v457h98v-469q0 -49 -6 -86.5t-26 -76.5t-54 -64.5t-92.5 -41.5t-138.5 -16zM344 -180v116h98v-116h-98z" />
    <glyph glyph-name="uni1EE5" unicode="&#x1ee5;" horiz-adv-x="625" 
d="M314 -10q-79 0 -128.5 15t-74.5 49.5t-33.5 76t-8.5 107.5v318h97v-320q0 -28 1 -42.5t5 -36.5t13 -33t25 -23t42 -17t62 -5t62 5t42 17t25 23t13 34t4.5 37t0.5 44v317h95v-315q0 -68 -8 -109.5t-32.5 -76.5t-73.5 -50t-128 -15zM262 -180v116h98v-116h-98z" />
    <glyph glyph-name="uni1EE6" unicode="&#x1ee6;" horiz-adv-x="788" 
d="M393 -13q-80 0 -138.5 16.5t-91.5 41.5t-52.5 64.5t-25.5 76.5t-6 86v469h101v-457q0 -101 45 -151.5t169 -50.5q125 0 171.5 50.5t46.5 151.5v457h98v-469q0 -49 -6 -86.5t-26 -76.5t-54 -64.5t-92.5 -41.5t-138.5 -16zM359 763q-5 38 4.5 61t42.5 43q28 17 37 26t9 23
q0 35 -61 35q-47 0 -87 -20l-28 59q47 24 119 24q68 0 100.5 -24t32.5 -63q0 -33 -14.5 -53t-45.5 -38q-27 -17 -34.5 -30t-6.5 -43h-68z" />
    <glyph glyph-name="uni1EE7" unicode="&#x1ee7;" horiz-adv-x="625" 
d="M314 -10q-79 0 -128.5 15t-74.5 49.5t-33.5 76t-8.5 107.5v318h97v-320q0 -28 1 -42.5t5 -36.5t13 -33t25 -23t42 -17t62 -5t62 5t42 17t25 23t13 34t4.5 37t0.5 44v317h95v-315q0 -68 -8 -109.5t-32.5 -76.5t-73.5 -50t-128 -15zM276 601q-5 38 4.5 61t42.5 43
q28 17 37 26t9 23q0 35 -61 35q-47 0 -87 -20l-28 59q47 24 119 24q68 0 100.5 -24t32.5 -63q0 -33 -14.5 -53t-45.5 -38q-27 -17 -34.5 -30t-6.5 -43h-68z" />
    <glyph glyph-name="uni1EE8" unicode="&#x1ee8;" horiz-adv-x="805" 
d="M308 784l148 164h119l-177 -164h-90zM393 -13q-80 0 -138.5 16.5t-91.5 41.5t-52.5 64.5t-25.5 76.5t-6 86v469h101v-457q0 -101 45 -151.5t169 -50.5q125 0 171.5 50.5t46.5 151.5v457h81q39 1 56.5 19t18.5 41h-48v112h103v-102q0 -48 -27.5 -81.5t-85.5 -39.5v-418
q0 -49 -6 -86.5t-26 -76.5t-54 -64.5t-92.5 -41.5t-138.5 -16z" />
    <glyph glyph-name="uni1EE9" unicode="&#x1ee9;" horiz-adv-x="668" 
d="M227 613l148 164h119l-177 -164h-90zM314 -10q-79 0 -128.5 15t-74.5 49.5t-33.5 76t-8.5 107.5v318h97v-320q0 -28 1 -42.5t5 -36.5t13 -33t25 -23t42 -17t62 -5t62 5t42 17t25 23t13 34t4.5 37t0.5 44v317h94q32 4 46.5 21t14.5 37h-48v113h104v-102q0 -48 -28.5 -82.5
t-87.5 -39.5v-262q0 -68 -8 -109.5t-32.5 -76.5t-73.5 -50t-128 -15z" />
    <glyph glyph-name="uni1EEA" unicode="&#x1eea;" horiz-adv-x="805" 
d="M386 784l-177 164h119l148 -164h-90zM393 -13q-80 0 -138.5 16.5t-91.5 41.5t-52.5 64.5t-25.5 76.5t-6 86v469h101v-457q0 -101 45 -151.5t169 -50.5q125 0 171.5 50.5t46.5 151.5v457h81q39 1 56.5 19t18.5 41h-48v112h103v-102q0 -48 -27.5 -81.5t-85.5 -39.5v-418
q0 -49 -6 -86.5t-26 -76.5t-54 -64.5t-92.5 -41.5t-138.5 -16z" />
    <glyph glyph-name="uni1EEB" unicode="&#x1eeb;" horiz-adv-x="668" 
d="M305 613l-177 164h119l148 -164h-90zM314 -10q-79 0 -128.5 15t-74.5 49.5t-33.5 76t-8.5 107.5v318h97v-320q0 -28 1 -42.5t5 -36.5t13 -33t25 -23t42 -17t62 -5t62 5t42 17t25 23t13 34t4.5 37t0.5 44v317h94q32 4 46.5 21t14.5 37h-48v113h104v-102q0 -48 -28.5 -82.5
t-87.5 -39.5v-262q0 -68 -8 -109.5t-32.5 -76.5t-73.5 -50t-128 -15z" />
    <glyph glyph-name="uni1EEC" unicode="&#x1eec;" horiz-adv-x="805" 
d="M359 763q-5 38 4.5 61t42.5 43q28 17 37 26t9 23q0 35 -61 35q-47 0 -87 -20l-28 59q47 24 119 24q68 0 100.5 -24t32.5 -63q0 -33 -14.5 -53t-45.5 -38q-27 -17 -34.5 -30t-6.5 -43h-68zM393 -13q-80 0 -138.5 16.5t-91.5 41.5t-52.5 64.5t-25.5 76.5t-6 86v469h101
v-457q0 -101 45 -151.5t169 -50.5q125 0 171.5 50.5t46.5 151.5v457h81q39 1 56.5 19t18.5 41h-48v112h103v-102q0 -48 -27.5 -81.5t-85.5 -39.5v-418q0 -49 -6 -86.5t-26 -76.5t-54 -64.5t-92.5 -41.5t-138.5 -16z" />
    <glyph glyph-name="uni1EED" unicode="&#x1eed;" horiz-adv-x="668" 
d="M278 601q-5 38 4.5 61t42.5 43q28 17 37 26t9 23q0 35 -61 35q-47 0 -87 -20l-28 59q46 24 119 24q68 0 100.5 -24t32.5 -63q0 -33 -14.5 -53t-45.5 -38q-27 -17 -34.5 -30t-6.5 -43h-68zM314 -10q-79 0 -128.5 15t-74.5 49.5t-33.5 76t-8.5 107.5v318h97v-320
q0 -28 1 -42.5t5 -36.5t13 -33t25 -23t42 -17t62 -5t62 5t42 17t25 23t13 34t4.5 37t0.5 44v317h94q32 4 46.5 21t14.5 37h-48v113h104v-102q0 -48 -28.5 -82.5t-87.5 -39.5v-262q0 -68 -8 -109.5t-32.5 -76.5t-73.5 -50t-128 -15z" />
    <glyph glyph-name="uni1EEE" unicode="&#x1eee;" horiz-adv-x="805" 
d="M393 -13q-80 0 -138.5 16.5t-91.5 41.5t-52.5 64.5t-25.5 76.5t-6 86v469h101v-457q0 -101 45 -151.5t169 -50.5q125 0 171.5 50.5t46.5 151.5v457h81q39 1 56.5 19t18.5 41h-48v112h103v-102q0 -48 -27.5 -81.5t-85.5 -39.5v-418q0 -49 -6 -86.5t-26 -76.5t-54 -64.5
t-92.5 -41.5t-138.5 -16zM252 786l-60 47q67 83 134 83q37 0 77 -25t62 -25q32 0 80 55l57 -46q-72 -90 -135 -90q-33 0 -75 25t-64 25q-38 0 -76 -49z" />
    <glyph glyph-name="uni1EEF" unicode="&#x1eef;" horiz-adv-x="668" 
d="M314 -10q-79 0 -128.5 15t-74.5 49.5t-33.5 76t-8.5 107.5v318h97v-320q0 -28 1 -42.5t5 -36.5t13 -33t25 -23t42 -17t62 -5t62 5t42 17t25 23t13 34t4.5 37t0.5 44v317h94q32 4 46.5 21t14.5 37h-48v113h104v-102q0 -48 -28.5 -82.5t-87.5 -39.5v-262q0 -68 -8 -109.5
t-32.5 -76.5t-73.5 -50t-128 -15zM165 615l-60 47q67 83 134 83q37 0 77 -25t62 -25q32 0 80 55l57 -46q-72 -90 -135 -90q-33 0 -75 25t-64 25q-38 0 -76 -49z" />
    <glyph glyph-name="uni1EF0" unicode="&#x1ef0;" horiz-adv-x="805" 
d="M344 -180v116h98v-116h-98zM393 -13q-80 0 -138.5 16.5t-91.5 41.5t-52.5 64.5t-25.5 76.5t-6 86v469h101v-457q0 -101 45 -151.5t169 -50.5q125 0 171.5 50.5t46.5 151.5v457h81q39 1 56.5 19t18.5 41h-48v112h103v-102q0 -48 -27.5 -81.5t-85.5 -39.5v-418
q0 -49 -6 -86.5t-26 -76.5t-54 -64.5t-92.5 -41.5t-138.5 -16z" />
    <glyph glyph-name="uni1EF1" unicode="&#x1ef1;" horiz-adv-x="668" 
d="M262 -180v116h98v-116h-98zM314 -10q-79 0 -128.5 15t-74.5 49.5t-33.5 76t-8.5 107.5v318h97v-320q0 -28 1 -42.5t5 -36.5t13 -33t25 -23t42 -17t62 -5t62 5t42 17t25 23t13 34t4.5 37t0.5 44v317h94q32 4 46.5 21t14.5 37h-48v113h104v-102q0 -48 -28.5 -82.5
t-87.5 -39.5v-262q0 -68 -8 -109.5t-32.5 -76.5t-73.5 -50t-128 -15z" />
    <glyph glyph-name="Ygrave" unicode="&#x1ef2;" horiz-adv-x="716" 
d="M308 0v280l-298 461h110l239 -369l241 369h105l-297 -459v-282h-100zM355 784l-177 164h119l148 -164h-90z" />
    <glyph glyph-name="ygrave" unicode="&#x1ef3;" horiz-adv-x="544" 
d="M128 -168q-39 0 -51 1v79h43q41 0 58.5 10.5t27.5 40.5l17 43l-216 550h104l163 -434l162 434h102l-236 -603q-25 -66 -63 -93.5t-111 -27.5zM274 613l-177 164h119l148 -164h-90z" />
    <glyph glyph-name="uni1EF4" unicode="&#x1ef4;" horiz-adv-x="716" 
d="M308 0v280l-298 461h110l239 -369l241 369h105l-297 -459v-282h-100zM307 -180v116h98v-116h-98z" />
    <glyph glyph-name="uni1EF5" unicode="&#x1ef5;" horiz-adv-x="544" 
d="M128 -168q-39 0 -51 1v79h43q41 0 58.5 10.5t27.5 40.5l17 43l-216 550h104l163 -434l162 434h102l-236 -603q-25 -66 -63 -93.5t-111 -27.5zM410 -180v116h98v-116h-98z" />
    <glyph glyph-name="uni1EF6" unicode="&#x1ef6;" horiz-adv-x="716" 
d="M308 0v280l-298 461h110l239 -369l241 369h105l-297 -459v-282h-100zM322 763q-5 38 4.5 61t42.5 43q28 17 37 26t9 23q0 35 -61 35q-47 0 -87 -20l-28 59q47 24 119 24q68 0 100.5 -24t32.5 -63q0 -33 -14.5 -53t-45.5 -38q-27 -17 -34.5 -30t-6.5 -43h-68z" />
    <glyph glyph-name="uni1EF7" unicode="&#x1ef7;" horiz-adv-x="544" 
d="M128 -168q-39 0 -51 1v79h43q41 0 58.5 10.5t27.5 40.5l17 43l-216 550h104l163 -434l162 434h102l-236 -603q-25 -66 -63 -93.5t-111 -27.5zM240 601q-5 38 4.5 61t42.5 43q28 17 37 26t9 23q0 35 -61 35q-47 0 -87 -20l-28 59q46 24 119 24q68 0 100.5 -24t32.5 -63
q0 -33 -14.5 -53t-45.5 -38q-27 -17 -34.5 -30t-6.5 -43h-68z" />
    <glyph glyph-name="uni1EF8" unicode="&#x1ef8;" horiz-adv-x="716" 
d="M308 0v280l-298 461h110l239 -369l241 369h105l-297 -459v-282h-100zM210 796l-60 47q67 83 134 83q37 0 77 -25t62 -25q32 0 80 55l57 -46q-72 -90 -135 -90q-33 0 -75 25t-64 25q-38 0 -76 -49z" />
    <glyph glyph-name="uni1EF9" unicode="&#x1ef9;" horiz-adv-x="544" 
d="M128 -168q-39 0 -51 1v79h43q41 0 58.5 10.5t27.5 40.5l17 43l-216 550h104l163 -434l162 434h102l-236 -603q-25 -66 -63 -93.5t-111 -27.5zM130 616l-60 47q67 83 134 83q37 0 77 -25t62 -25q32 0 80 55l57 -46q-72 -90 -135 -90q-33 0 -75 25t-64 25q-38 0 -76 -49z
" />
    <glyph glyph-name="endash" unicode="&#x2013;" horiz-adv-x="713" 
d="M48 268v91h617v-91h-617z" />
    <glyph glyph-name="emdash" unicode="&#x2014;" horiz-adv-x="932" 
d="M48 268v91h836v-91h-836z" />
    <glyph glyph-name="quoteleft" unicode="&#x2018;" horiz-adv-x="253" 
d="M65 473v100q0 73 19 107t80 64l26 -52q-38 -20 -50 -37t-12 -48h59v-134h-122z" />
    <glyph glyph-name="quoteright" unicode="&#x2019;" horiz-adv-x="253" 
d="M89 470l-26 52q38 20 50 36.5t12 47.5h-60v135h122v-99q0 -74 -19 -108.5t-79 -63.5z" />
    <glyph glyph-name="quotesinglbase" unicode="&#x201a;" horiz-adv-x="253" 
d="M89 -123l-26 51q38 20 50 36.5t12 49.5h-60v133h122v-100q0 -70 -19.5 -106t-78.5 -64z" />
    <glyph glyph-name="quotedblleft" unicode="&#x201c;" horiz-adv-x="448" 
d="M65 476v97q0 72 19 105.5t79 62.5l25 -51q-37 -19 -49 -35t-12 -48h58v-131h-120zM264 476v97q0 72 18.5 105.5t77.5 62.5l26 -51q-38 -20 -50 -36t-12 -47h58v-131h-118z" />
    <glyph glyph-name="quotedblright" unicode="&#x201d;" horiz-adv-x="448" 
d="M88 476l-25 50q37 20 49 36t12 48h-59v131h120v-98q0 -72 -18.5 -105t-78.5 -62zM286 476l-27 50q38 20 50.5 36t12.5 48h-58v131h118v-98q0 -72 -18.5 -105t-77.5 -62z" />
    <glyph glyph-name="quotedblbase" unicode="&#x201e;" horiz-adv-x="448" 
d="M88 -120l-25 50q37 19 49 35t12 49h-59v130h120v-97q0 -69 -19 -104t-78 -63zM286 -120l-27 50q38 19 50.5 35t12.5 49h-58v130h118v-97q0 -69 -19 -104t-77 -63z" />
    <glyph glyph-name="dagger" unicode="&#x2020;" horiz-adv-x="556" 
d="M230 -166v619h-175v92h175v231h96v-231h175v-92h-175v-619h-96z" />
    <glyph glyph-name="daggerdbl" unicode="&#x2021;" horiz-adv-x="556" 
d="M230 -166v252h-175v92h175v275h-175v92h175v231h96v-231h175v-92h-175v-275h175v-92h-175v-252h-96z" />
    <glyph glyph-name="bullet" unicode="&#x2022;" horiz-adv-x="354" 
d="M97 214v180h160v-180h-160z" />
    <glyph glyph-name="ellipsis" unicode="&#x2026;" horiz-adv-x="725" 
d="M65 0v132h122v-132h-122zM301 0v132h122v-132h-122zM538 0v132h122v-132h-122z" />
    <glyph glyph-name="perthousand" unicode="&#x2030;" horiz-adv-x="1606" 
d="M251 278q-107 0 -158.5 62.5t-51.5 174.5q0 111 52 174.5t158 63.5q104 0 155.5 -63.5t51.5 -174.5t-51 -174t-156 -63zM251 356q120 0 120 159q0 157 -120 157q-122 0 -122 -157q0 -159 122 -159zM895 -10q-105 0 -156.5 63t-51.5 175q0 111 51.5 174.5t156.5 63.5
t157 -64t52 -174q0 -112 -52 -175t-157 -63zM895 68q120 0 120 160q0 156 -120 156t-120 -156q0 -160 120 -160zM1357 -10q-106 0 -157.5 63t-51.5 175q0 111 51.5 174.5t157.5 63.5q104 0 156 -64t52 -174q0 -112 -51.5 -175t-156.5 -63zM1357 68q120 0 120 160
q0 156 -120 156q-121 0 -121 -156q0 -160 121 -160zM319 0l414 742h92l-414 -742h-92z" />
    <glyph glyph-name="guilsinglleft" unicode="&#x2039;" horiz-adv-x="439" 
d="M238 0l-151 277l151 279h88l-144 -279l144 -277h-88z" />
    <glyph glyph-name="guilsinglright" unicode="&#x203a;" horiz-adv-x="439" 
d="M112 0l145 278l-145 278h90l151 -278l-151 -278h-90z" />
    <glyph glyph-name="fraction" unicode="&#x2044;" horiz-adv-x="504" 
d="M0 0l415 741h89l-416 -741h-88z" />
    <glyph glyph-name="fraction" unicode="&#x2215;" horiz-adv-x="504" 
d="M0 0l415 741h89l-416 -741h-88z" />
    <glyph glyph-name="zero.superior" unicode="&#x2070;" horiz-adv-x="550" 
d="M275 273q-103 0 -145.5 61.5t-42.5 177.5t42.5 176.5t145.5 60.5t145.5 -60.5t42.5 -176.5t-42.5 -177.5t-145.5 -61.5zM275 340q67 0 89 42t22 130q0 87 -22 128t-89 41q-68 0 -89.5 -40.5t-21.5 -128.5q0 -89 22 -130.5t89 -41.5z" />
    <glyph glyph-name="four.superior" unicode="&#x2074;" horiz-adv-x="510" 
d="M69 379v60l205 302h83l-204 -300h148l13 139h59v-139h77v-62h-77v-100h-73v100h-231z" />
    <glyph glyph-name="five.superior" unicode="&#x2075;" horiz-adv-x="501" 
d="M248 274q-96 0 -176 45l40 60q70 -39 131 -39q59 0 87 19t28 75q0 54 -26.5 73.5t-83.5 19.5q-56 0 -91 -17l-61 16l12 215h290v-66h-225l-6 -101q39 15 99 15q80 0 124 -32t44 -123q0 -95 -46.5 -127.5t-139.5 -32.5z" />
    <glyph glyph-name="six.superior" unicode="&#x2076;" horiz-adv-x="526" 
d="M275 273q-98 0 -144.5 47t-46.5 153q0 145 58.5 206.5t207.5 61.5h27v-66h-29q-101 0 -139.5 -30t-48.5 -98q34 48 134 48q87 0 122 -39.5t35 -117.5q0 -81 -40.5 -123t-135.5 -42zM275 334q59 0 80 25t21 77q0 50 -21.5 75.5t-78.5 25.5q-113 0 -113 -90q0 -61 27.5 -87
t84.5 -26z" />
    <glyph glyph-name="seven.superior" unicode="&#x2077;" horiz-adv-x="429" 
d="M121 279l171 394h-241v68h326v-62l-174 -400h-82z" />
    <glyph glyph-name="eight.superior" unicode="&#x2078;" horiz-adv-x="535" 
d="M267 273q-188 0 -188 140q0 95 77 122q-34 13 -47.5 37t-13.5 62q0 56 38.5 86.5t133.5 30.5t134.5 -30.5t39.5 -86.5q0 -39 -14 -63t-50 -37q79 -25 79 -121q0 -140 -189 -140zM267 333q112 0 112 85t-112 85q-110 0 -110 -85t110 -85zM267 557q54 0 76 16.5t22 51.5
q0 33 -22 49t-76 16q-53 0 -75 -16t-22 -49q0 -35 21.5 -51.5t75.5 -16.5z" />
    <glyph glyph-name="nine.superior" unicode="&#x2079;" horiz-adv-x="526" 
d="M152 279v65h30q100 0 139.5 32t48.5 100q-36 -50 -135 -50q-86 0 -121.5 40t-35.5 119q0 80 41 122t136 42q98 0 144 -47t46 -153q0 -146 -58 -208t-206 -62h-29zM254 483q112 0 112 89q0 61 -27 87t-84 26q-59 0 -80.5 -25t-21.5 -76q0 -50 22 -75.5t79 -25.5z" />
    <glyph glyph-name="zero.inferior" unicode="&#x2080;" horiz-adv-x="550" 
d="M275 -6q-103 0 -145.5 61.5t-42.5 177.5t42.5 176.5t145.5 60.5t145.5 -60.5t42.5 -176.5t-42.5 -177.5t-145.5 -61.5zM275 61q67 0 89 42t22 130q0 87 -22 128t-89 41q-68 0 -89.5 -40.5t-21.5 -128.5q0 -89 22 -130.5t89 -41.5z" />
    <glyph glyph-name="one.inferior" unicode="&#x2081;" horiz-adv-x="340" 
d="M150 0v394h-89v68h166v-462h-77z" />
    <glyph glyph-name="two.inferior" unicode="&#x2082;" horiz-adv-x="460" 
d="M63 0v57l147 139q59 56 76 81t17 62q0 33 -20.5 48.5t-69.5 15.5q-70 0 -120 -27l-34 59q66 34 163 34q80 0 118.5 -29t38.5 -93q0 -52 -23 -87t-88 -98l-102 -98h218v-64h-321z" />
    <glyph glyph-name="three.inferior" unicode="&#x2083;" horiz-adv-x="478" 
d="M231 -6q-101 0 -181 46l39 57q64 -37 136 -37q57 0 80 17.5t23 64.5q0 43 -23 60.5t-90 17.5h-69v62h67q58 0 79.5 12.5t21.5 49.5q0 33 -20.5 45.5t-70.5 12.5q-72 0 -126 -31l-37 57q68 42 173 42q84 0 121.5 -26.5t37.5 -84.5q0 -82 -63 -103q76 -20 76 -122
q0 -76 -42 -108t-132 -32z" />
    <glyph glyph-name="four.inferior" unicode="&#x2084;" horiz-adv-x="510" 
d="M69 100v60l205 302h83l-204 -300h148l13 139h59v-139h77v-62h-77v-100h-73v100h-231z" />
    <glyph glyph-name="five.inferior" unicode="&#x2085;" horiz-adv-x="501" 
d="M248 -5q-96 0 -176 45l40 60q70 -39 131 -39q59 0 87 19t28 75q0 54 -26.5 73.5t-83.5 19.5q-56 0 -91 -17l-61 16l12 215h290v-66h-225l-6 -101q39 15 99 15q80 0 124 -32t44 -123q0 -95 -46.5 -127.5t-139.5 -32.5z" />
    <glyph glyph-name="six.inferior" unicode="&#x2086;" horiz-adv-x="526" 
d="M275 -6q-98 0 -144.5 47t-46.5 153q0 145 58.5 206.5t207.5 61.5h27v-66h-29q-101 0 -139.5 -30t-48.5 -98q34 48 134 48q87 0 122 -39.5t35 -117.5q0 -81 -40.5 -123t-135.5 -42zM275 55q59 0 80 25t21 77q0 50 -21.5 75.5t-78.5 25.5q-113 0 -113 -90q0 -61 27.5 -87
t84.5 -26z" />
    <glyph glyph-name="seven.inferior" unicode="&#x2087;" horiz-adv-x="429" 
d="M121 0l171 394h-241v68h326v-62l-174 -400h-82z" />
    <glyph glyph-name="eight.inferior" unicode="&#x2088;" horiz-adv-x="535" 
d="M267 -6q-188 0 -188 140q0 95 77 122q-34 13 -47.5 37t-13.5 62q0 56 38.5 86.5t133.5 30.5t134.5 -30.5t39.5 -86.5q0 -39 -14 -63t-50 -37q79 -25 79 -121q0 -140 -189 -140zM267 54q112 0 112 85t-112 85q-110 0 -110 -85t110 -85zM267 278q54 0 76 16.5t22 51.5
q0 33 -22 49t-76 16q-53 0 -75 -16t-22 -49q0 -35 21.5 -51.5t75.5 -16.5z" />
    <glyph glyph-name="nine.inferior" unicode="&#x2089;" horiz-adv-x="526" 
d="M152 0v65h30q100 0 139.5 32t48.5 100q-36 -50 -135 -50q-86 0 -121.5 40t-35.5 119q0 80 41 122t136 42q98 0 144 -47t46 -153q0 -146 -58 -208t-206 -62h-29zM254 204q112 0 112 89q0 61 -27 87t-84 26q-59 0 -80.5 -25t-21.5 -76q0 -50 22 -75.5t79 -25.5z" />
    <glyph glyph-name="dong" unicode="&#x20ab;" horiz-adv-x="656" 
d="M334 615v85h152v76h98v-76h72v-85h-72v-611l-75 -7l-11 65q-27 -37 -76.5 -54.5t-137.5 -17.5q-131 0 -185 75.5t-54 215.5q0 138 54.5 212.5t187.5 74.5q159 0 199 -67v114h-152zM305 79q98 0 139.5 46t41.5 156q0 109 -40 152.5t-141 43.5q-91 0 -126 -49t-35 -147
q0 -100 35 -151t126 -51zM90 -155v85h495v-85h-495z" />
    <glyph glyph-name="Euro" unicode="&#x20ac;" horiz-adv-x="677" 
d="M36 408v83h118q17 131 82.5 196.5t190.5 65.5q112 0 189 -40l-46 -84q-58 32 -140 32q-85 0 -127 -43t-55 -127h250v-83h-257v-33v-40h257v-83h-250q13 -88 55 -131.5t125 -43.5q84 0 143 36l49 -77q-78 -48 -197 -48q-125 0 -189 67t-80 197h-118v83h111v38v35h-111z
" />
    <glyph glyph-name="litre" unicode="&#x2113;" horiz-adv-x="538" 
d="M259 336v-168q0 -52 16.5 -72.5t54.5 -20.5q24 0 44.5 9.5t28 17t21.5 23.5l38 -50q-19 -23 -33.5 -36.5t-50 -30t-78.5 -16.5q-71 0 -104.5 36t-33.5 128v90l-61 -57l-34 58l95 87v226q0 90 36 139t106 49q61 0 91 -36.5t30 -98.5q0 -67 -33 -125t-100 -121zM259 423
l2 2q98 90 98 184q0 39 -10.5 55.5t-34.5 16.5q-28 0 -41.5 -26t-13.5 -95v-137z" />
    <glyph glyph-name="afii61352" unicode="&#x2116;" horiz-adv-x="1355" 
d="M84 0v741h110l417 -565v565h96v-741h-93l-434 588v-588h-96zM1029 284q-220 0 -220 235q0 234 220 234q222 0 222 -234q0 -235 -222 -235zM1029 359q140 0 140 158t-140 158q-138 0 -138 -158t138 -158zM836 138v76h387v-76h-387z" />
    <glyph glyph-name="copyrightsound" unicode="&#x2117;" horiz-adv-x="826" 
d="M411 -12q-180 0 -275 105t-95 278t95 278t275 105q181 0 276.5 -105t95.5 -278t-95.5 -278t-276.5 -105zM411 31q165 0 247 92t82 248t-82 248t-247 92q-164 0 -245 -92t-81 -248t81 -248t245 -92zM241 115v498h222q97 0 136 -37t39 -116q0 -81 -39.5 -120.5
t-136.5 -39.5h-154v-185h-67zM308 361h157q56 0 80.5 22t24.5 74t-25 73t-83 21h-154v-190z" />
    <glyph glyph-name="trademark" unicode="&#x2122;" horiz-adv-x="1092" 
d="M491 286v455h84l148 -355l147 355h85v-455h-74v323l-133 -323h-52l-134 323v-323h-71zM215 286v385h-155v70h385v-70h-155v-385h-75z" />
    <glyph glyph-name="estimated" unicode="&#x212e;" horiz-adv-x="656" 
d="M621 289h-441q0 -84 3.5 -119t17.5 -59q47 -78 158 -78q67 0 120 25.5t85 68.5h12l26 -31q-41 -51 -106.5 -79.5t-140.5 -28.5q-143 0 -220.5 84t-77.5 221q0 132 77.5 216.5t213.5 84.5q67 0 121 -26t86 -67t49 -86.5t17 -88.5v-37zM180 328h308q-4 117 -12 146
q-15 58 -71 73q-29 8 -71 8q-100 0 -129.5 -47t-24.5 -180z" />
    <glyph glyph-name="partialdiff" unicode="&#x2202;" horiz-adv-x="639" 
d="M318 -11q-143 0 -208 71t-65 207q0 134 58 206t190 72q133 0 182 -57q-32 134 -177 263l90 38q97 -80 151.5 -197t54.5 -300q0 -158 -66.5 -230.5t-209.5 -72.5zM318 77q95 0 136 48t41 144q0 97 -41 144t-136 47q-93 0 -134 -47t-41 -144q0 -96 41 -144t134 -48z" />
    <glyph glyph-name="product" unicode="&#x220f;" horiz-adv-x="728" 
d="M84 -173v914h560v-914h-100v824h-361v-824h-99z" />
    <glyph glyph-name="summation" unicode="&#x2211;" horiz-adv-x="656" 
d="M42 -165v76l263 382l-252 364v84h541v-94h-418l243 -354l-251 -369h443v-89h-569z" />
    <glyph glyph-name="minus" unicode="&#x2212;" horiz-adv-x="703" 
d="M103 306v93h497v-93h-497z" />
    <glyph glyph-name="radical" unicode="&#x221a;" horiz-adv-x="669" 
d="M222 -5l-166 424h101l118 -301l243 623h96l-291 -746h-101z" />
    <glyph glyph-name="infinity" unicode="&#x221e;" horiz-adv-x="868" 
d="M246 180q-89 0 -135.5 43t-46.5 121t47 121.5t135 43.5q54 0 98 -28.5t92 -80.5q99 109 187 109q82 0 131.5 -40t49.5 -125q0 -84 -50 -124t-131 -40q-54 0 -98.5 28.5t-91.5 79.5q-48 -51 -91.5 -79.5t-95.5 -28.5zM248 257q34 0 66 22t71 64q-39 44 -70.5 66.5
t-66.5 22.5q-50 0 -77.5 -22.5t-27.5 -65.5q0 -87 105 -87zM622 432q-34 0 -66 -22.5t-71 -64.5q38 -42 70 -65t67 -23q103 0 103 87q0 88 -103 88z" />
    <glyph glyph-name="integral" unicode="&#x222b;" horiz-adv-x="400" 
d="M-11 -166v81h54q52 0 71.5 25t19.5 73v593q0 88 39 134t138 46q55 0 64 -1v-81h-52q-52 0 -72 -25t-20 -72v-594q0 -89 -39 -135t-138 -46q-43 0 -65 2z" />
    <glyph glyph-name="approxequal" unicode="&#x2248;" horiz-adv-x="703" 
d="M163 391l-56 47q76 97 153 97q44 0 100.5 -29t84.5 -29q40 0 94 65l56 -49q-82 -97 -149 -97q-38 0 -95 29t-90 29q-48 0 -98 -63zM163 160l-56 47q76 96 153 96q44 0 100.5 -29.5t84.5 -29.5q40 0 94 66l56 -48q-82 -99 -149 -99q-38 0 -95 29.5t-90 29.5q-49 0 -98 -62
z" />
    <glyph glyph-name="notequal" unicode="&#x2260;" horiz-adv-x="703" 
d="M186 84l52 111h-129v89h170l64 137h-234v88h272l52 112h82l-53 -112h133v-88h-173l-64 -137h237v-89h-274l-51 -111h-84z" />
    <glyph glyph-name="lessequal" unicode="&#x2264;" horiz-adv-x="703" 
d="M106 14v88h449l-449 218v70l451 218v-92l-351 -163l351 -162v-177h-451z" />
    <glyph glyph-name="greaterequal" unicode="&#x2265;" horiz-adv-x="703" 
d="M146 14v177l351 162l-351 163v92l450 -218v-70l-448 -218h448v-88h-450z" />
    <glyph glyph-name="lozenge" unicode="&#x25ca;" horiz-adv-x="631" 
d="M265 0l-226 371l227 370h95l228 -370l-228 -371h-96zM314 79l176 289l-178 294l-176 -291z" />
    <glyph glyph-name="apple" unicode="&#xf8ff;" horiz-adv-x="832" 
d="M172 654l-7 8q107 97 251 97t252 -97l-7 -8q-105 95 -245 95q-139 0 -244 -95zM416 -17q-144 0 -252 97l7 8q105 -95 245 -95q139 0 244 94l2 -1l4 -4l1 -2q-107 -97 -251 -97zM706 120q-3 3 -8 7q88 106 88 244t-88 244l8 7q90 -108 90 -251q0 -142 -90 -251zM126 120
q-90 108 -90 251q0 142 90 250q3 -2 7 -6q-87 -106 -87 -244t88 -244zM416 60q-116 0 -201 77l7 7q84 -74 194 -74q111 0 193 74l7 -8q-86 -76 -200 -76zM610 597q-81 75 -194 75q-110 0 -194 -74l-7 7q87 77 201 77t201 -77zM183 170q-72 88 -72 201t71 200l8 -7
q-69 -83 -69 -193q0 -111 69 -194zM649 171l-7 6q69 85 69 194q0 110 -70 193l8 7q72 -86 72 -200t-72 -200zM416 121q-92 0 -161 61l7 8q65 -59 154 -59t153 59l7 -8q-67 -61 -160 -61zM604 211q-3 2 -8 7q55 66 55 153q0 89 -55 153l8 7q57 -68 57 -160t-57 -160zM570 552
q-65 59 -154 59q-87 0 -153 -58l-7 7q69 61 160 61q92 0 161 -61zM228 211q-57 70 -57 160t56 160l8 -7q-54 -67 -54 -153q0 -88 54 -153q-1 -1 -2 -2.5t-2.5 -2.5t-2.5 -2zM295 516l-7 8q54 48 128 48t128 -49l-2 -1l-2 -4l-2 -2q-52 46 -122 46t-121 -46zM568 243l-8 7
q43 53 43 121t-43 121l8 7q45 -56 45 -128t-45 -128zM264 243q-45 56 -45 128t45 128l8 -7q-43 -53 -43 -121t43 -121zM416 170q-72 0 -129 49l7 7q52 -46 122 -46t121 46l7 -8q-54 -48 -128 -48zM540 269l-8 7q33 43 33 95q0 53 -34 95l8 7q36 -44 36 -102q0 -57 -35 -102z
M416 209q-57 0 -103 38l7 8q43 -36 96 -36t96 36l6 -8q-45 -38 -102 -38zM292 269q-35 45 -35 102q0 58 36 102l7 -7q-33 -43 -33 -95t33 -95zM320 487l-7 8q44 38 103 38q58 0 102 -39l-6 -7q-41 36 -96 36q-53 0 -96 -36zM416 240q-48 0 -83 30l7 8q35 -28 76 -28
q42 0 75 28l7 -7q-36 -31 -82 -31zM316 289q-28 36 -28 82q0 47 28 81l7 -7q-25 -33 -25 -74t26 -75zM516 290l-7 7q25 33 25 74t-26 75l8 7q28 -36 28 -82q0 -47 -28 -81zM341 464l-7 7q36 31 82 31q47 0 82 -30l-7 -8q-33 28 -75 28t-75 -28zM358 445q-3 2 -7 7l-1 1
q29 24 66 24t66 -24l-8 -8q-25 22 -58 22t-58 -22zM416 265q-37 0 -66 24l7 8q25 -22 59 -22q33 0 58 22l7 -8q-29 -24 -65 -24zM334 306q-21 29 -21 65t21 65l8 -7q-19 -25 -19 -58q0 -32 19 -57zM498 306l-8 7q19 25 19 58t-19 58l7 7q22 -28 22 -65q0 -34 -21 -65z
M416 285q-29 0 -53 19l7 8q22 -17 46 -17q25 0 45 17l7 -8q-22 -19 -52 -19zM371 430l-7 8q22 19 52 19t52 -19l-7 -8q-19 17 -45 17t-45 -17zM349 320q-16 22 -16 51t16 51l8 -7q-14 -20 -14 -44t14 -44zM482 319q-3 4 -7 7q14 20 14 45t-14 44l7 7q17 -22 17 -51t-17 -52z
M468 333l-8 7q10 15 10 31t-10 31l8 7q12 -16 12 -38q0 -21 -12 -38zM416 305q-21 0 -40 14l7 7q17 -12 33 -12q17 0 32 12l7 -7q-17 -14 -39 -14zM364 333q-12 17 -12 38t12 38q1 -1 2 -2.5t2.5 -2.5t2.5 -2q-9 -16 -9 -31t9 -31zM384 416l-7 7q17 14 39 14q21 0 38 -14
l-6 -7q-14 12 -32 12q-17 0 -32 -12zM416 324q-15 0 -27 9l6 6q10 -7 21 -7q13 0 21 7q2 -2 5 -6q-10 -9 -26 -9zM395 403l-5 6q10 9 26 9t26 -9l-5 -6q-11 7 -21 7q-13 0 -21 -7zM378 346q-7 12 -7 25t7 25l6 -5q-5 -10 -5 -20t5 -20q-2 -2 -6 -5zM454 346l-6 5q5 10 5 20
t-5 20l6 5q7 -12 7 -25t-7 -25z" />
    <glyph glyph-name="onesuperior" horiz-adv-x="340" 
d="M150 279v394h-89v68h166v-462h-77z" />
    <glyph glyph-name="twosuperior" horiz-adv-x="460" 
d="M63 279v57l147 139q59 56 76 81t17 62q0 33 -20.5 48.5t-69.5 15.5q-70 0 -120 -27l-34 59q66 34 163 34q80 0 118.5 -29t38.5 -93q0 -52 -23 -87t-88 -98l-102 -98h218v-64h-321z" />
    <glyph glyph-name="a.alt" horiz-adv-x="651" 
d="M284 -9q-131 0 -185 75.5t-54 214.5q0 138 54.5 212.5t187.5 74.5q86 0 134 -16t71 -51l19 62l68 -6v-553l-76 -7l-10 65q-27 -38 -74.5 -54.5t-134.5 -16.5zM305 79q96 0 136 46t40 156q0 109 -39 152.5t-137 43.5q-91 0 -126 -49t-35 -147q0 -100 35 -151t126 -51z" />
    <glyph glyph-name="g.alt" horiz-adv-x="656" 
d="M314 -179q-139 0 -235 37l31 84q93 -35 193 -35q62 0 99.5 8.5t55.5 29.5t23 43t5 62v17q-32 -38 -78 -52.5t-125 -14.5q-238 0 -238 284q0 137 55 211t187 74q86 0 135 -16t75 -51l19 61l68 -6v-483q0 -44 -2.5 -73.5t-11.5 -61t-27 -51t-47.5 -36t-74.5 -24t-107 -7.5z
M305 88q97 0 139 44.5t42 150.5q0 107 -41 150.5t-140 43.5q-90 0 -125.5 -49t-35.5 -145t35 -145.5t126 -49.5z" />
    <glyph glyph-name="l.alt" horiz-adv-x="252" 
d="M78 0v776h96v-776h-96z" />
    <glyph glyph-name="u.alt" horiz-adv-x="631" 
d="M271 -11q-63 0 -104 16t-62 49t-28.5 72t-7.5 96v334h97v-318q0 -40 4 -65t17 -48.5t41 -34.5t72 -11q50 0 82.5 12.5t49 37t22.5 52t6 67.5v308h97v-552l-74 -7l-11 61q-50 -69 -201 -69z" />
    <glyph glyph-name="aacute.alt" horiz-adv-x="651" 
d="M239 613l148 164h119l-177 -164h-90zM284 -9q-131 0 -185 75.5t-54 214.5q0 138 54.5 212.5t187.5 74.5q86 0 134 -16t71 -51l19 62l68 -6v-553l-76 -7l-10 65q-27 -38 -74.5 -54.5t-134.5 -16.5zM305 79q96 0 136 46t40 156q0 109 -39 152.5t-137 43.5q-91 0 -126 -49
t-35 -147q0 -100 35 -151t126 -51z" />
    <glyph glyph-name="abreve.alt" horiz-adv-x="651" 
d="M284 -9q-131 0 -185 75.5t-54 214.5q0 138 54.5 212.5t187.5 74.5q86 0 134 -16t71 -51l19 62l68 -6v-553l-76 -7l-10 65q-27 -38 -74.5 -54.5t-134.5 -16.5zM305 79q96 0 136 46t40 156q0 109 -39 152.5t-137 43.5q-91 0 -126 -49t-35 -147q0 -100 35 -151t126 -51z
M323 602q-94 0 -136.5 42t-57.5 120l72 15q11 -49 37 -73t85 -24t85 24t37 73l73 -14q-17 -79 -59.5 -121t-135.5 -42z" />
    <glyph glyph-name="acircumflex.alt" horiz-adv-x="651" 
d="M117 613l153 164h105l153 -164h-94l-113 101l-111 -101h-93zM284 -9q-131 0 -185 75.5t-54 214.5q0 138 54.5 212.5t187.5 74.5q86 0 134 -16t71 -51l19 62l68 -6v-553l-76 -7l-10 65q-27 -38 -74.5 -54.5t-134.5 -16.5zM305 79q96 0 136 46t40 156q0 109 -39 152.5
t-137 43.5q-91 0 -126 -49t-35 -147q0 -100 35 -151t126 -51z" />
    <glyph glyph-name="adieresis.alt" horiz-adv-x="651" 
d="M171 616v112h89v-112h-89zM387 616v112h88v-112h-88zM284 -9q-131 0 -185 75.5t-54 214.5q0 138 54.5 212.5t187.5 74.5q86 0 134 -16t71 -51l19 62l68 -6v-553l-76 -7l-10 65q-27 -38 -74.5 -54.5t-134.5 -16.5zM305 79q96 0 136 46t40 156q0 109 -39 152.5t-137 43.5
q-91 0 -126 -49t-35 -147q0 -100 35 -151t126 -51z" />
    <glyph glyph-name="agrave.alt" horiz-adv-x="651" 
d="M284 -9q-131 0 -185 75.5t-54 214.5q0 138 54.5 212.5t187.5 74.5q86 0 134 -16t71 -51l19 62l68 -6v-553l-76 -7l-10 65q-27 -38 -74.5 -54.5t-134.5 -16.5zM305 79q96 0 136 46t40 156q0 109 -39 152.5t-137 43.5q-91 0 -126 -49t-35 -147q0 -100 35 -151t126 -51z
M317 613l-177 164h119l148 -164h-90z" />
    <glyph glyph-name="amacron.alt" horiz-adv-x="651" 
d="M284 -9q-131 0 -185 75.5t-54 214.5q0 138 54.5 212.5t187.5 74.5q86 0 134 -16t71 -51l19 62l68 -6v-553l-76 -7l-10 65q-27 -38 -74.5 -54.5t-134.5 -16.5zM305 79q96 0 136 46t40 156q0 109 -39 152.5t-137 43.5q-91 0 -126 -49t-35 -147q0 -100 35 -151t126 -51z
M135 607v83h376v-83h-376z" />
    <glyph glyph-name="aogonek.alt" horiz-adv-x="651" 
d="M284 -9q-131 0 -185 75.5t-54 214.5q0 138 54.5 212.5t187.5 74.5q86 0 134 -16t71 -51l19 62l68 -6v-553q-99 -58 -99 -111q0 -22 12.5 -34.5t46.5 -12.5q38 0 76 14l24 -59q-48 -23 -112 -23q-128 0 -128 100q0 43 29.5 79t71.5 59l-7 46q-27 -38 -74.5 -54.5
t-134.5 -16.5zM305 79q96 0 136 46t40 156q0 109 -39 152.5t-137 43.5q-91 0 -126 -49t-35 -147q0 -100 35 -151t126 -51z" />
    <glyph glyph-name="aring.alt" horiz-adv-x="651" 
d="M323 601q-64 0 -95 35.5t-31 93.5q0 59 31 95t95 36q61 0 93 -36.5t32 -94.5t-32 -93.5t-93 -35.5zM323 655q36 0 53.5 20.5t17.5 54.5t-17.5 54.5t-53.5 20.5q-72 0 -72 -75t72 -75zM284 -9q-131 0 -185 75.5t-54 214.5q0 138 54.5 212.5t187.5 74.5q86 0 134 -16
t71 -51l19 62l68 -6v-553l-76 -7l-10 65q-27 -38 -74.5 -54.5t-134.5 -16.5zM305 79q96 0 136 46t40 156q0 109 -39 152.5t-137 43.5q-91 0 -126 -49t-35 -147q0 -100 35 -151t126 -51z" />
    <glyph glyph-name="atilde.alt" horiz-adv-x="651" 
d="M284 -9q-131 0 -185 75.5t-54 214.5q0 138 54.5 212.5t187.5 74.5q86 0 134 -16t71 -51l19 62l68 -6v-553l-76 -7l-10 65q-27 -38 -74.5 -54.5t-134.5 -16.5zM305 79q96 0 136 46t40 156q0 109 -39 152.5t-137 43.5q-91 0 -126 -49t-35 -147q0 -100 35 -151t126 -51z
M178 615l-60 47q67 83 134 83q37 0 77 -25t62 -25q32 0 80 55l57 -46q-72 -90 -135 -90q-33 0 -75 25t-64 25q-38 0 -76 -49z" />
    <glyph glyph-name="gbreve.alt" horiz-adv-x="656" 
d="M314 -179q-139 0 -235 37l31 84q93 -35 193 -35q62 0 99.5 8.5t55.5 29.5t23 43t5 62v17q-32 -38 -78 -52.5t-125 -14.5q-238 0 -238 284q0 137 55 211t187 74q86 0 135 -16t75 -51l19 61l68 -6v-483q0 -44 -2.5 -73.5t-11.5 -61t-27 -51t-47.5 -36t-74.5 -24t-107 -7.5z
M305 88q97 0 139 44.5t42 150.5q0 107 -41 150.5t-140 43.5q-90 0 -125.5 -49t-35.5 -145t35 -145.5t126 -49.5zM328 602q-94 0 -136.5 42t-57.5 120l72 15q11 -49 37 -73t85 -24t85 24t37 73l73 -14q-17 -79 -59.5 -121t-135.5 -42z" />
    <glyph glyph-name="gcommaaccent.alt" horiz-adv-x="656" 
d="M272 612v74q0 63 17 91.5t72 54.5l23 -44q-35 -17 -45.5 -31.5t-10.5 -42.5h53v-102h-109zM314 -179q-139 0 -235 37l31 84q93 -35 193 -35q62 0 99.5 8.5t55.5 29.5t23 43t5 62v17q-32 -38 -78 -52.5t-125 -14.5q-238 0 -238 284q0 137 55 211t187 74q86 0 135 -16
t75 -51l19 61l68 -6v-483q0 -44 -2.5 -73.5t-11.5 -61t-27 -51t-47.5 -36t-74.5 -24t-107 -7.5zM305 88q97 0 139 44.5t42 150.5q0 107 -41 150.5t-140 43.5q-90 0 -125.5 -49t-35.5 -145t35 -145.5t126 -49.5z" />
    <glyph glyph-name="lacute.alt" horiz-adv-x="252" 
d="M80 812l148 164h119l-177 -164h-90zM78 0v776h96v-776h-96z" />
    <glyph glyph-name="lcommaaccent.alt" horiz-adv-x="252" 
d="M93 -267l-24 44q34 17 45 31.5t11 41.5h-53v111h109v-83q0 -62 -17 -90.5t-71 -54.5zM78 0v776h96v-776h-96z" />
    <glyph glyph-name="lslash.alt" horiz-adv-x="292" 
d="M0 368v87l98 57v264h96v-208l97 57v-87l-97 -57v-481h-96v425z" />
    <glyph glyph-name="lcaron.alt" horiz-adv-x="364" 
d="M272 548l-23 44q34 18 45 32t11 41h-49v111h105v-82q0 -63 -17 -91.5t-72 -54.5zM78 0v776h96v-776h-96z" />
    <glyph glyph-name="uacute.alt" horiz-adv-x="631" 
d="M229 613l148 164h119l-177 -164h-90zM271 -11q-63 0 -104 16t-62 49t-28.5 72t-7.5 96v334h97v-318q0 -40 4 -65t17 -48.5t41 -34.5t72 -11q50 0 82.5 12.5t49 37t22.5 52t6 67.5v308h97v-552l-74 -7l-11 61q-50 -69 -201 -69z" />
    <glyph glyph-name="ucircumflex.alt" horiz-adv-x="631" 
d="M107 613l153 164h105l153 -164h-94l-113 101l-111 -101h-93zM271 -11q-63 0 -104 16t-62 49t-28.5 72t-7.5 96v334h97v-318q0 -40 4 -65t17 -48.5t41 -34.5t72 -11q50 0 82.5 12.5t49 37t22.5 52t6 67.5v308h97v-552l-74 -7l-11 61q-50 -69 -201 -69z" />
    <glyph glyph-name="udieresis.alt" horiz-adv-x="631" 
d="M161 616v112h89v-112h-89zM377 616v112h88v-112h-88zM271 -11q-63 0 -104 16t-62 49t-28.5 72t-7.5 96v334h97v-318q0 -40 4 -65t17 -48.5t41 -34.5t72 -11q50 0 82.5 12.5t49 37t22.5 52t6 67.5v308h97v-552l-74 -7l-11 61q-50 -69 -201 -69z" />
    <glyph glyph-name="ugrave.alt" horiz-adv-x="631" 
d="M307 613l-177 164h119l148 -164h-90zM271 -11q-63 0 -104 16t-62 49t-28.5 72t-7.5 96v334h97v-318q0 -40 4 -65t17 -48.5t41 -34.5t72 -11q50 0 82.5 12.5t49 37t22.5 52t6 67.5v308h97v-552l-74 -7l-11 61q-50 -69 -201 -69z" />
    <glyph glyph-name="uhungarumlaut.alt" horiz-adv-x="631" 
d="M114 613l126 162h114l-156 -162h-84zM352 613l126 162h113l-154 -162h-85zM271 -11q-63 0 -104 16t-62 49t-28.5 72t-7.5 96v334h97v-318q0 -40 4 -65t17 -48.5t41 -34.5t72 -11q50 0 82.5 12.5t49 37t22.5 52t6 67.5v308h97v-552l-74 -7l-11 61q-50 -69 -201 -69z" />
    <glyph glyph-name="umacron.alt" horiz-adv-x="631" 
d="M125 607v83h376v-83h-376zM271 -11q-63 0 -104 16t-62 49t-28.5 72t-7.5 96v334h97v-318q0 -40 4 -65t17 -48.5t41 -34.5t72 -11q50 0 82.5 12.5t49 37t22.5 52t6 67.5v308h97v-552l-74 -7l-11 61q-50 -69 -201 -69z" />
    <glyph glyph-name="uogonek.alt" horiz-adv-x="631" 
d="M271 -11q-63 0 -104 16t-62 49t-28.5 72t-7.5 96v334h97v-318q0 -40 4 -65t17 -48.5t41 -34.5t72 -11q50 0 82.5 12.5t49 37t22.5 52t6 67.5v308h97v-552q-98 -58 -98 -111q0 -22 12 -34.5t47 -12.5q38 0 76 14l23 -59q-48 -23 -111 -23q-70 0 -98.5 26.5t-28.5 73.5
q0 44 29 80t71 58l-7 42q-50 -69 -201 -69z" />
    <glyph glyph-name="uring.alt" horiz-adv-x="631" 
d="M313 601q-64 0 -95 35.5t-31 93.5q0 59 31 95t95 36q61 0 93 -36.5t32 -94.5t-32 -93.5t-93 -35.5zM313 655q36 0 53.5 20.5t17.5 54.5t-17.5 54.5t-53.5 20.5q-72 0 -72 -75t72 -75zM271 -11q-63 0 -104 16t-62 49t-28.5 72t-7.5 96v334h97v-318q0 -40 4 -65t17 -48.5
t41 -34.5t72 -11q50 0 82.5 12.5t49 37t22.5 52t6 67.5v308h97v-552l-74 -7l-11 61q-50 -69 -201 -69z" />
    <glyph glyph-name="fl.alt" horiz-adv-x="638" 
d="M29 468v88h105v39q0 89 39 135t138 46h64v-85h-52q-52 0 -72 -25t-20 -71v-39h144v-88h-144v-468h-97v468h-105zM463 0v776h97v-776h-97z" />
    <glyph glyph-name="f_f_l.alt" horiz-adv-x="966" 
d="M463 0v468h-232v-468h-97v468h-105v88h105v39q0 89 39 135t138 46h64v-85h-52q-52 0 -72 -25t-20 -71v-39h232v39q0 89 39 135t138 46h65v-85h-53q-52 0 -72 -25t-20 -71v-39h145v-88h-145v-468h-97zM792 0v776h96v-776h-96z" />
    <glyph glyph-name="commaaccent.2" horiz-adv-x="253" 
d="M72 612v74q0 63 17 91.5t72 54.5l23 -44q-35 -17 -45.5 -31.5t-10.5 -42.5h53v-102h-109z" />
    <glyph glyph-name="space.lftab" horiz-adv-x="375" 
 />
    <glyph glyph-name="comma.lftab" horiz-adv-x="375" 
d="M149 -128l-26 49q38 20 50 35t12 44h-59v127h122v-94q0 -69 -19 -100.5t-80 -60.5z" />
    <glyph glyph-name="period.lftab" horiz-adv-x="375" 
d="M126 0v127h122v-127h-122z" />
    <glyph glyph-name="minus.lftab" 
d="M126 306v93h497v-93h-497z" />
    <glyph glyph-name="multiply.lftab" 
d="M217 135l-59 61l156 156l-156 156l60 63l157 -157l155 157l60 -63l-156 -156l156 -155l-60 -62l-155 156z" />
    <glyph glyph-name="quotedbl.lftab" 
d="M224 438l-7 303h100l-6 -303h-87zM439 438l-7 303h101l-7 -303h-87z" />
    <glyph glyph-name="numbersign.lftab" 
d="M138 0l41 209h-118v89h134l26 136h-160v90h177l43 217h93l-43 -217h145l42 217h93l-41 -217h119v-90h-136l-27 -136h163v-89h-179l-41 -209h-93l40 209h-144l-40 -209h-94zM281 293h157l29 147h-157z" />
    <glyph glyph-name="dollar.lftab" 
d="M334 -94v95q-142 7 -237 73l46 72q90 -58 195 -63v264q-49 10 -81 21t-64 32t-48 56.5t-16 85.5q0 95 50 142.5t155 55.5v68h89v-68q111 -9 182 -54l-46 -76q-51 34 -139 42v-232q42 -8 70 -16t59.5 -23.5t50 -36t31 -53t12.5 -74.5q0 -198 -220 -215v-96h-89zM550 210
q0 54 -30.5 79.5t-99.5 41.5v-247q68 7 99 38.5t31 87.5zM223 546q0 -47 27.5 -70.5t87.5 -38.5v216q-63 -6 -89 -32t-26 -75z" />
    <glyph glyph-name="percent.lftab" horiz-adv-x="1160" 
d="M268 277q-101 0 -147.5 60t-46.5 177q0 116 46.5 176t147.5 60q197 0 197 -236q0 -237 -197 -237zM268 348q62 0 87 41t25 122t-25 122.5t-87 41.5q-60 0 -84.5 -41.5t-24.5 -122.5t24.5 -122t84.5 -41zM891 -9q-102 0 -149 60t-47 177q0 237 196 237q195 0 195 -237
t-195 -237zM891 63q61 0 86 41t25 121t-25 121.5t-86 41.5t-86 -41.5t-25 -121.5t25 -121t86 -41zM342 0l387 741h89l-387 -741h-89z" />
    <glyph glyph-name="quotesingle.lftab" 
d="M331 438l-7 304h100l-6 -304h-87z" />
    <glyph glyph-name="plus.lftab" 
d="M326 107v199h-200v93h200v199h96v-199h201v-93h-201v-199h-96z" />
    </font>
</defs>
</svg>
